<svg width="24" height="25" viewBox="0 0 24 25" fill="none" xmlns="http://www.w3.org/2000/svg">
<path d="M8.82656 1.97031C8.72813 2.02187 7.80469 3.14219 5.92969 5.48125L3.17813 8.92187H1.87031C0.646875 8.92187 0.548438 8.92656 0.375 9.01562C0.253125 9.07656 0.154688 9.175 0.09375 9.29687C0.0046875 9.47031 0 9.56875 0 11.0312C0 12.4937 0.0046875 12.5922 0.09375 12.7656C0.24375 13.0609 0.454688 13.1406 1.06875 13.1406H1.57969L2.90625 17.7906C3.6375 20.35 4.275 22.525 4.32188 22.6187C4.37813 22.7312 4.47656 22.8297 4.59375 22.8906C4.77656 22.9844 4.85625 22.9844 12 22.9844C19.1438 22.9844 19.2234 22.9844 19.4062 22.8906C19.5234 22.8297 19.6219 22.7312 19.6781 22.6187C19.725 22.525 20.3625 20.35 21.0938 17.7906L22.4203 13.1406H22.9313C23.5453 13.1406 23.7563 13.0609 23.9062 12.7656C23.9953 12.5922 24 12.4937 24 11.0312C24 9.56875 23.9953 9.47031 23.9062 9.29687C23.8453 9.175 23.7469 9.07656 23.625 9.01562C23.4516 8.92656 23.3531 8.92187 22.1297 8.92187H20.8219L18.0703 5.48125C16.0078 2.90312 15.2813 2.02656 15.1594 1.96562C14.5734 1.68906 13.9359 2.31719 14.2313 2.88437C14.2734 2.96406 15.3563 4.34219 16.6453 5.95C17.9297 7.55781 18.9844 8.88437 18.9844 8.89844C18.9844 8.9125 15.8438 8.92187 12 8.92187C8.15625 8.92187 5.01562 8.9125 5.01562 8.89844C5.01562 8.88437 6.07031 7.55781 7.35469 5.95C8.64375 4.34219 9.72656 2.96406 9.76875 2.88437C10.0641 2.3125 9.40781 1.67969 8.82656 1.97031ZM22.5938 11.0312V11.7344H12H1.40625V11.0312V10.3281H12H22.5938V11.0312ZM20.9344 13.2203C20.9203 13.2672 20.3813 15.1656 19.7297 17.4391L18.5484 21.5781H12H5.45156L4.27031 17.4391C3.61875 15.1656 3.07969 13.2672 3.06563 13.2203C3.04219 13.1453 3.4875 13.1406 12 13.1406C20.5125 13.1406 20.9578 13.1453 20.9344 13.2203Z" fill="white"/>
<path d="M7.125 14.6272C6.89531 14.7444 6.75 14.9834 6.75 15.2366C6.75 15.5928 7.44844 19.6662 7.5375 19.8162C7.88906 20.4162 8.8125 20.1772 8.8125 19.4834C8.8125 19.1272 8.11406 15.0537 8.025 14.9037C7.84219 14.5897 7.43906 14.4631 7.125 14.6272Z" fill="white"/>
<path d="M11.6625 14.6453C11.5547 14.7016 11.4469 14.8094 11.3906 14.9219C11.3016 15.1 11.2969 15.1938 11.2969 17.3594C11.2969 19.525 11.3016 19.6188 11.3906 19.7969C11.4984 20.0078 11.7656 20.1719 12 20.1719C12.2344 20.1719 12.5016 20.0078 12.6094 19.7969C12.6984 19.6188 12.7031 19.525 12.7031 17.3594C12.7031 15.1938 12.6984 15.1 12.6094 14.9219C12.4359 14.5797 12.0141 14.4578 11.6625 14.6453Z" fill="white"/>
<path d="M16.3594 14.5991C16.2094 14.66 16.0828 14.7772 16.0031 14.9319C15.9281 15.0772 15.2344 19.1834 15.2344 19.4834C15.2344 20.1772 16.1578 20.4162 16.5094 19.8162C16.5984 19.6662 17.2969 15.5928 17.2969 15.2366C17.2969 14.7584 16.8 14.4256 16.3594 14.5991Z" fill="white"/>
</svg>
