<svg width="20" height="21" viewBox="0 0 20 21" fill="none" xmlns="http://www.w3.org/2000/svg">
<g clip-path="url(#clip0_2573_21163)">
<path d="M17.1083 3.69882C15.0763 1.99022 11.9368 2.24686 9.99268 4.22616C8.04854 2.24686 4.90909 1.98671 2.87705 3.69882C0.233305 5.92421 0.620024 9.55233 2.5044 11.4754L8.6708 17.7578C9.02237 18.1164 9.49346 18.3168 9.99268 18.3168C10.4954 18.3168 10.963 18.1199 11.3146 17.7613L17.481 11.4789C19.3618 9.55585 19.7556 5.92772 17.1083 3.69882ZM16.2786 10.2906L10.1122 16.573C10.0278 16.6574 9.95752 16.6574 9.87315 16.573L3.70674 10.2906C2.42354 8.9828 2.16338 6.5078 3.96338 4.99257C5.33096 3.84296 7.44034 4.01522 8.76221 5.36171L9.99268 6.61679L11.2231 5.36171C12.5521 4.00819 14.6614 3.84296 16.022 4.98905C17.8185 6.50429 17.5513 8.99335 16.2786 10.2906Z" fill="#222222"/>
</g>
<defs>
<clipPath id="clip0_2573_21163">
<rect width="18" height="18" fill="white" transform="translate(0.992676 1.4375)"/>
</clipPath>
</defs>
</svg>
