<svg width="33" height="33" viewBox="0 0 33 33" fill="none" xmlns="http://www.w3.org/2000/svg">
<path d="M19.9118 19.8333H14.204C12.9248 19.8333 12.2852 19.8333 11.7842 19.503C11.2833 19.1727 11.0313 18.5848 10.5274 17.409L9.35859 14.6818C8.54909 12.7929 8.14435 11.8485 8.58895 11.1743C9.03356 10.5 10.061 10.5 12.116 10.5H22.3969C24.6959 10.5 25.8454 10.5 26.279 11.2471C26.7126 11.9942 26.1422 12.9923 25.0016 14.9884L23.3848 17.8179C22.8228 18.8013 22.5419 19.293 22.0763 19.5632C21.6107 19.8333 21.0444 19.8333 19.9118 19.8333Z" stroke="white" stroke-width="1.5" stroke-linecap="round"/>
<path d="M4.90234 6.5H7.46083C8.15655 6.5 8.50441 6.5 8.76629 6.68876C9.02818 6.87752 9.13819 7.20753 9.35819 7.86754L10.2357 10.5" stroke="white" stroke-width="1.5" stroke-linecap="round"/>
<path d="M23.569 23.8334H10.9702C10.3591 23.8334 10.0535 23.8334 9.84216 23.7276C9.549 23.5809 9.34639 23.2998 9.29988 22.9752C9.26636 22.7413 9.363 22.4514 9.55626 21.8716V21.8716C9.77039 21.2292 9.87745 20.9081 10.0588 20.6583C10.3103 20.312 10.6661 20.0555 11.0741 19.9265C11.3685 19.8334 11.707 19.8334 12.3842 19.8334H19.569" stroke="white" stroke-width="1.5" stroke-linecap="round" stroke-linejoin="round"/>
<circle cx="22.8997" cy="27.1667" r="1.33333" fill="white"/>
<circle cx="12.2357" cy="27.1667" r="1.33333" fill="white"/>
</svg>
