<svg width="29" height="30" viewBox="0 0 29 30" fill="none" xmlns="http://www.w3.org/2000/svg">
<path d="M13.4119 5.37184H6.54068C4.26377 5.37184 2.41797 7.21758 2.41797 9.49442V23.2365C2.41797 25.5133 4.26377 27.359 6.54068 27.359H20.283C22.5599 27.359 24.4057 25.5133 24.4057 23.2365L24.4057 16.3654M9.28915 20.488L14.2891 19.4805C14.5545 19.4271 14.7982 19.2964 14.9896 19.1049L26.1824 7.90629C26.719 7.36938 26.7187 6.49907 26.1816 5.9626L23.8105 3.59432C23.2737 3.05808 22.4038 3.05845 21.8674 3.59514L10.6734 14.7949C10.4824 14.986 10.3519 15.2292 10.2984 15.4941L9.28915 20.488Z" stroke="#919191" stroke-width="1.5" stroke-linecap="round" stroke-linejoin="round"/>
</svg>
