<svg width="36" height="37" viewBox="0 0 36 37" fill="none" xmlns="http://www.w3.org/2000/svg">
<mask id="mask0_991_59415" style="mask-type:alpha" maskUnits="userSpaceOnUse" x="0" y="0" width="36" height="37">
<rect y="0.5" width="36" height="36" fill="#D9D9D9"/>
</mask>
<g mask="url(#mask0_991_59415)">
<path d="M18 26C18.425 26 18.7813 25.8563 19.0688 25.5688C19.3563 25.2813 19.5 24.925 19.5 24.5C19.5 24.075 19.3563 23.7188 19.0688 23.4313C18.7813 23.1438 18.425 23 18 23C17.575 23 17.2188 23.1438 16.9313 23.4313C16.6438 23.7188 16.5 24.075 16.5 24.5C16.5 24.925 16.6438 25.2813 16.9313 25.5688C17.2188 25.8563 17.575 26 18 26ZM16.5 20H19.5V11H16.5V20ZM18 33.5C15.925 33.5 13.975 33.1063 12.15 32.3188C10.325 31.5313 8.7375 30.4625 7.3875 29.1125C6.0375 27.7625 4.96875 26.175 4.18125 24.35C3.39375 22.525 3 20.575 3 18.5C3 16.425 3.39375 14.475 4.18125 12.65C4.96875 10.825 6.0375 9.2375 7.3875 7.8875C8.7375 6.5375 10.325 5.46875 12.15 4.68125C13.975 3.89375 15.925 3.5 18 3.5C20.075 3.5 22.025 3.89375 23.85 4.68125C25.675 5.46875 27.2625 6.5375 28.6125 7.8875C29.9625 9.2375 31.0313 10.825 31.8188 12.65C32.6063 14.475 33 16.425 33 18.5C33 20.575 32.6063 22.525 31.8188 24.35C31.0313 26.175 29.9625 27.7625 28.6125 29.1125C27.2625 30.4625 25.675 31.5313 23.85 32.3188C22.025 33.1063 20.075 33.5 18 33.5ZM18 30.5C21.35 30.5 24.1875 29.3375 26.5125 27.0125C28.8375 24.6875 30 21.85 30 18.5C30 15.15 28.8375 12.3125 26.5125 9.9875C24.1875 7.6625 21.35 6.5 18 6.5C14.65 6.5 11.8125 7.6625 9.4875 9.9875C7.1625 12.3125 6 15.15 6 18.5C6 21.85 7.1625 24.6875 9.4875 27.0125C11.8125 29.3375 14.65 30.5 18 30.5Z" fill="#D76B00"/>
</g>
</svg>
