<svg id="Layer_1" data-name="Layer 1" xmlns="http://www.w3.org/2000/svg" viewBox="0 0 25.17 23.09"><defs><style>.cls-1{fill:#a60014;}</style></defs><g id="favorite"><path id="icon" class="cls-1" d="M15.5,27.05l-1.82-1.64q-3.18-2.86-5.26-4.94a36.17,36.17,0,0,1-3.3-3.71,12.3,12.3,0,0,1-1.73-3.05,8.62,8.62,0,0,1-.47-2.83A6.78,6.78,0,0,1,9.84,4a7.25,7.25,0,0,1,3.11.7A7.37,7.37,0,0,1,15.5,6.6a7.37,7.37,0,0,1,2.55-1.95A7.25,7.25,0,0,1,21.16,4a6.78,6.78,0,0,1,6.92,6.93,8.16,8.16,0,0,1-.5,2.83,11.49,11.49,0,0,1-1.7,3.05,36.17,36.17,0,0,1-3.3,3.71q-2.08,2.07-5.26,4.94Zm0-3.4q3-2.71,5-4.63a42.27,42.27,0,0,0,3.08-3.36,11.25,11.25,0,0,0,1.58-2.55,6.23,6.23,0,0,0,.44-2.23,4.31,4.31,0,0,0-4.41-4.41,4.74,4.74,0,0,0-2.73.85A4.2,4.2,0,0,0,16.7,9.43H14.3a4.2,4.2,0,0,0-1.73-2.11,4.74,4.74,0,0,0-2.73-.85,4.31,4.31,0,0,0-4.41,4.41,6.23,6.23,0,0,0,.44,2.23,11.25,11.25,0,0,0,1.58,2.55A42.27,42.27,0,0,0,10.53,19Q12.48,20.94,15.5,23.65Z" transform="translate(-2.92 -3.95)"/></g><path class="cls-1" d="M15.57,25.26c-3.48,0-5.87-3.53-8.67-7.72C5,14.69,3.41,12.24,4.16,9.48A6.36,6.36,0,0,1,7.78,5.37c.28-.11,2.71-1,4.56.2C14,6.64,14.08,8.64,15.05,8.63c.6,0,.8-.76,1.53-1.56a6.66,6.66,0,0,1,7.28-1.5,5.76,5.76,0,0,1,2.7,3.19c1.1,3.17-1,6.36-2.64,8.94C21.39,21.61,19,25.22,15.57,25.26Z" transform="translate(-2.92 -3.95)"/></svg>