<svg width="26" height="26" viewBox="0 0 26 26" fill="none" xmlns="http://www.w3.org/2000/svg">
<path d="M13.3978 21.4703L13.7413 22.137H13.7413L13.3978 21.4703ZM12.6022 21.4703L12.2587 22.137H12.2587L12.6022 21.4703ZM20.5834 11.9154H19.8334C19.8334 14.378 18.57 16.3861 17.0453 17.9135C15.5216 19.4399 13.8015 20.4185 13.0543 20.8036L13.3978 21.4703L13.7413 22.137C14.5555 21.7175 16.4282 20.655 18.1069 18.9732C19.7847 17.2925 21.3334 14.9254 21.3334 11.9154H20.5834ZM13 4.33203V5.08203C16.774 5.08203 19.8334 8.14142 19.8334 11.9154H20.5834H21.3334C21.3334 7.31299 17.6024 3.58203 13 3.58203V4.33203ZM5.41669 11.9154H6.16669C6.16669 8.14142 9.22607 5.08203 13 5.08203V4.33203V3.58203C8.39765 3.58203 4.66669 7.31299 4.66669 11.9154H5.41669ZM12.6022 21.4703L12.9457 20.8036C12.1985 20.4185 10.4784 19.4399 8.95473 17.9135C7.43007 16.3861 6.16669 14.378 6.16669 11.9154H5.41669H4.66669C4.66669 14.9254 6.21537 17.2925 7.89312 18.9732C9.57185 20.655 11.4445 21.7175 12.2587 22.137L12.6022 21.4703ZM13.3978 21.4703L13.0543 20.8036C13.0166 20.823 12.9834 20.823 12.9457 20.8036L12.6022 21.4703L12.2587 22.137C12.7275 22.3785 13.2726 22.3785 13.7413 22.137L13.3978 21.4703ZM16.25 11.9154H15.5C15.5 13.2961 14.3807 14.4154 13 14.4154V15.1654V15.9154C15.2092 15.9154 17 14.1245 17 11.9154H16.25ZM13 8.66536V9.41536C14.3807 9.41536 15.5 10.5347 15.5 11.9154H16.25H17C17 9.70623 15.2092 7.91536 13 7.91536V8.66536ZM9.75002 11.9154H10.5C10.5 10.5347 11.6193 9.41536 13 9.41536V8.66536V7.91536C10.7909 7.91536 9.00002 9.70623 9.00002 11.9154H9.75002ZM13 15.1654V14.4154C11.6193 14.4154 10.5 13.2961 10.5 11.9154H9.75002H9.00002C9.00002 14.1245 10.7909 15.9154 13 15.9154V15.1654Z" fill="#33363F"/>
</svg>
