<svg width="29" height="30" viewBox="0 0 29 30" fill="none" xmlns="http://www.w3.org/2000/svg">
<path d="M15.202 26.8598C14.9971 27.0048 14.7522 27.0827 14.5012 27.0827C14.2501 27.0827 14.0053 27.0048 13.8004 26.8598C13.433 26.5976 4.79949 20.365 4.83453 12.5833C4.83453 7.25338 9.17124 2.91667 14.5012 2.91667C19.8312 2.91667 24.1679 7.25338 24.1679 12.5785C24.2029 20.365 15.5694 26.5976 15.202 26.8598ZM14.5012 5.33333C10.5028 5.33333 7.2512 8.58496 7.2512 12.5882C7.22582 17.9508 12.5534 22.766 14.5012 24.3465C16.4478 22.766 21.7766 17.9508 21.7512 12.5833C21.7512 8.58496 18.4996 5.33333 14.5012 5.33333Z" fill="#221D23"/>
<path d="M15.707 17.4167H13.2904V13.7917H9.66536V11.375H13.2904V7.75H15.707V11.375H19.332V13.7917H15.707V17.4167Z" fill="#221D23"/>
</svg>
