<svg width="32" height="31" viewBox="0 0 32 31" fill="none" xmlns="http://www.w3.org/2000/svg">
<path d="M15.862 16.7917V26.2229C15.862 26.6218 15.862 26.8212 15.9908 26.8926C16.1196 26.964 16.2887 26.8583 16.627 26.6469L25.2553 21.2542C25.7148 20.967 25.9446 20.8234 26.07 20.5972C26.1953 20.371 26.1953 20.1001 26.1953 19.5582V10.3333M15.862 16.7917L26.1953 10.3333M15.862 16.7917L8.24224 12.0293C7.02437 11.2682 6.41544 10.8876 6.41544 10.3333C6.41544 9.77909 7.02437 9.3985 8.24224 8.63734L14.802 4.5375C15.3174 4.21533 15.5752 4.05425 15.862 4.05425C16.1488 4.05425 16.4065 4.21533 16.922 4.5375L26.1953 10.3333" stroke="#221D23" stroke-linejoin="round"/>
<path d="M6.02864 15.4998C6.02864 15.776 5.80479 15.9998 5.52864 15.9998C5.2525 15.9998 5.02864 15.776 5.02864 15.4998H6.02864ZM6.46865 9.74567L6.73365 10.1697L6.46865 9.74567ZM5.654 10.4026L5.21668 10.1603L5.654 10.4026ZM6.02864 11.4417V15.4998H5.02864V11.4417H6.02864ZM6.20365 9.32167L10.4303 6.68L10.9603 7.528L6.73365 10.1697L6.20365 9.32167ZM5.02864 11.4417C5.02864 11.1801 5.02812 10.9491 5.04659 10.7561C5.06607 10.5525 5.10917 10.3542 5.21668 10.1603L6.09132 10.645C6.07348 10.6772 6.0539 10.7275 6.04204 10.8514C6.02917 10.9859 6.02864 11.1613 6.02864 11.4417H5.02864ZM6.73365 10.1697C6.49591 10.3183 6.34742 10.4117 6.2402 10.4939C6.14143 10.5696 6.10917 10.6128 6.09132 10.645L5.21668 10.1603C5.32419 9.96629 5.46949 9.82465 5.63183 9.70022C5.78571 9.58226 5.98186 9.46029 6.20365 9.32167L6.73365 10.1697Z" fill="#221D23"/>
<ellipse cx="3.22917" cy="3.22917" rx="3.22917" ry="3.22917" transform="matrix(-1 0 0 1 11.9883 18.0835)" stroke="#221D23"/>
<path d="M4.23828 25.8335L6.17578 23.896" stroke="#221D23" stroke-linecap="round"/>
<path d="M13.0162 25.9346C12.7821 25.7882 12.7109 25.4797 12.8572 25.2456C13.0036 25.0114 13.3121 24.9402 13.5462 25.0866L13.0162 25.9346ZM14.5729 26.3179L14.8379 25.8939L14.5729 26.3179ZM15.8646 26.9459V27.4459V26.9459ZM16.6596 26.0387L20.7663 23.472L21.2962 24.32L17.1896 26.8867L16.6596 26.0387ZM14.8379 25.8939L15.0696 26.0387L14.5396 26.8867L14.3079 26.7419L14.8379 25.8939ZM13.5462 25.0866L14.1921 25.4902L13.6621 26.3382L13.0162 25.9346L13.5462 25.0866ZM14.1921 25.4902L14.8379 25.8939L14.3079 26.7419L13.6621 26.3382L14.1921 25.4902ZM17.1896 26.8867C16.9406 27.0423 16.7219 27.1797 16.5285 27.2743C16.3245 27.374 16.111 27.4459 15.8646 27.4459V26.4459C15.905 26.4459 15.9637 26.4373 16.0892 26.3759C16.2251 26.3094 16.3931 26.2052 16.6596 26.0387L17.1896 26.8867ZM15.0696 26.0387C15.3361 26.2052 15.504 26.3094 15.64 26.3759C15.7654 26.4373 15.8242 26.4459 15.8646 26.4459V27.4459C15.6182 27.4459 15.4047 27.374 15.2007 27.2743C15.0072 27.1797 14.7885 27.0423 14.5396 26.8867L15.0696 26.0387Z" fill="#221D23"/>
</svg>
