<svg width="32" height="31" viewBox="0 0 32 31" fill="none" xmlns="http://www.w3.org/2000/svg">
<circle cx="2.58333" cy="2.58333" r="2.58333" transform="matrix(-1 0 0 1 13.2812 21.9585)" stroke="#919191"/>
<circle cx="2.58333" cy="2.58333" r="2.58333" transform="matrix(-1 0 0 1 22.3203 21.9585)" stroke="#919191"/>
<path d="M24.9036 18.0832H17.1536V9.0415M17.1536 9.0415V11.6248H26.1953V22.5415C26.1953 23.6461 25.2999 24.5415 24.1953 24.5415H22.3203M17.1536 9.0415H11.987L5.90395 13.9079C5.66673 14.0977 5.52864 14.385 5.52864 14.6888V16.7915M9.40364 11.6248H10.6953V16.7915H5.52864M5.52864 16.7915V22.5415C5.52864 23.6461 6.42408 24.5415 7.52864 24.5415H8.11198M13.2786 24.5415H17.1536" stroke="#919191" stroke-linecap="round" stroke-linejoin="round"/>
</svg>
