<svg width="23" height="22" viewBox="0 0 23 22" fill="none" xmlns="http://www.w3.org/2000/svg">
<path d="M17.2513 12.3737H17.6471C18.5899 12.3737 19.0614 12.3737 19.3542 12.0808C19.6471 11.7879 19.6471 11.3165 19.6471 10.3737V9.95703C19.6471 8.07141 19.6471 7.1286 19.0614 6.54282C18.4756 5.95703 17.5328 5.95703 15.6471 5.95703H7.35547C5.46985 5.95703 4.52704 5.95703 3.94126 6.54282C3.35547 7.1286 3.35547 8.07141 3.35547 9.95703V11.3737C3.35547 11.8451 3.35547 12.0808 3.50192 12.2273C3.64836 12.3737 3.88406 12.3737 4.35547 12.3737H5.7513" stroke="#A60014" stroke-width="1.5"/>
<path d="M6.23047 18.1087L6.23047 10.7096C6.23047 9.76683 6.23047 9.29542 6.52336 9.00253C6.81626 8.70964 7.28766 8.70964 8.23047 8.70964L14.7721 8.70964C15.7149 8.70964 16.1863 8.70964 16.4792 9.00253C16.7721 9.29542 16.7721 9.76683 16.7721 10.7096L16.7721 18.1087C16.7721 18.4215 16.7721 18.5778 16.6696 18.6527C16.5671 18.7276 16.4182 18.6801 16.1202 18.5851L14.0641 17.9295C13.9814 17.9032 13.9401 17.89 13.8976 17.8912C13.855 17.8924 13.8145 17.9079 13.7335 17.9389L11.68 18.7246C11.5917 18.7584 11.5475 18.7753 11.5013 18.7753C11.4551 18.7753 11.4109 18.7584 11.3226 18.7246L9.2691 17.9389C9.18808 17.9079 9.14756 17.8924 9.10505 17.8912C9.06253 17.89 9.0212 17.9032 8.93854 17.9295L6.88235 18.5851C6.58443 18.6801 6.43546 18.7276 6.33297 18.6527C6.23047 18.5778 6.23047 18.4215 6.23047 18.1087Z" stroke="#A60014" stroke-width="1.5"/>
<path d="M9.10547 12.375L12.9388 12.375" stroke="#A60014" stroke-width="1.5" stroke-linecap="round"/>
<path d="M9.10547 15.125L13.8971 15.125" stroke="#A60014" stroke-width="1.5" stroke-linecap="round"/>
<path d="M16.7721 5.95964V5.89297C16.7721 4.19591 16.7721 3.34738 16.2449 2.82018C15.7177 2.29297 14.8692 2.29297 13.1721 2.29297H9.83047C8.13341 2.29297 7.28488 2.29297 6.75768 2.82018C6.23047 3.34738 6.23047 4.19591 6.23047 5.89297V5.95964" stroke="#A60014" stroke-width="1.5"/>
</svg>
