<svg width="31" height="31" viewBox="0 0 31 31" fill="none" xmlns="http://www.w3.org/2000/svg">
<g id="bx-share-alt">
<path id="Vector" d="M7.07422 19.1633C8.16809 19.1571 9.22019 18.7425 10.0242 18.0008L17.8492 22.4758C17.7495 22.8212 17.6991 23.1789 17.6992 23.5383C17.6912 24.5527 18.033 25.5389 18.667 26.3309C19.301 27.1228 20.1885 27.6721 21.1801 27.8863C22.1717 28.1005 23.2068 27.9664 24.1111 27.5067C25.0154 27.047 25.7337 26.2897 26.1451 25.3624C26.5564 24.4351 26.6357 23.3944 26.3695 22.4154C26.1033 21.4365 25.5079 20.5792 24.6836 19.9879C23.8593 19.3966 22.8565 19.1073 21.8439 19.1689C20.8313 19.2304 19.8708 19.639 19.1242 20.3258L11.2992 15.8508C11.3937 15.5428 11.4442 15.223 11.4492 14.9008L19.1367 10.5008C19.8793 11.1719 20.83 11.5672 21.8295 11.6204C22.8289 11.6737 23.8163 11.3817 24.626 10.7934C25.4357 10.2051 26.0185 9.35621 26.2766 8.38921C26.5347 7.4222 26.4525 6.39585 26.0437 5.48228C25.6349 4.56871 24.9244 3.82349 24.0313 3.37159C23.1383 2.9197 22.117 2.78862 21.1388 3.00034C20.1606 3.21206 19.285 3.7537 18.6587 4.53442C18.0324 5.31514 17.6937 6.28746 17.6992 7.28831C17.7035 7.64744 17.7539 8.00454 17.8492 8.35081L10.7367 12.4133C10.3246 11.7758 9.75369 11.2564 9.08008 10.9063C8.40647 10.5562 7.65335 10.3874 6.89476 10.4165C6.13616 10.4456 5.39819 10.6716 4.75339 11.0723C4.10859 11.473 3.57914 12.0346 3.21709 12.7018C2.85504 13.3691 2.67285 14.1191 2.68842 14.8781C2.70399 15.6371 2.9168 16.3789 3.30591 17.0308C3.69503 17.6826 4.24706 18.222 4.90776 18.5959C5.56846 18.9698 6.31507 19.1653 7.07422 19.1633ZM22.0742 21.6633C22.4451 21.6633 22.8076 21.7733 23.1159 21.9793C23.4243 22.1853 23.6646 22.4782 23.8065 22.8208C23.9484 23.1634 23.9855 23.5404 23.9132 23.9041C23.8409 24.2678 23.6623 24.6019 23.4 24.8641C23.1378 25.1264 22.8037 25.3049 22.44 25.3773C22.0763 25.4496 21.6993 25.4125 21.3567 25.2706C21.0141 25.1287 20.7212 24.8883 20.5152 24.58C20.3092 24.2717 20.1992 23.9091 20.1992 23.5383C20.1992 23.041 20.3968 22.5641 20.7484 22.2125C21.1 21.8609 21.5769 21.6633 22.0742 21.6633ZM22.0742 5.41331C22.4451 5.41331 22.8076 5.52328 23.1159 5.7293C23.4243 5.93533 23.6646 6.22817 23.8065 6.57078C23.9484 6.91339 23.9855 7.29039 23.9132 7.6541C23.8409 8.01782 23.6623 8.35191 23.4 8.61413C23.1378 8.87636 22.8037 9.05493 22.44 9.12728C22.0763 9.19963 21.6993 9.1625 21.3567 9.02058C21.0141 8.87867 20.7212 8.63835 20.5152 8.33C20.3092 8.02166 20.1992 7.65915 20.1992 7.28831C20.1992 6.79103 20.3968 6.31411 20.7484 5.96248C21.1 5.61085 21.5769 5.41331 22.0742 5.41331ZM7.07422 12.9133C7.44506 12.9133 7.80758 13.0233 8.11592 13.2293C8.42426 13.4353 8.66458 13.7282 8.8065 14.0708C8.94841 14.4134 8.98554 14.7904 8.9132 15.1541C8.84085 15.5178 8.66227 15.8519 8.40005 16.1141C8.13783 16.3764 7.80373 16.5549 7.44002 16.6273C7.0763 16.6996 6.6993 16.6625 6.35669 16.5206C6.01408 16.3787 5.72125 16.1383 5.51522 15.83C5.30919 15.5217 5.19922 15.1591 5.19922 14.7883C5.19922 14.291 5.39677 13.8141 5.7484 13.4625C6.10003 13.1109 6.57694 12.9133 7.07422 12.9133Z" fill="#295CBB"/>
</g>
</svg>
