<svg width="14" height="13" viewBox="0 0 14 13" fill="none" xmlns="http://www.w3.org/2000/svg">
<path d="M6.0487 0.927052C6.34805 0.0057416 7.65146 0.00574088 7.95081 0.927052L8.79587 3.52786C8.92974 3.93989 9.3137 4.21885 9.74692 4.21885H12.4816C13.4503 4.21885 13.8531 5.45846 13.0694 6.02786L10.857 7.63525C10.5065 7.8899 10.3598 8.34127 10.4937 8.75329L11.3388 11.3541C11.6381 12.2754 10.5836 13.0415 9.79992 12.4721L7.58754 10.8647C7.23705 10.6101 6.76246 10.6101 6.41197 10.8647L4.19959 12.4721C3.41587 13.0415 2.36139 12.2754 2.66075 11.3541L3.5058 8.75329C3.63967 8.34127 3.49302 7.8899 3.14253 7.63525L0.930147 6.02787C0.146433 5.45846 0.549208 4.21885 1.51793 4.21885H4.25259C4.68581 4.21885 5.06977 3.93989 5.20364 3.52786L6.0487 0.927052Z" fill="#FFCD29"/>
</svg>
