<svg width="30" height="30" viewBox="0 0 30 30" fill="none" xmlns="http://www.w3.org/2000/svg">
<path d="M4.4834 8.05882H24.4834M11.9834 21.5882V13.4706M16.9834 21.5882V13.4706M19.4834 27H9.4834C8.10269 27 6.9834 25.7885 6.9834 24.2941V9.41176C6.9834 8.66456 7.54304 8.05882 8.2334 8.05882H20.7334C21.4238 8.05882 21.9834 8.66456 21.9834 9.41176V24.2941C21.9834 25.7885 20.8641 27 19.4834 27ZM11.9834 8.05882H16.9834C17.6738 8.05882 18.2334 7.45309 18.2334 6.70588V5.35294C18.2334 4.60573 17.6738 4 16.9834 4H11.9834C11.293 4 10.7334 4.60573 10.7334 5.35294V6.70588C10.7334 7.45309 11.293 8.05882 11.9834 8.05882Z" stroke="#A60014" stroke-width="1.5" stroke-linecap="round" stroke-linejoin="round"/>
</svg>
