<svg width="31" height="31" viewBox="0 0 31 31" fill="none" xmlns="http://www.w3.org/2000/svg">
<g id="favorite">
<path id="icon" d="M15.1009 26.7381L13.2763 25.1023C11.1581 23.1938 9.40695 21.5475 8.02279 20.1633C6.63862 18.7792 5.53758 17.5418 4.71966 16.4512C3.90175 15.3397 3.32501 14.3226 2.98945 13.3998C2.67487 12.477 2.51758 11.5333 2.51758 10.5685C2.51758 8.59715 3.1782 6.95083 4.49945 5.62958C5.8207 4.30833 7.46702 3.64771 9.43841 3.64771C10.529 3.64771 11.5671 3.8784 12.5528 4.33979C13.5385 4.80118 14.3879 5.45132 15.1009 6.29021C15.814 5.45132 16.6633 4.80118 17.649 4.33979C18.6347 3.8784 19.6729 3.64771 20.7634 3.64771C22.7348 3.64771 24.3811 4.30833 25.7024 5.62958C27.0236 6.95083 27.6842 8.59715 27.6842 10.5685C27.6842 11.5333 27.5165 12.477 27.1809 13.3998C26.8663 14.3226 26.3001 15.3397 25.4822 16.4512C24.6642 17.5418 23.5632 18.7792 22.179 20.1633C20.7949 21.5475 19.0437 23.1938 16.9255 25.1023L15.1009 26.7381ZM15.1009 23.3406C17.1142 21.537 18.7711 19.9956 20.0713 18.7162C21.3716 17.416 22.3992 16.294 23.1542 15.3502C23.9092 14.3855 24.4336 13.5361 24.7272 12.8021C25.0208 12.0471 25.1676 11.3026 25.1676 10.5685C25.1676 9.31021 24.7481 8.26159 23.9092 7.42271C23.0704 6.58382 22.0217 6.16437 20.7634 6.16437C19.7777 6.16437 18.8654 6.4475 18.0265 7.01375C17.1877 7.55903 16.6109 8.26159 16.2963 9.12146H13.9055C13.5909 8.26159 13.0142 7.55903 12.1753 7.01375C11.3364 6.4475 10.4241 6.16437 9.43841 6.16437C8.18008 6.16437 7.13147 6.58382 6.29258 7.42271C5.45369 8.26159 5.03425 9.31021 5.03425 10.5685C5.03425 11.3026 5.18105 12.0471 5.47466 12.8021C5.76827 13.5361 6.29258 14.3855 7.04758 15.3502C7.80258 16.294 8.83022 17.416 10.1305 18.7162C11.4308 19.9956 13.0876 21.537 15.1009 23.3406Z" fill="#A60014"/>
</g>
</svg>
