<svg width="25" height="26" viewBox="0 0 25 26" fill="none" xmlns="http://www.w3.org/2000/svg">
<mask id="mask0_1025_58557" style="mask-type:alpha" maskUnits="userSpaceOnUse" x="0" y="0" width="25" height="26">
<rect y="0.0549316" width="25" height="25" fill="#D9D9D9"/>
</mask>
<g mask="url(#mask0_1025_58557)">
<path d="M6.09391 17.8686C6.97933 17.1915 7.96891 16.6576 9.06266 16.267C10.1564 15.8764 11.3022 15.6811 12.5002 15.6811C13.6981 15.6811 14.8439 15.8764 15.9377 16.267C17.0314 16.6576 18.021 17.1915 18.9064 17.8686C19.5141 17.1568 19.9871 16.3495 20.3257 15.4467C20.6642 14.5439 20.8335 13.5804 20.8335 12.5561C20.8335 10.247 20.0219 8.2809 18.3986 6.65763C16.7753 5.03437 14.8092 4.22274 12.5002 4.22274C10.1911 4.22274 8.22499 5.03437 6.60173 6.65763C4.97846 8.2809 4.16683 10.247 4.16683 12.5561C4.16683 13.5804 4.3361 14.5439 4.67464 15.4467C5.01318 16.3495 5.48627 17.1568 6.09391 17.8686ZM12.5002 13.5977C11.4759 13.5977 10.6121 13.2462 9.90902 12.5431C9.20589 11.8399 8.85433 10.9762 8.85433 9.9519C8.85433 8.9276 9.20589 8.06388 9.90902 7.36076C10.6121 6.65763 11.4759 6.30607 12.5002 6.30607C13.5245 6.30607 14.3882 6.65763 15.0913 7.36076C15.7944 8.06388 16.146 8.9276 16.146 9.9519C16.146 10.9762 15.7944 11.8399 15.0913 12.5431C14.3882 13.2462 13.5245 13.5977 12.5002 13.5977ZM12.5002 22.9727C11.0592 22.9727 9.70502 22.6993 8.43766 22.1524C7.1703 21.6056 6.06787 20.8634 5.13037 19.9259C4.19287 18.9884 3.45068 17.8859 2.90381 16.6186C2.35693 15.3512 2.0835 13.997 2.0835 12.5561C2.0835 11.1151 2.35693 9.76093 2.90381 8.49357C3.45068 7.22621 4.19287 6.12378 5.13037 5.18628C6.06787 4.24878 7.1703 3.50659 8.43766 2.95972C9.70502 2.41284 11.0592 2.1394 12.5002 2.1394C13.9411 2.1394 15.2953 2.41284 16.5627 2.95972C17.83 3.50659 18.9325 4.24878 19.87 5.18628C20.8075 6.12378 21.5496 7.22621 22.0965 8.49357C22.6434 9.76093 22.9168 11.1151 22.9168 12.5561C22.9168 13.997 22.6434 15.3512 22.0965 16.6186C21.5496 17.8859 20.8075 18.9884 19.87 19.9259C18.9325 20.8634 17.83 21.6056 16.5627 22.1524C15.2953 22.6993 13.9411 22.9727 12.5002 22.9727ZM12.5002 20.8894C13.4203 20.8894 14.2884 20.7549 15.1043 20.4858C15.9203 20.2167 16.6668 19.8304 17.3439 19.3269C16.6668 18.8234 15.9203 18.4371 15.1043 18.1681C14.2884 17.899 13.4203 17.7644 12.5002 17.7644C11.58 17.7644 10.712 17.899 9.896 18.1681C9.08002 18.4371 8.3335 18.8234 7.65641 19.3269C8.3335 19.8304 9.08002 20.2167 9.896 20.4858C10.712 20.7549 11.58 20.8894 12.5002 20.8894ZM12.5002 11.5144C12.9516 11.5144 13.3248 11.3668 13.62 11.0717C13.9151 10.7766 14.0627 10.4033 14.0627 9.9519C14.0627 9.50052 13.9151 9.12725 13.62 8.83211C13.3248 8.53697 12.9516 8.3894 12.5002 8.3894C12.0488 8.3894 11.6755 8.53697 11.3804 8.83211C11.0852 9.12725 10.9377 9.50052 10.9377 9.9519C10.9377 10.4033 11.0852 10.7766 11.3804 11.0717C11.6755 11.3668 12.0488 11.5144 12.5002 11.5144Z" fill="#919191" stroke="#F7F7F7"/>
</g>
</svg>
