<svg width="32" height="32" viewBox="0 0 32 32" fill="none" xmlns="http://www.w3.org/2000/svg">
<path d="M16.0011 26.8801C9.98509 26.8801 5.12109 22.0161 5.12109 16.0001C5.12109 9.98412 9.98509 5.12012 16.0011 5.12012C22.0171 5.12012 26.8811 9.98412 26.8811 16.0001C26.8811 22.0161 22.0171 26.8801 16.0011 26.8801ZM16.0011 6.40012C10.6891 6.40012 6.40109 10.6881 6.40109 16.0001C6.40109 21.3121 10.6891 25.6001 16.0011 25.6001C21.3131 25.6001 25.6011 21.3121 25.6011 16.0001C25.6011 10.6881 21.3131 6.40012 16.0011 6.40012Z" fill="#221D23"/>
<path d="M16.001 22.0161L9.79297 15.8081L10.689 14.9121L16.001 20.2241L21.313 14.9121L22.209 15.8081L16.001 22.0161Z" fill="#221D23"/>
<path d="M15.3594 10.2402H16.6394V21.1202H15.3594V10.2402Z" fill="#221D23"/>
</svg>
