<svg width="32" height="32" viewBox="0 0 32 32" fill="none" xmlns="http://www.w3.org/2000/svg">
<path d="M16.0011 5.11988C9.98509 5.11988 5.12109 9.98388 5.12109 15.9999C5.12109 22.0159 9.98509 26.8799 16.0011 26.8799C22.0171 26.8799 26.8811 22.0159 26.8811 15.9999C26.8811 9.98388 22.0171 5.11988 16.0011 5.11988ZM16.0011 25.5999C10.6891 25.5999 6.40109 21.3119 6.40109 15.9999C6.40109 10.6879 10.6891 6.39988 16.0011 6.39988C21.3131 6.39988 25.6011 10.6879 25.6011 15.9999C25.6011 21.3119 21.3131 25.5999 16.0011 25.5999Z" fill="#221D23"/>
<path d="M16.001 9.98389L9.79297 16.1919L10.689 17.0879L16.001 11.7759L21.313 17.0879L22.209 16.1919L16.001 9.98389Z" fill="#221D23"/>
<path d="M15.3594 21.7598H16.6394V10.8798H15.3594V21.7598Z" fill="#221D23"/>
</svg>
