<svg width="24" height="25" viewBox="0 0 24 25" fill="none" xmlns="http://www.w3.org/2000/svg">
<path d="M3 7.5C3 5.29086 4.79086 3.5 7 3.5H17C19.2091 3.5 21 5.29086 21 7.5V17.5C21 19.7091 19.2091 21.5 17 21.5H7C4.79086 21.5 3 19.7091 3 17.5V7.5Z" stroke="white" stroke-width="1.5"/>
<path d="M3 15.5L5.8055 12.6945C6.68783 11.8122 8.1538 11.9443 8.86408 12.9703L10.7664 15.718C11.4311 16.6781 12.7735 16.8669 13.6773 16.1275L16.0991 14.146C16.8944 13.4954 18.0533 13.5532 18.7798 14.2798L21 16.5" stroke="white" stroke-width="1.5"/>
<circle cx="16" cy="8.5" r="2" fill="white"/>
</svg>
