<svg width="26" height="24" viewBox="0 0 26 24" fill="none" xmlns="http://www.w3.org/2000/svg">
<path d="M5.04395 9C5.04395 6.17157 5.04395 4.75736 5.93634 3.87868C6.82874 3 8.26503 3 11.1376 3H15.2001C18.0727 3 19.5089 3 20.4013 3.87868C21.2937 4.75736 21.2937 6.17157 21.2937 9V15.8276C21.2937 18.5109 21.2937 19.8525 20.4363 20.2629C19.5788 20.6733 18.5074 19.8444 16.3645 18.1866L15.6787 17.656C14.4738 16.7239 13.8714 16.2578 13.1688 16.2578C12.4663 16.2578 11.8639 16.7239 10.659 17.656L9.97318 18.1866C7.83032 19.8444 6.7589 20.6733 5.90142 20.2629C5.04395 19.8525 5.04395 18.5109 5.04395 15.8276V9Z" stroke="#525252" stroke-width="1.5"/>
</svg>
