<svg width="20" height="20" viewBox="0 0 20 20" fill="none" xmlns="http://www.w3.org/2000/svg">
<path d="M13.0711 12.3493C13.3331 12.4367 13.6163 12.2951 13.7036 12.0331C13.7909 11.7711 13.6493 11.488 13.3874 11.4007L13.0711 12.3493ZM10.4167 10.9375H9.91675C9.91675 11.1527 10.0545 11.3438 10.2586 11.4118L10.4167 10.9375ZM10.9167 7.01739C10.9167 6.74125 10.6929 6.51739 10.4167 6.51739C10.1406 6.51739 9.91675 6.74125 9.91675 7.01739H10.9167ZM13.3874 11.4007L10.5749 10.4632L10.2586 11.4118L13.0711 12.3493L13.3874 11.4007ZM10.9167 10.9375V7.01739H9.91675V10.9375H10.9167ZM17.4167 10C17.4167 13.866 14.2827 17 10.4167 17V18C14.835 18 18.4167 14.4183 18.4167 10H17.4167ZM10.4167 17C6.55075 17 3.41675 13.866 3.41675 10H2.41675C2.41675 14.4183 5.99847 18 10.4167 18V17ZM3.41675 10C3.41675 6.13401 6.55075 3 10.4167 3V2C5.99847 2 2.41675 5.58172 2.41675 10H3.41675ZM10.4167 3C14.2827 3 17.4167 6.13401 17.4167 10H18.4167C18.4167 5.58172 14.835 2 10.4167 2V3Z" fill="#221D23"/>
</svg>
