<svg width="23" height="23" viewBox="0 0 23 23" fill="none" xmlns="http://www.w3.org/2000/svg">
<path fill-rule="evenodd" clip-rule="evenodd" d="M3.46079 2.5018C2.875 3.08759 2.875 4.0304 2.875 5.91601V15.0827C2.875 17.9111 2.875 19.3253 3.75368 20.204C4.36578 20.8161 5.23777 21.0018 6.66667 21.0581V18.2077C6.66667 17.6554 7.11438 17.2077 7.66667 17.2077C8.21895 17.2077 8.66667 17.6554 8.66667 18.2077V21.0827C8.73525 21.0827 8.80469 21.0827 8.875 21.0827H14.125C14.1953 21.0827 14.2648 21.0827 14.3333 21.0827L14.3333 18.2077C14.3333 17.6554 14.781 17.2077 15.3333 17.2077C15.8856 17.2077 16.3333 17.6554 16.3333 18.2077V21.0581C17.7622 21.0018 18.6342 20.8161 19.2463 20.204C20.125 19.3253 20.125 17.9111 20.125 15.0827V5.91602C20.125 4.0304 20.125 3.08759 19.5392 2.5018C18.9534 1.91602 18.0106 1.91602 16.125 1.91602H6.875C4.98938 1.91602 4.04657 1.91602 3.46079 2.5018ZM7.66667 7.62435C7.11438 7.62435 6.66667 8.07206 6.66667 8.62435C6.66667 9.17663 7.11438 9.62435 7.66667 9.62435H15.3333C15.8856 9.62435 16.3333 9.17663 16.3333 8.62435C16.3333 8.07206 15.8856 7.62435 15.3333 7.62435H7.66667ZM7.66667 13.4577H15.3333C15.8856 13.4577 16.3333 13.01 16.3333 12.4577C16.3333 11.9054 15.8856 11.4577 15.3333 11.4577H7.66667C7.11438 11.4577 6.66667 11.9054 6.66667 12.4577C6.66667 13.01 7.11438 13.4577 7.66667 13.4577Z" fill="white"/>
</svg>
