<svg width="23" height="23" viewBox="0 0 23 23" fill="none" xmlns="http://www.w3.org/2000/svg">
<path d="M3.8335 6.875C3.8335 4.98938 3.8335 4.04657 4.41928 3.46079C5.00507 2.875 5.94788 2.875 7.8335 2.875H15.1668C17.0524 2.875 17.9953 2.875 18.581 3.46079C19.1668 4.04657 19.1668 4.98938 19.1668 6.875V14.125C19.1668 16.9534 19.1668 18.3676 18.2881 19.2463C17.4095 20.125 15.9953 20.125 13.1668 20.125H9.83349C7.00507 20.125 5.59086 20.125 4.71218 19.2463C3.8335 18.3676 3.8335 16.9534 3.8335 14.125V6.875Z" stroke="#221D23" stroke-width="0.75"/>
<path d="M14.375 17.25L14.375 20.125M8.625 17.25L8.625 20.125" stroke="#221D23" stroke-width="0.75" stroke-linecap="round"/>
<path d="M8.625 7.66602L14.375 7.66602" stroke="#221D23" stroke-width="0.75" stroke-linecap="round"/>
<path d="M8.625 11.5L14.375 11.5" stroke="#221D23" stroke-width="0.75" stroke-linecap="round"/>
</svg>
