<svg width="20" height="21" viewBox="0 0 20 21" fill="none" xmlns="http://www.w3.org/2000/svg">
<path d="M8.49951 18.5549H6.49951C4.84266 18.5549 3.49951 17.2118 3.49951 15.5549V5.55493C3.49951 3.89808 4.84266 2.55493 6.49951 2.55493H13.4995C15.1564 2.55493 16.4995 3.89808 16.4995 5.55493V8.05493M12.9995 6.55493H6.49951M9.99951 9.55493H6.49951M8.49951 12.5549H6.49951M11.4995 12.8049L12.6579 12.2257C13.5025 11.8035 14.4966 11.8035 15.3412 12.2258L16.4995 12.8049C16.4995 12.8049 16.4995 14.6299 16.4995 15.5924C16.4995 16.5549 15.6098 17.2047 13.9995 18.2216C12.3892 17.2047 11.4995 16.3466 11.4995 15.5924V12.8049Z" stroke="#919191" stroke-linecap="round" stroke-linejoin="round"/>
</svg>
