<svg width="22" height="22" viewBox="0 0 22 22" fill="none" xmlns="http://www.w3.org/2000/svg">
<path d="M4.80193 13.5774C5.16752 14.9418 5.97311 16.1474 7.09374 17.0073C8.21437 17.8672 9.58743 18.3333 11 18.3333C12.4125 18.3333 13.7855 17.8672 14.9062 17.0073C16.0268 16.1474 16.8324 14.9418 17.198 13.5774" stroke="#A60014"/>
<path d="M11 11.9167L10.6876 12.3071L11 12.557L11.3123 12.3071L11 11.9167ZM11.5 3.66669C11.5 3.39055 11.2761 3.16669 11 3.16669C10.7238 3.16669 10.5 3.39055 10.5 3.66669L11.5 3.66669ZM6.10428 8.64045L10.6876 12.3071L11.3123 11.5263L6.72897 7.85959L6.10428 8.64045ZM11.3123 12.3071L15.8956 8.64046L15.2709 7.85959L10.6876 11.5263L11.3123 12.3071ZM11.5 11.9167L11.5 3.66669L10.5 3.66669L10.5 11.9167L11.5 11.9167Z" fill="#A60014"/>
</svg>
