<svg width="26" height="25" viewBox="0 0 26 25" fill="none" xmlns="http://www.w3.org/2000/svg">
<path d="M5.84504 15.3479L6.36716 15.6435L5.84504 15.3479C5.73664 15.5394 5.68438 15.7497 5.63001 15.9685C5.62601 15.9846 5.622 16.0007 5.61795 16.0169L4.91275 18.8377C4.91034 18.8473 4.90791 18.8571 4.90545 18.8669C4.86683 19.0209 4.82316 19.1952 4.80866 19.3435C4.79251 19.5086 4.79399 19.8078 5.03528 20.0491C5.27656 20.2904 5.57579 20.2919 5.74092 20.2757C5.88919 20.2612 6.06345 20.2176 6.21752 20.1789C6.22733 20.1765 6.23706 20.174 6.2467 20.1716L9.06748 19.4664C9.08368 19.4624 9.09983 19.4584 9.11594 19.4544C9.33471 19.4 9.54501 19.3478 9.73646 19.2394L9.46269 18.7558L9.73646 19.2394C9.92791 19.131 10.0809 18.9775 10.2401 18.8179C10.2518 18.8061 10.2636 18.7944 10.2754 18.7825L17.8143 11.2436L17.8444 11.2135L17.8444 11.2135L17.8713 11.1866C18.1816 10.8764 18.4559 10.6021 18.6472 10.3514C18.8546 10.0796 19.0202 9.76604 19.0202 9.375C19.0202 8.98396 18.8546 8.67043 18.6472 8.39862C18.4559 8.14785 18.1816 7.87363 17.8713 7.56335L17.8444 7.53653L17.8226 7.51464L17.8226 7.51463L17.5479 7.23995L17.521 7.21311C17.2108 6.90278 16.9365 6.62853 16.6858 6.4372C16.414 6.22981 16.1004 6.06421 15.7094 6.06421C15.3183 6.06421 15.0048 6.22981 14.733 6.4372C14.4822 6.62853 14.208 6.90278 13.8977 7.21311L13.8709 7.23995L6.30184 14.809C6.29004 14.8208 6.27826 14.8326 6.26651 14.8443C6.10688 15.0035 5.95343 15.1565 5.84504 15.3479Z" stroke="#A60014" stroke-width="1.2"/>
<path d="M13.1052 7.8125L17.2719 11.9792" stroke="#A60014"/>
</svg>
