<svg width="15" height="16" viewBox="0 0 15 16" fill="none" xmlns="http://www.w3.org/2000/svg">
<path d="M10.573 6.97513L10.573 6.97512C10.5745 6.97364 10.576 6.97216 10.5775 6.97068C10.5874 6.96078 10.5972 6.95102 10.6068 6.94137C10.7879 6.76047 10.9279 6.62071 11.0179 6.46697C11.2689 6.038 11.2689 5.50693 11.0179 5.07795C10.9279 4.92421 10.7879 4.78445 10.6068 4.60356C10.5957 4.59246 10.5844 4.58121 10.573 4.5698L10.573 4.5698C10.572 4.56879 10.571 4.56779 10.57 4.56679C10.5596 4.5564 10.5494 4.54614 10.5393 4.53601C10.3584 4.35488 10.2186 4.21494 10.0649 4.12496L9.87546 4.44861L10.0649 4.12496C9.6359 3.87391 9.10483 3.87391 8.67585 4.12496L8.86209 4.44319L8.67585 4.12496C8.52211 4.21494 8.38235 4.35488 8.20146 4.53601C8.19036 4.54711 8.17912 4.55838 8.1677 4.56979L8.1677 4.5698L3.87191 8.86558L3.87191 8.86558C3.86228 8.87521 3.85277 8.88471 3.84337 8.8941C3.67636 9.06089 3.54444 9.19264 3.4518 9.35625C3.35916 9.51986 3.31406 9.70077 3.25697 9.9298C3.25375 9.94269 3.2505 9.95573 3.2472 9.96894L2.95867 11.1231C2.95678 11.1306 2.95489 11.1382 2.95299 11.1457C2.9128 11.3064 2.87304 11.4652 2.86023 11.5962C2.84636 11.7379 2.85244 11.9512 3.02201 12.1208C3.19158 12.2904 3.40491 12.2965 3.54665 12.2826C3.67759 12.2698 3.83647 12.23 3.99708 12.1898C4.00464 12.1879 4.0122 12.186 4.01976 12.1842L5.17388 11.8956C5.18709 11.8923 5.20013 11.8891 5.21303 11.8859C5.44205 11.8288 5.62296 11.7837 5.78657 11.691C5.95019 11.5984 6.08194 11.4665 6.24873 11.2994C6.25812 11.29 6.26762 11.2805 6.27724 11.2709L10.573 6.97513Z" stroke="#363636" stroke-width="0.75"/>
<path d="M7.80786 4.83496L10.3079 7.33496" stroke="#363636"/>
</svg>
