<svg width="31" height="31" viewBox="0 0 31 31" fill="none" xmlns="http://www.w3.org/2000/svg">
<path d="M15.6545 4.26562C6.98329 4.26562 4.09204 7.15688 4.09204 15.8281C4.09204 24.4994 6.98329 27.3906 15.6545 27.3906C24.3258 27.3906 27.217 24.4994 27.217 15.8281" stroke="white" stroke-width="2" stroke-linecap="round" stroke-linejoin="round"/>
<path fill-rule="evenodd" clip-rule="evenodd" d="M25.0648 6.20743V6.20743C23.8236 5.10868 21.9273 5.22368 20.8286 6.46493C20.8286 6.46493 15.3673 12.6337 13.4736 14.7749C11.5773 16.9149 12.9673 19.8712 12.9673 19.8712C12.9673 19.8712 16.0973 20.8624 17.9648 18.7524C19.8336 16.6424 25.3223 10.4437 25.3223 10.4437C26.4211 9.20243 26.3048 7.30618 25.0648 6.20743Z" stroke="white" stroke-width="2" stroke-linecap="round" stroke-linejoin="round"/>
<path d="M19.4155 8.07812L23.9093 12.0569" stroke="white" stroke-width="2" stroke-linecap="round" stroke-linejoin="round"/>
</svg>
