<svg width="30" height="31" viewBox="0 0 30 31" fill="none" xmlns="http://www.w3.org/2000/svg">
<path d="M15.0002 3.93774C6.32899 3.93774 3.43774 6.82899 3.43774 15.5002C3.43774 24.1715 6.32899 27.0627 15.0002 27.0627C23.6715 27.0627 26.5627 24.1715 26.5627 15.5002" stroke="white" stroke-width="2" stroke-linecap="round" stroke-linejoin="round"/>
<path fill-rule="evenodd" clip-rule="evenodd" d="M24.4105 5.87979V5.87979C23.1693 4.78104 21.273 4.89604 20.1743 6.13729C20.1743 6.13729 14.713 12.306 12.8193 14.4473C10.923 16.5873 12.313 19.5435 12.313 19.5435C12.313 19.5435 15.443 20.5348 17.3105 18.4248C19.1793 16.3148 24.668 10.116 24.668 10.116C25.7668 8.87479 25.6505 6.97854 24.4105 5.87979Z" stroke="white" stroke-width="2" stroke-linecap="round" stroke-linejoin="round"/>
<path d="M18.7612 7.75122L23.255 11.73" stroke="white" stroke-width="2" stroke-linecap="round" stroke-linejoin="round"/>
</svg>
