<svg width="18" height="20" viewBox="0 0 18 20" fill="none" xmlns="http://www.w3.org/2000/svg">
<path d="M8.32379 3.51123H4.05892C2.64567 3.51123 1.5 4.72051 1.5 6.21223V15.2156C1.5 16.7074 2.64567 17.9166 4.05892 17.9166H12.5887C14.0019 17.9166 15.1476 16.7074 15.1476 15.2156L15.1476 10.7139M5.76487 13.4149L8.86826 12.7549C9.03301 12.7198 9.18429 12.6342 9.30309 12.5087L16.2503 5.17173C16.5834 4.81996 16.5832 4.24976 16.2498 3.89829L14.7782 2.34665C14.4449 1.99532 13.905 1.99556 13.572 2.34719L6.62407 9.68494C6.5055 9.81017 6.42454 9.96951 6.39131 10.1431L5.76487 13.4149Z" stroke="#A60014" stroke-linecap="round" stroke-linejoin="round"/>
</svg>
