<svg width="100" height="101" viewBox="0 0 100 101" fill="none" xmlns="http://www.w3.org/2000/svg">
<mask id="mask0_1025_66287" style="mask-type:alpha" maskUnits="userSpaceOnUse" x="0" y="0" width="100" height="101">
<rect y="0.238281" width="100" height="100" fill="#D9D9D9"/>
</mask>
<g mask="url(#mask0_1025_66287)">
<path d="M52.4401 69.3481C51.789 69.9991 50.9933 70.3263 50.0016 70.3263C49.0099 70.3263 48.2142 69.9991 47.5632 69.3481C46.9122 68.697 46.585 67.9013 46.585 66.9096C46.585 65.918 46.9122 65.1222 47.5632 64.4712C48.2142 63.8202 49.01 63.493 50.0016 63.493C50.9933 63.493 51.789 63.8202 52.4401 64.4712C53.0911 65.1222 53.4183 65.9179 53.4183 66.9096C53.4183 67.9013 53.0911 68.697 52.4401 69.3481ZM53.4183 53.6596H46.585V30.1596H53.4183V53.6596ZM50.0016 91.1596C44.3354 91.1596 39.0203 90.085 34.0488 87.9398C29.0627 85.7882 24.733 82.872 21.0528 79.1918C17.3726 75.5116 14.4564 71.1819 12.3048 66.1958C10.1596 61.2243 9.08496 55.9092 9.08496 50.243C9.08496 44.5767 10.1596 39.2616 12.3048 34.2901C14.4564 29.3041 17.3726 24.9744 21.0528 21.2941C24.733 17.6139 29.0627 14.6977 34.0488 12.5462C39.0203 10.4009 44.3354 9.32629 50.0016 9.32629C55.6679 9.32629 60.983 10.4009 65.9545 12.5462C70.9405 14.6977 75.2702 17.6139 78.9505 21.2941C82.6307 24.9744 85.5469 29.3041 87.6984 34.2901C89.8437 39.2616 90.9183 44.5767 90.9183 50.243C90.9183 55.9092 89.8437 61.2243 87.6984 66.1958C85.5469 71.1819 82.6307 75.5116 78.9505 79.1918C75.2702 82.872 70.9405 85.7882 65.9545 87.9398C60.983 90.085 55.6679 91.1596 50.0016 91.1596ZM50.0016 84.3263C59.5019 84.3263 67.5759 81.0211 74.1778 74.4191C80.7797 67.8172 84.085 59.7432 84.085 50.243C84.085 40.7427 80.7797 32.6687 74.1778 26.0668C67.5759 19.4649 59.5019 16.1596 50.0016 16.1596C40.5014 16.1596 32.4274 19.4649 25.8255 26.0668C19.2235 32.6687 15.9183 40.7427 15.9183 50.243C15.9183 59.7432 19.2235 67.8172 25.8255 74.4191C32.4274 81.0211 40.5014 84.3263 50.0016 84.3263Z" fill="url(#paint0_linear_1025_66287)" stroke="white" stroke-width="1.5"/>
</g>
<defs>
<linearGradient id="paint0_linear_1025_66287" x1="8.33496" y1="57.6126" x2="91.6683" y2="57.6126" gradientUnits="userSpaceOnUse">
<stop stop-color="#A60014"/>
<stop offset="1" stop-color="#600B0E"/>
</linearGradient>
</defs>
</svg>
