<svg width="26" height="27" viewBox="0 0 26 27" fill="none" xmlns="http://www.w3.org/2000/svg">
<mask id="mask0_1025_62312" style="mask-type:alpha" maskUnits="userSpaceOnUse" x="0" y="0" width="26" height="27">
<rect y="0.5" width="26" height="26" fill="#D9D9D9"/>
</mask>
<g mask="url(#mask0_1025_62312)">
<path d="M13.0002 18.9165C13.3071 18.9165 13.5644 18.8127 13.7721 18.605C13.9797 18.3974 14.0835 18.1401 14.0835 17.8332C14.0835 17.5262 13.9797 17.2689 13.7721 17.0613C13.5644 16.8537 13.3071 16.7498 13.0002 16.7498C12.6933 16.7498 12.436 16.8537 12.2283 17.0613C12.0207 17.2689 11.9169 17.5262 11.9169 17.8332C11.9169 18.1401 12.0207 18.3974 12.2283 18.605C12.436 18.8127 12.6933 18.9165 13.0002 18.9165ZM11.9169 14.5832H14.0835V8.08317H11.9169V14.5832ZM13.0002 24.3332C11.5016 24.3332 10.0933 24.0488 8.7752 23.48C7.45715 22.9113 6.31062 22.1394 5.33562 21.1644C4.36062 20.1894 3.58875 19.0429 3.02 17.7248C2.45125 16.4068 2.16687 14.9984 2.16687 13.4998C2.16687 12.0012 2.45125 10.5929 3.02 9.27484C3.58875 7.95678 4.36062 6.81025 5.33562 5.83525C6.31062 4.86025 7.45715 4.08838 8.7752 3.51963C10.0933 2.95088 11.5016 2.6665 13.0002 2.6665C14.4988 2.6665 15.9071 2.95088 17.2252 3.51963C18.5433 4.08838 19.6898 4.86025 20.6648 5.83525C21.6398 6.81025 22.4117 7.95678 22.9804 9.27484C23.5492 10.5929 23.8335 12.0012 23.8335 13.4998C23.8335 14.9984 23.5492 16.4068 22.9804 17.7248C22.4117 19.0429 21.6398 20.1894 20.6648 21.1644C19.6898 22.1394 18.5433 22.9113 17.2252 23.48C15.9071 24.0488 14.4988 24.3332 13.0002 24.3332ZM13.0002 22.1665C15.4196 22.1665 17.469 21.3269 19.1481 19.6478C20.8273 17.9686 21.6669 15.9193 21.6669 13.4998C21.6669 11.0804 20.8273 9.03109 19.1481 7.35192C17.469 5.67275 15.4196 4.83317 13.0002 4.83317C10.5808 4.83317 8.53145 5.67275 6.85229 7.35192C5.17312 9.03109 4.33354 11.0804 4.33354 13.4998C4.33354 15.9193 5.17312 17.9686 6.85229 19.6478C8.53145 21.3269 10.5808 22.1665 13.0002 22.1665Z" fill="#D76B00"/>
</g>
</svg>
