<svg width="24" height="25" viewBox="0 0 24 25" fill="none" xmlns="http://www.w3.org/2000/svg">
<path d="M15 20.5H6.2C5.07989 20.5 4.51984 20.5 4.09202 20.282C3.71569 20.0903 3.40973 19.7843 3.21799 19.408C3 18.9802 3 18.4201 3 17.3V7.7C3 6.57989 3 6.01984 3.21799 5.59202C3.40973 5.21569 3.71569 4.90973 4.09202 4.71799C4.51984 4.5 5.0799 4.5 6.2 4.5H7.67452C8.1637 4.5 8.40829 4.5 8.63846 4.55526C8.84254 4.60425 9.03763 4.68506 9.21657 4.79472C9.4184 4.9184 9.59135 5.09135 9.93726 5.43726L10.0627 5.56274C10.4086 5.90865 10.5816 6.0816 10.7834 6.20528C10.9624 6.31494 11.1575 6.39575 11.3615 6.44474C11.5917 6.5 11.8363 6.5 12.3255 6.5H13.8C14.9201 6.5 15.4802 6.5 15.908 6.71799C16.2843 6.90973 16.5903 7.21569 16.782 7.59202C17 8.01984 17 8.57989 17 9.7V10" stroke="white" stroke-width="1.5" stroke-linecap="round"/>
<path d="M5.31584 12.7805C5.56132 11.9622 5.68406 11.5531 5.92696 11.2498C6.14139 10.982 6.42108 10.7739 6.73915 10.6455C7.09946 10.5 7.5266 10.5 8.38087 10.5H16.6991C18.1567 10.5 18.8856 10.5 19.372 10.8041C19.7981 11.0704 20.1083 11.4873 20.2409 11.9719C20.3924 12.5252 20.183 13.2233 19.7641 14.6195L18.6842 18.2191C18.4387 19.0374 18.3159 19.4465 18.073 19.7498C17.8586 20.0176 17.5789 20.2257 17.2608 20.3541C16.9005 20.4996 16.4734 20.4996 15.6191 20.4996H5.15047C4.42163 20.4996 4.05721 20.4996 3.81398 20.3476C3.60096 20.2144 3.44587 20.0059 3.37954 19.7636C3.3038 19.487 3.40852 19.1379 3.61796 18.4398L5.31584 12.7805Z" stroke="white" stroke-width="1.5"/>
<path d="M9 15.5L15 15.5" stroke="white" stroke-width="1.5" stroke-linecap="round"/>
</svg>
