<svg width="25" height="25" viewBox="0 0 25 25" fill="none" xmlns="http://www.w3.org/2000/svg">
<path d="M8.625 14.5L14.7187 14.5" stroke="#221D23" stroke-width="1.2" stroke-linecap="round"/>
<path d="M8.625 11.5L12.6874 11.5" stroke="#221D23" stroke-width="1.2" stroke-linecap="round"/>
<path d="M8.625 17.5L12.6874 17.5" stroke="#221D23" stroke-width="1.2" stroke-linecap="round"/>
<path d="M19.7967 13.5V15.5C19.7967 18.3284 19.7967 19.7426 18.918 20.6213C18.0393 21.5 16.6251 21.5 13.7967 21.5H11.5781C8.7497 21.5 7.33548 21.5 6.4568 20.6213C5.57812 19.7426 5.57812 18.3284 5.57812 15.5V9.5C5.57812 6.67157 5.57812 5.25736 6.4568 4.37868C7.33548 3.5 8.7497 3.5 11.5781 3.5H12.6874" stroke="#221D23" stroke-width="1.2" stroke-linecap="round"/>
<path d="M18.7812 3.5L18.7813 9.5" stroke="#221D23" stroke-width="1.2" stroke-linecap="round"/>
<path d="M21.8276 6.5L15.734 6.5" stroke="#221D23" stroke-width="1.2" stroke-linecap="round"/>
</svg>
