<svg width="24" height="25" viewBox="0 0 24 25" fill="none" xmlns="http://www.w3.org/2000/svg">
<path d="M8.5 13L15.5 13" stroke="white" stroke-width="1.5" stroke-linecap="round"/>
<path d="M8.5 16L12.5 16" stroke="white" stroke-width="1.5" stroke-linecap="round"/>
<path d="M5.5 6.4C5.5 5.55992 5.5 5.13988 5.66349 4.81901C5.8073 4.53677 6.03677 4.3073 6.31901 4.16349C6.63988 4 7.05992 4 7.9 4H12.5059C12.8728 4 13.0562 4 13.2288 4.04145C13.3819 4.07819 13.5282 4.1388 13.6624 4.22104C13.8138 4.3138 13.9435 4.44352 14.2029 4.70294L17.7971 8.29706C18.0565 8.55648 18.1862 8.6862 18.279 8.83757C18.3612 8.97178 18.4218 9.1181 18.4586 9.27115C18.5 9.44378 18.5 9.62723 18.5 9.99411V18.6C18.5 19.4401 18.5 19.8601 18.3365 20.181C18.1927 20.4632 17.9632 20.6927 17.681 20.8365C17.3601 21 16.9401 21 16.1 21H7.9C7.05992 21 6.63988 21 6.31901 20.8365C6.03677 20.6927 5.8073 20.4632 5.66349 20.181C5.5 19.8601 5.5 19.4401 5.5 18.6V6.4Z" stroke="white" stroke-width="1.5"/>
<path d="M12.5 4V7.6C12.5 8.44008 12.5 8.86012 12.6635 9.18099C12.8073 9.46323 13.0368 9.6927 13.319 9.83651C13.6399 10 14.0599 10 14.9 10H18.5" stroke="white" stroke-width="1.5"/>
</svg>
