<svg width="24" height="25" viewBox="0 0 24 25" fill="none" xmlns="http://www.w3.org/2000/svg">
<path d="M8 12.5L8 8.5C8 6.29086 9.79086 4.5 12 4.5V4.5C14.2091 4.5 16 6.29086 16 8.5L16 12.5" stroke="white" stroke-width="1.5" stroke-linecap="round"/>
<path d="M3.69435 13.1678C3.83942 11.4269 3.91196 10.5565 4.48605 10.0282C5.06013 9.5 5.9336 9.5 7.68053 9.5H16.3195C18.0664 9.5 18.9399 9.5 19.514 10.0282C20.088 10.5565 20.1606 11.4269 20.3057 13.1678L20.8195 19.3339C20.904 20.3474 20.9462 20.8542 20.6491 21.1771C20.352 21.5 19.8435 21.5 18.8264 21.5H5.1736C4.15655 21.5 3.64802 21.5 3.35092 21.1771C3.05382 20.8542 3.09605 20.3474 3.18051 19.3339L3.69435 13.1678Z" stroke="white" stroke-width="1.5"/>
</svg>
