<svg width="23" height="23" viewBox="0 0 23 23" fill="none" xmlns="http://www.w3.org/2000/svg">
<path d="M6.23163 6.68457C6.50229 3.9779 8.77991 1.91669 11.5001 1.91669C14.2203 1.91669 16.4979 3.9779 16.7685 6.68457L17.0432 9.43129C17.0517 9.51624 17.056 9.55871 17.0606 9.60057C17.1982 10.8448 17.626 12.0393 18.3093 13.0881C18.3323 13.1233 18.356 13.1589 18.4033 13.2299L19.2286 14.4678C19.942 15.5379 20.2988 16.073 20.1802 16.5112C20.1405 16.658 20.0678 16.7938 19.9677 16.9083C19.6688 17.25 19.0258 17.25 17.7396 17.25H5.26059C3.97441 17.25 3.33132 17.25 3.03249 16.9083C2.93238 16.7938 2.8597 16.658 2.81998 16.5112C2.70141 16.073 3.05813 15.5379 3.77158 14.4678L4.59684 13.2299C4.64419 13.1589 4.66787 13.1233 4.69086 13.0881C5.37421 12.0393 5.80192 10.8448 5.93958 9.60057C5.94421 9.55871 5.94846 9.51624 5.95695 9.43129L6.23163 6.68457Z" fill="white"/>
<path d="M9.64872 19.7699C9.75792 19.8717 9.99855 19.9618 10.3333 20.026C10.668 20.0902 11.0782 20.125 11.5001 20.125C11.922 20.125 12.3321 20.0902 12.6669 20.026C13.0016 19.9618 13.2422 19.8717 13.3514 19.7699" stroke="white" stroke-width="0.75" stroke-linecap="round"/>
</svg>
