<svg width="23" height="23" viewBox="0 0 23 23" fill="none" xmlns="http://www.w3.org/2000/svg">
<path d="M1.91675 11.5002L1.52631 11.1878L1.27644 11.5002L1.52631 11.8125L1.91675 11.5002ZM10.5417 12.0002C10.8179 12.0002 11.0417 11.7763 11.0417 11.5002C11.0417 11.224 10.8179 11.0002 10.5417 11.0002V12.0002ZM5.35965 6.39615L1.52631 11.1878L2.30718 11.8125L6.14052 7.02084L5.35965 6.39615ZM1.52631 11.8125L5.35965 16.6042L6.14052 15.9795L2.30718 11.1878L1.52631 11.8125ZM1.91675 12.0002H10.5417V11.0002H1.91675V12.0002Z" fill="#A60014"/>
<path d="M9.58325 7.79294V7.22168C9.58325 5.60334 9.58325 4.79417 10.0572 4.23468C10.5312 3.67518 11.3293 3.54216 12.9257 3.2761L14.0969 3.0809C17.34 2.54039 18.9615 2.27013 20.0224 3.16883C21.0833 4.06752 21.0833 5.71144 21.0833 8.99927V14.0004C21.0833 17.2882 21.0833 18.9322 20.0224 19.8309C18.9615 20.7295 17.34 20.4593 14.0969 19.9188L12.9257 19.7236C11.3293 19.4575 10.5312 19.3245 10.0572 18.765C9.58325 18.2055 9.58325 17.3963 9.58325 15.778V15.3964" stroke="#A60014"/>
</svg>
