<svg width="23" height="23" viewBox="0 0 23 23" fill="none" xmlns="http://www.w3.org/2000/svg">
<path d="M6.17918 8.59561C6.48043 5.88439 8.7721 3.83325 11.5 3.83325V3.83325C14.2279 3.83325 16.5196 5.88439 16.8208 8.59561L17.0621 10.7674C17.1859 11.8815 17.5486 12.9558 18.1253 13.9171L18.6792 14.8403C19.1479 15.6214 19.3822 16.0119 19.3553 16.3333C19.331 16.6246 19.1803 16.8907 18.943 17.0615C18.6813 17.2499 18.2258 17.2499 17.3149 17.2499H5.68506C4.77416 17.2499 4.31872 17.2499 4.05699 17.0615C3.8197 16.8907 3.66905 16.6246 3.64467 16.3333C3.61779 16.0119 3.85211 15.6214 4.32076 14.8403L4.87471 13.9171C5.45145 12.9558 5.81408 11.8815 5.93787 10.7674L6.17918 8.59561Z" stroke="#221D23" stroke-width="0.75"/>
<path d="M8.72296 17.639C8.88677 18.3522 9.24771 18.9824 9.74981 19.4319C10.2519 19.8814 10.8671 20.125 11.5 20.125C12.1329 20.125 12.7481 19.8814 13.2502 19.4319C13.7523 18.9824 14.1132 18.3522 14.277 17.639" stroke="#221D23" stroke-width="0.75" stroke-linecap="round"/>
</svg>
