<svg width="30" height="29" viewBox="0 0 30 29" fill="none" xmlns="http://www.w3.org/2000/svg">
<path fill-rule="evenodd" clip-rule="evenodd" d="M18.4167 4.90653C17.3886 4.3796 16.2257 4.08398 14.9999 4.08398C11.1782 4.08398 7.96767 6.95756 7.54564 10.7559L7.24138 13.4942C7.19676 13.8958 7.17698 14.072 7.14932 14.2436C7.02156 15.0364 6.76296 15.8025 6.3841 16.5106C6.30207 16.6639 6.21104 16.816 6.00316 17.1625L5.29918 18.3358L5.269 18.3861C4.89193 19.0144 4.56593 19.5577 4.37895 20.0085C4.18493 20.4764 4.05114 21.0528 4.36825 21.6129C4.68536 22.1729 5.24847 22.3548 5.74945 22.4291C6.23227 22.5007 6.86585 22.5007 7.59868 22.5007L7.65729 22.5007H22.3425L22.4011 22.5007C23.134 22.5007 23.7675 22.5007 24.2504 22.4291C24.7513 22.3548 25.3145 22.1729 25.6316 21.6129C25.9487 21.0528 25.8149 20.4764 25.6209 20.0085C25.4339 19.5577 25.1079 19.0145 24.7308 18.3861L24.7308 18.3861L24.7006 18.3358L23.9967 17.1625C23.7888 16.816 23.6977 16.6639 23.6157 16.5106C23.2369 15.8025 22.9783 15.0364 22.8505 14.2436C22.8228 14.072 22.8031 13.8958 22.7584 13.4942L22.6559 12.5713C22.1966 12.7518 21.6997 12.8575 21.1802 12.8735L21.2676 13.6599L21.27 13.6814C21.3116 14.0556 21.3354 14.27 21.3696 14.4822C21.5238 15.4391 21.8359 16.3637 22.2931 17.2183C22.3946 17.4079 22.5055 17.5928 22.6993 17.9157L22.6993 17.9158L22.7104 17.9342L23.4144 19.1075C23.8303 19.8008 24.0962 20.2477 24.2353 20.5832C24.303 20.7464 24.3187 20.8321 24.3209 20.8708C24.2866 20.8888 24.205 20.9194 24.0302 20.9454C23.671 20.9986 23.151 21.0007 22.3425 21.0007H7.65729C6.84885 21.0007 6.32879 20.9986 5.96958 20.9454C5.79483 20.9194 5.71319 20.8888 5.67892 20.8708C5.68111 20.8321 5.69684 20.7464 5.76452 20.5832C5.90363 20.2477 6.16949 19.8008 6.58542 19.1075L7.2894 17.9342L7.30057 17.9156C7.4943 17.5928 7.60523 17.4079 7.70667 17.2183C8.16393 16.3637 8.47602 15.4391 8.63021 14.4822C8.66442 14.27 8.68823 14.0556 8.72981 13.6814L8.7322 13.6599L9.03646 10.9215C9.37409 7.88285 11.9425 5.58398 14.9999 5.58398C15.8254 5.58398 16.6152 5.75157 17.3351 6.05605C17.6242 5.61112 17.9912 5.2215 18.4167 4.90653ZM20.2101 6.18913C19.7201 6.36867 19.3044 6.70237 19.0218 7.13148C20.0662 8.07479 20.7806 9.38413 20.9579 10.8742C20.9857 10.8752 21.0135 10.8757 21.0415 10.8757C21.5511 10.8757 22.0239 10.7179 22.4137 10.4486C22.1584 8.77621 21.3594 7.29862 20.2101 6.18913ZM24.3188 20.8972C24.3182 20.8967 24.3183 20.8921 24.3211 20.8847C24.3208 20.894 24.3194 20.8977 24.3188 20.8972ZM24.333 20.8638C24.3378 20.8576 24.3417 20.8551 24.3425 20.8554C24.3432 20.8556 24.3407 20.8587 24.333 20.8638ZM5.65735 20.8554C5.65808 20.8551 5.66198 20.8576 5.66687 20.8638C5.65907 20.8587 5.65663 20.8556 5.65735 20.8554ZM5.6787 20.8847C5.68148 20.8921 5.68165 20.8967 5.68104 20.8972C5.68043 20.8977 5.67904 20.894 5.6787 20.8847Z" fill="#222222"/>
<path d="M11.4985 22.2404C11.7051 23.1397 12.1602 23.9343 12.7932 24.5011C13.4263 25.0678 14.202 25.375 15 25.375C15.798 25.375 16.5737 25.0678 17.2068 24.5011C17.8398 23.9343 18.2949 23.1397 18.5015 22.2404" stroke="url(#paint0_linear_158_13923)" stroke-width="1.5" stroke-linecap="round"/>
<ellipse cx="21.0417" cy="8.45768" rx="2.41667" ry="2.41667" fill="#B3323A"/>
<defs>
<linearGradient id="paint0_linear_158_13923" x1="18.625" y1="20.3978" x2="11.375" y2="20.3978" gradientUnits="userSpaceOnUse">
<stop stop-color="#A60014"/>
<stop offset="1" stop-color="#600B0E"/>
</linearGradient>
</defs>
</svg>
