<svg width="30" height="30" viewBox="0 0 30 30" fill="none" xmlns="http://www.w3.org/2000/svg">
<rect width="30" height="30" rx="15" fill="#221D23"/>
<path d="M15 10.625C11.879 10.625 10.0302 12.8514 9.22685 14.1277C8.99839 14.4907 8.88416 14.6721 8.89542 14.9804C8.90668 15.2886 9.03882 15.468 9.3031 15.8268C10.2371 17.0949 12.2928 19.375 15 19.375C17.7072 19.375 19.7629 17.0949 20.6969 15.8268L20.6969 15.8268C20.9612 15.468 21.0933 15.2886 21.1046 14.9804C21.1158 14.6721 21.0016 14.4907 20.7732 14.1277C19.9698 12.8514 18.121 10.625 15 10.625Z" stroke="white"/>
<circle cx="15" cy="15" r="1.875" stroke="white"/>
</svg>
