<svg width="24" height="25" viewBox="0 0 24 25" fill="none" xmlns="http://www.w3.org/2000/svg">
<path d="M17.7071 14.262L20.3552 16.9102C20.7113 17.2663 20.7113 17.8436 20.3552 18.1997C18.43 20.1249 15.3821 20.3415 13.204 18.7079L11.6286 17.5264C9.88504 16.2187 8.33622 14.6699 7.02857 12.9264L5.84701 11.3509C4.21341 9.17281 4.43001 6.12492 6.35523 4.1997C6.71133 3.8436 7.28867 3.8436 7.64477 4.1997L10.2929 6.84782C10.6834 7.23835 10.6834 7.87151 10.2929 8.26204L9.27175 9.28319C9.10946 9.44547 9.06923 9.69339 9.17187 9.89866C10.3585 12.272 12.2829 14.1964 14.6563 15.3831C14.8615 15.4857 15.1095 15.4455 15.2717 15.2832L16.2929 14.262C16.6834 13.8715 17.3166 13.8715 17.7071 14.262Z" stroke="#919191"/>
</svg>
