<svg width="23" height="22" viewBox="0 0 23 22" fill="none" xmlns="http://www.w3.org/2000/svg">
<path d="M17.2498 12.3757H17.6457C18.5885 12.3757 19.0599 12.3757 19.3528 12.0828C19.6457 11.7899 19.6457 11.3185 19.6457 10.3757V9.95898C19.6457 8.07337 19.6457 7.13056 19.0599 6.54477C18.4741 5.95898 17.5313 5.95898 15.6457 5.95898H7.354C5.46839 5.95898 4.52558 5.95898 3.93979 6.54477C3.354 7.13056 3.354 8.07337 3.354 9.95898V11.3757C3.354 11.8471 3.354 12.0828 3.50045 12.2292C3.6469 12.3757 3.8826 12.3757 4.354 12.3757H5.74984" stroke="white" stroke-width="0.75"/>
<path d="M6.229 18.1068L6.229 10.7077C6.229 9.76487 6.229 9.29347 6.5219 9.00058C6.81479 8.70768 7.2862 8.70768 8.22901 8.70768L14.7707 8.70768C15.7135 8.70768 16.1849 8.70768 16.4778 9.00058C16.7707 9.29347 16.7707 9.76487 16.7707 10.7077L16.7707 18.1068C16.7707 18.4195 16.7707 18.5759 16.6682 18.6508C16.5657 18.7257 16.4167 18.6782 16.1188 18.5832L14.0626 17.9276C13.9799 17.9012 13.9386 17.888 13.8961 17.8892C13.8536 17.8905 13.8131 17.906 13.732 17.937L11.6785 18.7227C11.5902 18.7564 11.546 18.7733 11.4998 18.7733C11.4536 18.7733 11.4095 18.7564 11.3212 18.7227L9.26764 17.937C9.18661 17.906 9.1461 17.8905 9.10358 17.8892C9.06107 17.888 9.01974 17.9012 8.93708 17.9276L6.88089 18.5832C6.58296 18.6782 6.434 18.7257 6.3315 18.6508C6.229 18.5759 6.229 18.4195 6.229 18.1068Z" stroke="white" stroke-width="0.75"/>
<path d="M9.104 12.375L12.9373 12.375" stroke="white" stroke-width="0.75" stroke-linecap="round"/>
<path d="M9.104 15.125L13.8957 15.125" stroke="white" stroke-width="0.75" stroke-linecap="round"/>
<path d="M16.7707 5.95768V5.89102C16.7707 4.19396 16.7707 3.34543 16.2435 2.81822C15.7163 2.29102 14.8677 2.29102 13.1707 2.29102H9.829C8.13195 2.29102 7.28342 2.29102 6.75621 2.81822C6.229 3.34543 6.229 4.19396 6.229 5.89102V5.95768" stroke="white" stroke-width="0.75"/>
</svg>
