<svg width="30" height="30" viewBox="0 0 30 30" fill="none" xmlns="http://www.w3.org/2000/svg">
<path d="M17.5 18.75L12.5 23.75L17.5 28.75" stroke="#919191"/>
<path d="M22.5777 10.625C23.3922 12.0358 23.7967 13.6459 23.7457 15.2742C23.6947 16.9024 23.1901 18.484 22.2888 19.841C21.3876 21.198 20.1254 22.2765 18.6443 22.9549C17.1633 23.6334 15.5223 23.885 13.9061 23.6814" stroke="#919191" stroke-linecap="round"/>
<path d="M12.5 11.25L17.5 6.25L12.5 1.25" stroke="#919191"/>
<path d="M7.42228 19.375C6.59594 17.9437 6.19184 16.3077 6.25675 14.6563C6.32166 13.005 6.85292 11.4057 7.78904 10.0437C8.72517 8.68175 10.0279 7.61273 11.5464 6.96042C13.0648 6.30811 14.737 6.09918 16.3693 6.35781" stroke="#919191" stroke-linecap="round"/>
</svg>
