<svg width="16" height="17" viewBox="0 0 16 17" fill="none" xmlns="http://www.w3.org/2000/svg">
<path d="M10.4749 6.73223C10.6701 6.53697 10.6701 6.22039 10.4749 6.02513C10.2796 5.82986 9.96303 5.82986 9.76777 6.02513L10.4749 6.73223ZM5.52513 10.2678C5.32986 10.463 5.32986 10.7796 5.52513 10.9749C5.72039 11.1701 6.03697 11.1701 6.23223 10.9749L5.52513 10.2678ZM9.76777 10.9749C9.96303 11.1701 10.2796 11.1701 10.4749 10.9749C10.6701 10.7796 10.6701 10.463 10.4749 10.2678L9.76777 10.9749ZM6.23223 6.02513C6.03697 5.82986 5.72039 5.82986 5.52513 6.02513C5.32986 6.22039 5.32986 6.53697 5.52513 6.73223L6.23223 6.02513ZM13.5 8.5C13.5 11.5376 11.0376 14 8 14V15C11.5899 15 14.5 12.0899 14.5 8.5H13.5ZM8 14C4.96243 14 2.5 11.5376 2.5 8.5H1.5C1.5 12.0899 4.41015 15 8 15V14ZM2.5 8.5C2.5 5.46243 4.96243 3 8 3V2C4.41015 2 1.5 4.91015 1.5 8.5H2.5ZM8 3C11.0376 3 13.5 5.46243 13.5 8.5H14.5C14.5 4.91015 11.5899 2 8 2V3ZM9.76777 6.02513L7.64645 8.14645L8.35355 8.85355L10.4749 6.73223L9.76777 6.02513ZM7.64645 8.14645L5.52513 10.2678L6.23223 10.9749L8.35355 8.85355L7.64645 8.14645ZM10.4749 10.2678L8.35355 8.14645L7.64645 8.85355L9.76777 10.9749L10.4749 10.2678ZM8.35355 8.14645L6.23223 6.02513L5.52513 6.73223L7.64645 8.85355L8.35355 8.14645Z" fill="white"/>
</svg>
