<svg width="20" height="23" viewBox="0 0 20 23" fill="none" xmlns="http://www.w3.org/2000/svg">
<path d="M13.332 20.125V18.125C13.332 16.4813 13.332 15.6594 12.8781 15.1062C12.7949 15.0049 12.7021 14.9121 12.6008 14.829C12.0476 14.375 11.2258 14.375 9.58203 14.375V14.375C7.93829 14.375 7.11642 14.375 6.56324 14.829C6.46198 14.9121 6.36912 15.0049 6.28601 15.1062C5.83203 15.6594 5.83203 16.4813 5.83203 18.125V20.125" stroke="white"/>
<path d="M5.83203 7.66663H9.9987" stroke="white" stroke-linecap="round"/>
<path d="M2.5 8.875C2.5 6.04657 2.5 4.63236 3.37868 3.75368C4.25736 2.875 5.67157 2.875 8.5 2.875H13.2554C13.7039 2.875 13.9281 2.875 14.1257 2.96501C14.3232 3.05501 14.4703 3.22422 14.7646 3.56264L17.0092 6.14393C17.2519 6.42305 17.3733 6.56262 17.4366 6.73203C17.5 6.90144 17.5 7.08639 17.5 7.45628V14.125C17.5 16.9534 17.5 18.3676 16.6213 19.2463C15.7426 20.125 14.3284 20.125 11.5 20.125H8.5C5.67157 20.125 4.25736 20.125 3.37868 19.2463C2.5 18.3676 2.5 16.9534 2.5 14.125V8.875Z" stroke="white"/>
</svg>
