<svg width="32" height="32" viewBox="0 0 32 32" fill="none" xmlns="http://www.w3.org/2000/svg">
<path fill-rule="evenodd" clip-rule="evenodd" d="M14.6648 4.66699C9.2977 4.66699 4.94678 9.01791 4.94678 14.385C4.94678 19.7522 9.2977 24.1031 14.6648 24.1031C20.032 24.1031 24.3829 19.7522 24.3829 14.385C24.3829 9.01791 20.032 4.66699 14.6648 4.66699ZM2.94678 14.385C2.94678 7.91334 8.19313 2.66699 14.6648 2.66699C21.1365 2.66699 26.3829 7.91334 26.3829 14.385C26.3829 20.8567 21.1365 26.1031 14.6648 26.1031C8.19313 26.1031 2.94678 20.8567 2.94678 14.385Z" fill="white"/>
<path fill-rule="evenodd" clip-rule="evenodd" d="M21.9812 20.8635L29.4686 28.3314L28.0562 29.7475L20.5688 22.2796L21.9812 20.8635Z" fill="white"/>
</svg>
