<svg width="24" height="25" viewBox="0 0 24 25" fill="none" xmlns="http://www.w3.org/2000/svg">
<path d="M4 8.15686C4 7.33935 4 6.9306 4.15224 6.56306C4.30448 6.19552 4.59351 5.90649 5.17157 5.32843L5.82843 4.67157C6.40649 4.09351 6.69552 3.80448 7.06306 3.65224C7.4306 3.5 7.83935 3.5 8.65685 3.5H15.3431C16.1606 3.5 16.5694 3.5 16.9369 3.65224C17.3045 3.80448 17.5935 4.09351 18.1716 4.67157L18.8284 5.32843C19.4065 5.90649 19.6955 6.19552 19.8478 6.56306C20 6.9306 20 7.33935 20 8.15685V17.5C20 19.3856 20 20.3284 19.4142 20.9142C18.8284 21.5 17.8856 21.5 16 21.5H8C6.11438 21.5 5.17157 21.5 4.58579 20.9142C4 20.3284 4 19.3856 4 17.5V8.15686Z" stroke="#221D23" stroke-width="1.5"/>
<path d="M4 7.5H20" stroke="#221D23" stroke-width="1.5" stroke-linecap="round"/>
<path d="M9 11.5C9 12.2956 9.31607 13.0587 9.87868 13.6213C10.4413 14.1839 11.2044 14.5 12 14.5C12.7956 14.5 13.5587 14.1839 14.1213 13.6213C14.6839 13.0587 15 12.2957 15 11.5" stroke="#221D23" stroke-width="1.5" stroke-linecap="round"/>
</svg>
