<svg width="33" height="33" viewBox="0 0 33 33" fill="none" xmlns="http://www.w3.org/2000/svg">
<path d="M14.3969 9.797C15.4457 7.18233 15.9701 5.875 16.8719 5.875C17.7736 5.875 18.298 7.18233 19.3468 9.797L19.3957 9.91875C19.9882 11.3959 20.2845 12.1345 20.8883 12.5834C21.4921 13.0323 22.2847 13.1033 23.8699 13.2453L24.1565 13.2709C26.7509 13.5033 28.0481 13.6195 28.3257 14.4448C28.6033 15.2701 27.6399 16.1466 25.7132 17.8995L25.0701 18.4845C24.0948 19.3719 23.6071 19.8155 23.3798 20.397C23.3374 20.5055 23.3022 20.6166 23.2743 20.7297C23.1249 21.3359 23.2677 21.9796 23.5533 23.2669L23.6422 23.6676C24.1671 26.0334 24.4296 27.2162 23.9713 27.7265C23.8001 27.9171 23.5775 28.0544 23.3303 28.1218C22.6687 28.3024 21.7294 27.537 19.8508 26.0062C18.6172 25.001 18.0005 24.4984 17.2923 24.3854C17.0138 24.3409 16.73 24.3409 16.4514 24.3854C15.7433 24.4984 15.1265 25.001 13.8929 26.0062C12.0143 27.537 11.075 28.3024 10.4134 28.1218C10.1662 28.0544 9.94365 27.9171 9.77242 27.7265C9.31418 27.2162 9.57663 26.0334 10.1015 23.6676L10.1904 23.2669C10.476 21.9796 10.6188 21.3359 10.4694 20.7297C10.4416 20.6166 10.4063 20.5055 10.3639 20.397C10.1366 19.8155 9.64895 19.3719 8.67361 18.4845L8.03057 17.8995C6.10385 16.1466 5.14048 15.2701 5.41805 14.4448C5.69563 13.6195 6.99284 13.5033 9.58725 13.2709L9.87384 13.2453C11.4591 13.1033 12.2517 13.0323 12.8555 12.5834C13.4593 12.1345 13.7555 11.3959 14.3481 9.91875L14.3969 9.797Z" stroke="#6D6F72" stroke-width="2"/>
</svg>
