<svg width="21" height="21" viewBox="0 0 21 21" fill="none" xmlns="http://www.w3.org/2000/svg">
<path d="M7.51205 8.59501L10.1035 10.5386C10.522 10.8524 11.1116 10.7908 11.4561 10.3971L16.6787 4.42834" stroke="#919191" stroke-linecap="round"/>
<path d="M17.5122 10.2617C17.5122 11.8288 17.0213 13.3565 16.1086 14.6303C15.1958 15.9041 13.9069 16.86 12.423 17.3637C10.9391 17.8674 9.33467 17.8937 7.83507 17.4388C6.33547 16.9839 5.01603 16.0707 4.06206 14.8274C3.10808 13.5842 2.5675 12.0733 2.51622 10.5071C2.46495 8.94088 2.90556 7.39792 3.77618 6.09494C4.64681 4.79197 5.9037 3.79443 7.37033 3.24242C8.83697 2.69042 10.4397 2.61169 11.9533 3.01727" stroke="#919191" stroke-linecap="round"/>
</svg>
