<svg width="22" height="22" viewBox="0 0 22 22" fill="none" xmlns="http://www.w3.org/2000/svg">
<path d="M9.16663 13.75L9.16663 11" stroke="#A60014" stroke-linecap="round"/>
<path d="M12.8334 13.75L12.8334 11" stroke="#A60014" stroke-linecap="round"/>
<path d="M2.75 6.41669H19.25V6.41669C18.5522 6.41669 18.2033 6.41669 17.9194 6.50281C17.2802 6.69671 16.78 7.19691 16.5861 7.83612C16.5 8.12002 16.5 8.46891 16.5 9.16669V14.3334C16.5 16.219 16.5 17.1618 15.9142 17.7476C15.3284 18.3334 14.3856 18.3334 12.5 18.3334H9.5C7.61438 18.3334 6.67157 18.3334 6.08579 17.7476C5.5 17.1618 5.5 16.219 5.5 14.3334V9.16669C5.5 8.46891 5.5 8.12002 5.41388 7.83612C5.21998 7.19691 4.71977 6.69671 4.08057 6.50281C3.79667 6.41669 3.44778 6.41669 2.75 6.41669V6.41669Z" stroke="#A60014" stroke-linecap="round"/>
<path d="M9.22918 3.08971C9.33363 2.99225 9.5638 2.90613 9.88398 2.84471C10.2042 2.78329 10.5965 2.75 11 2.75C11.4036 2.75 11.7959 2.78329 12.1161 2.84471C12.4363 2.90613 12.6665 2.99225 12.7709 3.08971" stroke="#A60014" stroke-linecap="round"/>
</svg>
