<svg width="35" height="34" viewBox="0 0 35 34" fill="none" xmlns="http://www.w3.org/2000/svg">
<path d="M24.8752 23.7806C24.6767 23.5886 24.3602 23.5939 24.1682 23.7923C23.9762 23.9908 23.9814 24.3073 24.1799 24.4993L24.8752 23.7806ZM29.1002 29.2593C29.2986 29.4513 29.6152 29.4461 29.8072 29.2476C29.9992 29.0492 29.9939 28.7326 29.7955 28.5406L29.1002 29.2593ZM16.1978 20.4C16.1978 20.6761 16.4217 20.9 16.6978 20.9C16.974 20.9 17.1978 20.6761 17.1978 20.4H16.1978ZM17.1978 11.9C17.1978 11.6238 16.974 11.4 16.6978 11.4C16.4217 11.4 16.1978 11.6238 16.1978 11.9H17.1978ZM12.4478 15.65C12.1717 15.65 11.9478 15.8738 11.9478 16.15C11.9478 16.4261 12.1717 16.65 12.4478 16.65V15.65ZM20.9478 16.65C21.224 16.65 21.4478 16.4261 21.4478 16.15C21.4478 15.8738 21.224 15.65 20.9478 15.65V16.65ZM27.3612 16.2066C27.3612 22.0645 22.6124 26.8133 16.7545 26.8133V27.8133C23.1647 27.8133 28.3612 22.6168 28.3612 16.2066H27.3612ZM16.7545 26.8133C10.8966 26.8133 6.14783 22.0645 6.14783 16.2066H5.14783C5.14783 22.6168 10.3443 27.8133 16.7545 27.8133V26.8133ZM6.14783 16.2066C6.14783 10.3487 10.8966 5.59998 16.7545 5.59998V4.59998C10.3443 4.59998 5.14783 9.79646 5.14783 16.2066H6.14783ZM16.7545 5.59998C22.6124 5.59998 27.3612 10.3487 27.3612 16.2066H28.3612C28.3612 9.79646 23.1647 4.59998 16.7545 4.59998V5.59998ZM24.1799 24.4993L29.1002 29.2593L29.7955 28.5406L24.8752 23.7806L24.1799 24.4993ZM17.1978 20.4V16.15H16.1978V20.4H17.1978ZM17.1978 16.15V11.9H16.1978V16.15H17.1978ZM12.4478 16.65H16.6978V15.65H12.4478V16.65ZM16.6978 16.65H20.9478V15.65H16.6978V16.65Z" fill="white"/>
</svg>
