<svg width="51" height="51" viewBox="0 0 51 51" fill="none" xmlns="http://www.w3.org/2000/svg">
<path d="M25.5001 8.83335C34.6876 8.83335 42.1667 16.3125 42.1667 25.5C42.1667 34.6875 34.6876 42.1667 25.5001 42.1667C16.3126 42.1667 8.83341 34.6875 8.83341 25.5C8.83341 16.3125 16.3126 8.83335 25.5001 8.83335ZM25.5001 4.66669C14.0001 4.66669 4.66675 14 4.66675 25.5C4.66675 37 14.0001 46.3334 25.5001 46.3334C37.0001 46.3334 46.3334 37 46.3334 25.5C46.3334 14 37.0001 4.66669 25.5001 4.66669ZM27.5834 25.5V17.1667H23.4167V25.5H17.1667L25.5001 33.8334L33.8334 25.5H27.5834Z" fill="#919191"/>
</svg>
