<svg width="56" height="56" viewBox="0 0 56 56" fill="none" xmlns="http://www.w3.org/2000/svg">
<g clip-path="url(#clip0_1_22694)">
<path d="M27.9998 39.2001C34.1854 39.2001 39.1998 34.1856 39.1998 28C39.1998 21.8145 34.1854 16.8 27.9998 16.8C21.8142 16.8 16.7998 21.8145 16.7998 28C16.8065 34.1829 21.817 39.1934 27.9998 39.2001ZM27.9998 18.6667C33.1545 18.6667 37.3331 22.8454 37.3331 28C37.3331 33.1547 33.1545 37.3334 27.9998 37.3334C22.8451 37.3334 18.6665 33.1547 18.6665 28C18.6721 22.8477 22.8475 18.6724 27.9998 18.6667Z" fill="url(#paint0_linear_1_22694)"/>
<path d="M28.0004 33.5999C31.0932 33.5999 33.6004 31.0927 33.6004 27.9999C33.6004 24.9071 31.0932 22.3999 28.0004 22.3999C24.9076 22.3999 22.4004 24.9071 22.4004 27.9999C22.4035 31.0914 24.9089 33.5968 28.0004 33.5999ZM28.0004 24.2666C30.0623 24.2666 31.7337 25.938 31.7337 27.9999C31.7337 30.0618 30.0623 31.7332 28.0004 31.7332C25.9385 31.7332 24.2671 30.0618 24.2671 27.9999C24.2671 25.938 25.9385 24.2666 28.0004 24.2666Z" fill="url(#paint1_linear_1_22694)"/>
<path d="M8.70626 25.6089C8.02275 25.7823 7.52986 26.3778 7.48733 27.0817C7.4724 27.386 7.4668 27.6921 7.4668 28.0001C7.4668 28.3081 7.4724 28.6142 7.48733 28.9176C7.52923 29.6223 8.02338 30.2185 8.70813 30.3904L11.8292 31.1706C11.9725 31.9064 12.1671 32.6312 12.4116 33.3397L10.0979 35.5722C9.58775 36.0653 9.45903 36.8335 9.78053 37.466C9.92053 37.7357 10.068 38.0017 10.2201 38.2649C10.3723 38.5281 10.5281 38.7894 10.6868 39.0433C11.0734 39.6378 11.8024 39.9108 12.4844 39.7162L15.5868 38.8268C16.0816 39.3886 16.6116 39.9186 17.1735 40.4134L16.2868 43.513C16.0929 44.1949 16.3662 44.9235 16.9607 45.3097C17.2145 45.4721 17.474 45.628 17.7363 45.7764C17.9985 45.9248 18.2683 46.0778 18.5361 46.2169C19.169 46.5386 19.9377 46.4103 20.4317 45.9005L22.6605 43.5868C23.3692 43.831 24.0939 44.0256 24.8296 44.1692L25.6089 47.2921C25.7823 47.9756 26.3779 48.4685 27.0817 48.511C27.386 48.526 27.6921 48.5316 28.0001 48.5316C28.3081 48.5316 28.6143 48.526 28.9176 48.511C29.6224 48.4687 30.2185 47.9748 30.3913 47.2902L31.1707 44.1692C31.9064 44.0259 32.6312 43.8313 33.3397 43.5868L35.5723 45.9005C36.0649 46.4115 36.8337 46.5403 37.466 46.2178C37.7357 46.0778 38.0017 45.9304 38.2649 45.7782C38.5281 45.6261 38.7895 45.4702 39.0433 45.3116C39.6381 44.9252 39.9111 44.1959 39.7163 43.514L38.8268 40.4134C39.3887 39.9186 39.9186 39.3886 40.4135 38.8268L43.5131 39.7134C44.1948 39.9048 44.922 39.6321 45.3097 39.0396C45.4721 38.7857 45.628 38.5262 45.7764 38.264C45.9248 38.0017 46.0779 37.732 46.2169 37.4641C46.5393 36.8313 46.4109 36.0623 45.9005 35.5685L43.5868 33.3397C43.831 32.6311 44.0256 31.9063 44.1692 31.1706L47.2893 30.3913C47.9743 30.2195 48.4688 29.6234 48.5111 28.9185C48.526 28.6142 48.5316 28.3081 48.5316 28.0001C48.5316 27.6921 48.526 27.386 48.5111 27.0826C48.4687 26.3779 47.9748 25.7817 47.2903 25.6089L44.1711 24.8268C44.0278 24.091 43.8332 23.3662 43.5887 22.6577L45.9024 20.4252C46.4125 19.9321 46.5412 19.1639 46.2197 18.5314C46.0797 18.2617 45.9323 17.9957 45.7801 17.7325C45.628 17.4693 45.4721 17.208 45.3135 16.9541C44.9275 16.3588 44.1979 16.0857 43.5159 16.2812L40.4135 17.1734C39.9186 16.6115 39.3887 16.0816 38.8268 15.5868L39.7135 12.4872C39.9073 11.8053 39.6341 11.0767 39.0396 10.6905C38.7857 10.5281 38.5263 10.3722 38.264 10.2238C38.0017 10.0754 37.732 9.92236 37.4641 9.7833C36.8315 9.46031 36.062 9.58874 35.5685 10.0997L33.3397 12.4134C32.6311 12.1692 31.9063 11.9746 31.1707 11.831L30.3913 8.7081C30.2179 8.02459 29.6224 7.5317 28.9185 7.48916C28.307 7.45836 27.6942 7.45836 27.0827 7.48916C26.3784 7.5313 25.7824 8.02427 25.6089 8.7081L24.8268 11.8292C24.0911 11.9724 23.3663 12.167 22.6577 12.4116L20.4252 10.0978C19.9326 9.58687 19.1638 9.45805 18.5315 9.7805C18.2617 9.9205 17.9957 10.068 17.7325 10.2201C17.4693 10.3722 17.208 10.5281 16.9541 10.6868C16.3594 11.0731 16.0864 11.8024 16.2812 12.4844L17.1735 15.5868C16.6116 16.0816 16.0816 16.6115 15.5868 17.1734L12.4872 16.2868C11.8053 16.0929 11.0767 16.3662 10.6905 16.9606C10.5281 17.2145 10.3723 17.474 10.2239 17.7362C10.0755 17.9985 9.9224 18.2682 9.78333 18.5361C9.46098 19.1689 9.58934 19.9379 10.0997 20.4317L12.4135 22.6605C12.1693 23.3691 11.9747 24.0939 11.8311 24.8296L8.70626 25.6089ZM13.8303 21.436L11.5305 19.2165C11.6295 19.0298 11.7324 18.846 11.8395 18.6649C11.9465 18.4838 12.0523 18.3059 12.1568 18.131L15.2368 19.0112C15.8405 19.1812 16.488 18.9861 16.8972 18.5109C17.395 17.9329 17.9347 17.3922 18.5119 16.8934C18.9872 16.4851 19.1824 15.838 19.0121 15.2349L18.1311 12.1549C18.3056 12.0466 18.4848 11.9412 18.6677 11.8357C18.8507 11.7302 19.0327 11.6276 19.2165 11.5286L21.4379 13.8302C21.8777 14.2802 22.5391 14.4332 23.1319 14.2222C23.8456 13.9682 24.5784 13.7713 25.3233 13.6333C25.9443 13.5223 26.4433 13.059 26.6001 12.448L27.3757 9.3437C27.7911 9.32876 28.2157 9.32876 28.6283 9.3437L29.4039 12.4498C29.56 13.0597 30.0574 13.5224 30.6769 13.6342C31.4231 13.7729 32.1571 13.9705 32.8721 14.225C33.4655 14.4351 34.1268 14.2809 34.5661 13.8302L36.7856 11.5305C36.9723 11.6294 37.1561 11.7324 37.3372 11.8394C37.5183 11.9465 37.6962 12.0522 37.8711 12.1568L36.9909 15.2368C36.8199 15.8404 37.0152 16.4885 37.4912 16.8972C38.0686 17.3951 38.6086 17.9347 39.1068 18.5118C39.5163 18.9853 40.1623 19.1802 40.7653 19.0121L43.8453 18.131C43.9536 18.3056 44.0591 18.4848 44.1645 18.6677C44.27 18.8506 44.3727 19.0326 44.4716 19.2165L42.17 21.4378C41.7205 21.8779 41.5675 22.539 41.778 23.1318C42.032 23.8456 42.2289 24.5784 42.3669 25.3233C42.478 25.9443 42.9412 26.4433 43.5523 26.6001L46.6565 27.3757C46.664 27.5838 46.6668 27.792 46.6668 28.002C46.6668 28.212 46.6668 28.4192 46.6565 28.6273L43.5504 29.4038C42.9406 29.56 42.4778 30.0574 42.366 30.6769C42.2273 31.4231 42.0298 32.1571 41.7752 32.8721C41.5657 33.4655 41.7197 34.1265 42.17 34.5661L44.4697 36.7856C44.3708 36.9722 44.2678 37.1561 44.1608 37.3372C44.0538 37.5182 43.948 37.6962 43.8435 37.871L40.7635 36.9909C40.1598 36.8201 39.5119 37.0153 39.1031 37.4912C38.6052 38.0686 38.0655 38.6086 37.4884 39.1068C37.0131 39.5151 36.8179 40.1622 36.9881 40.7653L37.8692 43.8453C37.6947 43.9536 37.5155 44.059 37.3325 44.1645C37.1496 44.27 36.9676 44.3726 36.7837 44.4716L34.5624 42.17C34.1223 41.7205 33.4612 41.5675 32.8684 41.778C32.1546 42.032 31.4219 42.2289 30.6769 42.3669C30.056 42.4779 29.5569 42.9412 29.4001 43.5522L28.6245 46.6565C28.2092 46.6714 27.7845 46.6714 27.372 46.6565L26.6001 43.5504C26.444 42.9405 25.9466 42.4777 25.3271 42.366C24.5809 42.2273 23.8469 42.0297 23.1319 41.7752C22.5385 41.5651 21.8772 41.7193 21.4379 42.17L19.2184 44.4697C19.0317 44.3708 18.8479 44.2678 18.6668 44.1608C18.4857 44.0537 18.3078 43.948 18.1329 43.8434L19.0131 40.7634C19.1841 40.1598 18.9888 39.5117 18.5128 39.103C17.9341 38.6053 17.3929 38.0656 16.8935 37.4884C16.4844 37.0141 15.838 36.8191 15.2349 36.9881L12.1549 37.8692C12.0467 37.6946 11.9412 37.5154 11.8357 37.3325C11.7303 37.1496 11.6276 36.9676 11.5287 36.7837L13.8303 34.5624C14.2798 34.1223 14.4327 33.4612 14.2223 32.8684C13.9683 32.1546 13.7713 31.4218 13.6333 30.6769C13.5223 30.0559 13.059 29.5569 12.448 29.4001L9.34373 28.6236C9.33346 28.4173 9.33346 28.2101 9.33346 28.0001C9.33346 27.7901 9.33346 27.582 9.34373 27.3738L12.4499 26.5982C13.0597 26.4421 13.5225 25.9447 13.6343 25.3252C13.7729 24.579 13.9705 23.845 14.2251 23.13C14.4346 22.5366 14.2805 21.8756 13.8303 21.436Z" fill="url(#paint2_linear_1_22694)"/>
<path d="M3.83918 15.75C4.05589 15.8697 4.31129 15.8984 4.54917 15.8298C4.78705 15.7612 4.98792 15.6008 5.10758 15.3841C5.27558 15.0798 5.44949 14.7796 5.62931 14.4834C5.89632 14.0425 5.75529 13.4685 5.31431 13.2015C4.87333 12.9345 4.29939 13.0755 4.03238 13.5165C3.84011 13.8338 3.65344 14.1558 3.47238 14.4825C3.22386 14.9338 3.38804 15.5011 3.83918 15.75Z" fill="url(#paint3_linear_1_22694)"/>
<path d="M3.15033 19.8894C3.24802 19.587 3.35162 19.2874 3.46113 18.9906C3.62428 18.5117 3.37612 17.99 2.90163 17.8144C2.42714 17.6387 1.89911 17.8732 1.71113 18.3429C1.5926 18.6621 1.4806 18.986 1.37513 19.3108C1.29833 19.5462 1.31822 19.8024 1.43043 20.0232C1.54263 20.2439 1.73795 20.411 1.9734 20.4877C2.06688 20.5179 2.1645 20.5333 2.26273 20.5334C2.66681 20.5335 3.02507 20.2736 3.15033 19.8894Z" fill="url(#paint4_linear_1_22694)"/>
<path d="M0.414164 23.1728C0.359097 23.493 0.308697 23.815 0.263897 24.137C0.229578 24.3822 0.294084 24.6309 0.443219 24.8286C0.592355 25.0262 0.813898 25.1565 1.0591 25.1907C1.10205 25.197 1.14542 25.2001 1.18883 25.2C1.65407 25.1999 2.04816 24.8572 2.11283 24.3964C2.15576 24.0931 2.20616 23.7916 2.25376 23.4939C2.31112 23.1653 2.1888 22.831 1.93289 22.6171C1.67698 22.4031 1.32635 22.3419 1.01309 22.4565C0.699826 22.5712 0.471517 22.8442 0.414164 23.1728Z" fill="url(#paint5_linear_1_22694)"/>
<path d="M28 0.000113923C21.1062 -0.0196301 14.4518 2.52765 9.33333 7.14572V4.66678C9.33333 4.15132 8.91547 3.73345 8.4 3.73345C7.88453 3.73345 7.46667 4.15132 7.46667 4.66678V8.40012C7.46729 8.88216 7.6554 9.34507 7.9912 9.69092C8.00147 9.70305 8.0052 9.71891 8.01733 9.73011C8.02947 9.74132 8.04813 9.74692 8.06213 9.75905C8.40567 10.0841 8.86038 10.2657 9.33333 10.2668H13.0667C13.5821 10.2668 14 9.84891 14 9.33345C14 8.81798 13.5821 8.40012 13.0667 8.40012H10.7333C15.4904 4.17438 21.6371 1.84859 28 1.86678C42.433 1.86678 54.1333 13.5671 54.1333 28.0001C54.1333 42.4332 42.433 54.1335 28 54.1335C13.567 54.1335 1.86667 42.4332 1.86667 28.0001C1.86667 27.4847 1.4488 27.0668 0.933333 27.0668C0.417868 27.0668 0 27.4847 0 28.0001C0 43.4641 12.536 56.0001 28 56.0001C43.464 56.0001 56 43.4641 56 28.0001C56 12.5361 43.464 0.000113923 28 0.000113923Z" fill="url(#paint6_linear_1_22694)"/>
</g>
<defs>
<linearGradient id="paint0_linear_1_22694" x1="16.7998" y1="29.981" x2="39.1998" y2="29.981" gradientUnits="userSpaceOnUse">
<stop stop-color="#C4161C"/>
<stop offset="1" stop-color="#600B0E"/>
</linearGradient>
<linearGradient id="paint1_linear_1_22694" x1="22.4004" y1="28.9904" x2="33.6004" y2="28.9904" gradientUnits="userSpaceOnUse">
<stop stop-color="#C4161C"/>
<stop offset="1" stop-color="#600B0E"/>
</linearGradient>
<linearGradient id="paint2_linear_1_22694" x1="7.4668" y1="31.6305" x2="48.5316" y2="31.6305" gradientUnits="userSpaceOnUse">
<stop stop-color="#C4161C"/>
<stop offset="1" stop-color="#600B0E"/>
</linearGradient>
<linearGradient id="paint3_linear_1_22694" x1="3.35645" y1="14.714" x2="5.76441" y2="14.714" gradientUnits="userSpaceOnUse">
<stop stop-color="#C4161C"/>
<stop offset="1" stop-color="#600B0E"/>
</linearGradient>
<linearGradient id="paint4_linear_1_22694" x1="1.3291" y1="19.3904" x2="3.51122" y2="19.3904" gradientUnits="userSpaceOnUse">
<stop stop-color="#C4161C"/>
<stop offset="1" stop-color="#600B0E"/>
</linearGradient>
<linearGradient id="paint5_linear_1_22694" x1="0.254883" y1="24.0475" x2="2.26769" y2="24.0475" gradientUnits="userSpaceOnUse">
<stop stop-color="#C4161C"/>
<stop offset="1" stop-color="#600B0E"/>
</linearGradient>
<linearGradient id="paint6_linear_1_22694" x1="0" y1="32.9525" x2="56" y2="32.9525" gradientUnits="userSpaceOnUse">
<stop stop-color="#C4161C"/>
<stop offset="1" stop-color="#600B0E"/>
</linearGradient>
<clipPath id="clip0_1_22694">
<rect width="56" height="56" fill="white"/>
</clipPath>
</defs>
</svg>
