<svg width="56" height="56" viewBox="0 0 56 56" fill="none" xmlns="http://www.w3.org/2000/svg">
<g clip-path="url(#clip0_1_22721)">
<path d="M20.0277 26.5589C19.2829 26.2752 18.4719 26.3004 17.7448 26.6299C17.0177 26.9575 16.4624 27.5473 16.1815 28.2912C15.6 29.8312 16.3756 31.5579 17.9119 32.1412C18.2544 32.2709 18.6119 32.3353 18.9684 32.3353C19.3856 32.3353 19.8028 32.2467 20.1948 32.0693C20.9219 31.7417 21.4772 31.1519 21.7581 30.408C22.3405 28.8689 21.5649 27.1413 20.0277 26.5589ZM20.0109 29.7481C19.7963 30.3156 19.1401 30.6105 18.5727 30.3959C17.9987 30.1775 17.7084 29.5297 17.9277 28.9511C18.0892 28.5227 18.5157 28.2305 18.9721 28.2305C19.1056 28.2305 19.2381 28.2539 19.366 28.3024C19.9409 28.5208 20.2312 29.1695 20.0109 29.7481Z" fill="url(#paint0_linear_1_22721)"/>
<path d="M1.86667 52.2666H3.73333C4.7628 52.2666 5.6 51.4294 5.6 50.3999C7.65893 50.3999 9.33333 48.7255 9.33333 46.6666V43.8666H11.508C14.1288 43.8666 16.4929 42.419 17.6773 40.0912L19.8623 35.8138C20.4652 35.7298 21.0607 35.5664 21.6309 35.3107C23.2223 34.5967 24.4412 33.3031 25.0619 31.6679C25.1739 31.373 25.2551 31.0743 25.3223 30.7756L42.7849 37.421C43.218 37.5862 43.6679 37.6683 44.1177 37.6683C44.6357 37.6683 45.1519 37.5591 45.6381 37.3398C46.5453 36.931 47.2397 36.1918 47.5916 35.2575L48.2505 33.5196L49.9903 34.186C50.3141 34.3092 50.6473 34.3671 50.9759 34.3671C52.1033 34.3671 53.1692 33.6792 53.5957 32.562L55.5781 27.3307C56.1232 25.8868 55.3961 24.2684 53.9588 23.7234L53.5575 23.5703L54.7568 22.7704C55.6304 22.1871 56.0989 21.1763 55.9813 20.1328C55.8637 19.0884 55.1815 18.2064 54.1977 17.8303L17.6624 3.91616C16.2297 3.37202 14.6095 4.09722 14.0588 5.53922L10.7529 14.2519C10.3283 15.3868 10.6951 16.6207 11.5649 17.3646L10.178 21.0176C9.44813 22.9394 10.4169 25.0972 12.3396 25.8299L13.2767 26.1846C13.1264 26.4562 12.9883 26.7362 12.8763 27.032C12.1828 28.8576 12.3713 30.8027 13.2216 32.4071L11.186 36.399H9.33333V33.599C9.33333 31.54 7.65893 29.8656 5.6 29.8656C5.6 28.8362 4.7628 27.999 3.73333 27.999H1.86667C0.8372 27.999 0 28.8362 0 29.8656V50.399C0 51.4284 0.8372 52.2666 1.86667 52.2666ZM23.3175 31.0043C22.8732 32.1738 22.0033 33.0978 20.8675 33.6074C19.7381 34.1151 18.4772 34.1515 17.3189 33.7082C14.9193 32.7935 13.7088 30.0962 14.6197 27.6956C15.0649 26.5262 15.9348 25.6012 17.0716 25.0916C17.6764 24.82 18.3195 24.6838 18.9625 24.6838C19.5216 24.6838 20.0797 24.7855 20.6173 24.9908C23.0169 25.9055 24.2284 28.6038 23.3165 31.0034L23.3175 31.0043ZM53.2933 25.4659C53.7721 25.6479 54.0129 26.1874 53.8309 26.669L51.8495 31.8984C51.6703 32.3688 51.1271 32.618 50.6548 32.4416L48.9123 31.7743L51.5041 24.9386L51.6535 24.8387L53.2933 25.4659ZM12.4992 14.9108L15.8023 6.20562C15.9469 5.82856 16.2932 5.59989 16.6665 5.59989C16.7767 5.59989 16.8896 5.61949 16.9997 5.66149L53.5351 19.5738C53.8664 19.7007 54.0885 19.9863 54.1287 20.3391C54.1679 20.6919 54.0157 21.0195 53.7208 21.2155L44.2008 27.5659C43.9488 27.7358 43.6324 27.7731 43.3589 27.6658L13.0377 16.113C12.5608 15.9319 12.32 15.3915 12.4992 14.9108ZM11.9224 21.6803L13.2477 18.1906L42.6916 29.4102C43.0108 29.5324 43.3449 29.5922 43.68 29.5922C44.226 29.5922 44.7701 29.4316 45.2377 29.119L48.8348 26.7194L45.8472 34.5967C45.6708 35.0643 45.3245 35.4339 44.8737 35.6364C44.4229 35.8399 43.918 35.8539 43.4513 35.6756L25.4604 28.8296C25.2616 26.3983 23.7113 24.1714 21.2856 23.2464C19.6616 22.6276 17.8957 22.6771 16.31 23.3874C15.6156 23.6982 14.9977 24.1256 14.4648 24.638L13.0032 24.0846C12.0437 23.7187 11.5584 22.6398 11.9233 21.6794L11.9224 21.6803ZM11.5089 38.2666C11.9952 38.2666 12.4563 37.994 12.6952 37.5516L14.4695 34.0703C15.0808 34.6564 15.8163 35.1324 16.6553 35.4526C17.0268 35.5944 17.4057 35.6999 17.7884 35.7718L16.0151 39.2428C15.1499 40.9434 13.4232 41.9999 11.5089 41.9999H9.33427V38.2666H11.5089ZM7.4676 33.5999V46.6666C7.4676 47.696 6.6304 48.5332 5.60093 48.5332V31.7332C6.6304 31.7332 7.4676 32.5704 7.4676 33.5999ZM1.8676 29.8666H3.73427V50.3999H1.8676V29.8666Z" fill="url(#paint1_linear_1_22721)"/>
</g>
<defs>
<linearGradient id="paint0_linear_1_22721" x1="15.9883" y1="29.8773" x2="21.9518" y2="29.8773" gradientUnits="userSpaceOnUse">
<stop stop-color="#C4161C"/>
<stop offset="1" stop-color="#600B0E"/>
</linearGradient>
<linearGradient id="paint1_linear_1_22721" x1="0" y1="32.2928" x2="55.9992" y2="32.2928" gradientUnits="userSpaceOnUse">
<stop stop-color="#C4161C"/>
<stop offset="1" stop-color="#600B0E"/>
</linearGradient>
<clipPath id="clip0_1_22721">
<rect width="56" height="56" fill="white"/>
</clipPath>
</defs>
</svg>
