<svg width="56" height="56" viewBox="0 0 56 56" fill="none" xmlns="http://www.w3.org/2000/svg">
<g clip-path="url(#clip0_1_22732)">
<path d="M1.28133 19.753C1.41118 19.9493 1.57943 20.1172 1.77593 20.2466C1.97243 20.3761 2.19311 20.4644 2.42467 20.5062C2.65133 20.5482 2.88413 20.5437 3.10903 20.4932C3.33393 20.4427 3.54626 20.3471 3.7332 20.2122V44.8C3.7332 45.7901 4.12653 46.7397 4.82667 47.4398C5.5268 48.14 6.47639 48.5333 7.46653 48.5333H32.7991C33.0054 49.3324 33.4706 50.0406 34.1221 50.5472C34.7736 51.0538 35.5746 51.3302 36.3999 51.3333H48.5332V53.2C48.5332 53.9426 48.8282 54.6548 49.3533 55.1799C49.8784 55.705 50.5906 56 51.3332 56H54.1332C54.6283 56 55.1031 55.8033 55.4531 55.4532C55.8032 55.1032 55.9999 54.6284 55.9999 54.1333V42.9333C55.9999 42.4382 55.8032 41.9634 55.4531 41.6134C55.1031 41.2633 54.6283 41.0666 54.1332 41.0666H51.3332C50.5906 41.0666 49.8784 41.3616 49.3533 41.8867C48.8282 42.4118 48.5332 43.124 48.5332 43.8666V45.7333H42.7997C42.884 45.4292 42.9289 45.1155 42.9332 44.8V40.1333H47.5999C48.3425 40.1333 49.0547 39.8383 49.5798 39.3132C50.1049 38.7881 50.3999 38.0759 50.3999 37.3333V24.2666C50.3999 23.524 50.1049 22.8118 49.5798 22.2867C49.0547 21.7616 48.3425 21.4666 47.5999 21.4666H42.9332V20.2113C43.2241 20.42 43.5729 20.5326 43.9309 20.5333C44.219 20.5342 44.5028 20.4633 44.7567 20.3271C45.0106 20.1909 45.2265 19.9936 45.3851 19.753L46.3716 18.283C46.6205 17.9069 46.7154 17.4495 46.6367 17.0054C46.558 16.5612 46.3118 16.1643 45.9488 15.8965L24.3403 0.328503C24.048 0.116107 23.6959 0.00170898 23.3346 0.00170898C22.9733 0.00170898 22.6212 0.116107 22.3289 0.328503L15.8665 4.9821V4.3493C15.8658 3.69109 15.604 3.06004 15.1386 2.59461C14.6731 2.12918 14.0421 1.86738 13.3839 1.86664H10.8825C10.2243 1.86738 9.59327 2.12918 9.12784 2.59461C8.66241 3.06004 8.40061 3.69109 8.39987 4.3493V10.36L0.7176 15.8965C0.354533 16.1644 0.108291 16.5616 0.0297748 17.006C-0.048741 17.4503 0.0464724 17.9078 0.295733 18.284L1.28133 19.753ZM38.2665 40.1333C38.2665 40.8759 37.9715 41.5881 37.4464 42.1132C36.9213 42.6383 36.2091 42.9333 35.4665 42.9333C34.7239 42.9333 34.0117 42.6383 33.4866 42.1132C32.9615 41.5881 32.6665 40.8759 32.6665 40.1333H38.2665ZM50.3999 43.8666C50.3999 43.6191 50.4982 43.3817 50.6732 43.2067C50.8483 43.0316 51.0857 42.9333 51.3332 42.9333H54.1332V54.1333H51.3332C51.0857 54.1333 50.8483 54.035 50.6732 53.8599C50.4982 53.6849 50.3999 53.4475 50.3999 53.2V43.8666ZM48.5332 49.4666H36.3999C35.9048 49.4666 35.43 49.27 35.0799 48.9199C34.7299 48.5698 34.5332 48.095 34.5332 47.6V44.7066C35.1491 44.8324 35.784 44.8324 36.3999 44.7066V45.7333C36.3999 46.2284 36.5965 46.7032 36.9466 47.0532C37.2967 47.4033 37.7715 47.6 38.2665 47.6H48.5332V49.4666ZM41.0665 44.8C41.0657 45.1279 40.9784 45.4498 40.8136 45.7333H38.2665V43.8424C38.8441 43.4113 39.3134 42.8518 39.6374 42.208C39.9614 41.5643 40.1311 40.854 40.1332 40.1333H41.0665V44.8ZM47.5999 38.2666H24.2665C24.019 38.2666 23.7816 38.1683 23.6066 37.9933C23.4315 37.8182 23.3332 37.5808 23.3332 37.3333V31.4225L25.1 33.7773C25.2763 34.0116 25.5044 34.2018 25.7666 34.333C26.0288 34.4642 26.3179 34.5327 26.6111 34.5333H48.5332V37.3333C48.5332 37.5808 48.4349 37.8182 48.2598 37.9933C48.0848 38.1683 47.8474 38.2666 47.5999 38.2666ZM21.4665 35.4666H19.5999V31.7333H21.4665V35.4666ZM48.5332 24.2666V32.6666L26.5924 32.6582L19.6447 23.3333H47.5999C47.8474 23.3333 48.0848 23.4316 48.2598 23.6067C48.4349 23.7817 48.5332 24.0191 48.5332 24.2666ZM19.6447 21.4666C19.2938 21.4666 18.9498 21.5643 18.6513 21.7488C18.3528 21.9332 18.1116 22.1972 17.9547 22.5111C17.7978 22.825 17.7314 23.1763 17.763 23.5258C17.7946 23.8753 17.923 24.2091 18.1336 24.4897L21.4665 28.9333V29.8666H19.5999C19.1048 29.8666 18.63 30.0633 18.2799 30.4134C17.9299 30.7634 17.7332 31.2382 17.7332 31.7333V35.4666C17.7332 35.9617 17.9299 36.4365 18.2799 36.7866C18.63 37.1366 19.1048 37.3333 19.5999 37.3333H21.4665C21.4665 38.0759 21.7615 38.7881 22.2866 39.3132C22.8117 39.8383 23.5239 40.1333 24.2665 40.1333H30.7999C30.802 40.854 30.9717 41.5643 31.2957 42.208C31.6197 42.8518 32.089 43.4113 32.6665 43.8424V46.6666H7.46653C6.97146 46.6666 6.49667 46.47 6.1466 46.1199C5.79653 45.7698 5.59987 45.295 5.59987 44.8V18.8692L23.3332 6.10117L41.0665 18.8692V21.4666H19.6447ZM10.2665 4.3493C10.2657 4.26817 10.281 4.18767 10.3116 4.11254C10.3423 4.03741 10.3876 3.96915 10.445 3.91178C10.5024 3.8544 10.5706 3.80906 10.6458 3.77841C10.7209 3.74777 10.8014 3.73243 10.8825 3.7333H13.3839C13.465 3.73243 13.5455 3.74777 13.6206 3.77841C13.6958 3.80906 13.764 3.8544 13.8214 3.91178C13.8788 3.96915 13.9241 4.03741 13.9548 4.11254C13.9854 4.18767 14.0007 4.26817 13.9999 4.3493V6.32704L10.2665 9.0169V4.3493ZM23.3332 1.90304L44.7588 17.3404L43.9328 18.633L24.3393 4.5257C24.0473 4.31346 23.6956 4.19915 23.3346 4.19915C22.9736 4.19915 22.6219 4.31346 22.3299 4.5257L2.76347 18.6116L1.90947 17.3385L23.3332 1.90304Z" fill="url(#paint0_linear_1_22732)"/>
</g>
<defs>
<linearGradient id="paint0_linear_1_22732" x1="0.00292969" y1="32.9531" x2="55.9999" y2="32.9531" gradientUnits="userSpaceOnUse">
<stop stop-color="#C4161C"/>
<stop offset="1" stop-color="#600B0E"/>
</linearGradient>
<clipPath id="clip0_1_22732">
<rect width="56" height="56" fill="white"/>
</clipPath>
</defs>
</svg>
