<svg width="56" height="56" viewBox="0 0 56 56" fill="none" xmlns="http://www.w3.org/2000/svg">
<g clip-path="url(#clip0_1_22711)">
<path d="M14.583 40.1875L11.447 40.8856C9.78467 41.2463 8.29668 42.1671 7.23221 43.4939C6.16774 44.8207 5.5914 46.473 5.5997 48.174V49.6841C5.60113 50.7072 5.93791 51.7015 6.55842 52.5149C7.17894 53.3283 8.04899 53.9158 9.0353 54.1875C12.064 55.0135 17.8124 56 27.9997 56C38.187 56 43.9354 55.0135 46.9641 54.1875C47.9504 53.9158 48.8205 53.3283 49.441 52.5149C50.0615 51.7015 50.3983 50.7072 50.3997 49.6841V48.174C50.408 46.473 49.8317 44.8207 48.7672 43.4939C47.7027 42.1671 46.2147 41.2463 44.5524 40.8856L41.4164 40.1875L37.138 37.6217L35.4178 33.6084L35.9778 32.9635L36.3988 33.0764C36.8392 33.1929 37.2928 33.2522 37.7484 33.2528C39.1246 33.2498 40.4435 32.701 41.4155 31.7267C42.3875 30.7524 42.9333 29.4323 42.933 28.056V26.936C43.7324 26.7296 44.4408 26.2641 44.9475 25.6122C45.4541 24.9603 45.7304 24.1589 45.733 23.3333V19.6C45.7299 18.7747 45.4535 17.9737 44.9469 17.3223C44.4403 16.6708 43.7321 16.2055 42.933 15.9992V14.9333C42.933 10.9728 41.3597 7.17442 38.5592 4.37387C35.7586 1.57333 31.9603 0 27.9997 0C24.0391 0 20.2408 1.57333 17.4402 4.37387C14.6397 7.17442 13.0664 10.9728 13.0664 14.9333V15.9992C12.2673 16.2055 11.5591 16.6708 11.0525 17.3223C10.5459 17.9737 10.2695 18.7747 10.2664 19.6V23.3333C10.2664 24.3235 10.6597 25.2731 11.3598 25.9732C12.06 26.6733 13.0096 27.0667 13.9997 27.0667H15.8664C16.185 27.0636 16.5008 27.0055 16.7997 26.8949V27.2169C16.7992 28.5494 17.2828 29.8367 18.1605 30.8392L20.5872 33.6065L18.8661 37.6199L14.583 40.1875ZM19.3346 39.5145C21.0228 41.7389 23.3343 43.4111 25.9753 44.3184C25.0753 45.1997 24.3275 46.2241 23.7624 47.3499C20.8243 45.9784 18.2623 43.9153 16.2957 41.3373L19.3346 39.5145ZM48.533 48.174V49.6841C48.5334 50.2987 48.332 50.8964 47.9597 51.3854C47.5874 51.8744 47.0648 52.2276 46.4722 52.3908C43.5537 53.1832 37.9798 54.1333 27.9997 54.1333C18.0196 54.1333 12.4457 53.1832 9.52716 52.3861C8.93539 52.2232 8.41338 51.8707 8.04115 51.3826C7.66892 50.8946 7.46701 50.2979 7.46636 49.6841V48.174C7.45997 46.8981 7.89232 45.6588 8.69095 44.6637C9.48959 43.6686 10.606 42.9783 11.853 42.7084L14.5354 42.112C15.5873 43.5241 18.7765 47.4003 23.292 49.1717C23.6783 49.3202 24.1066 49.3167 24.4904 49.1618C24.8743 49.007 25.1851 48.7123 25.3602 48.3373C25.9725 47.0419 26.8758 45.9054 27.9997 45.0165C29.1239 45.9051 30.0278 47.0413 30.641 48.3364C30.7733 48.6182 30.9829 48.8565 31.2456 49.0236C31.5082 49.1906 31.8129 49.2796 32.1241 49.28C32.3247 49.2802 32.5236 49.2426 32.7102 49.1689C37.2248 47.3956 40.414 43.5213 41.4658 42.1092L44.1482 42.7056C45.3954 42.976 46.5117 43.6669 47.3101 44.6625C48.1084 45.6581 48.5402 46.8979 48.533 48.174ZM32.237 47.3499C31.6723 46.2238 30.9245 45.1994 30.0241 44.3184C32.6651 43.4111 34.9766 41.7389 36.6648 39.5145L39.7037 41.3373C37.7369 43.9151 35.175 45.9781 32.237 47.3499ZM39.769 30.6927C39.092 31.2082 38.242 31.4422 37.3965 31.346L37.8389 30.8401C38.7166 29.8372 39.2001 28.5497 39.1997 27.2169V26.8949C39.4986 27.0055 39.8144 27.0636 40.133 27.0667H41.0664V28.056C41.0682 28.5658 40.952 29.0691 40.727 29.5265C40.5019 29.9839 40.174 30.3831 39.769 30.6927ZM37.333 15.8527C28.7585 15.5951 27.0113 11.8141 27.0001 11.7871C26.9308 11.6137 26.8112 11.4651 26.6567 11.3605C26.5021 11.2558 26.3197 11.1999 26.133 11.2C23.4175 11.2043 20.8051 12.2406 18.825 14.0989C19.6604 9.4668 23.6578 5.6 27.9997 5.6C30.4742 5.60272 32.8466 6.58692 34.5964 8.33667C36.3461 10.0864 37.3303 12.4588 37.333 14.9333V15.8527ZM43.8664 19.6V23.3333C43.8664 23.8284 43.6697 24.3032 43.3196 24.6533C42.9696 25.0033 42.4948 25.2 41.9997 25.2H40.133C39.8855 25.2 39.6481 25.1017 39.4731 24.9266C39.298 24.7516 39.1997 24.5142 39.1997 24.2667V18.6667C39.1997 18.4191 39.298 18.1817 39.4731 18.0067C39.6481 17.8317 39.8855 17.7333 40.133 17.7333H41.9997C42.4948 17.7333 42.9696 17.93 43.3196 18.2801C43.6697 18.6301 43.8664 19.1049 43.8664 19.6ZM27.9997 1.86667C31.4641 1.87037 34.7855 3.24823 37.2351 5.6979C39.6848 8.14757 41.0627 11.469 41.0664 14.9333V15.8667H40.133C39.8144 15.8698 39.4986 15.9279 39.1997 16.0384V14.9333C39.1965 11.9639 38.0155 9.117 35.9157 7.01728C33.816 4.91757 30.9691 3.73655 27.9997 3.73333C22.0329 3.73333 16.7997 9.40333 16.7997 15.8667V16.0384C16.5008 15.9279 16.185 15.8698 15.8664 15.8667H14.933V14.9333C14.9367 11.469 16.3146 8.14757 18.7643 5.6979C21.2139 3.24823 24.5353 1.87037 27.9997 1.86667ZM15.8664 25.2H13.9997C13.5046 25.2 13.0298 25.0033 12.6798 24.6533C12.3297 24.3032 12.133 23.8284 12.133 23.3333V19.6C12.133 19.1049 12.3297 18.6301 12.6798 18.2801C13.0298 17.93 13.5046 17.7333 13.9997 17.7333H15.8664C16.1139 17.7333 16.3513 17.8317 16.5263 18.0067C16.7014 18.1817 16.7997 18.4191 16.7997 18.6667V24.2667C16.7997 24.5142 16.7014 24.7516 16.5263 24.9266C16.3513 25.1017 16.1139 25.2 15.8664 25.2ZM18.6664 27.2169V17.08C19.4531 15.9414 20.4834 14.9921 21.6826 14.301C22.8817 13.6099 24.2195 13.1944 25.5992 13.0844C26.4802 14.4181 29.381 17.4851 37.333 17.7128V27.2169C37.3332 28.0976 37.0134 28.9483 36.4333 29.6109L35.3413 30.8588L32.728 30.1607L32.756 30.0449C32.8131 29.8064 32.8226 29.559 32.784 29.3168C32.7454 29.0746 32.6595 28.8423 32.5311 28.6334C32.4028 28.4244 32.2345 28.2428 32.0359 28.0988C31.8373 27.9549 31.6123 27.8516 31.3737 27.7947L28.6512 27.1413C27.9286 26.9683 27.1669 27.0894 26.5336 27.478C25.9004 27.8666 25.4474 28.4908 25.2744 29.2133C25.1013 29.9359 25.2224 30.6976 25.611 31.3309C25.9996 31.9641 26.6238 32.4171 27.3464 32.5901L30.0689 33.2435C30.2126 33.2779 30.3598 33.2955 30.5076 33.2957C30.9058 33.296 31.2935 33.1676 31.613 32.9299C31.9325 32.6921 32.1668 32.3576 32.2809 31.976L33.9693 32.4277L32.573 34.02C32.1757 34.4743 31.6859 34.8385 31.1363 35.088C30.5867 35.3375 29.9902 35.4666 29.3866 35.4667H26.6128C26.0093 35.4663 25.4128 35.337 24.8633 35.0876C24.3138 34.8381 23.8239 34.4741 23.4264 34.02L19.568 29.61C18.9872 28.9481 18.6667 28.0976 18.6664 27.2169ZM30.9397 29.6109L30.5066 31.4253L27.7832 30.772C27.6625 30.7449 27.5485 30.6941 27.4476 30.6226C27.3468 30.551 27.2612 30.4601 27.1958 30.3552C27.1303 30.2503 27.0864 30.1334 27.0665 30.0114C27.0467 29.8894 27.0512 29.7646 27.08 29.6443C27.1087 29.5241 27.1611 29.4107 27.234 29.3109C27.3069 29.211 27.399 29.1267 27.5048 29.0627C27.6106 28.9987 27.728 28.9564 27.8503 28.9382C27.9726 28.92 28.0973 28.9263 28.2172 28.9567L30.9397 29.6109ZM22.0189 35.2492C22.5917 35.9041 23.298 36.4289 24.0903 36.7884C24.8826 37.1478 25.7427 37.3336 26.6128 37.3333H29.3866C30.2567 37.3336 31.1167 37.1477 31.909 36.7883C32.7014 36.4288 33.4077 35.9041 33.9805 35.2492L34.0552 35.1643L35.3404 38.1649C33.5696 40.6072 30.9525 42.3022 27.9997 42.9193C25.0469 42.3022 22.4298 40.6072 20.659 38.1649L21.9452 35.1643L22.0189 35.2492Z" fill="url(#paint0_linear_1_22711)"/>
</g>
<defs>
<linearGradient id="paint0_linear_1_22711" x1="5.59961" y1="32.9524" x2="50.3998" y2="32.9524" gradientUnits="userSpaceOnUse">
<stop stop-color="#C4161C"/>
<stop offset="1" stop-color="#600B0E"/>
</linearGradient>
<clipPath id="clip0_1_22711">
<rect width="56" height="56" fill="white"/>
</clipPath>
</defs>
</svg>
