<svg width="32" height="33" viewBox="0 0 32 33" fill="none" xmlns="http://www.w3.org/2000/svg">
<path d="M19.6786 19.494H13.9708C12.6916 19.494 12.052 19.494 11.5511 19.1637C11.0501 18.8333 10.7982 18.2454 10.2943 17.0697L9.12543 14.3424C8.31594 12.4536 7.91119 11.5092 8.3558 10.8349C8.80041 10.1606 9.82789 10.1606 11.8829 10.1606H22.1637C24.4628 10.1606 25.6123 10.1606 26.0458 10.9078C26.4794 11.6549 25.9091 12.6529 24.7684 14.6491L23.1516 17.4785C22.5897 18.4619 22.3087 18.9536 21.8431 19.2238C21.3776 19.494 20.8112 19.494 19.6786 19.494Z" stroke="white" stroke-width="1.5" stroke-linecap="round"/>
<path d="M4.66675 6.16064H7.22523C7.92095 6.16064 8.26881 6.16064 8.5307 6.3494C8.79259 6.53816 8.90259 6.86817 9.1226 7.52819L10.0001 10.1606" stroke="white" stroke-width="1.5" stroke-linecap="round"/>
<path d="M23.3334 23.4941H10.7346C10.1235 23.4941 9.81787 23.4941 9.60656 23.3884C9.31341 23.2416 9.11079 22.9605 9.06429 22.636C9.03077 22.4021 9.1274 22.1122 9.32067 21.5324V21.5324C9.53479 20.89 9.64186 20.5688 9.82324 20.319C10.0747 19.9727 10.4305 19.7163 10.8386 19.5872C11.1329 19.4941 11.4715 19.4941 12.1486 19.4941H19.3334" stroke="white" stroke-width="1.5" stroke-linecap="round" stroke-linejoin="round"/>
<circle cx="22.6666" cy="26.8275" r="1.33333" fill="white"/>
<circle cx="12.0001" cy="26.8275" r="1.33333" fill="white"/>
</svg>
