<svg width="33" height="33" viewBox="0 0 33 33" fill="none" xmlns="http://www.w3.org/2000/svg">
<path d="M16.4438 28.1771C14.8967 28.1771 13.3647 27.8723 11.9354 27.2803C10.506 26.6882 9.20724 25.8204 8.11324 24.7264C7.01925 23.6324 6.15145 22.3337 5.55939 20.9043C4.96733 19.4749 4.6626 17.9429 4.6626 16.3958C4.6626 14.8487 4.96733 13.3167 5.55939 11.8873C6.15146 10.458 7.01926 9.1592 8.11325 8.06521C9.20724 6.97122 10.506 6.10342 11.9354 5.51136C13.3647 4.91929 14.8967 4.61456 16.4438 4.61456C17.991 4.61456 19.523 4.91929 20.9523 5.51136C22.3817 6.10342 23.6805 6.97122 24.7744 8.06521C25.8684 9.1592 26.7362 10.458 27.3283 11.8873C27.9204 13.3167 28.2251 14.8487 28.2251 16.3958C28.2251 17.943 27.9204 19.4749 27.3283 20.9043C26.7362 22.3337 25.8684 23.6324 24.7744 24.7264C23.6805 25.8204 22.3817 26.6882 20.9523 27.2803C19.523 27.8723 17.991 28.1771 16.4438 28.1771L16.4438 28.1771Z" stroke="#221D23" stroke-width="1.5" stroke-linecap="round"/>
<path d="M12.5166 12.4688L20.3708 20.3229" stroke="#221D23" stroke-width="1.5" stroke-linecap="round"/>
<path d="M20.3706 12.4688L12.5164 20.3229" stroke="#221D23" stroke-width="1.5" stroke-linecap="round"/>
</svg>
