<svg width="27" height="27" viewBox="0 0 27 27" fill="none" xmlns="http://www.w3.org/2000/svg">
<path d="M15.5329 19.0257C12.5952 17.2917 10.1448 14.8413 8.41085 11.9036C8.08126 11.3448 8.19589 10.6426 8.65445 10.184L10.7036 8.13484C11.1622 7.67628 11.2625 6.94545 10.9186 6.38657L9.08436 3.33427C8.12425 1.7293 5.91741 1.45703 4.59905 2.7754L2.34922 5.02522C1.79034 5.58409 1.46076 6.35791 1.50375 7.14607C2.11994 17.2344 10.1878 25.3022 20.2905 25.9328C21.0786 25.9758 21.8524 25.6462 22.4113 25.0873L24.6611 22.8375C25.9795 21.5191 25.7072 19.3123 24.1023 18.3522L21.0499 16.5179C20.4911 16.174 19.7602 16.2743 19.3017 16.7329L17.2525 18.7821C16.7939 19.2406 16.0918 19.3553 15.5329 19.0257Z" stroke="#221D23" stroke-width="2" stroke-linecap="round" stroke-linejoin="round"/>
</svg>
