<svg width="25" height="25" viewBox="0 0 25 25" fill="none" xmlns="http://www.w3.org/2000/svg">
<path d="M21.4999 13.29C21.3426 14.9922 20.7038 16.6144 19.6581 17.9668C18.6125 19.3192 17.2034 20.3458 15.5956 20.9265C13.9878 21.5073 12.2479 21.6181 10.5794 21.2461C8.91092 20.8741 7.3829 20.0345 6.17413 18.8258C4.96536 17.617 4.12584 16.089 3.75381 14.4205C3.38178 12.752 3.49262 11.0121 4.07336 9.4043C4.65411 7.79651 5.68073 6.38737 7.03311 5.34175C8.3855 4.29614 10.0077 3.65731 11.7099 3.5C10.7133 4.84827 10.2338 6.50945 10.3584 8.18141C10.4831 9.85338 11.2038 11.4251 12.3893 12.6106C13.5748 13.7961 15.1465 14.5168 16.8185 14.6415C18.4905 14.7662 20.1516 14.2866 21.4999 13.29Z" stroke="white" stroke-width="1.5" stroke-linecap="round" stroke-linejoin="round"/>
</svg>
