<svg id="Layer_1" data-name="Layer 1" xmlns="http://www.w3.org/2000/svg" viewBox="0 0 24 24"><defs><style>.cls-1{fill:#b71f26;}</style></defs><path class="cls-1" d="M6.67,0A6.67,6.67,0,0,0,0,6.67V17.33A6.67,6.67,0,0,0,6.67,24H17.33A6.67,6.67,0,0,0,24,17.33V6.67A6.67,6.67,0,0,0,17.33,0Zm0,2.67H17.33a4,4,0,0,1,4,4V17.33a4,4,0,0,1-4,4H6.67a4,4,0,0,1-4-4V6.67A4,4,0,0,1,6.67,2.67ZM18.67,4a1.33,1.33,0,1,0,.94.39A1.34,1.34,0,0,0,18.67,4ZM12,5.33A6.67,6.67,0,1,0,18.67,12,6.67,6.67,0,0,0,12,5.33ZM12,8a4,4,0,1,1-4,4A4,4,0,0,1,12,8Z"/></svg>