<svg id="Layer_1" data-name="Layer 1" xmlns="http://www.w3.org/2000/svg" viewBox="0 0 26.66 24"><defs><style>.cls-1{fill:#b71f26;}</style></defs><path class="cls-1" d="M25.43,0A3,3,0,0,0,24,.23c-.6.23-10,4.19-18.76,7.88L2.36,9.33a2.27,2.27,0,0,0,0,4.39l4.88,2c.43,1.26,1.41,4.21,1.65,5,.15.47.52,1.63,1.46,1.91a2,2,0,0,0,.59.1,2,2,0,0,0,1.23-.44l3.1-2.63,3.78,3.49A2.9,2.9,0,0,0,21,24a2.64,2.64,0,0,0,2.47-2.11c.11-.57,3.75-18.84,3.75-18.84A2.45,2.45,0,0,0,26.6.5,2.11,2.11,0,0,0,25.43,0ZM24.55,2.9C24,5.42,21.3,19.17,20.89,21.15l-5.52-5.1-3.74,3.17,1-4s7.15-7.24,7.58-7.66.42-.46.42-.58a.24.24,0,0,0-.27-.26,1.25,1.25,0,0,0-.51.23c-1.53.95-8,4.65-11.21,6.47L4,11.52l2.25-.95C12,8.16,22.23,3.86,24.55,2.9Z" transform="translate(-0.67 0)"/></svg>