<svg width="28" height="28" viewBox="0 0 28 28" fill="none" xmlns="http://www.w3.org/2000/svg">
<path d="M14.016 0.666687C6.67462 0.666687 0.698305 6.63785 0.695638 13.9792C0.694305 16.3259 1.30895 18.6168 2.47428 20.6354L0.666992 27.3333L7.64356 25.6849C9.58889 26.7462 11.7788 27.3034 14.0081 27.3047H14.0133C21.3533 27.3047 27.3271 21.3322 27.3311 13.9922C27.3337 10.4335 25.9499 7.08767 23.4352 4.57033C20.9206 2.05433 17.5786 0.66802 14.016 0.666687ZM14.0133 3.33335C16.8613 3.33469 19.5378 4.44508 21.5498 6.45575C23.5618 8.46908 24.6671 11.1443 24.6644 13.9896C24.6617 19.8616 19.8854 24.638 14.0107 24.638C12.2334 24.6367 10.4729 24.1904 8.9222 23.3438L8.02376 22.8542L7.03158 23.0886L4.40658 23.7084L5.0472 21.3281L5.33626 20.2604L4.78418 19.3021C3.85351 17.6914 3.36097 15.8499 3.3623 13.9792C3.36497 8.10985 8.14268 3.33335 14.0133 3.33335ZM9.30241 7.83335C9.07974 7.83335 8.71972 7.91669 8.41439 8.25002C8.10906 8.58202 7.24772 9.38612 7.24772 11.0235C7.24772 12.6608 8.44043 14.2435 8.6071 14.4662C8.77243 14.6875 10.9093 18.1537 14.292 19.487C17.1027 20.595 17.6735 20.3763 18.2842 20.3203C18.8948 20.2657 20.2542 19.5169 20.5316 18.7396C20.8089 17.9623 20.8096 17.2936 20.7269 17.1563C20.6442 17.0176 20.4222 16.9349 20.0889 16.7682C19.7569 16.6016 18.1208 15.7982 17.8154 15.6875C17.5101 15.5769 17.2868 15.5209 17.0654 15.8542C16.8441 16.1875 16.208 16.9349 16.0133 17.1563C15.8187 17.3789 15.6253 17.4089 15.292 17.2422C14.9587 17.0742 13.8869 16.7219 12.6149 15.5886C11.6256 14.7072 10.958 13.6198 10.7633 13.2865C10.57 12.9545 10.7451 12.7721 10.9118 12.6068C11.0611 12.4575 11.2425 12.2181 11.4092 12.0235C11.5745 11.8288 11.6318 11.6901 11.7425 11.4688C11.8532 11.2474 11.7965 11.0521 11.7139 10.8854C11.6312 10.7188 10.9838 9.07535 10.6878 8.41669C10.4385 7.86335 10.1752 7.8505 9.93783 7.84117C9.74449 7.83317 9.52374 7.83335 9.30241 7.83335Z" fill="#B71F26"/>
</svg>
