<svg width="57" height="57" viewBox="0 0 57 57" fill="none" xmlns="http://www.w3.org/2000/svg">
<g clip-path="url(#clip0_1_20098)">
<path d="M53.4375 43.6406H50.7656V42.75C50.7656 42.0414 50.4841 41.3618 49.9831 40.8607C49.482 40.3596 48.8024 40.0781 48.0938 40.0781H29.3906V38.1704C30.1544 37.976 30.8317 37.5326 31.3154 36.9104C31.7991 36.2882 32.0617 35.5225 32.0617 34.7344C32.0617 33.9462 31.7991 33.1805 31.3154 32.5583C30.8317 31.9361 30.1544 31.4927 29.3906 31.2983V29.3906H32.9531C34.6089 29.3877 36.2232 28.8725 37.5746 27.9158C38.926 26.959 39.9483 25.6076 40.5012 24.0469H41.8594C43.7478 24.0422 45.5739 23.371 47.0158 22.1515C48.4577 20.9321 49.4227 19.2427 49.7407 17.3813C50.0588 15.5198 49.7094 13.6059 48.7542 11.9768C47.7991 10.3478 46.2994 9.10835 44.5197 8.47695C44.4344 6.86807 43.8661 5.32228 42.8887 4.04145C41.9114 2.76061 40.5705 1.80427 39.0412 1.29729C37.5119 0.790319 35.8653 0.756284 34.3163 1.19963C32.7674 1.64298 31.3882 2.54311 30.3587 3.78246C28.9075 3.43444 27.3877 3.50114 25.9725 3.97496C24.5574 4.44878 23.3038 5.31066 22.3547 6.46235C21.212 6.18335 20.0217 6.16016 18.869 6.39445C17.7163 6.62875 16.6295 7.11473 15.6864 7.81768C14.7432 8.52064 13.967 9.42322 13.4131 10.4609C12.8592 11.4986 12.5413 12.6459 12.4821 13.8207C10.7025 14.452 9.20296 15.6914 8.24776 17.3202C7.29256 18.949 6.94307 20.8628 7.26088 22.7241C7.5787 24.5854 8.54342 26.2748 9.98498 27.4944C11.4265 28.714 13.2524 29.3855 15.1406 29.3906H27.6094V31.2983C26.8456 31.4927 26.1683 31.9361 25.6846 32.5583C25.2009 33.1805 24.9383 33.9462 24.9383 34.7344C24.9383 35.5225 25.2009 36.2882 25.6846 36.9104C26.1683 37.5326 26.8456 37.976 27.6094 38.1704V40.0781H8.90625C8.19762 40.0781 7.51802 40.3596 7.01695 40.8607C6.51588 41.3618 6.23438 42.0414 6.23438 42.75V43.6406H3.5625C2.85387 43.6406 2.17427 43.9221 1.6732 44.4232C1.17213 44.9243 0.890625 45.6039 0.890625 46.3125V53.4375C0.890625 54.1461 1.17213 54.8257 1.6732 55.3268C2.17427 55.8279 2.85387 56.1094 3.5625 56.1094H10.6875C11.3961 56.1094 12.0757 55.8279 12.5768 55.3268C13.0779 54.8257 13.3594 54.1461 13.3594 53.4375V46.3125C13.3594 45.6039 13.0779 44.9243 12.5768 44.4232C12.0757 43.9221 11.3961 43.6406 10.6875 43.6406H8.01562V42.75C8.01562 42.5138 8.10946 42.2872 8.27648 42.1202C8.44351 41.9532 8.67004 41.8594 8.90625 41.8594H27.6094V43.6406H24.9375C24.2289 43.6406 23.5493 43.9221 23.0482 44.4232C22.5471 44.9243 22.2656 45.6039 22.2656 46.3125V53.4375C22.2656 54.1461 22.5471 54.8257 23.0482 55.3268C23.5493 55.8279 24.2289 56.1094 24.9375 56.1094H32.0625C32.7711 56.1094 33.4507 55.8279 33.9518 55.3268C34.4529 54.8257 34.7344 54.1461 34.7344 53.4375V46.3125C34.7344 45.6039 34.4529 44.9243 33.9518 44.4232C33.4507 43.9221 32.7711 43.6406 32.0625 43.6406H29.3906V41.8594H48.0938C48.33 41.8594 48.5565 41.9532 48.7235 42.1202C48.8905 42.2872 48.9844 42.5138 48.9844 42.75V43.6406H46.3125C45.6039 43.6406 44.9243 43.9221 44.4232 44.4232C43.9221 44.9243 43.6406 45.6039 43.6406 46.3125V53.4375C43.6406 54.1461 43.9221 54.8257 44.4232 55.3268C44.9243 55.8279 45.6039 56.1094 46.3125 56.1094H53.4375C54.1461 56.1094 54.8257 55.8279 55.3268 55.3268C55.8279 54.8257 56.1094 54.1461 56.1094 53.4375V46.3125C56.1094 45.6039 55.8279 44.9243 55.3268 44.4232C54.8257 43.9221 54.1461 43.6406 53.4375 43.6406ZM28.5 5.34373C29.153 5.34396 29.8019 5.44705 30.4229 5.64921C30.6036 5.7078 30.7983 5.70708 30.9785 5.64716C31.1588 5.58723 31.3152 5.47124 31.4248 5.31612C32.1896 4.22664 33.2833 3.41084 34.5455 2.98833C35.8078 2.56582 37.1722 2.55884 38.4387 2.9684C39.7052 3.37795 40.8072 4.18251 41.5831 5.2641C42.359 6.34568 42.7679 7.6474 42.75 8.97837L42.742 9.10751C42.7357 9.31 42.7986 9.50859 42.9204 9.67051C43.0421 9.83243 43.2154 9.94799 43.4117 9.99814C44.8775 10.3799 46.1541 11.2822 47.0032 12.5365C47.8523 13.7908 48.2157 15.3113 48.0255 16.8139C47.8354 18.3166 47.1047 19.6987 45.9699 20.7019C44.8352 21.7052 43.374 22.261 41.8594 22.2656H40.9162C41.1173 20.5232 40.7383 18.7631 39.8379 17.2578C38.9376 15.7526 37.5661 14.5862 35.9358 13.9392C35.2221 12.1552 33.8902 10.6876 32.1837 9.80453C30.4771 8.92149 28.5098 8.68199 26.6413 9.12978C25.9512 8.30691 25.1033 7.63067 24.1475 7.14101C25.3071 5.99515 26.8698 5.34985 28.5 5.34373ZM8.90625 21.375C8.90641 19.992 9.36704 18.6485 10.2155 17.5564C11.0639 16.4643 12.2518 15.6857 13.5918 15.3437C13.7881 15.2935 13.9614 15.178 14.0832 15.016C14.205 14.8541 14.2679 14.6555 14.2616 14.453L14.25 14.25C14.2518 12.9272 14.6743 11.6394 15.4564 10.5726C16.2385 9.5058 17.3395 8.71541 18.6005 8.3157C19.8614 7.91599 21.2167 7.92768 22.4705 8.34908C23.7243 8.77049 24.8116 9.57976 25.5752 10.6599C25.6848 10.815 25.8412 10.931 26.0215 10.9909C26.2017 11.0508 26.3964 11.0516 26.5771 10.993C28.1353 10.4858 29.8305 10.6137 31.295 11.3486C32.7594 12.0836 33.875 13.3665 34.3995 14.9188C34.4433 15.0482 34.5163 15.1658 34.6128 15.2625C34.7093 15.3592 34.8268 15.4324 34.9561 15.4764C36.3515 15.9538 37.5324 16.9105 38.2891 18.1764C39.0458 19.4422 39.3292 20.9354 39.0889 22.3905C38.8487 23.8456 38.1004 25.1684 36.977 26.1239C35.8537 27.0794 34.4279 27.6057 32.9531 27.6094H15.1406C13.4877 27.6075 11.9031 26.95 10.7343 25.7813C9.56558 24.6125 8.90814 23.0279 8.90625 21.375ZM26.7188 34.7344C26.7188 34.3821 26.8232 34.0377 27.0189 33.7447C27.2147 33.4518 27.4929 33.2235 27.8183 33.0887C28.1438 32.9539 28.502 32.9186 28.8475 32.9873C29.193 33.0561 29.5104 33.2257 29.7595 33.4748C30.0086 33.7239 30.1783 34.0413 30.247 34.3868C30.3158 34.7324 30.2805 35.0905 30.1457 35.416C30.0108 35.7415 29.7825 36.0197 29.4896 36.2154C29.1967 36.4111 28.8523 36.5156 28.5 36.5156C28.0276 36.5156 27.5745 36.3279 27.2405 35.9939C26.9064 35.6598 26.7188 35.2068 26.7188 34.7344ZM11.5781 46.3125V53.4375C11.5781 53.6737 11.4843 53.9002 11.3173 54.0672C11.1502 54.2343 10.9237 54.3281 10.6875 54.3281H3.5625C3.32629 54.3281 3.09976 54.2343 2.93273 54.0672C2.76571 53.9002 2.67188 53.6737 2.67188 53.4375V46.3125C2.67188 46.0763 2.76571 45.8497 2.93273 45.6827C3.09976 45.5157 3.32629 45.4219 3.5625 45.4219H10.6875C10.9237 45.4219 11.1502 45.5157 11.3173 45.6827C11.4843 45.8497 11.5781 46.0763 11.5781 46.3125ZM32.9531 46.3125V53.4375C32.9531 53.6737 32.8593 53.9002 32.6923 54.0672C32.5252 54.2343 32.2987 54.3281 32.0625 54.3281H24.9375C24.7013 54.3281 24.4748 54.2343 24.3077 54.0672C24.1407 53.9002 24.0469 53.6737 24.0469 53.4375V46.3125C24.0469 46.0763 24.1407 45.8497 24.3077 45.6827C24.4748 45.5157 24.7013 45.4219 24.9375 45.4219H32.0625C32.2987 45.4219 32.5252 45.5157 32.6923 45.6827C32.8593 45.8497 32.9531 46.0763 32.9531 46.3125ZM54.3281 53.4375C54.3281 53.6737 54.2343 53.9002 54.0673 54.0672C53.9002 54.2343 53.6737 54.3281 53.4375 54.3281H46.3125C46.0763 54.3281 45.8498 54.2343 45.6827 54.0672C45.5157 53.9002 45.4219 53.6737 45.4219 53.4375V46.3125C45.4219 46.0763 45.5157 45.8497 45.6827 45.6827C45.8498 45.5157 46.0763 45.4219 46.3125 45.4219H53.4375C53.6737 45.4219 53.9002 45.5157 54.0673 45.6827C54.2343 45.8497 54.3281 46.0763 54.3281 46.3125V53.4375Z" fill="url(#paint0_linear_1_20098)"/>
</g>
<defs>
<linearGradient id="paint0_linear_1_20098" x1="0.890625" y1="33.3832" x2="56.1094" y2="33.3832" gradientUnits="userSpaceOnUse">
<stop stop-color="#C4161C"/>
<stop offset="1" stop-color="#600B0E"/>
</linearGradient>
<clipPath id="clip0_1_20098">
<rect width="57" height="57" fill="white"/>
</clipPath>
</defs>
</svg>
