<svg width="57" height="57" viewBox="0 0 57 57" fill="none" xmlns="http://www.w3.org/2000/svg">
<path d="M56.1135 35.1413H52.3789V12.0704C52.3789 9.25889 50.0915 6.97144 47.2799 6.97144H9.72006C6.90847 6.97144 4.62112 9.25889 4.62112 12.0704V35.1415H0.886506C0.396885 35.1415 0 35.5383 0 36.028V39.8883C0 42.5057 2.12948 44.6352 4.74681 44.6352H39.8673C40.3569 44.6352 40.7538 44.2383 40.7538 43.7487C40.7538 43.2591 40.3569 42.8622 39.8673 42.8622H4.74681C3.10706 42.8622 1.7729 41.5281 1.7729 39.8884V36.9147H26.661C27.1506 36.9147 27.5475 36.5178 27.5475 36.0282C27.5475 35.5386 27.1506 35.1417 26.661 35.1417H6.39413V12.0704C6.39413 10.2366 7.88615 8.74456 9.72006 8.74456H47.2799C49.1138 8.74456 50.6059 10.2365 50.6059 12.0704V35.1415H44.9477C47.9318 31.7134 48.5734 26.6273 46.1772 22.4727C43.1592 17.2458 36.4492 15.4476 31.2196 18.4637C31.2195 18.4638 31.2194 18.4639 31.2193 18.4639C28.6866 19.9264 26.8752 22.2877 26.1187 25.1131C25.3623 27.9383 25.7512 30.8892 27.2135 33.4217C28.6743 35.9545 31.0348 37.766 33.8601 38.5225C34.803 38.775 35.7595 38.8998 36.7101 38.8998C37.5628 38.8998 38.4103 38.7984 39.2384 38.5993L44.9366 48.4659C45.3507 49.1859 46.0236 49.7022 46.831 49.9193C47.1027 49.9925 47.3784 50.0287 47.6518 50.0287C48.1914 50.0287 48.723 49.8878 49.2012 49.6119C50.6903 48.7509 51.2039 46.8377 50.3457 45.3455L49.9355 44.6351H52.2501C54.8692 44.6351 57 42.5041 57 39.885V36.028C57 35.5383 56.6031 35.1413 56.1135 35.1413ZM34.3187 36.8098C31.9512 36.1758 29.9733 34.6579 28.749 32.5353C27.5233 30.4125 27.1973 27.9393 27.8313 25.5716C28.4652 23.2037 29.9831 21.2249 32.1056 19.9994C36.4888 17.4711 42.1125 18.9785 44.6417 23.3587C47.1702 27.7427 45.6631 33.365 41.282 35.8919C39.1591 37.1179 36.6862 37.4438 34.3187 36.8098ZM48.3145 48.0766C48.0051 48.255 47.6419 48.3017 47.2915 48.2072C46.9418 48.1132 46.6514 47.891 46.4728 47.5805L40.9576 38.0308C41.3699 37.8555 41.7742 37.6551 42.1682 37.4276C42.5636 37.1995 42.9391 36.9499 43.2948 36.6818L47.6178 44.1671C47.6208 44.1727 47.6243 44.1781 47.6274 44.1836L48.8096 46.2306C49.1806 46.8761 48.9582 47.7043 48.3145 48.0766ZM55.227 39.885C55.227 41.5266 53.8915 42.862 52.2501 42.862H48.9115L45.4767 36.9145H55.2271V39.885H55.227ZM8.34004 28.5869V32.0197C8.34004 32.5093 8.73692 32.9062 9.22654 32.9062C9.71616 32.9062 10.113 32.5093 10.113 32.0197V28.5869C10.113 27.953 10.4567 27.395 11.1637 26.881C12.1264 26.181 13.647 25.6841 15.3792 25.4148L17.6697 29.3822C17.8281 29.6564 18.1207 29.8255 18.4374 29.8255C18.7541 29.8255 19.0468 29.6564 19.2051 29.3822L21.5006 25.4061C22.277 25.5263 23.0212 25.6946 23.703 25.9157C24.1688 26.0669 24.6686 25.8115 24.8196 25.3457C24.9706 24.88 24.7154 24.38 24.2497 24.229C20.1759 22.9085 13.3713 23.084 10.121 25.4469C8.9559 26.2941 8.34004 27.3799 8.34004 28.5869ZM19.5669 25.2093L18.4373 27.166L17.3101 25.2136C18.0555 25.1724 18.8153 25.1706 19.5669 25.2093ZM23.7437 16.9273C23.7437 13.5245 21.3633 10.7564 18.4374 10.7564C15.5113 10.7564 13.1309 13.5247 13.1309 16.9273C13.1309 20.3299 15.5113 23.0982 18.4374 23.0982C21.3633 23.0982 23.7437 20.33 23.7437 16.9273ZM14.9038 16.9273C14.9038 14.5022 16.4889 12.5294 18.4373 12.5294C20.3855 12.5294 21.9706 14.5022 21.9706 16.9273C21.9706 19.3523 20.3855 21.3252 18.4373 21.3252C16.4889 21.3252 14.9038 19.3523 14.9038 16.9273ZM42.2648 25.6031L34.8616 32.4626C34.697 32.6152 34.4814 32.6989 34.2591 32.6989C34.2298 32.6989 34.2006 32.6974 34.1712 32.6945C33.9185 32.6693 33.6887 32.5369 33.54 32.3309L30.9622 28.7566C30.6758 28.3595 30.7656 27.8054 31.1627 27.519C31.5599 27.2328 32.1139 27.3222 32.4003 27.7195L34.3917 30.4809L41.0597 24.3028C41.4188 23.97 41.9797 23.9914 42.3125 24.3505C42.6454 24.7096 42.624 25.2704 42.2648 25.6031Z" fill="url(#paint0_linear_1_20013)"/>
<defs>
<linearGradient id="paint0_linear_1_20013" x1="0" y1="32.3079" x2="57" y2="32.3079" gradientUnits="userSpaceOnUse">
<stop stop-color="#C4161C"/>
<stop offset="1" stop-color="#600B0E"/>
</linearGradient>
</defs>
</svg>
