<svg width="57" height="57" viewBox="0 0 57 57" fill="none" xmlns="http://www.w3.org/2000/svg">
<g clip-path="url(#clip0_1_20107)">
<path d="M32.9531 34.0076V32.9531C32.9531 31.7721 32.484 30.6394 31.6488 29.8043C30.8137 28.9692 29.681 28.5 28.5 28.5C27.319 28.5 26.1863 28.9692 25.3512 29.8043C24.516 30.6394 24.0469 31.7721 24.0469 32.9531V34.0076C23.5277 34.1912 23.078 34.5306 22.7591 34.9796C22.4403 35.4285 22.2679 35.965 22.2656 36.5156V42.75C22.2656 43.4586 22.5471 44.1382 23.0482 44.6393C23.5493 45.1404 24.2289 45.4219 24.9375 45.4219H32.0625C32.7711 45.4219 33.4507 45.1404 33.9518 44.6393C34.4529 44.1382 34.7344 43.4586 34.7344 42.75V36.5156C34.7321 35.965 34.5597 35.4285 34.2409 34.9796C33.922 34.5306 33.4723 34.1912 32.9531 34.0076ZM28.5 30.2812C29.2086 30.2812 29.8882 30.5628 30.3893 31.0638C30.8904 31.5649 31.1719 32.2445 31.1719 32.9531V33.8438H25.8281V32.9531C25.8281 32.2445 26.1096 31.5649 26.6107 31.0638C27.1118 30.5628 27.7914 30.2812 28.5 30.2812ZM32.9531 42.75C32.9531 42.9862 32.8593 43.2127 32.6923 43.3798C32.5252 43.5468 32.2987 43.6406 32.0625 43.6406H24.9375C24.7013 43.6406 24.4748 43.5468 24.3077 43.3798C24.1407 43.2127 24.0469 42.9862 24.0469 42.75V36.5156C24.0469 36.2794 24.1407 36.0529 24.3077 35.8859C24.4748 35.7188 24.7013 35.625 24.9375 35.625H32.0625C32.2987 35.625 32.5252 35.7188 32.6923 35.8859C32.8593 36.0529 32.9531 36.2794 32.9531 36.5156V42.75Z" fill="url(#paint0_linear_1_20107)"/>
<path d="M29.3906 38.5445V37.4062H27.6094V38.5445C27.2698 38.7405 27.0044 39.0432 26.8543 39.4054C26.7043 39.7677 26.678 40.1693 26.7794 40.5481C26.8809 40.9268 27.1046 41.2615 27.4156 41.5002C27.7267 41.7389 28.1079 41.8683 28.5 41.8683C28.8921 41.8683 29.2733 41.7389 29.5844 41.5002C29.8954 41.2615 30.1191 40.9268 30.2206 40.5481C30.322 40.1693 30.2957 39.7677 30.1457 39.4054C29.9956 39.0432 29.7302 38.7405 29.3906 38.5445Z" fill="url(#paint1_linear_1_20107)"/>
<path d="M47.2031 36.5156C47.4393 36.5156 47.6658 36.4217 47.8328 36.2547L50.7487 33.3388C51.2916 33.6662 51.9129 33.8406 52.5469 33.8438C53.2515 33.8438 53.9403 33.6348 54.5261 33.2434C55.1119 32.8519 55.5686 32.2955 55.8382 31.6446C56.1078 30.9936 56.1784 30.2773 56.0409 29.5862C55.9035 28.8952 55.5642 28.2604 55.0659 27.7622C54.5677 27.264 53.9329 26.9247 53.2419 26.7872C52.5508 26.6497 51.8345 26.7203 51.1836 26.9899C50.5326 27.2596 49.9762 27.7162 49.5848 28.302C49.1933 28.8879 48.9844 29.5767 48.9844 30.2813C48.9875 30.9152 49.162 31.5365 49.4894 32.0794L46.8344 34.7344H43.5729C44.2057 32.1094 44.5274 29.419 44.5313 26.7188C44.5313 26.4825 44.4374 26.256 44.2704 26.089C44.1034 25.922 43.8768 25.8281 43.6406 25.8281H43.2568C43.5731 25.0889 43.8327 24.3267 44.0334 23.5481L46.4595 23.1438C46.6673 23.109 46.856 23.0017 46.9922 22.8409C47.1283 22.6802 47.2031 22.4763 47.2031 22.2656V16.9219C47.2031 16.7112 47.1283 16.5073 46.9922 16.3466C46.856 16.1858 46.6673 16.0785 46.4595 16.0437L44.0334 15.6394C43.6548 14.1527 43.0629 12.7287 42.2762 11.4116L43.7101 9.405C43.8325 9.23343 43.8901 9.02401 43.8727 8.81397C43.8552 8.60394 43.7638 8.40689 43.6148 8.25788L39.8359 4.47895C39.6869 4.32991 39.4898 4.23854 39.2798 4.22109C39.0697 4.20364 38.8603 4.26124 38.6888 4.38366L36.6822 5.81756C35.3651 5.03087 33.9411 4.439 32.4544 4.06036L32.05 1.6343C32.0153 1.4265 31.908 1.23775 31.7472 1.10159C31.5864 0.965437 31.3826 0.890687 31.1719 0.890625H25.8281C25.6174 0.890687 25.4136 0.965437 25.2528 1.10159C25.092 1.23775 24.9847 1.4265 24.95 1.6343L24.5456 4.06036C23.0589 4.439 21.6349 5.03087 20.3178 5.81756L18.3113 4.38366C18.1397 4.26124 17.9303 4.20364 17.7202 4.22109C17.5102 4.23854 17.3131 4.32991 17.1641 4.47895L13.3852 8.25788C13.2362 8.40689 13.1448 8.60394 13.1273 8.81397C13.1099 9.02401 13.1675 9.23343 13.2899 9.405L14.7238 11.4116C13.9371 12.7287 13.3452 14.1527 12.9666 15.6394L10.5405 16.0437C10.3328 16.0785 10.144 16.1858 10.0078 16.3466C9.87169 16.5073 9.79694 16.7112 9.79688 16.9219V22.2656C9.79694 22.4763 9.87169 22.6802 10.0078 22.8409C10.144 23.0017 10.3328 23.109 10.5405 23.1438L12.9666 23.5481C13.1673 24.3267 13.4269 25.0889 13.7432 25.8281H13.3594C13.1232 25.8281 12.8966 25.922 12.7296 26.089C12.5626 26.256 12.4688 26.4825 12.4688 26.7188C12.4726 29.419 12.7943 32.1094 13.4271 34.7344H10.1656L7.51064 32.0794C7.83804 31.5365 8.01252 30.9152 8.01563 30.2813C8.01563 29.5767 7.80669 28.8879 7.41524 28.302C7.02378 27.7162 6.4674 27.2596 5.81644 26.9899C5.16547 26.7203 4.44918 26.6497 3.75812 26.7872C3.06706 26.9247 2.43228 27.264 1.93406 27.7622C1.43583 28.2604 1.09654 28.8952 0.959079 29.5862C0.821619 30.2773 0.892169 30.9936 1.16181 31.6446C1.43144 32.2955 1.88806 32.8519 2.47391 33.2434C3.05976 33.6348 3.74853 33.8438 4.45313 33.8438C5.08709 33.8406 5.70841 33.6662 6.2513 33.3388L9.16721 36.2547C9.33419 36.4217 9.56069 36.5156 9.79688 36.5156H13.9044C14.2638 37.7256 14.6896 38.9149 15.1798 40.0781H9.79688C9.56069 40.0782 9.33419 40.172 9.16721 40.3391L6.2513 43.255C5.70841 42.9276 5.08709 42.7531 4.45313 42.75C3.74853 42.75 3.05976 42.9589 2.47391 43.3504C1.88806 43.7418 1.43144 44.2982 1.16181 44.9492C0.892169 45.6002 0.821619 46.3165 0.959079 47.0075C1.09654 47.6986 1.43583 48.3333 1.93406 48.8316C2.43228 49.3298 3.06706 49.6691 3.75812 49.8066C4.44918 49.944 5.16547 49.8735 5.81644 49.6038C6.4674 49.3342 7.02378 48.8776 7.41524 48.2917C7.80669 47.7059 8.01563 47.0171 8.01563 46.3125C8.01252 45.6785 7.83804 45.0572 7.51064 44.5143L10.1656 41.8594H15.9894C17.9724 45.9213 20.7361 49.5529 24.1226 52.5469L27.9104 55.8894C28.0732 56.0331 28.2828 56.1125 28.5 56.1125C28.7172 56.1125 28.9268 56.0331 29.0896 55.8894L32.8774 52.5469C36.2639 49.5529 39.0276 45.9213 41.0106 41.8594H46.8344L49.4894 44.5143C49.162 45.0572 48.9875 45.6785 48.9844 46.3125C48.9844 47.0171 49.1933 47.7059 49.5848 48.2917C49.9762 48.8776 50.5326 49.3342 51.1836 49.6038C51.8345 49.8735 52.5508 49.944 53.2419 49.8066C53.9329 49.6691 54.5677 49.3298 55.0659 48.8316C55.5642 48.3333 55.9035 47.6986 56.0409 47.0075C56.1784 46.3165 56.1078 45.6002 55.8382 44.9492C55.5686 44.2982 55.1119 43.7418 54.5261 43.3504C53.9403 42.9589 53.2515 42.75 52.5469 42.75C51.9129 42.7531 51.2916 42.9276 50.7487 43.255L47.8328 40.3391C47.6658 40.172 47.4393 40.0782 47.2031 40.0781H41.8202C42.3104 38.9149 42.7362 37.7256 43.0956 36.5156H47.2031ZM52.5469 28.5C52.8992 28.5 53.2436 28.6045 53.5365 28.8002C53.8294 28.9959 54.0577 29.2741 54.1925 29.5996C54.3274 29.9251 54.3626 30.2832 54.2939 30.6288C54.2252 30.9743 54.0555 31.2917 53.8064 31.5408C53.5573 31.7899 53.2399 31.9595 52.8944 32.0283C52.5489 32.097 52.1907 32.0617 51.8652 31.9269C51.5397 31.7921 51.2615 31.5638 51.0658 31.2709C50.8701 30.9779 50.7656 30.6336 50.7656 30.2813C50.7656 29.8088 50.9533 29.3558 51.2873 29.0217C51.6214 28.6877 52.0745 28.5 52.5469 28.5ZM2.67188 30.2813C2.67188 29.929 2.77635 29.5846 2.97207 29.2916C3.1678 28.9987 3.44599 28.7704 3.77147 28.6356C4.09695 28.5008 4.4551 28.4655 4.80063 28.5342C5.14616 28.603 5.46355 28.7726 5.71266 29.0217C5.96177 29.2708 6.13142 29.5882 6.20015 29.9337C6.26888 30.2793 6.23361 30.6374 6.09879 30.9629C5.96397 31.2884 5.73566 31.5666 5.44274 31.7623C5.14981 31.958 4.80542 32.0625 4.45313 32.0625C3.98071 32.0625 3.52764 31.8748 3.19359 31.5408C2.85954 31.2067 2.67188 30.7537 2.67188 30.2813ZM4.45313 48.0938C4.10083 48.0938 3.75644 47.9893 3.46352 47.7936C3.17059 47.5978 2.94229 47.3196 2.80747 46.9942C2.67265 46.6687 2.63737 46.3105 2.7061 45.965C2.77483 45.6195 2.94448 45.3021 3.19359 45.053C3.44271 44.8039 3.76009 44.6342 4.10562 44.5655C4.45115 44.4967 4.8093 44.532 5.13478 44.6668C5.46026 44.8017 5.73846 45.03 5.93418 45.3229C6.12991 45.6158 6.23438 45.9602 6.23438 46.3125C6.23438 46.7849 6.04671 47.238 5.71266 47.572C5.37861 47.9061 4.92554 48.0938 4.45313 48.0938ZM54.3281 46.3125C54.3281 46.6648 54.2237 47.0092 54.0279 47.3021C53.8322 47.595 53.554 47.8233 53.2285 47.9582C52.903 48.093 52.5449 48.1283 52.1994 48.0595C51.8538 47.9908 51.5365 47.8212 51.2873 47.572C51.0382 47.3229 50.8686 47.0055 50.7999 46.66C50.7311 46.3145 50.7664 45.9563 50.9012 45.6308C51.036 45.3054 51.2643 45.0272 51.5573 44.8314C51.8502 44.6357 52.1946 44.5313 52.5469 44.5313C53.0193 44.5313 53.4724 44.7189 53.8064 45.053C54.1405 45.387 54.3281 45.8401 54.3281 46.3125ZM11.5781 21.5113V17.6762L13.8448 17.2986C14.0212 17.2693 14.1847 17.1875 14.314 17.0639C14.4434 16.9403 14.5324 16.7806 14.5697 16.6057C14.9311 14.9172 15.5994 13.3093 16.5416 11.8622C16.6387 11.7122 16.6884 11.5364 16.6843 11.3577C16.6802 11.179 16.6224 11.0057 16.5184 10.8603L15.1825 8.98374L17.8944 6.27178L19.771 7.61217C19.9164 7.71613 20.0897 7.77393 20.2684 7.77806C20.4471 7.78219 20.6229 7.73246 20.7729 7.63533C22.22 6.69318 23.8279 6.02481 25.5164 5.66349C25.6913 5.6262 25.851 5.5371 25.9746 5.40779C26.0982 5.27849 26.18 5.11496 26.2093 4.93852L26.5825 2.67188H30.4175L30.7951 4.93852C30.8245 5.11496 30.9063 5.27849 31.0299 5.40779C31.1534 5.5371 31.3131 5.6262 31.488 5.66349C33.1766 6.02481 34.7844 6.69318 36.2315 7.63533C36.3816 7.73246 36.5574 7.78219 36.7361 7.77806C36.9148 7.77393 37.0881 7.71613 37.2335 7.61217L39.11 6.27178L41.822 8.98374L40.486 10.8603C40.3821 11.0057 40.3243 11.179 40.3201 11.3577C40.316 11.5364 40.3657 11.7122 40.4629 11.8622C41.405 13.3093 42.0734 14.9172 42.4347 16.6057C42.472 16.7806 42.5611 16.9403 42.6904 17.0639C42.8197 17.1875 42.9832 17.2693 43.1597 17.2986L45.4219 17.6762V21.5113L43.1552 21.8889C42.9788 21.9182 42.8153 22 42.686 22.1236C42.5567 22.2472 42.4676 22.4069 42.4303 22.5818C42.1872 23.7042 41.8076 24.7926 41.3001 25.8228C39.6976 25.8139 38.1041 25.5838 36.5646 25.1388C37.5789 23.6683 38.1718 21.9484 38.2792 20.1653C38.3865 18.3822 38.0044 16.6036 37.1739 15.022C36.3435 13.4404 35.0964 12.1159 33.5676 11.1919C32.0387 10.2679 30.2864 9.77946 28.5 9.77946C26.7136 9.77946 24.9613 10.2679 23.4324 11.1919C21.9036 12.1159 20.6565 13.4404 19.8261 15.022C18.9957 16.6036 18.6135 18.3822 18.7208 20.1653C18.8282 21.9484 19.4211 23.6683 20.4354 25.1388C18.8959 25.5838 17.3024 25.8139 15.6999 25.8228C15.1924 24.7926 14.8128 23.7042 14.5697 22.5818C14.5324 22.4069 14.4434 22.2472 14.314 22.1236C14.1847 22 14.0212 21.9182 13.8448 21.8889L11.5781 21.5113ZM22.1944 24.534C21.2661 23.3513 20.6893 21.9313 20.5297 20.4363C20.3701 18.9413 20.6342 17.4315 21.2918 16.0794C21.9494 14.7273 22.974 13.5875 24.2487 12.7901C25.5233 11.9926 26.9965 11.5698 28.5 11.5698C30.0035 11.5698 31.4767 11.9926 32.7513 12.7901C34.026 13.5875 35.0506 14.7273 35.7082 16.0794C36.3658 17.4315 36.6299 18.9413 36.4703 20.4363C36.3107 21.9313 35.7339 23.3513 34.8056 24.534C32.6812 23.6602 30.7518 22.3727 29.1297 20.7462C28.9627 20.5793 28.7362 20.4855 28.5 20.4855C28.2638 20.4855 28.0373 20.5793 27.8703 20.7462C26.2478 22.3721 24.3185 23.6596 22.1944 24.534ZM31.6982 51.2109L28.5 54.0307L25.3018 51.2109C21.941 48.2447 19.2266 44.6186 17.3275 40.5583C15.4283 36.498 14.385 32.0902 14.2625 27.6094H15.5984C20.375 27.6233 24.9814 25.8371 28.5 22.6067C32.0184 25.8369 36.6245 27.623 41.4007 27.6094H42.7366C42.6142 32.0902 41.5711 36.4978 39.6721 40.5582C37.773 44.6185 35.0588 48.2446 31.6982 51.2109Z" fill="url(#paint2_linear_1_20107)"/>
</g>
<defs>
<linearGradient id="paint0_linear_1_20107" x1="22.2656" y1="38.4574" x2="34.7344" y2="38.4574" gradientUnits="userSpaceOnUse">
<stop stop-color="#C4161C"/>
<stop offset="1" stop-color="#600B0E"/>
</linearGradient>
<linearGradient id="paint1_linear_1_20107" x1="26.7188" y1="40.0319" x2="30.2813" y2="40.0319" gradientUnits="userSpaceOnUse">
<stop stop-color="#C4161C"/>
<stop offset="1" stop-color="#600B0E"/>
</linearGradient>
<linearGradient id="paint2_linear_1_20107" x1="0.890625" y1="33.3851" x2="56.1094" y2="33.3851" gradientUnits="userSpaceOnUse">
<stop stop-color="#C4161C"/>
<stop offset="1" stop-color="#600B0E"/>
</linearGradient>
<clipPath id="clip0_1_20107">
<rect width="57" height="57" fill="white"/>
</clipPath>
</defs>
</svg>
