<svg width="51" height="51" viewBox="0 0 51 51" fill="none" xmlns="http://www.w3.org/2000/svg">
<g clip-path="url(#clip0_1_20053)">
<path d="M47.8125 15.1406C49.1305 15.1406 50.2031 14.068 50.2031 12.75V3.1875C50.2031 1.86947 49.1305 0.796875 47.8125 0.796875H36.6562C35.3382 0.796875 34.2656 1.86947 34.2656 3.1875V5.57812H32.6719V1.59375C32.6719 1.15388 32.3157 0.796875 31.875 0.796875H4.78125C4.34058 0.796875 3.98438 1.15388 3.98438 1.59375V5.57812H1.59375C1.15308 5.57812 0.796875 5.93512 0.796875 6.375V33.4688C0.796875 33.9086 1.15308 34.2656 1.59375 34.2656H7.17188V35.0625C7.17188 36.112 7.85639 36.9965 8.79909 37.3169C9.13378 40.9626 12.2057 43.8281 15.9375 43.8281H24.7477C25.1454 47.4093 28.1895 50.2031 31.875 50.2031H46.2188V48.6094H31.875C29.0692 48.6094 26.7415 46.5279 26.3535 43.8281H28.6875C30.8845 43.8281 32.6719 42.0407 32.6719 39.8438C32.6719 37.6468 30.8845 35.8594 28.6875 35.8594C26.4905 35.8594 24.7031 37.6468 24.7031 39.8438V42.2344H15.9375C13.0783 42.2344 10.7164 40.0701 10.3984 37.2938C11.3045 36.9535 11.9531 36.0857 11.9531 35.0625V34.2656H34.2656V36.6562C34.2656 37.9743 35.3382 39.0469 36.6562 39.0469H41.4375V41.4375H38.25V43.0312H46.2188V41.4375H43.0312V39.0469H47.8125C49.1305 39.0469 50.2031 37.9743 50.2031 36.6562V27.0938C50.2031 25.7757 49.1305 24.7031 47.8125 24.7031H47.0156V15.1406H47.8125ZM26.2969 39.8438C26.2969 38.5257 27.3695 37.4531 28.6875 37.4531C30.0055 37.4531 31.0781 38.5257 31.0781 39.8438C31.0781 41.1618 30.0055 42.2344 28.6875 42.2344H26.2969V39.8438ZM35.8594 3.1875C35.8594 2.74842 36.2164 2.39062 36.6562 2.39062H47.8125C48.2524 2.39062 48.6094 2.74842 48.6094 3.1875V12.75C48.6094 13.1891 48.2524 13.5469 47.8125 13.5469H47.0156V9.5625C47.0156 9.12263 46.6594 8.76562 46.2188 8.76562H38.25C37.8093 8.76562 37.4531 9.12263 37.4531 9.5625V13.5469H36.6562C36.2164 13.5469 35.8594 13.1891 35.8594 12.75V3.1875ZM45.4219 10.3594V29.4844H39.0469V10.3594H45.4219ZM5.57812 2.39062H31.0781V5.57812H5.57812V2.39062ZM10.3594 35.0625C10.3594 35.5016 10.0024 35.8594 9.5625 35.8594C9.12263 35.8594 8.76562 35.5016 8.76562 35.0625V34.2656H10.3594V35.0625ZM2.39062 32.6719V7.17188H34.2656V12.75C34.2656 14.068 35.3382 15.1406 36.6562 15.1406H37.4531V24.7031H36.6562C35.3382 24.7031 34.2656 25.7757 34.2656 27.0938V32.6719H2.39062ZM47.8125 26.2969C48.2524 26.2969 48.6094 26.6547 48.6094 27.0938V36.6562C48.6094 37.0953 48.2524 37.4531 47.8125 37.4531H36.6562C36.2164 37.4531 35.8594 37.0953 35.8594 36.6562V27.0938C35.8594 26.6547 36.2164 26.2969 36.6562 26.2969H37.4531V30.2812C37.4531 30.7211 37.8093 31.0781 38.25 31.0781H46.2188C46.6594 31.0781 47.0156 30.7211 47.0156 30.2812V26.2969H47.8125Z" fill="url(#paint0_linear_1_20053)"/>
<path d="M25.5 10.3594C20.2271 10.3594 15.9375 14.649 15.9375 19.9219C15.9375 25.1948 20.2271 29.4844 25.5 29.4844C30.7729 29.4844 35.0625 25.1948 35.0625 19.9219C35.0625 14.649 30.7729 10.3594 25.5 10.3594ZM25.5 27.8906C21.106 27.8906 17.5312 24.3158 17.5312 19.9219C17.5312 15.5279 21.106 11.9531 25.5 11.9531C29.894 11.9531 33.4688 15.5279 33.4688 19.9219C33.4688 24.3158 29.894 27.8906 25.5 27.8906Z" fill="url(#paint1_linear_1_20053)"/>
<path d="M24.7031 12.75H26.2969V14.3438H24.7031V12.75Z" fill="url(#paint2_linear_1_20053)"/>
<path d="M24.7031 25.5H26.2969V27.0938H24.7031V25.5Z" fill="url(#paint3_linear_1_20053)"/>
<path d="M31.0781 19.125H32.6719V20.7188H31.0781V19.125Z" fill="url(#paint4_linear_1_20053)"/>
<path d="M18.3281 19.125H19.9219V20.7188H18.3281V19.125Z" fill="url(#paint5_linear_1_20053)"/>
<path d="M29.4844 15.1406H31.0781V16.7344H29.4844V15.1406Z" fill="url(#paint6_linear_1_20053)"/>
<path d="M19.9219 23.1094H21.5156V24.7031H19.9219V23.1094Z" fill="url(#paint7_linear_1_20053)"/>
<path d="M19.9219 15.1406H21.5156V16.7344H19.9219V15.1406Z" fill="url(#paint8_linear_1_20053)"/>
<path d="M29.4844 23.1094H31.0781V24.7031H29.4844V23.1094Z" fill="url(#paint9_linear_1_20053)"/>
<path d="M25.5 15.1406C22.8631 15.1406 20.7188 17.285 20.7188 19.9219C20.7188 22.5587 22.8631 24.7031 25.5 24.7031C28.1369 24.7031 30.2812 22.5587 30.2812 19.9219C30.2812 17.285 28.1369 15.1406 25.5 15.1406ZM25.5 23.1094C23.7421 23.1094 22.3125 21.6798 22.3125 19.9219C22.3125 18.164 23.7421 16.7344 25.5 16.7344C27.2579 16.7344 28.6875 18.164 28.6875 19.9219C28.6875 21.6798 27.2579 23.1094 25.5 23.1094Z" fill="url(#paint10_linear_1_20053)"/>
<path d="M3.98438 27.0938H5.57812V28.6875H3.98438V27.0938Z" fill="url(#paint11_linear_1_20053)"/>
<path d="M7.17188 27.0938H8.76562V28.6875H7.17188V27.0938Z" fill="url(#paint12_linear_1_20053)"/>
<path d="M10.3594 27.0938H11.9531V28.6875H10.3594V27.0938Z" fill="url(#paint13_linear_1_20053)"/>
<path d="M13.5469 27.0938H15.1406V28.6875H13.5469V27.0938Z" fill="url(#paint14_linear_1_20053)"/>
<path d="M3.98438 23.9062H5.57812V25.5H3.98438V23.9062Z" fill="url(#paint15_linear_1_20053)"/>
<path d="M7.17188 23.9062H8.76562V25.5H7.17188V23.9062Z" fill="url(#paint16_linear_1_20053)"/>
<path d="M10.3594 23.9062H11.9531V25.5H10.3594V23.9062Z" fill="url(#paint17_linear_1_20053)"/>
<path d="M13.5469 23.9062H15.1406V25.5H13.5469V23.9062Z" fill="url(#paint18_linear_1_20053)"/>
<path d="M3.98438 20.7188H5.57812V22.3125H3.98438V20.7188Z" fill="url(#paint19_linear_1_20053)"/>
<path d="M7.17188 20.7188H8.76562V22.3125H7.17188V20.7188Z" fill="url(#paint20_linear_1_20053)"/>
<path d="M10.3594 20.7188H11.9531V22.3125H10.3594V20.7188Z" fill="url(#paint21_linear_1_20053)"/>
<path d="M13.5469 20.7188H15.1406V22.3125H13.5469V20.7188Z" fill="url(#paint22_linear_1_20053)"/>
<path d="M3.98438 17.5312H5.57812V19.125H3.98438V17.5312Z" fill="url(#paint23_linear_1_20053)"/>
<path d="M7.17188 17.5312H8.76562V19.125H7.17188V17.5312Z" fill="url(#paint24_linear_1_20053)"/>
<path d="M10.3594 17.5312H11.9531V19.125H10.3594V17.5312Z" fill="url(#paint25_linear_1_20053)"/>
<path d="M13.5469 17.5312H15.1406V19.125H13.5469V17.5312Z" fill="url(#paint26_linear_1_20053)"/>
<path d="M3.98438 14.3438H5.57812V15.9375H3.98438V14.3438Z" fill="url(#paint27_linear_1_20053)"/>
<path d="M7.17188 14.3438H8.76562V15.9375H7.17188V14.3438Z" fill="url(#paint28_linear_1_20053)"/>
<path d="M10.3594 14.3438H11.9531V15.9375H10.3594V14.3438Z" fill="url(#paint29_linear_1_20053)"/>
<path d="M13.5469 14.3438H15.1406V15.9375H13.5469V14.3438Z" fill="url(#paint30_linear_1_20053)"/>
<path d="M3.98438 11.1562H5.57812V12.75H3.98438V11.1562Z" fill="url(#paint31_linear_1_20053)"/>
<path d="M7.17188 11.1562H8.76562V12.75H7.17188V11.1562Z" fill="url(#paint32_linear_1_20053)"/>
<path d="M10.3594 11.1562H11.9531V12.75H10.3594V11.1562Z" fill="url(#paint33_linear_1_20053)"/>
<path d="M13.5469 11.1562H15.1406V12.75H13.5469V11.1562Z" fill="url(#paint34_linear_1_20053)"/>
<path d="M38.25 43.8281H46.2188V45.4219H38.25V43.8281Z" fill="url(#paint35_linear_1_20053)"/>
<path d="M38.25 46.2188H46.2188V47.8125H38.25V46.2188Z" fill="url(#paint36_linear_1_20053)"/>
</g>
<defs>
<linearGradient id="paint0_linear_1_20053" x1="0.796875" y1="29.8693" x2="50.2031" y2="29.8693" gradientUnits="userSpaceOnUse">
<stop stop-color="#C4161C"/>
<stop offset="1" stop-color="#600B0E"/>
</linearGradient>
<linearGradient id="paint1_linear_1_20053" x1="15.9375" y1="21.6132" x2="35.0625" y2="21.6132" gradientUnits="userSpaceOnUse">
<stop stop-color="#C4161C"/>
<stop offset="1" stop-color="#600B0E"/>
</linearGradient>
<linearGradient id="paint2_linear_1_20053" x1="24.7031" y1="13.6878" x2="26.2969" y2="13.6878" gradientUnits="userSpaceOnUse">
<stop stop-color="#C4161C"/>
<stop offset="1" stop-color="#600B0E"/>
</linearGradient>
<linearGradient id="paint3_linear_1_20053" x1="24.7031" y1="26.4378" x2="26.2969" y2="26.4378" gradientUnits="userSpaceOnUse">
<stop stop-color="#C4161C"/>
<stop offset="1" stop-color="#600B0E"/>
</linearGradient>
<linearGradient id="paint4_linear_1_20053" x1="31.0781" y1="20.0628" x2="32.6719" y2="20.0628" gradientUnits="userSpaceOnUse">
<stop stop-color="#C4161C"/>
<stop offset="1" stop-color="#600B0E"/>
</linearGradient>
<linearGradient id="paint5_linear_1_20053" x1="18.3281" y1="20.0628" x2="19.9219" y2="20.0628" gradientUnits="userSpaceOnUse">
<stop stop-color="#C4161C"/>
<stop offset="1" stop-color="#600B0E"/>
</linearGradient>
<linearGradient id="paint6_linear_1_20053" x1="29.4844" y1="16.0784" x2="31.0781" y2="16.0784" gradientUnits="userSpaceOnUse">
<stop stop-color="#C4161C"/>
<stop offset="1" stop-color="#600B0E"/>
</linearGradient>
<linearGradient id="paint7_linear_1_20053" x1="19.9219" y1="24.0472" x2="21.5156" y2="24.0472" gradientUnits="userSpaceOnUse">
<stop stop-color="#C4161C"/>
<stop offset="1" stop-color="#600B0E"/>
</linearGradient>
<linearGradient id="paint8_linear_1_20053" x1="19.9219" y1="16.0784" x2="21.5156" y2="16.0784" gradientUnits="userSpaceOnUse">
<stop stop-color="#C4161C"/>
<stop offset="1" stop-color="#600B0E"/>
</linearGradient>
<linearGradient id="paint9_linear_1_20053" x1="29.4844" y1="24.0472" x2="31.0781" y2="24.0472" gradientUnits="userSpaceOnUse">
<stop stop-color="#C4161C"/>
<stop offset="1" stop-color="#600B0E"/>
</linearGradient>
<linearGradient id="paint10_linear_1_20053" x1="20.7188" y1="20.7675" x2="30.2812" y2="20.7675" gradientUnits="userSpaceOnUse">
<stop stop-color="#C4161C"/>
<stop offset="1" stop-color="#600B0E"/>
</linearGradient>
<linearGradient id="paint11_linear_1_20053" x1="3.98438" y1="28.0316" x2="5.57812" y2="28.0316" gradientUnits="userSpaceOnUse">
<stop stop-color="#C4161C"/>
<stop offset="1" stop-color="#600B0E"/>
</linearGradient>
<linearGradient id="paint12_linear_1_20053" x1="7.17188" y1="28.0316" x2="8.76562" y2="28.0316" gradientUnits="userSpaceOnUse">
<stop stop-color="#C4161C"/>
<stop offset="1" stop-color="#600B0E"/>
</linearGradient>
<linearGradient id="paint13_linear_1_20053" x1="10.3594" y1="28.0316" x2="11.9531" y2="28.0316" gradientUnits="userSpaceOnUse">
<stop stop-color="#C4161C"/>
<stop offset="1" stop-color="#600B0E"/>
</linearGradient>
<linearGradient id="paint14_linear_1_20053" x1="13.5469" y1="28.0316" x2="15.1406" y2="28.0316" gradientUnits="userSpaceOnUse">
<stop stop-color="#C4161C"/>
<stop offset="1" stop-color="#600B0E"/>
</linearGradient>
<linearGradient id="paint15_linear_1_20053" x1="3.98438" y1="24.8441" x2="5.57812" y2="24.8441" gradientUnits="userSpaceOnUse">
<stop stop-color="#C4161C"/>
<stop offset="1" stop-color="#600B0E"/>
</linearGradient>
<linearGradient id="paint16_linear_1_20053" x1="7.17188" y1="24.8441" x2="8.76562" y2="24.8441" gradientUnits="userSpaceOnUse">
<stop stop-color="#C4161C"/>
<stop offset="1" stop-color="#600B0E"/>
</linearGradient>
<linearGradient id="paint17_linear_1_20053" x1="10.3594" y1="24.8441" x2="11.9531" y2="24.8441" gradientUnits="userSpaceOnUse">
<stop stop-color="#C4161C"/>
<stop offset="1" stop-color="#600B0E"/>
</linearGradient>
<linearGradient id="paint18_linear_1_20053" x1="13.5469" y1="24.8441" x2="15.1406" y2="24.8441" gradientUnits="userSpaceOnUse">
<stop stop-color="#C4161C"/>
<stop offset="1" stop-color="#600B0E"/>
</linearGradient>
<linearGradient id="paint19_linear_1_20053" x1="3.98438" y1="21.6566" x2="5.57812" y2="21.6566" gradientUnits="userSpaceOnUse">
<stop stop-color="#C4161C"/>
<stop offset="1" stop-color="#600B0E"/>
</linearGradient>
<linearGradient id="paint20_linear_1_20053" x1="7.17188" y1="21.6566" x2="8.76562" y2="21.6566" gradientUnits="userSpaceOnUse">
<stop stop-color="#C4161C"/>
<stop offset="1" stop-color="#600B0E"/>
</linearGradient>
<linearGradient id="paint21_linear_1_20053" x1="10.3594" y1="21.6566" x2="11.9531" y2="21.6566" gradientUnits="userSpaceOnUse">
<stop stop-color="#C4161C"/>
<stop offset="1" stop-color="#600B0E"/>
</linearGradient>
<linearGradient id="paint22_linear_1_20053" x1="13.5469" y1="21.6566" x2="15.1406" y2="21.6566" gradientUnits="userSpaceOnUse">
<stop stop-color="#C4161C"/>
<stop offset="1" stop-color="#600B0E"/>
</linearGradient>
<linearGradient id="paint23_linear_1_20053" x1="3.98438" y1="18.4691" x2="5.57812" y2="18.4691" gradientUnits="userSpaceOnUse">
<stop stop-color="#C4161C"/>
<stop offset="1" stop-color="#600B0E"/>
</linearGradient>
<linearGradient id="paint24_linear_1_20053" x1="7.17188" y1="18.4691" x2="8.76562" y2="18.4691" gradientUnits="userSpaceOnUse">
<stop stop-color="#C4161C"/>
<stop offset="1" stop-color="#600B0E"/>
</linearGradient>
<linearGradient id="paint25_linear_1_20053" x1="10.3594" y1="18.4691" x2="11.9531" y2="18.4691" gradientUnits="userSpaceOnUse">
<stop stop-color="#C4161C"/>
<stop offset="1" stop-color="#600B0E"/>
</linearGradient>
<linearGradient id="paint26_linear_1_20053" x1="13.5469" y1="18.4691" x2="15.1406" y2="18.4691" gradientUnits="userSpaceOnUse">
<stop stop-color="#C4161C"/>
<stop offset="1" stop-color="#600B0E"/>
</linearGradient>
<linearGradient id="paint27_linear_1_20053" x1="3.98438" y1="15.2816" x2="5.57812" y2="15.2816" gradientUnits="userSpaceOnUse">
<stop stop-color="#C4161C"/>
<stop offset="1" stop-color="#600B0E"/>
</linearGradient>
<linearGradient id="paint28_linear_1_20053" x1="7.17188" y1="15.2816" x2="8.76562" y2="15.2816" gradientUnits="userSpaceOnUse">
<stop stop-color="#C4161C"/>
<stop offset="1" stop-color="#600B0E"/>
</linearGradient>
<linearGradient id="paint29_linear_1_20053" x1="10.3594" y1="15.2816" x2="11.9531" y2="15.2816" gradientUnits="userSpaceOnUse">
<stop stop-color="#C4161C"/>
<stop offset="1" stop-color="#600B0E"/>
</linearGradient>
<linearGradient id="paint30_linear_1_20053" x1="13.5469" y1="15.2816" x2="15.1406" y2="15.2816" gradientUnits="userSpaceOnUse">
<stop stop-color="#C4161C"/>
<stop offset="1" stop-color="#600B0E"/>
</linearGradient>
<linearGradient id="paint31_linear_1_20053" x1="3.98438" y1="12.0941" x2="5.57812" y2="12.0941" gradientUnits="userSpaceOnUse">
<stop stop-color="#C4161C"/>
<stop offset="1" stop-color="#600B0E"/>
</linearGradient>
<linearGradient id="paint32_linear_1_20053" x1="7.17188" y1="12.0941" x2="8.76562" y2="12.0941" gradientUnits="userSpaceOnUse">
<stop stop-color="#C4161C"/>
<stop offset="1" stop-color="#600B0E"/>
</linearGradient>
<linearGradient id="paint33_linear_1_20053" x1="10.3594" y1="12.0941" x2="11.9531" y2="12.0941" gradientUnits="userSpaceOnUse">
<stop stop-color="#C4161C"/>
<stop offset="1" stop-color="#600B0E"/>
</linearGradient>
<linearGradient id="paint34_linear_1_20053" x1="13.5469" y1="12.0941" x2="15.1406" y2="12.0941" gradientUnits="userSpaceOnUse">
<stop stop-color="#C4161C"/>
<stop offset="1" stop-color="#600B0E"/>
</linearGradient>
<linearGradient id="paint35_linear_1_20053" x1="38.25" y1="44.7659" x2="46.2187" y2="44.7659" gradientUnits="userSpaceOnUse">
<stop stop-color="#C4161C"/>
<stop offset="1" stop-color="#600B0E"/>
</linearGradient>
<linearGradient id="paint36_linear_1_20053" x1="38.25" y1="47.1566" x2="46.2187" y2="47.1566" gradientUnits="userSpaceOnUse">
<stop stop-color="#C4161C"/>
<stop offset="1" stop-color="#600B0E"/>
</linearGradient>
<clipPath id="clip0_1_20053">
<rect width="51" height="51" fill="white"/>
</clipPath>
</defs>
</svg>
