<svg width="57" height="57" viewBox="0 0 57 57" fill="none" xmlns="http://www.w3.org/2000/svg">
<path d="M44.8821 38.6011C42.5184 35.8725 39.5072 34.1257 36.2418 33.5503C37.8234 33.1333 39.2723 32.2954 40.4481 31.0949C42.1402 29.3672 43.0722 27.0895 43.0722 24.6809V22.504C44.0697 22.289 44.8198 21.4008 44.8198 20.34V16.3921C44.8198 15.3299 44.0658 14.4408 43.0643 14.2291C42.8224 6.40337 36.3817 0.111328 28.4983 0.111328C20.6146 0.111328 14.1737 6.40382 13.9322 14.23C12.9323 14.4429 12.1799 15.3311 12.1799 16.3921V20.34C12.1799 21.3997 12.9285 22.2869 13.9244 22.5032V24.6809C13.9244 27.0894 14.8569 29.3674 16.5502 31.0951C17.7262 32.2952 19.1753 33.133 20.7568 33.5501C17.4918 34.1253 14.4808 35.8721 12.1173 38.6011C9.26919 41.8898 7.70068 46.2193 7.70068 50.7922V56.0006C7.70068 56.491 8.09824 56.8886 8.58864 56.8886H48.4112C48.9016 56.8886 49.2991 56.491 49.2991 56.0006V50.7923C49.2991 46.2191 47.7304 41.8897 44.8821 38.6011ZM34.2772 45.2191C34.2772 48.7142 33.9743 52.1165 33.4001 55.1126H23.5966C23.0222 52.1167 22.7194 48.7143 22.7194 45.2191C22.7194 41.3612 23.0873 37.6253 23.7837 34.4152C23.7972 34.3534 23.8039 34.2902 23.8039 34.2269V31.0268C25.2376 31.7504 26.8362 32.1383 28.4985 32.1383C30.1867 32.1383 31.7826 31.736 33.1962 31.0229V34.227C33.1962 34.2901 33.2028 34.3528 33.2162 34.4144C33.5413 35.9206 33.7937 37.5418 33.9711 39.2348C32.348 40.1327 30.4684 40.6064 28.4985 40.6064C27.2806 40.6064 26.0895 40.4237 24.958 40.0635C24.4911 39.9151 23.9914 40.173 23.8425 40.6404C23.6937 41.1077 23.9519 41.6071 24.4194 41.7559C25.7252 42.1716 27.0976 42.3824 28.4985 42.3824C30.4962 42.3824 32.4194 41.9568 34.1372 41.1446C34.2293 42.4757 34.2772 43.8397 34.2772 45.2191ZM26.2572 26.4773H17.8991C16.9086 26.4773 16.1028 25.6714 16.1028 24.6809V22.5545H18.0738C18.1369 23.3103 18.2799 24.0523 18.5039 24.7696C18.6498 25.2376 19.1474 25.4986 19.6161 25.3525C20.0843 25.2065 20.3452 24.7084 20.199 24.2402C19.9422 23.4174 19.812 22.5536 19.812 21.6728V21.6666V15.4211C20.6953 15.6078 21.6 15.7021 22.5137 15.7021C26.6327 15.7021 30.4941 13.7388 32.9341 10.4881C33.9584 12.3251 35.4255 13.9086 37.1883 15.0657V15.0686V21.6665V21.6727C37.1883 26.4641 33.2901 30.3623 28.4986 30.3623C26.3881 30.3623 24.4002 29.609 22.8367 28.2532H26.2574C26.7478 28.2532 27.1454 27.8556 27.1454 27.3652C27.1454 26.8748 26.7476 26.4773 26.2572 26.4773ZM13.9558 16.3921C13.9558 16.156 14.1566 15.9567 14.3943 15.9567H18.0357V20.7786H14.3943C14.1566 20.7786 13.9558 20.5778 13.9558 20.3401V16.3921ZM34.972 31.997V29.8903C37.1848 28.1432 38.6776 25.5231 38.9264 22.5545H41.2962V24.6809C41.2962 28.364 38.5325 31.4712 34.972 31.997ZM42.6054 15.9567C42.8431 15.9567 43.0438 16.156 43.0438 16.3921V20.34C43.0438 20.5777 42.8431 20.7785 42.6054 20.7785H38.964V15.9567H42.6054ZM28.4983 1.88723C35.3861 1.88723 41.0194 7.3569 41.2854 14.1806H38.8696C38.7953 14.0315 38.681 13.9028 38.5335 13.814C36.4414 12.5566 34.7888 10.6184 33.8802 8.35673C33.7531 8.04067 33.4566 7.82503 33.1167 7.80187C32.7763 7.77805 32.4536 7.95194 32.2848 8.24785C30.2869 11.7503 26.5426 13.9261 22.5136 13.9261C21.3771 13.9261 20.2579 13.7576 19.187 13.4254C18.9173 13.3419 18.6243 13.3913 18.3971 13.5585C18.195 13.7074 18.0672 13.9338 18.0413 14.1806H15.7112C15.9772 7.35701 21.6106 1.88723 28.4983 1.88723ZM16.4791 27.9582C16.9146 28.1476 17.3946 28.2533 17.899 28.2533H20.3756C20.8721 28.8659 21.4267 29.4128 22.0277 29.8899V31.9971C19.5997 31.6388 17.5431 30.081 16.4791 27.9582ZM9.47659 50.7923C9.47659 42.7149 14.9174 35.9687 21.8165 35.1917C21.2445 38.2489 20.9434 41.6877 20.9434 45.2192C20.9434 48.6958 21.2354 52.0901 21.7899 55.1128H14.9648V50.9682C14.9648 50.4778 14.5673 50.0803 14.0769 50.0803C13.5865 50.0803 13.1889 50.4778 13.1889 50.9682V55.1126H9.47659V50.7923ZM47.5232 55.1128H43.8077V50.9682C43.8077 50.4778 43.4102 50.0803 42.9198 50.0803C42.4294 50.0803 42.0318 50.4778 42.0318 50.9682V55.1126H35.2066C35.7611 52.0899 36.0532 48.6955 36.0532 45.2191C36.0532 43.3366 35.9669 41.4799 35.8007 39.6915C35.7998 39.6485 35.7962 39.6055 35.789 39.5627C35.6444 38.0456 35.4411 36.5801 35.1824 35.1917C42.0823 35.9698 47.5232 42.7155 47.5232 50.7921V55.1128ZM24.0427 19.3908V20.7802C24.0427 21.2706 23.6451 21.6681 23.1547 21.6681C22.6643 21.6681 22.2667 21.2706 22.2667 20.7802V19.3908C22.2667 18.9004 22.6643 18.5028 23.1547 18.5028C23.6451 18.5028 24.0427 18.9003 24.0427 19.3908ZM32.957 20.7801V19.3907C32.957 18.9003 33.3546 18.5027 33.845 18.5027C34.3354 18.5027 34.7329 18.9003 34.7329 19.3907V20.7801C34.7329 21.2705 34.3354 21.668 33.845 21.668C33.3546 21.6681 32.957 21.2706 32.957 20.7801ZM28.3318 26.2347C27.3853 26.2012 26.4568 25.8845 25.5722 25.2934C25.1644 25.0211 25.0546 24.4696 25.3272 24.0618C25.5994 23.6541 26.151 23.5442 26.5588 23.8168C27.1547 24.2149 27.7617 24.4306 28.3633 24.4585C28.9654 24.4306 29.5708 24.2151 30.163 23.8178C30.5705 23.5444 31.122 23.6532 31.3951 24.0603C31.6684 24.4676 31.5598 25.0192 31.1525 25.2924C30.2708 25.8841 29.3429 26.2011 28.3946 26.2347C28.3841 26.235 28.3737 26.2352 28.3632 26.2352C28.3527 26.2352 28.3423 26.235 28.3318 26.2347Z" fill="url(#paint0_linear_1_20022)"/>
<defs>
<linearGradient id="paint0_linear_1_20022" x1="7.70068" y1="33.5211" x2="49.2991" y2="33.5211" gradientUnits="userSpaceOnUse">
<stop stop-color="#C4161C"/>
<stop offset="1" stop-color="#600B0E"/>
</linearGradient>
</defs>
</svg>
