<svg width="56" height="56" viewBox="0 0 56 56" fill="none" xmlns="http://www.w3.org/2000/svg">
<g clip-path="url(#clip0_1_20031)">
<path d="M55.8906 23.4544V32.5417C55.8906 33.0158 55.5623 33.4268 55.1 33.5317L52.0566 34.2215C51.51 34.3454 50.9662 34.0026 50.8422 33.456C50.7183 32.9092 51.061 32.3655 51.6077 32.2416L53.8604 31.7309V24.2658L47.1998 22.7629C46.8488 22.6837 46.5661 22.4247 46.4565 22.0822C46.134 21.0743 45.7228 20.0819 45.2343 19.1327C45.0698 18.813 45.0867 18.43 45.2787 18.126L48.9269 12.3515L43.6465 7.07417L37.8717 10.7195C37.568 10.9114 37.185 10.9282 36.8656 10.7638C35.9177 10.2761 34.9261 9.86476 33.9185 9.54112C33.5765 9.43131 33.318 9.1489 33.2387 8.79858L31.7324 2.13742H24.2675L22.7612 8.79858C22.682 9.1489 22.4234 9.43131 22.0814 9.54112C21.0649 9.86761 20.0739 10.2786 19.1359 10.7631C18.816 10.9282 18.4328 10.9117 18.1285 10.7196L12.3501 7.07417L7.07241 12.3517L10.7178 18.1264C10.9096 18.4304 10.9265 18.8131 10.762 19.1327C10.2733 20.0826 9.86202 21.0749 9.5398 22.0821C9.4302 22.4245 9.14758 22.6834 8.79692 22.7628L2.13948 24.269V31.7306L8.79703 33.2368C9.14791 33.3161 9.43031 33.5751 9.53991 33.9176C9.86289 34.9272 10.2738 35.918 10.7615 36.8622C10.9267 37.1819 10.91 37.5652 10.7181 37.8697L7.07252 43.6479L12.3503 48.9256L18.1287 45.2801C18.4331 45.0878 18.8163 45.0716 19.1361 45.2366C20.0741 45.7211 21.0651 46.1321 22.0816 46.4586C22.4236 46.5684 22.6821 46.8508 22.7614 47.2011L24.2677 53.8623H31.7327L32.1179 52.1597C32.2415 51.6129 32.7854 51.27 33.3319 51.3936C33.8787 51.5173 34.2217 52.0608 34.0981 52.6076L33.5339 55.1013C33.4294 55.564 33.0182 55.8924 32.5439 55.8924H23.4566C22.9822 55.8924 22.5711 55.5638 22.4665 55.1013L20.9071 48.2053C20.1635 47.9439 19.4344 47.6416 18.7289 47.302L12.7478 51.0755C12.3467 51.3285 11.8235 51.2701 11.4884 50.9347L5.06373 44.5101C4.72828 44.1747 4.66987 43.6518 4.92297 43.2507L8.69652 37.2697C8.35538 36.5612 8.05284 35.8319 7.79275 35.0911L0.900484 33.5318C0.437828 33.427 0.109375 33.0161 0.109375 32.5417V23.458C0.109375 22.9836 0.437828 22.5726 0.900484 22.4679L7.79242 20.9088C8.05219 20.1688 8.35483 19.4387 8.69662 18.7275L4.92286 12.7494C4.66955 12.3483 4.72806 11.8252 5.06352 11.4899L11.4882 5.06528C11.8233 4.72983 12.3465 4.67142 12.7475 4.92451L18.7287 8.69784C19.4342 8.35823 20.1632 8.05603 20.9069 7.79451L22.4663 0.898531C22.5708 0.435875 22.982 0.107422 23.4563 0.107422H32.5437C33.018 0.107422 33.4292 0.435984 33.5337 0.898531L35.0931 7.79462C35.8322 8.05483 36.5612 8.35725 37.2706 8.69817L43.2486 4.92451C43.6496 4.67109 44.1726 4.72972 44.5081 5.06484L50.9363 11.4894C51.2719 11.825 51.3303 12.3482 51.0768 12.7496L47.3 18.7276C47.6416 19.4384 47.9441 20.1683 48.2038 20.9084L55.099 22.4641C55.5618 22.5687 55.8906 22.9798 55.8906 23.4544ZM27.8161 35.2623L23.016 40.0624C25.0733 40.9137 27.3409 41.2284 29.6326 40.9416C30.1895 40.8707 30.6965 41.2663 30.7661 41.8225C30.8359 42.3788 30.4414 42.8863 29.8852 42.9559C29.2447 43.0363 28.6053 43.0759 27.971 43.0759C23.9933 43.0759 20.1997 41.5183 17.3415 38.6601C16.2969 37.6155 15.4389 36.454 14.7656 35.2179C14.755 35.1994 14.7447 35.1808 14.7353 35.1618C11.656 29.4508 12.524 22.1573 17.3415 17.3397C23.2186 11.4624 32.7813 11.4626 38.6585 17.3397C42.0137 20.6947 43.6038 25.5035 42.9121 30.2029C42.8304 30.7575 42.3148 31.1396 41.7599 31.0594C41.2052 30.9777 40.8218 30.4619 40.9034 29.9073C41.5111 25.7793 40.1696 21.7218 37.223 18.7751C32.1373 13.6897 23.8628 13.6897 18.7771 18.7751C14.9443 22.6079 14.0004 28.2518 15.9437 32.9774L20.7388 28.1824C20.204 25.3265 21.1139 22.342 23.1842 20.2718C25.3946 18.0614 28.6472 17.1737 31.6729 17.955C32.0258 18.0461 32.3025 18.3193 32.3983 18.6709C32.4941 19.0224 32.3942 19.3982 32.1365 19.6559L28.5016 23.2876L29.391 26.6068L32.7111 27.4965L36.3463 23.8615C36.604 23.6038 36.9805 23.5039 37.3318 23.6001C37.6834 23.6962 37.9565 23.9737 38.0472 24.3268C38.825 27.3548 37.9357 30.6084 35.7264 32.8177C33.6592 34.8851 30.6751 35.7948 27.8161 35.2623ZM27.7441 33.1683C30.0803 33.7684 32.5889 33.084 34.2908 31.382C35.5235 30.1491 36.2236 28.4946 36.2893 26.7893L33.732 29.3463C33.4755 29.6029 33.1017 29.7029 32.7514 29.609L28.2997 28.4162C27.9494 28.3223 27.6757 28.0488 27.5819 27.6986L26.3888 23.2462C26.295 22.8958 26.3953 22.522 26.6518 22.2656L29.2094 19.7103C27.5058 19.7748 25.8526 20.474 24.6195 21.7071C22.915 23.4117 22.2304 25.9198 22.833 28.2526C22.9229 28.6005 22.822 28.9702 22.5679 29.2241L16.9147 34.8772C17.4325 35.7119 18.053 36.5005 18.777 37.2245C19.4948 37.9423 20.281 38.5652 21.1195 39.0879L26.7739 33.4335C27.0275 33.18 27.3969 33.0789 27.7441 33.1683ZM54.3706 43.4255C54.3706 49.6399 49.3149 54.6956 43.1005 54.6956C36.8881 54.6956 31.834 49.6399 31.834 43.4255C31.834 37.2131 36.8881 32.159 43.1005 32.159C49.3149 32.159 54.3706 37.2131 54.3706 43.4255ZM52.3404 43.4255C52.3404 38.3326 48.1954 34.1891 43.1004 34.1891C38.0075 34.1891 33.864 38.3324 33.864 43.4255C33.864 48.5204 38.0074 52.6655 43.1004 52.6655C48.1954 52.6655 52.3404 48.5205 52.3404 43.4255ZM47.1846 39.1287L41.2092 45.5897L38.5705 43.0658C38.1655 42.6785 37.5231 42.6925 37.1353 43.0977C36.7478 43.5028 36.7621 44.1453 37.1673 44.5329L40.552 47.7704C40.7411 47.9514 40.9925 48.0519 41.2536 48.0519C41.2639 48.0519 41.2743 48.0518 41.2847 48.0514C41.5568 48.0431 41.8141 47.9258 41.9988 47.7261L48.675 40.5073C49.0557 40.0957 49.0306 39.4534 48.619 39.0728C48.2075 38.6922 47.5652 38.717 47.1846 39.1287Z" fill="url(#paint0_linear_1_20031)"/>
</g>
<defs>
<linearGradient id="paint0_linear_1_20031" x1="0.109375" y1="32.9333" x2="55.8906" y2="32.9333" gradientUnits="userSpaceOnUse">
<stop stop-color="#C4161C"/>
<stop offset="1" stop-color="#600B0E"/>
</linearGradient>
<clipPath id="clip0_1_20031">
<rect width="56" height="56" fill="white"/>
</clipPath>
</defs>
</svg>
