<svg width="53" height="53" viewBox="0 0 53 53" fill="none" xmlns="http://www.w3.org/2000/svg">
<g clip-path="url(#clip0_1_20041)">
<path d="M51.3438 0.828125H1.65625C1.43662 0.828125 1.22598 0.915374 1.07068 1.07068C0.915374 1.22598 0.828125 1.43662 0.828125 1.65625V4.96875C0.828125 5.18838 0.915374 5.39902 1.07068 5.55432C1.22598 5.70963 1.43662 5.79688 1.65625 5.79688H7.51937C7.69913 7.03322 8.2735 8.17841 9.15692 9.06183C10.0403 9.94525 11.1855 10.5196 12.4219 10.6994V15.7344C12.4208 17.5558 12.8833 19.3475 13.7659 20.9408C11.1762 23.4718 9.39949 26.7171 8.66254 30.2624C7.92558 33.8078 8.26184 37.4923 9.62838 40.8457C10.9949 44.199 13.3298 47.0691 16.3348 49.0895C19.3399 51.1099 22.8789 52.189 26.5 52.189C30.1211 52.189 33.6601 51.1099 36.6652 49.0895C39.6702 47.0691 42.0051 44.199 43.3716 40.8457C44.7382 37.4923 45.0744 33.8078 44.3375 30.2624C43.6005 26.7171 41.8238 23.4718 39.2341 20.9408C40.1167 19.3475 40.5792 17.5558 40.5781 15.7344V10.6994C41.8145 10.5196 42.9597 9.94525 43.8431 9.06183C44.7265 8.17841 45.3009 7.03322 45.4806 5.79688H51.3438C51.5634 5.79688 51.774 5.70963 51.9293 5.55432C52.0846 5.39902 52.1719 5.18838 52.1719 4.96875V1.65625C52.1719 1.43662 52.0846 1.22598 51.9293 1.07068C51.774 0.915374 51.5634 0.828125 51.3438 0.828125ZM15.7344 46.5141V38.9219C15.7344 36.0667 16.8686 33.3284 18.8876 31.3094C20.9065 29.2905 23.6448 28.1563 26.5 28.1563C29.3552 28.1563 32.0935 29.2905 34.1124 31.3094C36.1314 33.3284 37.2656 36.0667 37.2656 38.9219V46.5141C34.2732 49.0961 30.4524 50.5166 26.5 50.5166C22.5476 50.5166 18.7268 49.0961 15.7344 46.5141ZM43.0625 33.9531C43.0618 37.976 41.589 41.8595 38.9219 44.8711V38.9219C38.9219 35.6274 37.6131 32.4678 35.2836 30.1383C32.954 27.8087 29.7945 26.5 26.5 26.5C23.2055 26.5 20.046 27.8087 17.7164 30.1383C15.3869 32.4678 14.0781 35.6274 14.0781 38.9219V44.8711C12.3103 42.8601 11.0567 40.4503 10.4248 37.8484C9.793 35.2464 9.8018 32.53 10.4505 29.9322C11.0992 27.3344 12.3684 24.9328 14.1492 22.9333C15.9301 20.9338 18.1694 19.3962 20.6751 18.4523C23.1807 17.5085 25.878 17.1866 28.5354 17.5142C31.1929 17.8419 33.7312 18.8093 35.9326 20.3335C38.1339 21.8577 39.9327 23.8932 41.1746 26.2654C42.4164 28.6376 43.0642 31.2756 43.0625 33.9531ZM26.5 15.7344C22.3307 15.7303 18.2873 17.1634 15.0512 19.7922C14.4156 18.5337 14.0825 17.1443 14.0781 15.7344V10.7656H38.9219V15.7344C38.9175 17.1443 38.5844 18.5337 37.9488 19.7922C34.7127 17.1634 30.6693 15.7303 26.5 15.7344ZM39.75 9.10938H13.25C12.2958 9.10817 11.3712 8.77805 10.6321 8.17466C9.89293 7.57126 9.38439 6.73149 9.19219 5.79688H43.8078C43.6156 6.73149 43.1071 7.57126 42.3679 8.17466C41.6288 8.77805 40.7042 9.10817 39.75 9.10938ZM50.5156 4.14063H2.48438V2.48438H50.5156V4.14063Z" fill="url(#paint0_linear_1_20041)"/>
<path d="M26.5 29.8125C24.6983 29.8125 22.9371 30.3468 21.4391 31.3477C19.9411 32.3487 18.7735 33.7713 18.084 35.4359C17.3946 37.1004 17.2142 38.932 17.5657 40.699C17.9172 42.4661 18.7847 44.0892 20.0587 45.3632C21.3327 46.6371 22.9558 47.5047 24.7229 47.8562C26.4899 48.2077 28.3215 48.0273 29.986 47.3378C31.6505 46.6484 33.0732 45.4808 34.0742 43.9828C35.0751 42.4847 35.6094 40.7235 35.6094 38.9219C35.6065 36.5068 34.6459 34.1914 32.9382 32.4837C31.2304 30.776 28.9151 29.8153 26.5 29.8125ZM26.5 46.375C25.0259 46.375 23.5849 45.9379 22.3593 45.1189C21.1336 44.3 20.1783 43.1359 19.6142 41.7741C19.0501 40.4122 18.9025 38.9136 19.1901 37.4678C19.4777 36.0221 20.1875 34.6941 21.2298 33.6517C22.2722 32.6094 23.6002 31.8995 25.046 31.612C26.4917 31.3244 27.9903 31.472 29.3522 32.0361C30.7141 32.6002 31.8781 33.5555 32.6971 34.7811C33.516 36.0068 33.9531 37.4478 33.9531 38.9219C33.9507 40.8978 33.1647 42.7922 31.7675 44.1894C30.3703 45.5866 28.476 46.3726 26.5 46.375Z" fill="url(#paint1_linear_1_20041)"/>
<path d="M26.5 34.7812C25.6811 34.7812 24.8805 35.0241 24.1996 35.4791C23.5187 35.934 22.988 36.5807 22.6746 37.3373C22.3612 38.0939 22.2792 38.9265 22.4389 39.7297C22.5987 40.5329 22.9931 41.2707 23.5721 41.8497C24.1512 42.4288 24.889 42.8232 25.6922 42.9829C26.4954 43.1427 27.328 43.0607 28.0846 42.7473C28.8412 42.4339 29.4878 41.9032 29.9428 41.2223C30.3978 40.5414 30.6406 39.7408 30.6406 38.9219C30.6393 37.8241 30.2026 36.7717 29.4264 35.9955C28.6502 35.2192 27.5978 34.7826 26.5 34.7812ZM26.5 41.4063C26.0086 41.4063 25.5283 41.2605 25.1198 40.9876C24.7112 40.7146 24.3928 40.3266 24.2047 39.8726C24.0167 39.4186 23.9675 38.9191 24.0634 38.4372C24.1592 37.9553 24.3958 37.5126 24.7433 37.1652C25.0907 36.8177 25.5334 36.5811 26.0153 36.4852C26.4972 36.3894 26.9968 36.4386 27.4507 36.6266C27.9047 36.8146 28.2927 37.1331 28.5657 37.5416C28.8387 37.9502 28.9844 38.4305 28.9844 38.9219C28.9844 39.5808 28.7226 40.2127 28.2567 40.6786C27.7908 41.1445 27.1589 41.4063 26.5 41.4063Z" fill="url(#paint2_linear_1_20041)"/>
<path d="M35.6094 15.7344C36.5241 15.7344 37.2656 14.9928 37.2656 14.0781C37.2656 13.1634 36.5241 12.4219 35.6094 12.4219C34.6947 12.4219 33.9531 13.1634 33.9531 14.0781C33.9531 14.9928 34.6947 15.7344 35.6094 15.7344Z" fill="url(#paint3_linear_1_20041)"/>
</g>
<defs>
<linearGradient id="paint0_linear_1_20041" x1="0.828125" y1="31.0507" x2="52.1719" y2="31.0507" gradientUnits="userSpaceOnUse">
<stop stop-color="#C4161C"/>
<stop offset="1" stop-color="#600B0E"/>
</linearGradient>
<linearGradient id="paint1_linear_1_20041" x1="17.3906" y1="40.5331" x2="35.6094" y2="40.5331" gradientUnits="userSpaceOnUse">
<stop stop-color="#C4161C"/>
<stop offset="1" stop-color="#600B0E"/>
</linearGradient>
<linearGradient id="paint2_linear_1_20041" x1="22.3594" y1="39.6542" x2="30.6406" y2="39.6542" gradientUnits="userSpaceOnUse">
<stop stop-color="#C4161C"/>
<stop offset="1" stop-color="#600B0E"/>
</linearGradient>
<linearGradient id="paint3_linear_1_20041" x1="33.9531" y1="14.3711" x2="37.2656" y2="14.3711" gradientUnits="userSpaceOnUse">
<stop stop-color="#C4161C"/>
<stop offset="1" stop-color="#600B0E"/>
</linearGradient>
<clipPath id="clip0_1_20041">
<rect width="53" height="53" fill="white"/>
</clipPath>
</defs>
</svg>
