<svg width="55" height="55" viewBox="0 0 55 55" fill="none" xmlns="http://www.w3.org/2000/svg">
<g clip-path="url(#clip0_1_20004)">
<path d="M54.9463 27.5C54.9463 20.1688 52.0914 13.2763 46.9076 8.09241C41.7237 2.90855 34.8312 0.0537109 27.5 0.0537109C20.1688 0.0537109 13.2763 2.90855 8.09241 8.09241C2.90855 13.2763 0.0537109 20.1688 0.0537109 27.5C0.0537109 34.8312 2.90855 41.7237 8.09241 46.9076C13.2763 52.0914 20.1688 54.9463 27.5 54.9463C27.9742 54.9463 28.3585 54.5619 28.3585 54.0878C28.3585 53.6136 27.9742 53.2293 27.5 53.2293C13.3128 53.2294 1.77074 41.6872 1.77074 27.5C1.77074 13.3128 13.3128 1.77063 27.5 1.77063C41.6872 1.77063 53.2293 13.3129 53.2293 27.5C53.2293 31.9988 52.0598 36.394 49.8393 40.2735C47.9304 39.0721 45.3722 39.4799 43.9387 41.2905L40.9818 45.0345C40.8406 45.2132 40.7763 45.4406 40.8028 45.6669C40.8294 45.893 40.9448 46.0993 41.1235 46.2404L41.9571 46.8985L40.2459 49.0675C39.9522 49.4398 40.0159 49.9796 40.3882 50.2733C40.5456 50.3976 40.7331 50.4578 40.9194 50.4578C41.1732 50.4578 41.4246 50.3457 41.594 50.131L43.3048 47.9624L44.6282 49.0071L42.9145 51.1761C42.6206 51.5482 42.6839 52.088 43.0559 52.382C43.2135 52.5066 43.4011 52.5669 43.5875 52.5669C43.8411 52.5669 44.0923 52.4551 44.2617 52.2407L45.9758 50.0712L46.8092 50.729C46.9668 50.8534 47.1543 50.9137 47.3406 50.9137C47.5942 50.9137 47.8455 50.8017 48.0149 50.5872L50.9718 46.8433C52.2277 45.2534 52.2287 43.0682 51.1182 41.4884C53.6241 37.2617 54.9463 32.4393 54.9463 27.5ZM49.6245 45.779L47.1996 48.8495L42.8613 45.4248L45.2854 42.3555C46.2319 41.1601 47.9733 40.9547 49.1672 41.8974C50.3633 42.8426 50.5685 44.5839 49.6245 45.779ZM26.8573 43.345C26.8573 43.8192 26.4729 44.2036 25.9988 44.2036C22.5993 44.2036 19.426 42.6846 17.2922 40.0363C16.9948 39.6671 17.053 39.1267 17.4221 38.8292C17.7912 38.5319 18.3317 38.5898 18.6292 38.9591C20.4354 41.2008 23.1214 42.4866 25.9988 42.4866C26.4729 42.4866 26.8573 42.8709 26.8573 43.345ZM40.6506 12.5262C40.4906 12.292 40.2252 12.1518 39.9415 12.1518H33.9182C33.5732 12.1518 33.2617 12.3583 33.1274 12.6762L32.4961 14.171C31.2116 12.3928 29.9403 10.709 28.7935 9.19134C28.03 8.18104 27.3089 7.2267 26.6909 6.38483C26.5291 6.16451 26.2722 6.03442 25.9989 6.03442C25.9988 6.03442 25.9987 6.03442 25.9986 6.03442C25.7251 6.03453 25.4681 6.16483 25.3064 6.38548C24.6852 7.23325 23.9578 8.19683 23.1875 9.21669C18.1394 15.9023 10.5107 26.0055 10.5107 33.0248C10.5107 41.5667 17.4586 48.5159 25.9988 48.5159C34.5405 48.5159 41.4898 41.5667 41.4898 33.0248C41.4898 31.4 41.0835 29.5152 40.2819 27.4173L44.3252 21.7828C44.5128 21.5212 44.5385 21.1766 44.3914 20.8902C44.2445 20.6037 43.9496 20.4237 43.6277 20.4237H37.9627L40.7409 13.323C40.8444 13.0588 40.8105 12.7605 40.6506 12.5262ZM39.7728 33.0248C39.7728 40.6199 33.5938 46.7989 25.9988 46.7989C18.4054 46.7989 12.2277 40.6199 12.2277 33.0248C12.2277 26.581 19.6477 16.7541 24.5576 10.2514C25.0618 9.58354 25.5479 8.93986 25.9992 8.33508C26.4457 8.93256 26.9255 9.56764 27.4234 10.2265C28.7463 11.9772 30.2353 13.9492 31.7127 16.0253L28.0006 24.8138C27.8887 25.079 27.9169 25.3825 28.076 25.6224C28.2351 25.8622 28.5036 26.0064 28.7914 26.0064H34.2395L32.2682 35.7693C32.1881 36.166 32.396 36.5647 32.7669 36.7264C32.8779 36.7746 32.9943 36.7979 33.1094 36.7979C33.3793 36.7979 33.6418 36.6703 33.8072 36.4399L39.0621 29.1169C39.5343 30.5755 39.7728 31.8853 39.7728 33.0248ZM35.9054 20.9695C35.8021 21.2338 35.8359 21.5321 35.9959 21.7664C36.1558 22.0006 36.4213 22.1408 36.705 22.1408H41.955L34.7425 32.1918L36.1304 25.3178C36.1813 25.0654 36.1163 24.8035 35.9532 24.6042C35.7903 24.405 35.5463 24.2894 35.2888 24.2894H30.0862L33.4892 16.2325C33.4906 16.229 33.4923 16.2254 33.4937 16.2219L34.4876 13.8688H38.6837L35.9054 20.9695Z" fill="url(#paint0_linear_1_20004)"/>
</g>
<defs>
<linearGradient id="paint0_linear_1_20004" x1="0.0537109" y1="32.3544" x2="54.9463" y2="32.3544" gradientUnits="userSpaceOnUse">
<stop stop-color="#C4161C"/>
<stop offset="1" stop-color="#600B0E"/>
</linearGradient>
<clipPath id="clip0_1_20004">
<rect width="55" height="55" fill="white"/>
</clipPath>
</defs>
</svg>
