<svg width="61" height="61" viewBox="0 0 61 61" fill="none" xmlns="http://www.w3.org/2000/svg">
<path fill-rule="evenodd" clip-rule="evenodd" d="M31.8893 60.9947C31.7875 60.9947 31.6863 60.9729 31.5916 60.9296C24.0761 57.4869 18.0631 52.8097 13.6868 47.008C13.6868 47.8679 13.7733 53.7568 13.6218 54.0882L11.2485 59.2558C11.132 59.5114 10.8782 59.674 10.5994 59.674C7.0645 59.674 7.51128 60.1193 7.51128 56.826H5.86177C4.421 56.826 3.24865 55.6537 3.24865 54.2122C3.24865 52.7707 4.421 51.5984 5.86177 51.5984H7.51128V49.3137H5.86177C4.421 49.3137 3.24865 48.1414 3.24865 46.6999C3.24865 45.2584 4.421 44.0857 5.86177 44.0857H7.51128V34.5014C1.84934 32.2142 0.580131 24.7469 5.1673 20.7045C5.05686 13.6021 6.36074 8.6293 6.41685 8.4177C6.51264 8.05813 6.86578 7.83117 7.23392 7.89908C18.5131 9.93175 31.3271 0.249506 31.4551 0.15193C31.7113 -0.0446529 32.0666 -0.043938 32.3236 0.15193C32.4516 0.250221 45.2802 9.93103 56.5447 7.89944C56.9122 7.83331 57.2664 8.05885 57.3622 8.41806C57.4615 8.79085 59.7816 17.6771 57.8797 28.6554C56.1191 38.8158 50.233 52.6617 32.1864 60.9285C32.092 60.9718 31.9908 60.9936 31.8893 60.9936V60.9947ZM31.1745 42.2707C25.0043 41.8993 20.0976 36.7624 20.0976 30.5004C20.0976 24.2326 25.0136 19.0921 31.192 18.7294V9.00066C25.1637 12.5613 18.4702 14.8213 12.5585 15.2824C12.4544 16.4251 12.3937 17.6188 12.3772 18.8455C19.6669 20.4586 21.1817 30.2448 14.7391 33.987C17.6278 41.9 23.1518 48.1692 31.1745 52.6431V42.2707ZM32.6213 18.7315C38.7851 19.1104 43.6836 24.2437 43.6836 30.5004C43.6836 36.7632 38.7755 41.9008 32.6042 42.271V52.6431C42.6228 47.0573 48.7115 38.7083 50.7073 27.8086C51.4036 24.0017 51.5912 19.3702 51.2216 15.2927C45.3049 14.8431 38.7665 12.6285 32.6217 8.99959V18.7319L32.6213 18.7315ZM31.8904 20.1369C26.1763 20.1369 21.5273 24.7859 21.5273 30.4997C21.5273 36.2138 26.1763 40.8624 31.8904 40.8624C37.6052 40.8624 42.2539 36.2138 42.2539 30.4997C42.2539 24.7863 37.6045 20.1369 31.8904 20.1369ZM10.5994 29.9657C8.89665 29.9657 7.51128 28.5803 7.51128 26.8775C7.51128 25.1748 8.89665 23.7894 10.5994 23.7894C12.3025 23.7894 13.6876 25.1748 13.6876 26.8775C13.6876 28.5803 12.3022 29.9657 10.5994 29.9657ZM10.5994 25.2191C8.41628 25.2191 8.41628 28.5363 10.5994 28.5363C12.7829 28.5363 12.7822 25.2191 10.5994 25.2191ZM12.2582 44.7844V34.0049C12.2582 33.3648 12.8748 33.3112 13.576 32.9891C15.8921 31.864 17.3951 29.5082 17.3951 26.8775C17.3951 23.0846 14.2991 20.0819 10.5987 20.0819C6.85148 20.0819 3.80302 23.1307 3.80302 26.8775C3.80302 29.8098 5.67127 32.4019 8.45095 33.3269C8.74296 33.4234 8.9399 33.6972 8.9399 34.0046V44.8016C8.9399 45.1962 8.61965 45.5164 8.22506 45.5164H5.86106C4.30305 45.5164 4.30377 47.8844 5.86106 47.8844H8.22541C8.62001 47.8844 8.94026 48.205 8.94026 48.5992V52.3132C8.94026 52.7078 8.62001 53.0281 8.22541 53.0281H5.86106C4.30234 53.0281 4.30412 55.3956 5.86106 55.3956C9.38561 55.3956 8.9399 54.951 8.9399 58.2439H10.1405L12.2579 53.635V44.7841L12.2582 44.7844ZM13.6872 44.55C17.9345 50.8242 24.0557 55.8496 31.8897 59.4924C45.7445 53.0516 54.0142 42.5967 56.4718 28.4123C58.0388 19.3663 56.6137 11.6191 56.1294 9.41491C45.4964 10.9361 34.2548 3.31906 31.8897 1.60914C28.8369 3.81659 17.9194 10.8871 7.65103 9.41491C7.33257 10.8632 6.60843 14.6994 6.59092 19.6962C7.88801 18.9695 9.38025 18.5928 10.9508 18.6593C10.974 17.2332 11.0566 15.8492 11.196 14.5357C11.2328 14.1876 11.5166 13.9174 11.8658 13.8974C18.0399 13.5435 25.1941 11.0816 31.5001 7.14241C31.7571 6.973 32.0516 6.97085 32.3097 7.1392C38.7704 11.1595 45.732 13.5628 51.9136 13.9066C52.2635 13.9267 52.5477 14.1965 52.5849 14.5454C53.0445 18.8913 52.8683 23.946 52.1138 28.0674C49.9667 39.7962 43.2736 48.6822 32.2225 54.4767L31.543 54.4678C22.9019 49.9328 16.9022 43.4709 13.6876 35.247V44.5507L13.6872 44.55ZM31.8897 37.9073C30.6963 37.9073 29.7255 36.9358 29.7255 35.7427V31.2066C26.2796 29.0414 27.8011 23.6643 31.8897 23.6643C35.979 23.6643 37.5005 29.0417 34.0546 31.207V35.7424C34.0539 36.9358 33.0828 37.9069 31.8897 37.9069V37.9073ZM31.8897 25.0936C29.0693 25.0936 28.2268 28.9367 30.7481 30.1408C30.9968 30.2595 31.1545 30.5107 31.1545 30.7856V35.742C31.1545 36.7088 32.6238 36.7092 32.6238 35.742V30.7856C32.6238 30.5104 32.7822 30.2595 33.0302 30.1408C35.5536 28.9356 34.7083 25.0936 31.8897 25.0936Z" fill="url(#paint0_linear_1_19239)"/>
<defs>
<linearGradient id="paint0_linear_1_19239" x1="2.37744" y1="35.8934" x2="58.6263" y2="35.8934" gradientUnits="userSpaceOnUse">
<stop stop-color="#C4161C"/>
<stop offset="1" stop-color="#600B0E"/>
</linearGradient>
</defs>
</svg>
