<svg width="61" height="61" viewBox="0 0 61 61" fill="none" xmlns="http://www.w3.org/2000/svg">
<path fill-rule="evenodd" clip-rule="evenodd" d="M54.2236 35.8785H4.88453V40.184H56.1161V35.8785H54.2239H54.2236ZM13.6285 26.874L18.6074 21.5848L18.3883 14.3484C12.2735 15.1112 9.70652 22.4755 13.6285 26.8743V26.874ZM19.6493 22.5641L14.679 27.844C19.5825 31.5744 26.509 28.3265 26.885 22.3458L19.6493 22.5641ZM19.3262 30.8581C14.4334 30.8581 10.4846 27.0255 10.3367 22.1309C10.1869 17.1713 14.0996 13.0142 19.0585 12.8644C24.0456 12.7196 28.0409 16.424 28.3243 21.5687C28.5924 26.4358 24.4992 30.8581 19.3259 30.8581H19.3262ZM19.8177 14.3048L20.0239 21.1227L26.8421 20.9161C26.3993 17.3054 23.4698 14.5307 19.8173 14.3048H19.8177ZM36.2681 31.1366H32.2689C31.8743 31.1366 31.554 30.8163 31.554 30.4217V23.6275C31.554 23.2329 31.8746 22.9126 32.2689 22.9126H36.2681C36.6627 22.9126 36.9829 23.2329 36.9829 23.6275V30.4224C36.9836 30.817 36.6627 31.1369 36.2681 31.1369V31.1366ZM32.9844 29.7069H35.5532V24.3423H32.9844V29.7069ZM43.1106 31.1366H39.1114C38.7168 31.1366 38.3965 30.8163 38.3965 30.4217V20.5204C38.3965 20.1258 38.7171 19.8055 39.1114 19.8055H43.1106C43.5052 19.8055 43.8254 20.1258 43.8254 20.5204V30.4224C43.8261 30.817 43.5052 31.1369 43.1106 31.1369V31.1366ZM39.8269 29.7069H42.3957V21.2345H39.8269V29.7069ZM49.9538 31.1366H45.9546C45.56 31.1366 45.2398 30.8163 45.2398 30.4217V16.8325C45.2398 16.4379 45.5604 16.1177 45.9546 16.1177H49.9538C50.3484 16.1177 50.6687 16.4379 50.6687 16.8325V30.4217C50.6687 30.817 50.3481 31.1366 49.9538 31.1366ZM46.6694 29.7069H49.2383V17.5473H46.6694V29.7069ZM15.8328 58.6178H10.2276C9.74191 58.6178 9.39628 58.1421 9.54783 57.6796L14.823 41.6148H4.16968C3.77509 41.6148 3.45483 41.2942 3.45483 40.9V35.1644C3.45483 34.7698 3.77509 34.4495 4.16968 34.4495H6.06152V9.54822H4.16968C3.77509 9.54822 3.45483 9.22797 3.45483 8.83337V3.09851C3.45483 2.70392 3.77509 2.38367 4.16968 2.38367H56.831C57.2256 2.38367 57.5458 2.70392 57.5458 3.09851V8.83337C57.5458 9.22832 57.2256 9.54822 56.831 9.54822H54.9388V34.4495H56.831C57.2256 34.4495 57.5458 34.7701 57.5458 35.1644V40.9C57.5458 41.2938 57.2256 41.6148 56.831 41.6148H46.1748L51.4972 57.9026C51.4975 58.2972 51.1776 58.6181 50.7823 58.6181H45.1676C44.8587 58.6181 44.585 58.4198 44.4885 58.1263L39.0667 41.6152H34.0177V57.9029C34.0181 58.2975 33.6975 58.6185 33.3033 58.6185H27.6978C27.3032 58.6185 26.9829 58.2979 26.9829 57.9037V41.6155H21.934L16.5122 58.1267C16.4157 58.4198 16.1416 58.6185 15.8331 58.6185L15.8328 58.6178ZM11.2145 57.1877H15.3149L20.4289 41.6148H16.3285L11.2145 57.1877ZM45.6855 57.1877H49.7858L44.6718 41.6148H40.5715L45.6855 57.1877ZM28.4123 57.1877H32.5873V41.6148H28.4123V57.1877ZM6.77637 8.11852H56.1161V3.81336H4.88453V8.11852H6.77637ZM7.49121 34.4488H53.5084V9.54822H7.49121V34.4488Z" fill="url(#paint0_linear_1_19226)"/>
<defs>
<linearGradient id="paint0_linear_1_19226" x1="3.45483" y1="35.4742" x2="57.5458" y2="35.4742" gradientUnits="userSpaceOnUse">
<stop stop-color="#C4161C"/>
<stop offset="1" stop-color="#600B0E"/>
</linearGradient>
</defs>
</svg>
