<svg width="61" height="61" viewBox="0 0 61 61" fill="none" xmlns="http://www.w3.org/2000/svg">
<path fill-rule="evenodd" clip-rule="evenodd" d="M32.6956 34.6129H25.5372C25.1426 34.6129 24.8223 34.2923 24.8223 33.898V30.5933C22.7961 29.9828 20.9239 28.9377 19.3548 27.542L16.3478 29.2154C16.0111 29.4031 15.5854 29.2894 15.3867 28.9581L11.8078 22.982C11.6005 22.636 11.7206 22.1864 12.0734 21.9901L15.0493 20.3338C14.5925 18.3441 14.5921 16.2689 15.0493 14.2809L12.0734 12.6249C11.7206 12.4291 11.6005 11.9794 11.8078 11.6331L15.3867 5.65696C15.5854 5.32598 16.0111 5.21232 16.3478 5.39925L19.3552 7.07307C20.9243 5.67697 22.7957 4.63258 24.8223 4.0221V0.715579C24.8223 0.320984 25.1426 0.000732422 25.5372 0.000732422H32.6956C33.0902 0.000732422 33.4105 0.320984 33.4105 0.715579V4.02139C35.4363 4.63187 37.3082 5.67626 38.8776 7.07235L41.8853 5.39854C42.2227 5.21089 42.6477 5.32455 42.8464 5.65624L46.4253 11.6324C46.633 11.9791 46.5107 12.4287 46.1598 12.6239L43.1839 14.2805C43.6406 16.2703 43.6406 18.3441 43.1839 20.3338L46.1598 21.9898C46.5118 22.1853 46.6326 22.6353 46.4253 22.9816L42.8464 28.9577C42.6484 29.2887 42.2231 29.4024 41.8853 29.2151L38.8794 27.5423C37.3103 28.9388 35.4374 29.9832 33.4105 30.5944V33.898C33.4105 34.2926 33.0902 34.6129 32.6956 34.6129ZM48.2586 42.8197C47.864 42.8197 47.5437 42.4991 47.5437 42.1048V34.6129H36.0383C35.0972 34.6129 35.0975 33.1832 36.0383 33.1832H48.2586C48.6531 33.1832 48.9734 33.5038 48.9734 33.898V42.1048C48.9741 42.4994 48.6531 42.8197 48.2586 42.8197ZM12.7421 42.8197C12.3475 42.8197 12.0273 42.4991 12.0273 42.1048V33.898C12.0273 33.5034 12.3475 33.1832 12.7421 33.1832H22.1963C23.1371 33.1832 23.1371 34.6129 22.1963 34.6129H13.457V42.1048C13.457 42.4994 13.1367 42.8197 12.7421 42.8197ZM55.9374 60.6354H40.5793C40.1847 60.6354 39.8645 60.3148 39.8645 59.9206V56.5387C39.8645 54.6472 41.5243 53.1088 43.5642 53.1088C44.7655 53.1088 45.8745 52.8854 46.1151 53.5938C46.8067 55.6294 49.709 55.6297 50.3995 53.5946C50.6404 52.8854 51.7484 53.1088 52.9512 53.1088C54.991 53.1088 56.6508 54.6479 56.6508 56.5387V59.9206C56.6523 60.3152 56.3317 60.6354 55.9371 60.6354H55.9374ZM41.2949 59.205H55.2226V56.5379C55.2226 55.4349 54.2043 54.5385 52.9529 54.5385H51.5508C50.1879 57.2224 46.331 57.2203 44.9667 54.5385H43.5649C42.3132 54.5385 41.2952 55.4353 41.2952 56.5379V59.205H41.2949ZM48.2586 51.7499C46.2227 51.7499 44.566 50.094 44.566 48.0581C44.566 46.0222 46.2227 44.3655 48.2586 44.3655C50.2944 44.3655 51.9504 46.0222 51.9504 48.0581C51.9504 50.094 50.2944 51.7499 48.2586 51.7499ZM48.2586 45.7959C45.2816 45.7959 45.2805 50.3195 48.2586 50.3195C51.2359 50.3195 51.2348 45.7959 48.2586 45.7959ZM20.4214 60.9997H5.06324C4.66864 60.9997 4.34839 60.6791 4.34839 60.2848V56.9022C4.34839 55.0114 6.0079 53.473 8.04808 53.473C9.24973 53.473 10.3595 53.2497 10.6004 53.9581C11.292 55.9947 14.1918 55.9936 14.8849 53.9581C15.1261 53.2497 16.2345 53.473 17.4365 53.473C19.4763 53.473 21.1362 55.0121 21.1362 56.9022V60.2848C21.1362 60.6794 20.8167 60.9997 20.4214 60.9997ZM5.77808 59.57H19.7065V56.9022C19.7065 55.7999 18.6882 54.9031 17.4365 54.9031H16.034C14.6708 57.5863 10.8135 57.5863 9.45096 54.9031H8.04843C6.7971 54.9031 5.77844 55.8002 5.77844 56.9022V59.5696L5.77808 59.57ZM12.7425 52.1145C10.7066 52.1145 9.05065 50.4578 9.05065 48.4219C9.05065 46.3861 10.7066 44.7294 12.7425 44.7294C14.7784 44.7294 16.4343 46.3861 16.4343 48.4219C16.4343 50.4578 14.7784 52.1145 12.7425 52.1145ZM12.7425 46.1605C9.76514 46.1605 9.76514 50.6848 12.7425 50.6848C15.7198 50.6848 15.7198 46.1605 12.7425 46.1605ZM38.1796 53.8054H22.8215C22.4269 53.8054 22.1066 53.4848 22.1066 53.0906V49.7087C22.1066 47.8172 23.7661 46.2788 25.8063 46.2788C27.0097 46.2788 28.117 46.0551 28.3579 46.7646C29.0488 48.7997 31.9515 48.7997 32.642 46.7646C32.8829 46.0554 33.9909 46.2788 35.1937 46.2788C37.2335 46.2788 38.8933 47.8179 38.8933 49.7087V53.0906C38.8944 53.4852 38.5742 53.8054 38.1796 53.8054ZM23.5363 52.375H37.464V49.7079C37.464 48.6049 36.4457 47.7085 35.1944 47.7085H33.7922C32.4297 50.3924 28.572 50.3906 27.2085 47.7085H25.8063C24.555 47.7085 23.5363 48.6057 23.5363 49.7079V52.375ZM30.5003 44.9199C28.4645 44.9199 26.8085 43.264 26.8085 41.2281C26.8085 39.1922 28.4648 37.5355 30.5003 37.5355C32.5359 37.5355 34.1929 39.1922 34.1929 41.2281C34.1929 43.264 32.5362 44.9199 30.5003 44.9199ZM30.5003 38.9667C27.5234 38.9667 27.5226 43.4902 30.5003 43.4902C33.478 43.4902 33.4773 38.9667 30.5003 38.9667ZM29.1164 23.5178C25.5786 23.5178 22.7003 20.732 22.7003 17.3072C22.7003 13.8827 25.5786 11.0966 29.1164 11.0966C32.6542 11.0966 35.5329 13.8823 35.5329 17.3072C35.5329 20.7313 32.6542 23.5178 29.1164 23.5178ZM29.1164 12.5263C26.3667 12.5263 24.13 14.6708 24.13 17.3072C24.13 19.9435 26.3667 22.0881 29.1164 22.0881C31.866 22.0881 34.1028 19.9428 34.1028 17.3072C34.1028 14.6712 31.866 12.5263 29.1164 12.5263ZM26.2524 33.1828H31.9811V30.0525C31.9811 28.7486 34.5514 29.7176 38.28 26.1498C38.5077 25.9325 38.849 25.8893 39.1225 26.0412L41.9754 27.6292L44.8194 22.8801C39.9964 20.1959 42.0962 21.964 42.0962 17.3072C42.0962 12.6492 39.9964 14.4174 44.8194 11.7335L41.9754 6.98443L39.1207 8.57353C38.0148 9.1883 37.5033 6.55337 32.5162 5.2545C32.2017 5.17229 31.9815 4.88814 31.9815 4.56253V1.43043H26.2527V4.56288C26.2527 5.86676 23.6643 4.90601 19.9556 8.46523C19.7294 8.6829 19.3873 8.72651 19.1132 8.57389L16.2588 6.98478L13.4144 11.7339C18.2386 14.4185 16.1373 12.6499 16.1373 17.3075C16.1373 21.9637 18.2382 20.1959 13.4144 22.8805L16.2588 27.6296L19.1132 26.0412C20.2183 25.426 20.732 28.062 25.7184 29.3602C26.0329 29.442 26.2531 29.7266 26.2531 30.0522L26.2534 33.1836H26.2527L26.2524 33.1828Z" fill="url(#paint0_linear_1_19220)"/>
<defs>
<linearGradient id="paint0_linear_1_19220" x1="4.34839" y1="35.8947" x2="56.6509" y2="35.8947" gradientUnits="userSpaceOnUse">
<stop stop-color="#C4161C"/>
<stop offset="1" stop-color="#600B0E"/>
</linearGradient>
</defs>
</svg>
