<svg width="61" height="61" viewBox="0 0 61 61" fill="none" xmlns="http://www.w3.org/2000/svg">
<path fill-rule="evenodd" clip-rule="evenodd" d="M36.2302 27.1637C35.1615 27.1637 26.9054 27.2399 26.5848 27.113L22.8583 25.6293H18.1871C17.7925 25.6293 17.4723 25.3091 17.4723 24.9145V13.5005C17.4723 13.1059 17.7925 12.7857 18.1871 12.7857H22.9165C29.8491 11.7102 26.1819 4.82122 29.7222 4.73187C31.6309 4.67897 32.7878 5.81021 32.8365 7.73279C32.844 7.79248 33.0409 10.0124 32.2967 12.7156H39.3637C41.4843 12.7156 42.5087 15.327 40.9596 16.7706C41.9307 17.8793 41.6477 19.5928 40.3759 20.3363C41.3335 21.8807 40.2251 23.9073 38.3876 23.9091C39.037 25.4456 37.909 27.1637 36.2305 27.1637H36.2302ZM35.7913 49.9931C35.4428 49.9931 32.1116 48.3454 31.5297 48.073L27.5716 49.9255C27.0651 50.1618 26.4908 49.7436 26.559 49.1896L27.0977 44.8526C22.6924 40.1422 22.4572 40.8641 28.7901 39.6421C31.9086 33.9959 31.1491 33.9966 34.269 39.6421L38.5602 40.4703C39.1114 40.5768 39.3301 41.2509 38.9473 41.6605L35.9621 44.8526L36.5004 49.1896C36.5533 49.6178 36.217 49.9931 35.7916 49.9931H35.7913ZM31.5301 46.5686C31.8614 46.5686 34.4273 47.8503 34.9227 48.082L34.5031 44.6972C34.4767 44.4866 34.5453 44.2754 34.6901 44.1206L37.0194 41.629L33.6703 40.9828C33.4619 40.9428 33.2829 40.812 33.1799 40.6265L31.5301 37.6402L29.8806 40.6265C29.7776 40.8123 29.5986 40.9424 29.3909 40.9828L26.0415 41.629L28.3715 44.1206C28.5166 44.2757 28.5853 44.4866 28.5588 44.6972L28.1385 48.082C28.6335 47.8503 31.1991 46.5686 31.5308 46.5686H31.5301ZM50.5218 60.9971C50.1733 60.9971 46.8421 59.3494 46.2602 59.077C40.4203 61.8099 41.0332 62.2559 41.8282 55.8566C37.4233 51.1458 37.1877 51.8674 43.5213 50.6457C46.6405 45.0006 45.8806 45.0006 49.0002 50.6457C55.3334 51.8678 55.0979 51.1458 50.6933 55.8566L51.232 60.1936C51.2849 60.6225 50.9474 60.9971 50.5225 60.9971H50.5218ZM46.2602 57.573C46.5919 57.573 49.1575 58.8547 49.6529 59.0863L49.2325 55.7015C49.2061 55.491 49.2747 55.2797 49.4195 55.1253L51.7488 52.633L48.3997 51.9868C48.1914 51.9468 48.0123 51.816 47.9094 51.6304L46.2598 48.6445L44.6103 51.6304C44.5078 51.8163 44.3283 51.9464 44.1199 51.9868L40.7709 52.633L43.1006 55.1253C43.2457 55.2801 43.314 55.491 43.2875 55.7015L42.8672 59.0863C43.3626 58.8547 45.9285 57.573 46.2598 57.573H46.2602ZM12.5391 60.9971C12.1141 60.9971 11.7767 60.6218 11.8296 60.194L12.3683 55.857L9.38377 52.6645C9.00061 52.2549 9.21935 51.5808 9.7705 51.4739L14.0617 50.6461C17.181 45.001 16.4207 45.001 19.5399 50.6461C25.8731 51.8681 25.6376 51.1458 21.2323 55.857C22.0269 62.2552 22.6399 61.8106 16.8003 59.0774C16.2181 59.3497 12.8887 60.9967 12.5395 60.9967L12.5391 60.9971ZM11.311 52.6334L13.641 55.1257C13.7861 55.2805 13.8544 55.4917 13.828 55.7019L13.4076 59.0867L16.4976 57.6409C16.6895 57.5515 16.9115 57.5515 17.1038 57.6409L20.1933 59.0867L19.773 55.7019C19.7473 55.4913 19.8159 55.2801 19.9599 55.1257L22.29 52.6334L18.9405 51.9872C18.7325 51.9471 18.5527 51.8163 18.4509 51.6308L16.8007 48.6449L15.1504 51.6308C15.0479 51.8167 14.8684 51.9471 14.6608 51.9872L11.311 52.6334ZM44.0503 39.8755C43.7797 39.8755 43.5295 39.7218 43.409 39.4756L39.6833 31.8917H11.1015C8.9109 31.8917 7.12878 30.1096 7.12878 27.9193L7.12914 3.9752C7.12914 1.78491 8.91125 0.00244141 11.1015 0.00244141H48.0759C50.2658 0.00244141 52.0487 1.78455 52.0487 3.9752V27.9186C52.0487 30.1093 50.2662 31.8914 48.0759 31.8914L46.7377 31.891L44.7408 39.3451C44.6575 39.6561 44.3734 39.8755 44.0503 39.8755ZM11.1015 1.43249C9.69937 1.43249 8.55848 2.57303 8.55848 3.97556L8.55884 27.919C8.55884 29.3212 9.69937 30.4621 11.1019 30.4621L40.129 30.4617C40.4017 30.4617 40.6504 30.6168 40.7702 30.8613L43.853 37.1366L45.4992 30.9914C45.7033 30.2294 46.8457 30.4617 48.0766 30.4617C49.4784 30.4617 50.619 29.3212 50.619 27.9186V3.9752C50.619 2.57303 49.4784 1.43213 48.0766 1.43213H11.1015V1.43249ZM23.6882 14.1021V24.4212L26.9861 25.7344H36.2302C37.4308 25.7344 37.4308 23.9098 36.2302 23.9098H32.8132C31.8721 23.9098 31.8728 22.4801 32.8132 22.4801H38.384C39.585 22.4801 39.5846 20.6547 38.384 20.6547L34.1003 20.6551C33.1585 20.6551 33.1588 19.2254 34.1003 19.2254H39.1982C40.3992 19.2254 40.3988 17.4 39.1982 17.4H35.7995C34.8584 17.4 34.8591 15.9703 35.7995 15.9703H39.3637C40.5647 15.9703 40.5643 14.145 39.3637 14.145H31.3256C30.8167 14.145 30.4839 13.6717 30.6508 13.1946C31.6366 10.3724 31.4121 7.84359 31.4096 7.81822C31.3889 7.06262 31.1948 6.12903 29.7544 6.16084C28.626 6.18622 30.213 12.7685 23.6889 14.1017L23.6882 14.1021ZM18.9016 24.2007H22.2585V14.2154H18.9016V24.2007Z" fill="url(#paint0_linear_1_19214)"/>
<defs>
<linearGradient id="paint0_linear_1_19214" x1="7.12878" y1="35.8938" x2="53.892" y2="35.8938" gradientUnits="userSpaceOnUse">
<stop stop-color="#C4161C"/>
<stop offset="1" stop-color="#600B0E"/>
</linearGradient>
</defs>
</svg>
