<svg width="61" height="61" viewBox="0 0 61 61" fill="none" xmlns="http://www.w3.org/2000/svg">
<g clip-path="url(#clip0_1_19232)">
<path fill-rule="evenodd" clip-rule="evenodd" d="M28.4838 22.3847C25.6594 19.8663 25.7727 17.0587 28.3816 14.1103C31.0401 11.1058 30.3538 8.95452 26.9479 6.76673C26.172 6.26848 26.9436 5.06504 27.7203 5.56329C31.8593 8.22073 32.6992 11.3875 29.4524 15.0575C28.2232 16.4465 27.7017 17.6646 27.8565 18.7815C28.0206 19.9632 28.981 21.1427 30.7123 22.2878H31.7474C33.4552 22.2878 34.8452 23.6775 34.8452 25.3856V26.3835H56.7106C59.076 26.3835 61.0004 28.3072 61.0004 30.6726V51.262C60.9997 53.6267 59.0756 55.5511 56.7106 55.5511H4.28945C1.92438 55.5511 0.000366211 53.6271 0.000366211 51.262V30.6726C0.000366211 28.3076 1.92402 26.3835 4.28945 26.3835H26.1555V25.3856C26.1555 23.9434 27.147 22.7275 28.4841 22.3847H28.4838ZM34.1304 27.8129H4.28945C2.71285 27.8129 1.43006 29.0957 1.43006 30.6723V51.2616C1.43006 52.8382 2.71285 54.1203 4.28945 54.1203H56.7106C58.2872 54.1203 59.57 52.8382 59.57 51.2616V30.6723C59.57 29.0957 58.2872 27.8129 56.7106 27.8129H34.1304ZM27.5852 26.3832H33.4152V25.386C33.4152 24.466 32.6671 23.7179 31.7478 23.7179H29.2533C28.3333 23.7179 27.5852 24.466 27.5852 25.386V26.3832ZM10.1926 36.5805H6.05547C5.33276 36.5805 4.7448 35.9922 4.7448 35.2698V31.6441C4.7448 30.9214 5.33312 30.3334 6.05547 30.3334H10.1926C10.9154 30.3334 11.5033 30.921 11.5033 31.6441V35.2698C11.5033 35.9918 10.915 36.5805 10.1926 36.5805ZM6.17414 35.1501H10.0733V31.7635H6.17414V35.1501ZM17.5806 36.5805H13.4431C12.7203 36.5805 12.1324 35.9922 12.1324 35.2698V31.6441C12.1324 30.9214 12.72 30.3334 13.4431 30.3334H17.5806C18.3033 30.3334 18.8913 30.921 18.8913 31.6441V35.2698C18.8913 35.9918 18.3037 36.5805 17.5806 36.5805ZM13.5621 35.1501H17.4608V31.7635H13.5621V35.1501ZM24.9682 36.5805H20.831C20.1083 36.5805 19.5203 35.9922 19.5203 35.2698V31.6441C19.5203 30.9214 20.1079 30.3334 20.831 30.3334H24.9682C25.6909 30.3334 26.2788 30.921 26.2788 31.6441V35.2698C26.2792 35.9918 25.6912 36.5805 24.9682 36.5805ZM20.95 35.1501H24.8488V31.7635H20.95V35.1501ZM32.3561 36.5805H28.2189C27.4962 36.5805 26.9083 35.9922 26.9083 35.2698V31.6441C26.9083 30.9214 27.4959 30.3334 28.2189 30.3334H32.3561C33.0788 30.3334 33.6671 30.921 33.6671 31.6441V35.2698C33.6671 35.9918 33.0788 36.5805 32.3561 36.5805ZM28.338 35.1501H32.2367V31.7635H28.338V35.1501ZM39.7444 36.5805H35.6069C34.8842 36.5805 34.2958 35.9922 34.2958 35.2698V31.6441C34.2958 30.9214 34.8842 30.3334 35.6069 30.3334H39.7444C40.4668 30.3334 41.0551 30.921 41.0551 31.6441V35.2698C41.0551 35.9918 40.4668 36.5805 39.7444 36.5805ZM35.7259 35.1501H39.6247V31.7635H35.7259V35.1501ZM47.1323 44.0907L35.6069 44.0882C34.8845 44.0882 34.2962 43.4998 34.2962 42.7771V39.1518C34.2962 38.4291 34.8845 37.8408 35.6069 37.8408L41.6845 37.8418V31.6412C41.6845 30.9185 42.2728 30.3306 42.9955 30.3306H47.1331C47.8558 30.3306 48.4444 30.9185 48.4444 31.6412V42.7796C48.4444 43.4923 47.8136 44.0907 47.1327 44.0907H47.1323ZM35.7259 42.6581L47.0176 42.6606L47.0123 31.7606H43.1138V38.5577C43.1138 38.947 42.7879 39.2733 42.3983 39.2733L35.7255 39.2722V42.6585H35.7259V42.6581ZM54.5203 36.5805H50.3828C49.6604 36.5805 49.0721 35.9922 49.0721 35.2698V31.6441C49.0721 30.9214 49.6604 30.3334 50.3828 30.3334H54.5203C55.243 30.3334 55.8317 30.921 55.8317 31.6441V35.2698C55.831 35.9918 55.2434 36.5805 54.5203 36.5805ZM50.5025 35.1501H54.4013V31.7635H50.5025V35.1501ZM10.1919 44.0899H6.05476C5.33205 44.0899 4.74409 43.5016 4.74409 42.7793V39.1536C4.74409 38.4309 5.33241 37.8425 6.05476 37.8425H10.1919C10.9146 37.8425 11.5026 38.4309 11.5026 39.1536V42.7793C11.5026 43.5016 10.9143 44.0899 10.1919 44.0899ZM6.17342 42.6595H10.0726V39.2729H6.17342V42.6595ZM17.5799 44.0899H13.4423C12.7196 44.0899 12.1317 43.5016 12.1317 42.7793V39.1536C12.1317 38.4309 12.7193 37.8425 13.4423 37.8425H17.5799C18.3026 37.8425 18.8905 38.4309 18.8905 39.1536V42.7793C18.8905 43.5016 18.3029 44.0899 17.5799 44.0899ZM13.5614 42.6595H17.4601V39.2729H13.5614V42.6595ZM24.9675 44.0899H20.8303C20.1076 44.0899 19.5196 43.5016 19.5196 42.7793V39.1536C19.5196 38.4309 20.1072 37.8425 20.8303 37.8425H24.9675C25.6902 37.8425 26.2781 38.4309 26.2781 39.1536V42.7793C26.2785 43.5016 25.6905 44.0899 24.9675 44.0899ZM20.9493 42.6595H24.8481V39.2729H20.9493V42.6595ZM32.3554 44.0899H28.2182C27.4955 44.0899 26.9075 43.5016 26.9075 42.7793V39.1536C26.9075 38.4309 27.4952 37.8425 28.2182 37.8425H32.3554C33.0781 37.8425 33.6664 38.4309 33.6664 39.1536V42.7793C33.6664 43.5016 33.0781 44.0899 32.3554 44.0899ZM28.3372 42.6595H32.236V39.2729H28.3372V42.6595ZM54.5199 44.0899H50.3824C49.66 44.0899 49.0717 43.5016 49.0717 42.7793V39.1536C49.0717 38.4309 49.66 37.8425 50.3824 37.8425H54.5199C55.2426 37.8425 55.8313 38.4309 55.8313 39.1536V42.7793C55.8306 43.5016 55.243 44.0899 54.5199 44.0899ZM50.5021 42.6595H54.4009V39.2729H50.5021V42.6595ZM10.1916 51.4085H6.0544C5.33169 51.4085 4.74373 50.8202 4.74373 50.0975V46.4722C4.74373 45.7495 5.33205 45.1611 6.0544 45.1611H10.1916C10.9143 45.1611 11.5022 45.7495 11.5022 46.4722V50.0975C11.5022 50.8206 10.9139 51.4085 10.1916 51.4085ZM6.17307 49.9781H10.0722V46.5915H6.17307V49.9781ZM13.427 51.4318C12.7039 51.4318 12.1152 50.8452 12.1152 50.1207V46.4954C12.1152 45.7738 12.7025 45.1858 13.4248 45.1844L32.3465 45.1611C33.0588 45.1608 33.6578 45.7598 33.6578 46.4718V50.0972C33.6578 50.8199 33.0695 51.4082 32.3472 51.4082L13.4266 51.4321L13.427 51.4318ZM13.5453 46.6144V50.0017L32.2278 49.9788V46.5919L13.5453 46.6148V46.6144ZM39.7437 51.4085H35.6062C34.8834 51.4085 34.2951 50.8202 34.2951 50.0975V46.4722C34.2951 45.7495 34.8834 45.1611 35.6062 45.1611H39.7437C40.466 45.1611 41.0544 45.7495 41.0544 46.4722V50.0975C41.0544 50.8206 40.466 51.4085 39.7437 51.4085ZM35.7252 49.9781H39.624V46.5915H35.7252V49.9781ZM47.1316 51.4085H42.9941C42.2714 51.4085 41.6831 50.8202 41.6831 50.0975V46.4722C41.6831 45.7495 42.2714 45.1611 42.9941 45.1611H47.1316C47.8543 45.1611 48.443 45.7495 48.443 46.4722V50.0975C48.4423 50.8206 47.8547 51.4085 47.1316 51.4085ZM43.1131 49.9781H47.0119V46.5915H43.1131V49.9781ZM54.5196 51.4085H50.382C49.6597 51.4085 49.0714 50.8202 49.0714 50.0975V46.4722C49.0714 45.7495 49.6597 45.1611 50.382 45.1611H54.5196C55.2423 45.1611 55.831 45.7495 55.831 46.4722V50.0975C55.8302 50.8206 55.2426 51.4085 54.5196 51.4085ZM50.5018 49.9781H54.4005V46.5915H50.5018V49.9781Z" fill="url(#paint0_linear_1_19232)"/>
</g>
<defs>
<linearGradient id="paint0_linear_1_19232" x1="0.000366211" y1="34.9291" x2="61.0004" y2="34.9291" gradientUnits="userSpaceOnUse">
<stop stop-color="#C4161C"/>
<stop offset="1" stop-color="#600B0E"/>
</linearGradient>
<clipPath id="clip0_1_19232">
<rect width="61" height="61" fill="white"/>
</clipPath>
</defs>
</svg>
