<svg width="61" height="61" viewBox="0 0 61 61" fill="none" xmlns="http://www.w3.org/2000/svg">
<path fill-rule="evenodd" clip-rule="evenodd" d="M49.5685 47.2339H3.76218C1.70235 47.2339 0.0224609 45.554 0.0224609 43.4942V17.4963C0.0224609 15.4365 1.70235 13.7566 3.76218 13.7566H49.5685C51.6283 13.7566 53.3082 15.4365 53.3082 17.4963V43.4892C53.3082 45.5537 51.6283 47.2339 49.5685 47.2339ZM48.1688 32.9849C44.8909 32.9849 44.8909 28.0056 48.1688 28.0056C49.5435 28.0056 50.6586 29.1204 50.6586 30.4954C50.6586 31.8701 49.5388 32.9852 48.1688 32.9852V32.9849ZM48.1688 29.445C46.7867 29.445 46.7867 31.5448 48.1688 31.5448C49.5535 31.5448 49.5474 29.445 48.1688 29.445ZM59.5377 20.2456H56.4482V42.4741H56.4432L58.0033 45.1037L59.5381 42.4788V20.2456H59.5377ZM56.4482 18.8059H59.5377V17.2411C59.5377 16.3611 58.8429 15.6463 57.9929 15.6463C57.138 15.6463 56.4482 16.3611 56.4482 17.2411V18.8059ZM58.008 47.2436C57.7531 47.2436 57.5179 47.1085 57.3882 46.8887C57.0329 46.2882 55.0035 43.095 55.0035 42.6739V17.2408C55.0035 15.5659 56.3431 14.2059 57.9883 14.2059C59.6332 14.2059 60.9731 15.5659 60.9731 17.2408V42.6689C60.9731 43.0939 58.9762 46.2582 58.6234 46.8837C58.5037 47.1035 58.2635 47.2436 58.0087 47.2436H58.008ZM13.2714 32.15C10.6569 32.15 8.52699 30.0201 8.52699 27.4052C8.52699 24.7902 10.6569 22.6607 13.2714 22.6607C15.8863 22.6607 18.0162 24.7906 18.0162 27.4052C18.0162 30.0201 15.8913 32.15 13.2714 32.15ZM13.2714 24.1054C11.4518 24.1054 9.96669 25.5855 9.96669 27.4102C9.96669 29.2298 11.4468 30.7149 13.2714 30.7149C15.0964 30.7149 16.5762 29.2348 16.5762 27.4102C16.5762 25.5852 15.0961 24.1054 13.2714 24.1054ZM13.5427 41.6042L22.3811 28.2054C22.6677 27.7754 23.2943 27.7729 23.5809 28.2004L29.8105 37.5495L33.6503 32.8698C33.9519 32.5031 34.4995 32.5238 34.7801 32.8898L41.3992 41.5688C42.326 41.3926 43.0294 40.5762 43.0294 39.5994V21.3908C43.0294 20.286 42.1294 19.386 41.0246 19.386H6.90214C5.79735 19.386 4.89736 20.286 4.89736 21.3908V39.5994C4.89736 40.7042 5.79735 41.6042 6.90214 41.6042H13.5427ZM22.9808 29.905L15.2666 41.5991H39.6096L34.1853 34.4846L30.3105 39.2144C30.0135 39.5751 29.4366 39.5754 29.1557 39.1594L22.9812 29.905H22.9808ZM41.0246 43.0439H6.90214C5.00208 43.0439 3.45766 41.4991 3.45766 39.5994V21.3908C3.45766 19.4907 5.00244 17.9463 6.90214 17.9463H41.0246C42.9243 17.9463 44.4691 19.4911 44.4691 21.3908V39.5994C44.4641 41.4991 42.9193 43.0439 41.0246 43.0439ZM3.76254 15.1959C2.49261 15.1959 1.46252 16.2257 1.46252 17.496V43.4888C1.46252 44.7588 2.49226 45.7885 3.76254 45.7885H49.5688C50.8388 45.7885 51.8689 44.7588 51.8689 43.4888V17.496C51.8689 16.226 50.8391 15.1959 49.5688 15.1959H3.76254Z" fill="url(#paint0_linear_1_19249)"/>
<defs>
<linearGradient id="paint0_linear_1_19249" x1="0.0224609" y1="33.4615" x2="60.9731" y2="33.4615" gradientUnits="userSpaceOnUse">
<stop stop-color="#C4161C"/>
<stop offset="1" stop-color="#600B0E"/>
</linearGradient>
</defs>
</svg>
