<svg width="34" height="34" viewBox="0 0 34 34" fill="none" xmlns="http://www.w3.org/2000/svg">
<path d="M11.3333 4.25C7.42758 4.25 4.25 7.42758 4.25 11.3333V22.6667C4.25 26.5724 7.42758 29.75 11.3333 29.75H22.6667C26.5724 29.75 29.75 26.5724 29.75 22.6667V11.3333C29.75 7.42758 26.5724 4.25 22.6667 4.25H11.3333ZM11.3333 7.08333H22.6667C25.0098 7.08333 26.9167 8.99017 26.9167 11.3333V22.6667C26.9167 25.0098 25.0098 26.9167 22.6667 26.9167H11.3333C8.99017 26.9167 7.08333 25.0098 7.08333 22.6667V11.3333C7.08333 8.99017 8.99017 7.08333 11.3333 7.08333ZM24.0833 8.5C23.7076 8.5 23.3473 8.64926 23.0816 8.91493C22.8159 9.18061 22.6667 9.54094 22.6667 9.91667C22.6667 10.2924 22.8159 10.6527 23.0816 10.9184C23.3473 11.1841 23.7076 11.3333 24.0833 11.3333C24.4591 11.3333 24.8194 11.1841 25.0851 10.9184C25.3507 10.6527 25.5 10.2924 25.5 9.91667C25.5 9.54094 25.3507 9.18061 25.0851 8.91493C24.8194 8.64926 24.4591 8.5 24.0833 8.5ZM17 9.91667C13.0942 9.91667 9.91667 13.0942 9.91667 17C9.91667 20.9058 13.0942 24.0833 17 24.0833C20.9058 24.0833 24.0833 20.9058 24.0833 17C24.0833 13.0942 20.9058 9.91667 17 9.91667ZM17 12.75C19.3432 12.75 21.25 14.6568 21.25 17C21.25 19.3432 19.3432 21.25 17 21.25C14.6568 21.25 12.75 19.3432 12.75 17C12.75 14.6568 14.6568 12.75 17 12.75Z" fill="#FFDA8A"/>
</svg>
