<svg width="34" height="34" viewBox="0 0 34 34" fill="none" xmlns="http://www.w3.org/2000/svg">
<path d="M7.08333 4.25C5.51792 4.25 4.25 5.51792 4.25 7.08333V26.9167C4.25 28.4821 5.51792 29.75 7.08333 29.75H26.9167C28.4821 29.75 29.75 28.4821 29.75 26.9167V7.08333C29.75 5.51792 28.4821 4.25 26.9167 4.25H7.08333ZM7.08333 7.08333H26.9167V26.9167H7.08333V7.08333ZM11.0207 8.94824C9.80659 8.94824 9.07829 9.67807 9.07829 10.6499C9.07829 11.6217 9.80668 12.3488 10.8989 12.3488C12.113 12.3488 12.8413 11.6217 12.8413 10.6499C12.8413 9.67807 12.1129 8.94824 11.0207 8.94824ZM9.17513 14.1667V24.0833H12.75V14.1667H9.17513ZM15.6995 14.1667V24.0833H19.2744V18.6629C19.2744 17.0493 20.4257 16.8174 20.7713 16.8174C21.117 16.8174 22.0413 17.1641 22.0413 18.6629V24.0833H25.5V18.6629C25.5 15.5505 24.117 14.1667 22.3872 14.1667C20.6575 14.1667 19.7348 14.7426 19.2744 15.5501V14.1667H15.6995Z" fill="#FFDA8A"/>
</svg>
