<svg width="16" height="19" viewBox="0 0 16 19" fill="none" xmlns="http://www.w3.org/2000/svg">
<path d="M8.00033 9.49967C8.50449 9.49967 8.93609 9.32016 9.29512 8.96113C9.65415 8.60211 9.83366 8.17051 9.83366 7.66634C9.83366 7.16217 9.65415 6.73058 9.29512 6.37155C8.93609 6.01252 8.50449 5.83301 8.00033 5.83301C7.49616 5.83301 7.06456 6.01252 6.70553 6.37155C6.34651 6.73058 6.16699 7.16217 6.16699 7.66634C6.16699 8.17051 6.34651 8.60211 6.70553 8.96113C7.06456 9.32016 7.49616 9.49967 8.00033 9.49967ZM8.00033 16.2372C9.86421 14.5261 11.2469 12.9715 12.1482 11.5736C13.0496 10.1757 13.5003 8.9344 13.5003 7.84967C13.5003 6.1844 12.9694 4.82086 11.9076 3.75905C10.8458 2.69724 9.54338 2.16634 8.00033 2.16634C6.45727 2.16634 5.15484 2.69724 4.09303 3.75905C3.03123 4.82086 2.50033 6.1844 2.50033 7.84967C2.50033 8.9344 2.95102 10.1757 3.85241 11.5736C4.7538 12.9715 6.13644 14.5261 8.00033 16.2372ZM8.00033 18.6663C5.5406 16.5733 3.70345 14.6292 2.48887 12.834C1.27428 11.0389 0.666992 9.37745 0.666992 7.84967C0.666992 5.55801 1.40415 3.73231 2.87845 2.37259C4.35276 1.01287 6.06005 0.333008 8.00033 0.333008C9.9406 0.333008 11.6479 1.01287 13.1222 2.37259C14.5965 3.73231 15.3337 5.55801 15.3337 7.84967C15.3337 9.37745 14.7264 11.0389 13.5118 12.834C12.2972 14.6292 10.46 16.5733 8.00033 18.6663Z" fill="white"/>
</svg>
