<svg width="104" height="47" viewBox="0 0 104 47" fill="none" xmlns="http://www.w3.org/2000/svg">
<path d="M37.5474 23.8067C35.8496 28.4222 29.5252 27.447 29.9072 20.6457H37.9634C37.6662 16.9886 35.1195 14.1387 32.021 14.1387C28.7272 14.1387 26.0786 17.3754 26.0786 21.3603C26.0786 25.3452 28.7527 28.5903 32.021 28.5903C34.6187 28.5903 36.8173 26.5979 37.6493 23.8067M34.8394 19.7125H29.9072C29.9072 13.4829 34.8394 13.4829 34.8394 19.7125Z" fill="white"/>
<path d="M45.7562 8.35498H42.0635V28.5907H45.7562V8.35498Z" fill="white"/>
<path d="M75.0863 8.35498H71.3936V28.5907H75.0863V8.35498Z" fill="white"/>
<path d="M87.9979 14.1387H84.3052V28.5903H87.9979V14.1387Z" fill="white"/>
<path d="M103.44 28.481V29.0442C103.419 30.19 103.005 31.2946 102.266 32.1763C101.527 33.058 100.507 33.6642 99.3734 33.8951H99.2121H98.932C98.7708 33.9037 98.6093 33.9037 98.4481 33.8951H5.52641H5.04253H4.77088H4.60958C3.47622 33.6642 2.45602 33.058 1.71693 32.1763C0.977846 31.2946 0.563922 30.19 0.543302 29.0442V28.481H0V35.3327H104V28.481H103.44Z" fill="white"/>
<path d="M96.6739 0.880944H0V7.72426H0.543302V7.16099C0.570266 5.92944 1.05136 4.75023 1.89583 3.84579C2.74029 2.94134 3.88976 2.37419 5.12742 2.25129H5.52641H11.3499V26.0179C11.349 26.304 11.2819 26.5861 11.1539 26.8426C11.0259 27.099 10.8403 27.3231 10.6114 27.4976C10.0731 27.9184 9.40401 28.1412 8.71831 28.1281H6.48567V28.6073H25.2211V28.1281H22.9715C22.286 28.1399 21.6174 27.9172 21.0784 27.4976C20.8506 27.3227 20.6663 27.0983 20.5397 26.8418C20.4131 26.5853 20.3477 26.3034 20.3484 26.0179V2.23447H98.4481C98.6179 2.23447 98.7707 2.23447 98.932 2.23447H99.2121H99.3734C100.505 2.46506 101.525 3.07002 102.263 3.94999C103.002 4.82997 103.417 5.93264 103.44 7.07692V7.64019H104V0.796875L96.6739 0.880944Z" fill="white"/>
<path d="M42.0298 26.3794C42.0078 26.8373 41.8068 27.2688 41.4694 27.5826C41.1319 27.8964 40.6844 28.0679 40.2216 28.0608H39.7632V28.54H42.0298V26.3794Z" fill="white"/>
<path d="M54.1518 26.3794C54.1299 26.8373 53.9289 27.2688 53.5914 27.5826C53.254 27.8964 52.8065 28.0679 52.3437 28.0608H51.8853V28.54H54.1518V26.3794Z" fill="white"/>
<path d="M42.0298 10.5576C42.0078 10.0997 41.8068 9.66819 41.4694 9.3544C41.1319 9.0406 40.6844 8.86911 40.2216 8.87617H39.7632V8.39697H42.0298V10.5576Z" fill="white"/>
<path d="M54.1518 10.5576C54.1299 10.0997 53.9289 9.66819 53.5914 9.3544C53.254 9.0406 52.8065 8.86911 52.3437 8.87617H51.8853V8.39697H54.1518V10.5576Z" fill="white"/>
<path d="M84.3055 16.3417C84.2835 15.8853 84.0837 15.4551 83.7481 15.1415C83.4125 14.828 82.9672 14.6555 82.5058 14.6603H82.0474V14.1812H84.3055V16.3417Z" fill="white"/>
<path d="M45.748 26.3794C45.77 26.8373 45.971 27.2688 46.3085 27.5826C46.6459 27.8964 47.0934 28.0679 47.5562 28.0608H48.0146V28.54H45.748V26.3794Z" fill="white"/>
<path d="M55.3408 26.3794C55.3628 26.8373 55.5638 27.2688 55.9012 27.5826C56.2387 27.8964 56.6862 28.0679 57.149 28.0608H57.6074V28.54H55.3408V26.3794Z" fill="white"/>
<path d="M84.3055 26.3794C84.2835 26.8358 84.0837 27.266 83.7481 27.5796C83.4125 27.8932 82.9672 28.0657 82.5058 28.0608H82.0474V28.54H84.3055V26.3794Z" fill="white"/>
<path d="M87.998 26.3794C88.02 26.8373 88.221 27.2688 88.5585 27.5826C88.8959 27.8964 89.3434 28.0679 89.8062 28.0608H90.2646V28.54H87.998V26.3794Z" fill="white"/>
<path d="M71.3931 26.3794C71.3711 26.8373 71.1701 27.2688 70.8326 27.5826C70.4952 27.8964 70.0477 28.0679 69.5849 28.0608H69.1265V28.54H71.3931V26.3794Z" fill="white"/>
<path d="M75.0776 26.3794C75.0996 26.8373 75.3006 27.2688 75.6381 27.5826C75.9755 27.8964 76.423 28.0679 76.8858 28.0608H77.3442V28.54H75.0776V26.3794Z" fill="white"/>
<path d="M75.0776 10.5576C75.0996 10.0997 75.3006 9.66819 75.6381 9.3544C75.9755 9.0406 76.423 8.86911 76.8858 8.87617H77.3442V8.39697H75.0776V10.5576Z" fill="white"/>
<path d="M72.9387 8.35498H70.9268L65.6551 20.9403L59.3477 8.35498H54.1523V28.5907H55.4342V10.7762L64.2714 27.7836L72.9387 8.35498Z" fill="white"/>
<path d="M89.3733 8.31298C89.3716 9.02927 89.1556 9.72899 88.7525 10.3238C88.3495 10.9185 87.7775 11.3816 87.1087 11.6546C86.44 11.9275 85.7047 11.9981 84.9955 11.8573C84.2863 11.7166 83.6352 11.3708 83.1243 10.8638C82.6135 10.3567 82.2658 9.71103 82.1253 9.00838C81.9849 8.30574 82.0578 7.57762 82.335 6.91602C82.6122 6.25441 83.0811 5.68901 83.6826 5.29123C84.2841 4.89345 84.9912 4.68115 85.7145 4.68115C86.1957 4.68115 86.6721 4.77515 87.1166 4.95777C87.561 5.14039 87.9648 5.40804 88.3046 5.7454C88.6445 6.08275 88.9138 6.48319 89.0972 6.92377C89.2806 7.36436 89.3744 7.83644 89.3733 8.31298Z" fill="white"/>
<path d="M96.0542 22.4197C95.7231 22.1759 95.3835 21.9489 95.0864 21.7388C95.3917 21.9889 95.7152 22.2165 96.0542 22.4197Z" fill="white"/>
<path d="M102.362 22.4197C102.049 22.0429 101.69 21.7068 101.292 21.4193L101.097 21.2848L99.3989 20.0994C98.9489 19.7878 98.5385 19.4237 98.1765 19.0149C94.611 14.8618 102.124 12.9871 102.837 19.906C102.852 19.9323 102.875 19.9529 102.903 19.9647C102.931 19.9764 102.962 19.9786 102.991 19.9709C103.02 19.9632 103.046 19.946 103.064 19.922C103.082 19.8981 103.092 19.8688 103.092 19.8388V14.7946L102.812 15.3914C102.781 15.4585 102.737 15.5183 102.682 15.567C102.626 15.6156 102.561 15.6519 102.49 15.6734C102.419 15.695 102.345 15.7012 102.271 15.6917C102.198 15.6822 102.127 15.6572 102.064 15.6184C96.1221 11.4149 90.8928 17.0392 94.1357 20.9653C94.3603 21.24 94.6104 21.4933 94.8827 21.7219C95.1883 21.9321 95.5194 22.1591 95.8505 22.4029L97.1153 23.2436C97.5673 23.5527 97.978 23.9171 98.3378 24.3281C101.903 28.4728 94.3903 30.3559 93.6857 23.4286C93.6686 23.4038 93.6439 23.385 93.6153 23.3749C93.5868 23.3648 93.5557 23.3639 93.5266 23.3722C93.4974 23.3806 93.4717 23.3979 93.453 23.4216C93.4343 23.4453 93.4237 23.4742 93.4226 23.5042V28.5484L93.7027 27.9515C93.7328 27.8845 93.777 27.8247 93.8325 27.776C93.8879 27.7274 93.9532 27.691 94.024 27.6695C94.0948 27.648 94.1695 27.6418 94.2429 27.6513C94.3164 27.6608 94.3869 27.6858 94.4498 27.7246C100.435 31.9281 105.613 26.2954 102.353 22.3777" fill="white"/>
<path d="M12.3177 43.3111H11.4094C11.2051 43.3082 11.0077 43.2371 10.8491 43.1093C10.6459 42.9649 10.4919 42.7625 10.4077 42.5292C10.3365 42.806 10.1688 43.049 9.93424 43.2151C9.69966 43.3813 9.41333 43.4599 9.12585 43.4372C8.85988 43.4546 8.59476 43.3925 8.36474 43.2592C8.13472 43.1258 7.95037 42.9272 7.83551 42.689C7.73718 42.927 7.56488 43.1278 7.34356 43.2624C7.12224 43.3969 6.8634 43.4581 6.60458 43.4372C6.38904 43.4514 6.17329 43.4128 5.97638 43.3248C5.77947 43.2368 5.60746 43.1022 5.47554 42.9328C5.43633 43.5634 5.17147 44.1595 4.72849 44.6142C4.50012 44.8633 4.22166 45.0624 3.91099 45.1986C3.60032 45.3349 3.26432 45.4052 2.92456 45.4052C2.58479 45.4052 2.24879 45.3349 1.93812 45.1986C1.62745 45.0624 1.34899 44.8633 1.12062 44.6142C0.625131 44.1012 0.353684 43.4156 0.365092 42.7058V40.7554H1.40076V41.7978C1.40076 42.1593 1.40076 42.4704 1.40076 42.7226C1.3925 43.1501 1.55407 43.5637 1.85068 43.8744C1.98811 44.0298 2.15794 44.1539 2.34846 44.2381C2.53898 44.3222 2.74566 44.3645 2.95427 44.362C3.16162 44.3644 3.36702 44.3221 3.55615 44.2379C3.74529 44.1536 3.9136 44.0296 4.04937 43.8744C4.35167 43.5592 4.519 43.1404 4.51626 42.7058V40.8226V40.1164H5.53496V41.4195C5.51222 41.7226 5.60624 42.023 5.79812 42.2602C5.87996 42.3453 5.9789 42.4125 6.08857 42.4574C6.19823 42.5022 6.31618 42.5239 6.4348 42.5208C6.83379 42.5208 7.02904 42.3107 7.02904 41.8735V40.1921H8.03924V41.4868C8.03051 41.6316 8.05076 41.7767 8.09884 41.9138C8.14692 42.0508 8.22187 42.1772 8.31938 42.2854C8.40025 42.3695 8.49781 42.436 8.60593 42.4809C8.71405 42.5257 8.83037 42.5479 8.94758 42.5461C9.34656 42.5461 9.54182 42.3359 9.54182 41.9071V39.9062H10.552V41.5204C10.5514 41.6538 10.5781 41.786 10.6306 41.9088C10.6832 42.0317 10.7604 42.1426 10.8576 42.235C10.9246 42.3076 11.0058 42.3659 11.0963 42.4064C11.1868 42.4469 11.2847 42.4687 11.384 42.4704H12.3177V43.3111Z" fill="white"/>
<path d="M16.647 43.3024H15.7981C15.6552 43.3027 15.5141 43.2703 15.386 43.2075C15.2578 43.1448 15.1461 43.0535 15.0596 42.9409C14.952 42.8202 14.8685 42.6804 14.8134 42.529C14.7305 42.7722 14.5674 42.9808 14.3503 43.1211C14.1331 43.2615 13.8746 43.3253 13.6164 43.3024H12.0884V42.3776H13.2344C13.4133 42.3807 13.5886 42.3277 13.7353 42.2263C13.8261 42.1744 13.9014 42.0996 13.9536 42.0095C14.0058 41.9194 14.0329 41.8173 14.0324 41.7135V39.8135H15.0426C15.0426 40.1666 15.0426 40.6542 15.0426 41.3099C15.0331 41.4562 15.0547 41.6028 15.1058 41.7404C15.157 41.8779 15.2367 42.0034 15.3397 42.1086C15.4028 42.1882 15.4825 42.2534 15.5733 42.2998C15.6641 42.3462 15.764 42.3727 15.866 42.3776H16.6385L16.647 43.3024ZM14.1003 44.7568H13.1665V43.79H14.1088L14.1003 44.7568ZM15.4925 44.7568H14.5587V43.79H15.4925V44.7568Z" fill="white"/>
<path d="M21.7237 43.3027H20.7305C20.5849 43.5834 20.357 43.8139 20.0767 43.9639C19.7964 44.114 19.4768 44.1765 19.16 44.1434C18.8424 44.1647 18.5252 44.0972 18.2445 43.9485C17.9638 43.7999 17.7309 43.5761 17.5725 43.3027H16.4604V42.3779H17.3094C17.2708 42.1344 17.2905 41.8853 17.367 41.6508C17.4436 41.4162 17.5747 41.2028 17.7499 41.0277C17.925 40.8526 18.1393 40.7207 18.3754 40.6428C18.6115 40.5648 18.8628 40.5429 19.1091 40.5788C19.3643 40.5703 19.6184 40.6161 19.8543 40.7133C20.0901 40.8105 20.302 40.9567 20.4758 41.1421C20.7855 41.4802 20.9552 41.9214 20.9512 42.3779H21.7492L21.7237 43.3027ZM19.9155 42.3779C19.9257 42.1177 19.838 41.8631 19.6693 41.6633C19.6013 41.5826 19.5153 41.5186 19.4181 41.4763C19.3209 41.434 19.2151 41.4146 19.1091 41.4195C19.0101 41.4156 18.9116 41.4348 18.8216 41.4757C18.7316 41.5166 18.6527 41.578 18.5912 41.6549C18.4317 41.8583 18.3532 42.1126 18.3705 42.3695C18.3601 42.6348 18.4476 42.8948 18.6167 43.1009C18.6816 43.176 18.7623 43.2361 18.8533 43.2768C18.9443 43.3175 19.0432 43.3378 19.143 43.3363C19.6439 43.3363 19.89 43.0168 19.89 42.3695" fill="white"/>
<path d="M25.6284 43.3108H24.7795C24.5508 43.3118 24.3287 43.2345 24.1508 43.092C23.973 42.9496 23.8502 42.7507 23.8033 42.529C23.719 42.7737 23.5547 42.9835 23.3363 43.1252C23.1179 43.2668 22.858 43.3322 22.5978 43.3108H21.5112V42.3776H22.2158C22.416 42.3824 22.6115 42.3169 22.7676 42.1927C22.8441 42.1379 22.9064 42.0659 22.9492 41.9826C22.992 41.8992 23.0142 41.807 23.0138 41.7135V37.1064H24.024L24.0749 41.31C24.078 41.5902 24.1734 41.8618 24.3466 42.0834C24.4112 42.1715 24.4952 42.2438 24.5923 42.2948C24.6894 42.3457 24.797 42.3741 24.9069 42.3776H25.6284V43.3108Z" fill="white"/>
<path d="M28.2518 42.0668C28.2738 42.238 28.2552 42.4119 28.1975 42.5747C28.1398 42.7376 28.0445 42.8848 27.9192 43.0048C27.794 43.1248 27.6422 43.2142 27.4759 43.2659C27.3096 43.3176 27.1335 43.3302 26.9614 43.3026H25.4419V42.3778H26.5879C26.6772 42.389 26.7679 42.3797 26.8529 42.3506C26.938 42.3214 27.0151 42.2733 27.0783 42.2099C27.1415 42.1465 27.1892 42.0695 27.2175 41.9849C27.2458 41.9003 27.254 41.8104 27.2416 41.7221V41.2009C27.2416 41.0327 27.2416 40.8898 27.2416 40.7721V40.2425C27.2416 40.0491 27.2416 39.9062 27.2416 39.8137H28.2688L28.2518 42.0668ZM26.7492 39.0487H25.8239V38.0566H26.7492V39.0487ZM28.1499 39.0487H27.2246V38.0566H28.1499V39.0487Z" fill="white"/>
<path d="M36.087 42.6974C36.0981 43.4047 35.8265 44.0875 35.3315 44.5974C35.1031 44.8466 34.8247 45.0456 34.514 45.1819C34.2034 45.3181 33.8673 45.3885 33.5276 45.3885C33.1878 45.3885 32.8518 45.3181 32.5411 45.1819C32.2305 45.0456 31.952 44.8466 31.7236 44.5974C31.2282 44.0845 30.9567 43.3988 30.9681 42.689V40.7386H32.0038V41.7811C32.0038 42.1426 32.0038 42.4536 32.0038 42.7058C32.0008 43.1324 32.1616 43.5441 32.4537 43.8576C32.5911 44.013 32.761 44.1371 32.9515 44.2213C33.142 44.3055 33.3487 44.3478 33.5573 44.3452C33.7648 44.3488 33.9706 44.307 34.1599 44.2227C34.3492 44.1384 34.5174 44.0137 34.6524 43.8576C34.9547 43.5425 35.122 43.1237 35.1193 42.689L35.0599 40.7302H36.087V42.6974ZM33.9478 39.8306H33.014V38.8975H33.9478V39.8306Z" fill="white"/>
<path d="M38.3707 43.3111H37.352L37.3096 37.1235H38.3198L38.3707 43.3111Z" fill="white"/>
<path d="M38.2095 44.5889C38.7599 44.5915 39.2908 44.3872 39.6951 44.0172C39.9035 43.8277 40.0683 43.596 40.1781 43.3377C40.288 43.0795 40.3404 42.8009 40.3317 42.5208V39.8137H41.3759V42.4199C41.4039 43.1648 41.1564 43.8942 40.6798 44.4712C40.4553 44.7391 40.1773 44.958 39.8632 45.1143C39.549 45.2706 39.2057 45.3608 38.8546 45.3792C38.6849 45.1522 38.4726 44.8916 38.218 44.5889M40.3317 38.0566H41.274V39.0234H40.3317V38.0566Z" fill="white"/>
<path d="M43.6681 43.3111H42.6579L42.6069 37.1235H43.6256L43.6681 43.3111Z" fill="white"/>
<path d="M44.8311 43.311L45.3149 42.3778H47.972C47.939 41.9057 47.7409 41.4598 47.4117 41.1167C47.314 41.0042 47.1946 40.912 47.0605 40.8456C46.9264 40.7792 46.7803 40.7399 46.6307 40.73V39.8137C46.9738 39.7964 47.3157 39.8643 47.6255 40.0111C47.9354 40.1579 48.2033 40.379 48.405 40.6544C48.8895 41.4477 49.1175 42.3688 49.0586 43.2942L44.8311 43.311Z" fill="white"/>
<path d="M48.9224 44.5887C49.4856 44.5936 50.0283 44.3793 50.4334 43.9918C50.6316 43.8015 50.7875 43.5724 50.8913 43.319C50.9951 43.0657 51.0444 42.7938 51.0362 42.5205V39.8135H52.0548V41.4192C52.0717 41.6717 52.1733 41.9114 52.3435 42.1002C52.4072 42.1865 52.4901 42.2572 52.5857 42.3068C52.6814 42.3563 52.7873 42.3834 52.8953 42.386H53.9649V43.3108H52.9632C52.7807 43.2996 52.6049 43.2387 52.4551 43.1349C52.3053 43.031 52.1874 42.8883 52.1143 42.7223C52.0867 43.4085 51.8162 44.0633 51.3502 44.5719C50.8992 45.0657 50.2723 45.367 49.6015 45.4126C49.4317 45.1856 49.2195 44.9249 48.9648 44.6223" fill="white"/>
<path d="M56.5885 42.0666C56.5885 42.9073 56.1641 43.3024 55.2982 43.3024H53.7871V42.3776H54.9246C55.0139 42.3888 55.1046 42.3795 55.1896 42.3503C55.2747 42.3212 55.3518 42.2731 55.415 42.2096C55.4783 42.1462 55.5259 42.0692 55.5542 41.9846C55.5825 41.9001 55.5908 41.8101 55.5783 41.7219V41.2006C55.5783 41.0325 55.5783 40.8896 55.5783 40.7719V40.2422C55.5783 40.0489 55.5783 39.906 55.5783 39.8135H56.597L56.5885 42.0666ZM54.8907 44.9418H53.9144V43.9413H54.8482L54.8907 44.9418ZM55.5868 46.2028H54.653V45.236H55.6123L55.5868 46.2028ZM56.2744 44.9418H55.3576V43.9413H56.2744V44.9418Z" fill="white"/>
<path d="M62.8536 41.5118C62.8909 41.7521 62.8715 41.9977 62.7967 42.2294C62.722 42.461 62.5941 42.6723 62.4229 42.8466C62.2518 43.021 62.0422 43.1537 61.8105 43.2342C61.5789 43.3148 61.3315 43.341 61.0878 43.3109C60.8326 43.323 60.5779 43.2778 60.3427 43.1789C60.1075 43.0799 59.898 42.9296 59.7296 42.7392C59.4129 42.4082 59.2392 41.9678 59.2457 41.5118C59.2065 41.2712 59.2247 41.0248 59.2988 40.7924C59.3728 40.5599 59.5007 40.3478 59.6723 40.1731C59.8438 39.9983 60.0543 39.8656 60.2868 39.7857C60.5193 39.7058 60.7674 39.6808 61.0114 39.7127C61.2534 39.7047 61.4945 39.7455 61.7199 39.8328C61.9454 39.92 62.1506 40.0518 62.323 40.2201C62.4953 40.3885 62.6313 40.5898 62.7225 40.8119C62.8137 41.034 62.8583 41.2721 62.8536 41.5118ZM61.8434 41.5118C61.8546 41.2449 61.7637 40.9837 61.5887 40.7804C61.5227 40.7066 61.4417 40.6474 61.351 40.6068C61.2603 40.5663 61.1619 40.5452 61.0624 40.545C60.9612 40.5429 60.8609 40.5628 60.7684 40.6035C60.676 40.6442 60.5937 40.7046 60.5276 40.7804C60.3739 40.9927 60.299 41.2511 60.3153 41.5118C60.3057 41.7784 60.3965 42.0391 60.57 42.2432C60.6356 42.3175 60.7166 42.3769 60.8074 42.4175C60.8982 42.4581 60.9967 42.479 61.0963 42.4786C61.5972 42.4786 61.8434 42.1591 61.8434 41.5118Z" fill="white"/>
<path d="M64.0161 43.3109L64.4915 42.3777H67.1826C67.1496 41.9056 66.9514 41.4597 66.6223 41.1167C66.5236 41.0031 66.4028 40.9104 66.2672 40.8439C66.1316 40.7775 65.9838 40.7387 65.8328 40.73V39.8136C66.1772 39.7949 66.5209 39.8621 66.8323 40.009C67.1437 40.1559 67.413 40.3777 67.6155 40.6543C68.1 41.4477 68.3281 42.3688 68.2692 43.2941L64.0161 43.3109Z" fill="white"/>
<path d="M70.5782 43.3111H69.568L69.5171 37.1235H70.5273L70.5782 43.3111Z" fill="white"/>
<path d="M71.7417 43.3112L72.2256 42.378H74.9081C74.8751 41.9059 74.677 41.46 74.3479 41.1169C74.2508 41.0036 74.1315 40.911 73.9973 40.8445C73.8631 40.778 73.7166 40.7392 73.5669 40.7302V39.8139C73.9112 39.796 74.2546 39.8635 74.5659 40.0103C74.8772 40.1571 75.1466 40.3786 75.3496 40.6546C75.8341 41.4479 76.0621 42.369 76.0032 43.2944L71.7417 43.3112Z" fill="white"/>
<path d="M86.8945 43.3027H86.0456C85.8461 43.2978 85.6526 43.2345 85.4894 43.1208C85.3263 43.0071 85.2008 42.8481 85.1287 42.6638C85.0823 42.8503 84.9727 43.0155 84.8182 43.1317C84.6637 43.248 84.4737 43.3083 84.2798 43.3027H81.2832C80.8555 43.3247 80.4302 43.2267 80.0563 43.02C79.6824 42.8133 79.3749 42.5062 79.1694 42.1342C78.7984 41.4181 78.6256 40.6175 78.6685 39.8138H79.6872C79.6654 40.3912 79.7757 40.966 80.0098 41.4952C80.1192 41.7512 80.3042 41.9685 80.5406 42.1186C80.7769 42.2686 81.0535 42.3444 81.3341 42.3359H83.7875C84.0336 42.3359 84.161 42.1594 84.161 41.8063V39.7718H85.1881C85.1881 39.8979 85.1881 40.0997 85.1881 40.3855V41.2682C85.1879 41.5625 85.2966 41.8467 85.4938 42.0669C85.5569 42.1465 85.6366 42.2117 85.7274 42.2581C85.8182 42.3045 85.918 42.3311 86.0201 42.3359H86.869L86.8945 43.3027ZM81.801 39.8138H80.8672V38.8975H81.801V39.8138ZM83.1847 39.8138H82.2679V38.8975H83.1847V39.8138Z" fill="white"/>
<path d="M86.6821 43.311V42.3694H90.6126C90.5613 41.9029 90.3376 41.4716 89.9844 41.1588C89.6564 40.8877 89.2399 40.7443 88.8129 40.7552C88.2989 40.7651 87.7983 40.9196 87.3697 41.2008L86.9962 40.419L89.5854 37.8296L90.307 38.5274L88.9827 39.8136C89.4001 39.7882 89.8168 39.8748 90.1888 40.0641C90.5608 40.2535 90.8744 40.5387 91.0965 40.8897C91.5154 41.6268 91.7154 42.4662 91.6737 43.311H86.6821Z" fill="white"/>
<path d="M91.5039 44.5887C92.0673 44.5945 92.6103 44.38 93.015 43.9918C93.2144 43.8024 93.3712 43.5735 93.4751 43.3199C93.579 43.0664 93.6276 42.794 93.6177 42.5205V39.8135H94.6619V41.4192C94.6757 41.6709 94.7743 41.9106 94.942 42.1002C95.0075 42.1867 95.0919 42.2574 95.189 42.3069C95.286 42.3564 95.3931 42.3835 95.5023 42.386H96.5719V43.3108H95.5108C95.3283 43.2996 95.1525 43.2387 95.0027 43.1349C94.8529 43.031 94.735 42.8883 94.6619 42.7223C94.6343 43.4085 94.3638 44.0633 93.8978 44.5719C93.4468 45.0657 92.8199 45.367 92.1491 45.4126C91.9793 45.1856 91.7671 44.9249 91.5124 44.6223" fill="white"/>
<path d="M103.644 41.8734C103.644 42.8991 103.177 43.4203 102.26 43.4371C101.995 43.4551 101.731 43.3932 101.502 43.2597C101.273 43.1261 101.09 42.9272 100.978 42.6889C100.877 42.9254 100.705 43.1247 100.484 43.2589C100.263 43.3931 100.005 43.4554 99.747 43.4371C99.5323 43.4515 99.3172 43.4139 99.1205 43.3275C98.9238 43.241 98.7513 43.1084 98.618 42.9411V43.3026H96.3599V42.3778H97.5908C97.5908 41.1 97.5908 40.3349 97.5908 40.0995H98.618V41.5203C98.6244 41.771 98.7242 42.0106 98.8981 42.1929C98.979 42.2769 99.0765 42.3435 99.1847 42.3883C99.2928 42.4332 99.4091 42.4554 99.5263 42.4535C99.9168 42.4535 100.112 42.2433 100.112 41.8062V40.1248H101.122C101.122 40.2256 101.122 40.4022 101.122 40.646V41.4194C101.106 41.7103 101.203 41.9963 101.394 42.2181C101.475 42.3021 101.572 42.3687 101.68 42.4135C101.789 42.4584 101.905 42.4806 102.022 42.4787C102.413 42.4787 102.616 42.2685 102.616 41.8398V39.8389H103.635L103.644 41.8734ZM100.358 39.0487H99.4159V38.0566H100.358V39.0487ZM101.046 37.7792H100.121V36.8208H101.046V37.7792ZM101.75 39.0487H100.817V38.0566H101.75V39.0487Z" fill="white"/>
</svg>
