<?xml version="1.0" encoding="UTF-8"?>
<svg id="Layer_1" data-name="Layer 1" xmlns="http://www.w3.org/2000/svg" viewBox="0 0 112.95 112.95">
  <defs>
    <style>
      .cls-1, .cls-2 {
        fill: #f8be13;
      }

      .cls-3 {
        fill: #404041;
      }

      .cls-2 {
        fill-rule: evenodd;
      }
    </style>
  </defs>
  <path class="cls-3" d="M112.72,56.79c-.06,30.47-25.29,55.12-56.36,55.06C25.3,111.79,.17,87.04,.23,56.57,.29,26.09,25.52,1.44,56.58,1.5c31.06,.06,56.19,24.82,56.13,55.29"/>
  <path class="cls-2" d="M35.42,106.06c-6.47-2.72-12.14-6.57-17.1-11.59-4.99-4.98-8.82-10.66-11.52-17.14-2.81-6.67-4.22-13.67-4.21-20.97,.01-7.3,1.46-14.26,4.29-20.95,2.72-6.47,6.57-12.14,11.58-17.1,4.98-4.99,10.67-8.82,17.14-11.52,6.66-2.81,13.67-4.22,20.96-4.21,7.3,.01,14.29,1.46,20.95,4.29,6.47,2.72,12.14,6.57,17.1,11.59,4.99,4.98,8.82,10.67,11.52,17.14,2.81,6.7,4.22,13.67,4.21,20.96-.01,7.3-1.46,14.29-4.29,20.95-2.72,6.47-6.57,12.14-11.59,17.1-4.98,4.99-10.66,8.82-17.14,11.52-6.67,2.81-13.67,4.22-20.97,4.21-7.3-.01-14.29-1.46-20.95-4.29m-.81-101.66c-6.78,2.85-12.77,6.86-17.97,12.04-5.24,5.22-9.28,11.19-12.15,17.96C1.54,41.35,.02,48.68,0,56.36c-.02,7.64,1.47,14.98,4.39,21.98,2.85,6.78,6.86,12.77,12.08,17.97,5.18,5.24,11.16,9.28,17.92,12.15,6.99,2.95,14.29,4.47,21.96,4.48,7.64,.01,14.98-1.47,21.98-4.39,6.78-2.85,12.77-6.86,17.97-12.08,5.24-5.18,9.28-11.16,12.15-17.92,2.95-6.99,4.47-14.33,4.48-21.96,.02-7.68-1.47-15.02-4.39-21.98-2.85-6.78-6.86-12.77-12.08-18.01-5.18-5.2-11.16-9.24-17.92-12.11C71.56,1.5,64.23,.02,56.59,0c-7.68-.02-14.98,1.44-21.98,4.4Z"/>
  <path class="cls-1" d="M82.53,11.59l-1.67-1.13c-.15,.04-.23,.15-.19,.3,.23,.19,.42,.38,.49,.57,.15,.23,.15,.45-.04,.68-1.44,2.11-2.28,3.27-2.51,3.53-.19,.26-.42,.34-.65,.26-.11,0-.27-.08-.49-.19-.34-.23-.53-.64-.49-1.24,0-.38,.12-1.99,.39-4.89l.12-.56-.8-.38c-.11,.15-.27,.34-.49,.53-1.22,1.28-2.39,2.44-3.49,3.38-.42,.41-.87,.52-1.37,.41v-.04c-.3-.11-.49-.23-.61-.3-.11-.08-.19-.26-.11-.56l.57-2.14c.38-1.32,.57-2.07,.65-2.26,.08-.26,.23-.41,.42-.41,.11,0,.27,0,.49,.04,.15-.08,.15-.19,.11-.3-.49-.11-.95-.23-1.36-.34l-1.4-.42s-.04,.04-.08,.11c-.04,.11-.04,.15-.04,.19,.26,.08,.45,.15,.57,.27,.15,.08,.19,.19,.11,.38-.04,.3-.23,.94-.5,1.95,0,.04-.04,.08-.08,.08l-2.92-.8s-.04-.07-.04-.15l.5-1.77c.08-.26,.23-.41,.42-.41,.11,0,.3,0,.49,.04,0,0,.04-.04,.08-.11,.04-.11,.04-.15,.04-.19-.46-.08-.91-.23-1.4-.34-.76-.23-1.21-.38-1.4-.42-.11,.04-.15,.15-.08,.3,.23,.11,.42,.19,.53,.26,.19,.11,.23,.26,.15,.57l-.61,2.18c-.27,1.13-.46,1.8-.57,2.07-.11,.38-.3,.57-.53,.56l-.57-.04c-.11,.11-.11,.23-.04,.34,.11,.04,.61,.15,1.4,.38,.53,.11,1.02,.27,1.48,.42,.15-.11,.19-.19,.11-.3l-.57-.3c-.15-.11-.23-.34-.11-.64l.5-1.84,.04-.08s.53,.11,1.55,.42l1.4,.38s.04,.08,.04,.11l-.57,1.95c-.08,.26-.19,.38-.42,.41l-.53-.08c-.15,.11-.19,.19-.11,.34l2.77,.72v.04c.15,.04,.53,.19,1.06,.42,.38,.19,.76,.38,1.21,.61,.15-.04,.23-.15,.15-.26l-.42-.3c-.19-.15-.23-.3-.15-.49,.08-.11,.46-.53,1.1-1.16,.04-.08,.08-.08,.15-.04l1.59,.72s.08,.04,.08,.11c-.04,.6-.08,1.17-.19,1.73,0,.11-.08,.15-.19,.19-.23-.08-.42-.11-.53-.11-.15,0-.19,.07-.15,.3,.19,.08,.64,.27,1.36,.57l2.16,1.17c.3,.23,.68,.45,1.1,.79,.15-.07,.23-.15,.19-.26-.27-.23-.38-.38-.45-.45-.19-.19-.23-.45-.04-.79,.42-.68,1.14-1.8,2.21-3.27l.04,.04c.3,3.5,.44,5.64,.44,6.32,.42,.26,.64,.45,.72,.53l.8-1.24c1.25-1.84,2.05-2.93,2.32-3.31,.23-.26,.46-.34,.72-.3l.42,.19c.15-.04,.19-.15,.15-.26-.27-.15-.61-.34-.98-.61l-1.17-.83s-.04,.04-.11,.11c-.04,.08-.08,.11-.04,.15,.19,.19,.38,.34,.49,.49,.15,.19,.19,.41,.04,.68-.19,.3-.87,1.39-2.09,3.19h-.04c-.19-1.47-.33-3.27-.48-5.42-.04-.26-.04-.49-.04-.71m-6.6,.44l-1.33-.6v-.08l1.56-1.61h.04l-.23,2.26-.04,.04Z"/>
  <path class="cls-1" d="M88.05,20.86l.45,.57c.11,.23,.08,.45-.12,.68-.3,.34-.53,.56-.76,.75-.15,.15-.3,.19-.42,.19-.15-.04-.3-.11-.49-.3-.6-.57-.87-1.21-.79-1.96,.08-.75,.42-1.43,1.07-2.14,1.33-1.35,2.51-1.54,3.56-.52,.49,.42,.76,.83,.83,1.24,.08,.3-.11,.71-.49,1.28-.04,0,0,.08,.11,.11,.08,.07,.15,.11,.19,.11,.34-.37,.8-.79,1.33-1.16-.49-.68-.98-1.21-1.4-1.62-.61-.6-1.21-.98-1.82-1.17-1.29-.45-2.43-.16-3.38,.9-1.6,1.65-1.49,3.35,.37,5.08,.45,.45,1.14,.91,2.01,1.32,.08-.04,.15-.08,.19-.11-.08-.19-.08-.3,.04-.38,.15-.26,.38-.53,.76-.83,.19-.23,.42-.3,.57-.22l.3,.15c.15-.04,.23-.11,.23-.23l-2.08-1.96c-.15,0-.23,.08-.27,.22"/>
  <path class="cls-1" d="M92.82,24.48c-.08-.04-.04-.08,0-.08l1.71-1.35c.08-.07,.19-.07,.23,0,.26,.19,.61,.6,.95,1.21,.15,.19,.15,.38,.04,.56-.08,.19-.23,.38-.46,.56,0,.15,.08,.23,.23,.26,.57-.38,.99-.64,1.29-.79,.04,0,.04-.04,.04-.08-.15-.11-.42-.45-.83-.94l-2.19-2.83c-.19-.08-.27,0-.27,.19l.26,.49c.08,.15,0,.34-.19,.53l-3.61,2.85c-.27,.19-.49,.19-.64,.07-.11-.08-.3-.26-.61-.57-.08,0-.15,.08-.27,.22l2.91,3.66c.19,.26,.38,.38,.49,.34,.38-.07,.87-.26,1.48-.56,0-.11-.04-.19-.11-.34-.34,.11-.68,.15-1.1,.19-.27-.04-.53-.15-.76-.42-.45-.56-.76-.94-.87-1.21-.04-.11,0-.26,.15-.41l1.6-1.24h.11c.45,.6,.76,.98,.87,1.17,.11,.15,.08,.3,0,.45l-.3,.34c.04,.15,.11,.26,.26,.3l.76-.64c.19-.15,.49-.34,.87-.6-.04-.15-.11-.26-.26-.3l-.34,.19c-.23,.07-.42,.04-.53-.08-.27-.3-.57-.68-.91-1.17"/>
  <polygon class="cls-2" points="99.19 38.86 99.61 39.92 105 37.71 104.58 36.69 99.19 38.86"/>
  <polygon class="cls-2" points="97.87 36.04 98.36 37.02 103.6 34.51 103.11 33.53 97.87 36.04"/>
  <polygon class="cls-2" points="100.33 41.8 100.63 42.86 106.2 41.06 105.86 39.97 100.33 41.8"/>
  <polygon class="cls-2" points="101.19 44.78 101.49 45.87 107.14 44.45 106.88 43.36 101.19 44.78"/>
  <polygon class="cls-2" points="101.94 47.82 102.13 48.92 107.9 47.87 107.67 46.78 101.94 47.82"/>
  <polygon class="cls-2" points="102.43 50.91 102.58 52 108.38 51.34 108.23 50.25 102.43 50.91"/>
  <path class="cls-2" d="M89.97,27.97l-11.71-.02-.06,11.51h4.85s0-2.85,0-2.85c.53,.64,1.02,1.24,1.51,1.88,.08,.08,.11,.15,.19,.23,.15,.23,.34,.49,.53,.75,.23,.34,.49,.72,.72,1.05,2.8,4.29,4.46,9.04,4.94,14.27,.11,1.17,.18,2.37,.18,3.61-.02,9.18-3.29,17.04-9.9,23.57-6.08,6.01-13.32,9.23-21.74,9.66h-3.79c-.64-.04-1.25-.08-1.86-.16-2.16-.19-4.21-.61-6.18-1.18-4.47-1.33-8.56-3.63-12.27-6.87l.18,3.35-3.94,.11c1.29,1.17,2.69,2.26,4.09,3.24,2.5,1.74,5.11,3.13,7.91,4.15,1.82,.72,3.75,1.25,5.68,1.67,2.61,.49,5.31,.76,8.15,.77,10.65,.02,19.8-3.68,27.39-11.19,7.56-7.47,11.37-16.53,11.43-27.14-.03-2.82-.29-5.49-.78-8.05-.98-4.74-2.82-9.11-5.55-13.14-.08-.11-.15-.23-.23-.3-.42-.64-.87-1.24-1.32-1.81-.04-.08-.11-.15-.15-.23-.53-.68-1.1-1.32-1.66-1.96h3.37s0-4.92,0-4.92Z"/>
  <polygon class="cls-2" points="102.73 54 102.76 55.13 108.6 54.84 108.57 53.75 102.73 54"/>
  <polygon class="cls-2" points="108.63 58.37 108.63 57.24 102.8 57.16 102.79 58.25 108.63 58.37"/>
  <polygon class="cls-2" points="102.56 61.37 108.36 61.87 108.47 60.78 102.68 60.28 102.56 61.37"/>
  <polygon class="cls-2" points="102.14 64.46 107.93 65.37 108.09 64.28 102.29 63.36 102.14 64.46"/>
  <polygon class="cls-2" points="101.52 67.54 107.21 68.79 107.48 67.7 101.79 66.45 101.52 67.54"/>
  <polygon class="cls-2" points="100.68 70.55 106.25 72.18 106.6 71.12 101.03 69.46 100.68 70.55"/>
  <polygon class="cls-2" points="99.62 73.48 105.11 75.52 105.49 74.47 100.04 72.43 99.62 73.48"/>
  <polygon class="cls-2" points="98.4 76.34 103.74 78.76 104.16 77.74 98.85 75.36 98.4 76.34"/>
  <polygon class="cls-2" points="93.57 84.38 98.26 87.77 98.94 86.91 94.21 83.48 93.57 84.38"/>
  <polygon class="cls-2" points="95.35 81.82 100.31 84.92 100.88 83.98 95.96 80.88 95.35 81.82"/>
  <polygon class="cls-2" points="96.95 79.12 102.1 81.87 102.63 80.9 97.52 78.14 96.95 79.12"/>
  <polygon class="cls-2" points="91.59 86.82 96.06 90.55 96.74 89.69 92.31 85.96 91.59 86.82"/>
  <polygon class="cls-2" points="87.18 91.25 91.04 95.59 91.88 94.84 88.02 90.54 87.18 91.25"/>
  <polygon class="cls-2" points="89.46 89.11 93.66 93.11 94.42 92.32 90.22 88.32 89.46 89.11"/>
  <polygon class="cls-2" points="84.75 93.24 88.38 97.8 89.26 97.09 85.63 92.56 84.75 93.24"/>
  <polygon class="cls-2" points="82.21 95.08 85.5 99.86 86.41 99.23 83.12 94.44 82.21 95.08"/>
  <polygon class="cls-2" points="79.52 96.73 82.5 101.7 83.45 101.14 80.5 96.17 79.52 96.73"/>
  <polygon class="cls-2" points="76.75 98.19 79.39 103.39 80.37 102.86 77.73 97.7 76.75 98.19"/>
  <path class="cls-1" d="M63.13,5.04c.3,.23,.45,.68,.49,1.32,0,.04,.08,.04,.19,.08,.08,0,.15-.04,.19-.04,.04-.6,.15-1.17,.34-1.66-.83-.23-1.52-.34-2.12-.42-.8-.08-1.52,0-2.2,.22-1.18,.49-1.86,1.35-1.98,2.7-.27,2.26,.86,3.54,3.33,3.81,.53,.08,1.06,.04,1.63-.07,.38-.19,.68-.64,.99-1.35-.04-.11-.11-.19-.26-.23-.34,.45-.65,.79-.91,.94-.27,.19-.64,.26-1.1,.22-.87-.08-1.48-.45-1.89-1.13-.34-.56-.49-1.32-.37-2.15,.16-1.88,.99-2.74,2.43-2.63,.53,.08,.95,.19,1.25,.38"/>
  <path class="cls-1" d="M57.26,4.02c-.38,.07-.8,.07-1.18,.11h-1.18c-.11,.07-.15,.19-.04,.34,.23,0,.42,.04,.57,.08,.11,.04,.19,.11,.11,.23-.04,.23-.38,.79-.95,1.8-.04,0-.04,.04-.07,0-.6-.9-.98-1.51-1.13-1.77,0-.08,0-.15,.08-.19l.42-.11c.11-.15,.11-.26-.04-.34l-2.84,.11s-.04,.08-.04,.19c0,.07,0,.15,.04,.15l.57,.08c.27,.08,.53,.3,.83,.75,.49,.75,.98,1.43,1.36,2.07,0,0,0,.04-.04,.08-.46,.79-.91,1.47-1.33,2.03-.27,.38-.49,.6-.72,.67l-.65,.15c-.11,.08-.11,.19-.04,.34l2.58-.11c.08-.15,.08-.26,0-.34l-.53-.08c-.15-.04-.23-.11-.19-.3,.04-.19,.42-.83,1.14-1.95,0-.04,.04-.04,.08,0,.53,.79,.95,1.43,1.25,1.92,.04,.11,.04,.23-.08,.23l-.53,.15c-.11,.11-.11,.23,.04,.34,.53-.08,.99-.11,1.37-.11,.49,0,1.02-.03,1.71-.03,.11-.11,.11-.23,0-.34l-.57-.08c-.27-.04-.61-.42-1.1-1.06-.19-.26-.6-.94-1.32-2v-.08l1.03-1.62c.3-.45,.61-.75,.91-.83,.08-.04,.27-.07,.49-.15,.08-.07,.08-.19,0-.34"/>
  <path class="cls-1" d="M49.3,4.56s-.04-.04-.04-.04c-.38,.11-.76,.19-1.25,.3l-2.09,.37c-.76,.11-1.25,.19-1.48,.22-.08,.11-.08,.23,.08,.3h.53c.19,.04,.34,.15,.42,.45,.04,.19,.19,.87,.38,2l.45,2.48c.04,.3-.04,.49-.23,.6-.11,.04-.38,.15-.76,.26-.04,.08-.04,.19,.08,.34l1.74-.37c.72-.15,1.67-.3,2.84-.48,.34-.04,.53-.15,.57-.26,.08-.38,.15-.9,.19-1.54-.15-.08-.27-.11-.38-.08-.11,.41-.23,.75-.34,1.02-.15,.26-.42,.41-.76,.49-.72,.15-1.21,.22-1.44,.18-.15,0-.26-.11-.3-.3l-.38-1.96c0-.08,.04-.11,.08-.11,.76-.15,1.21-.22,1.4-.22,.19-.04,.3,.04,.42,.23l.19,.42c.15,.07,.27,.04,.38-.11l-.19-.98c-.08-.26-.11-.6-.15-.98-.08-.11-.23-.08-.38,.04l-.04,.41c0,.19-.11,.34-.3,.38-.3,.11-.8,.22-1.44,.3q-.08,0-.08-.08l-.41-2.11c0-.11,.04-.19,.11-.19,.53-.15,1.06-.26,1.52-.3,.23-.04,.42,.04,.49,.26,.11,.11,.23,.34,.34,.68,.04,.04,.19,0,.34-.08-.11-.71-.11-1.24-.11-1.54"/>
  <path class="cls-2" d="M22.14,85.59l11.71,.02,.06-11.51h-4.85s0,2.81,0,2.81c-.57-.6-1.06-1.24-1.55-1.85-.08-.08-.11-.15-.15-.23-.19-.26-.38-.53-.53-.75-.26-.38-.53-.72-.76-1.09-2.76-4.29-4.42-9.04-4.94-14.27-.11-1.17-.15-2.37-.14-3.58-.02-9.22,3.29-17.07,9.87-23.57,6.08-6.01,13.32-9.23,21.74-9.7h3.83c.61,.05,1.21,.12,1.86,.16,2.12,.23,4.17,.61,6.14,1.22,4.51,1.33,8.6,3.63,12.27,6.87l-.14-3.39,3.94-.07c-1.32-1.21-2.69-2.3-4.13-3.28-2.5-1.7-5.11-3.1-7.88-4.15-1.86-.68-3.75-1.25-5.72-1.63-2.58-.53-5.31-.8-8.11-.81-10.69-.02-19.83,3.72-27.39,11.23-7.6,7.47-11.41,16.49-11.43,27.14v.13c0,2.74,.26,5.37,.78,7.92,.94,4.74,2.79,9.11,5.55,13.14,.04,.11,.11,.22,.19,.3,.42,.6,.87,1.2,1.32,1.81,.08,.04,.11,.11,.15,.19,.57,.68,1.1,1.32,1.7,2h-3.37s-.01,4.92-.01,4.92Z"/>
  <path class="cls-1" d="M38.68,7.66c.27-.07,.49,.08,.61,.34,.26,.49,.75,1.66,1.55,3.5l-.04,.04c-1.63-.83-3.22-1.74-4.81-2.61-.3-.15-.49-.26-.61-.38l-.57,.26c-.68,.22-1.14,.41-1.33,.49,0,.15,.04,.23,.11,.34,.27-.11,.53-.15,.8-.11,.27,0,.42,.15,.53,.42,.87,2.11,1.4,3.46,1.55,4.03,.11,.3,.08,.56-.12,.68-.15,.11-.3,.22-.49,.34-.08,.15-.04,.26,.15,.3,.15-.07,.57-.26,1.21-.52,.15-.08,.57-.23,1.25-.49,0-.19-.04-.3-.15-.3-.27,.07-.49,.11-.61,.11-.3,.08-.53-.08-.68-.42-.26-.53-.75-1.73-1.55-3.61,0,0,.04-.04,.08-.04,2.84,1.58,4.7,2.64,5.57,3.17l.83-.3-.6-1.36c-.83-2.03-1.32-3.31-1.47-3.73-.11-.34-.08-.56,.15-.75l.34-.22c.11-.15,.08-.26-.11-.3l-1.06,.45c-.72,.26-1.14,.45-1.33,.52,0,0,0,.08,.04,.15,.04,.08,.08,.11,.11,.15l.65-.15Z"/>
  <path class="cls-1" d="M32.26,10.59l.42-.34c.04-.15-.04-.22-.15-.3-.38,.23-.8,.49-1.25,.75l-1.29,.71c-.08,.15,0,.22,.15,.26,.3-.11,.49-.19,.61-.19,.15-.07,.3,.04,.42,.26,.19,.23,.53,.79,1.06,1.73,.76,1.32,1.21,2.11,1.32,2.3,.11,.26,.07,.45-.08,.64l-.42,.34c-.08,.11-.04,.23,.15,.26,.23-.11,.68-.41,1.37-.79,.34-.23,.76-.45,1.29-.71,.04-.15,0-.26-.15-.3l-.57,.23c-.23,.04-.42-.08-.57-.34-.15-.23-.57-.9-1.25-2.07-.53-.94-.87-1.54-1.02-1.85-.15-.3-.19-.49-.04-.6"/>
  <path class="cls-1" d="M29.42,13.44c-.57-.79-1.36-.79-2.46-.04l-1.4,1.05c-.42,.3-.76,.56-1.14,.79,0,.04,0,.08,.07,.15,.04,.07,.11,.11,.15,.11,.15-.11,.3-.19,.49-.26,.15-.04,.34,0,.49,.19,.11,.11,.57,.75,1.36,1.88l1.4,1.89c.15,.26,.15,.45,.07,.6-.08,.04-.23,.23-.49,.49-.04,.15,.04,.23,.19,.26,.38-.26,1.1-.79,2.2-1.5,.57-.45,.95-.86,1.22-1.24,.46-.83,.46-1.58,0-2.22-.53-.72-1.25-.83-2.24-.38l-.04-.04c.46-.64,.49-1.2,.12-1.73m-.8,.9c.26,.38,.34,.68,.19,1.02-.04,.11-.23,.3-.57,.56l-.49,.3s-.04,.04-.04,0l-1.29-1.7v-.19s.23-.23,.23-.23c.8-.56,1.44-.49,1.97,.23Zm-.61,2.33v-.11s.3-.23,.3-.23c.99-.71,1.75-.64,2.35,.19,.57,.75,.49,1.39-.16,1.88-.23,.19-.46,.3-.76,.3-.15-.04-.27-.07-.38-.19l-1.36-1.85Z"/>
  <path class="cls-1" d="M26.48,20.43c-.11-.72-.49-1.39-1.1-2-.68-.64-1.4-.98-2.23-1.02-.87-.04-1.71,.3-2.43,1.05-.84,.79-1.22,1.73-1.1,2.75,.04,.79,.34,1.47,.98,2.11,.72,.72,1.51,1.1,2.42,1.1,.87,.04,1.67-.34,2.43-1.05,.84-.86,1.18-1.84,1.03-2.93m-1.78-.79c.76,.79,1.13,1.55,1.1,2.19,0,.38-.15,.68-.42,.94-.34,.3-.68,.52-1.14,.6-.95,.15-1.93-.27-2.88-1.21-.83-.83-1.21-1.66-1.02-2.37,.04-.26,.19-.53,.46-.79,.3-.34,.72-.53,1.14-.56,.91-.15,1.82,.27,2.76,1.21Z"/>
  <path class="cls-1" d="M23.06,25.47s-.04-.07-.08-.15c-.08-.08-.15-.11-.15-.11-.3,.3-.68,.53-1.06,.6-.83,.11-1.78,.11-2.88,.03l-.08-.08c.19-.86,0-1.5-.6-1.96-.87-.64-1.71-.42-2.47,.63-.23,.26-.57,.79-1.06,1.5l-.84,1.05c0,.15,.08,.19,.23,.26l.42-.41c.19-.15,.38-.15,.61,0l3.75,2.75c.23,.19,.34,.38,.26,.56l-.23,.49c0,.15,.08,.23,.27,.15,.23-.34,.49-.75,.84-1.17l.87-1.16s-.04-.08-.11-.15c-.08-.04-.11-.11-.11-.08l-.46,.41c-.15,.11-.34,.11-.57-.04l-1.51-1.06-.04-.08,.3-.41c.04-.08,.15-.11,.3-.11,1.4,.04,2.2,.08,2.46,.08,.23,0,.45-.07,.64-.15,.42-.26,.84-.71,1.29-1.43m-4.7,.67c-.04,.19-.27,.56-.68,1.09h-.08c-1.25-.9-1.93-1.4-2.04-1.51-.04-.07-.07-.11-.07-.15l.15-.3c.61-.79,1.29-.9,2.12-.3,.49,.34,.68,.71,.6,1.17Z"/>
  <polygon class="cls-2" points="7.87 37.1 13.25 39.29 13.67 38.28 8.29 36.05 7.87 37.1"/>
  <polygon class="cls-2" points="9.32 33.87 14.51 36.47 15.04 35.46 9.81 32.85 9.32 33.87"/>
  <polygon class="cls-2" points="6.62 40.37 12.15 42.23 12.53 41.17 7 39.32 6.62 40.37"/>
  <polygon class="cls-2" points="4.32 50.64 10.12 51.36 10.27 50.27 4.47 49.55 4.32 50.64"/>
  <polygon class="cls-2" points="4.86 47.18 10.58 48.28 10.81 47.19 5.09 46.09 4.86 47.18"/>
  <polygon class="cls-2" points="5.62 43.72 11.27 45.23 11.57 44.18 5.93 42.66 5.62 43.72"/>
  <polygon class="cls-2" points="4.05 54.14 9.85 54.49 9.92 53.4 4.09 53.04 4.05 54.14"/>
  <polygon class="cls-2" points="9.8 57.61 9.8 56.52 3.97 56.54 3.96 57.63 9.8 57.61"/>
  <polygon class="cls-2" points="5.01 67.01 5.23 68.1 10.96 66.9 10.7 65.81 5.01 67.01"/>
  <polygon class="cls-2" points="4.41 63.54 4.59 64.67 10.36 63.86 10.21 62.73 4.41 63.54"/>
  <polygon class="cls-2" points="4.07 60.08 4.15 61.17 9.99 60.73 9.91 59.64 4.07 60.08"/>
  <polygon class="cls-2" points="8.13 77.09 8.59 78.11 13.94 75.79 13.48 74.77 8.13 77.09"/>
  <polygon class="cls-2" points="6.85 73.82 7.23 74.84 12.73 72.89 12.35 71.84 6.85 73.82"/>
  <polygon class="cls-2" points="9.64 80.26 10.17 81.27 15.33 78.58 14.8 77.6 9.64 80.26"/>
  <polygon class="cls-2" points="5.8 70.47 6.14 71.52 11.75 69.92 11.45 68.86 5.8 70.47"/>
  <polygon class="cls-2" points="13.27 86.32 13.91 87.23 18.7 83.85 18.02 82.95 13.27 86.32"/>
  <polygon class="cls-2" points="11.34 83.35 11.91 84.29 16.92 81.29 16.31 80.35 11.34 83.35"/>
  <polygon class="cls-2" points="15.39 89.15 16.11 90.02 20.62 86.34 19.91 85.47 15.39 89.15"/>
  <polygon class="cls-2" points="58.58 102.82 58.94 108.61 60.04 108.54 59.71 102.78 58.58 102.82"/>
  <polygon class="cls-2" points="48.33 108.07 49.43 108.22 50.24 102.5 49.18 102.35 48.33 108.07"/>
  <polygon class="cls-2" points="55.38 108.68 56.48 108.68 56.53 102.89 55.43 102.89 55.38 108.68"/>
  <polygon class="cls-2" points="51.85 108.49 52.95 108.56 53.38 102.81 52.28 102.73 51.85 108.49"/>
  <polygon class="cls-2" points="64.83 102.12 65.96 107.8 67.06 107.58 65.93 101.89 64.83 102.12"/>
  <polygon class="cls-2" points="67.91 101.45 69.41 107.02 70.51 106.76 68.97 101.15 67.91 101.45"/>
  <polygon class="cls-2" points="70.9 100.55 72.82 106.05 73.89 105.67 71.96 100.21 70.9 100.55"/>
  <polygon class="cls-2" points="73.86 99.46 76.16 104.81 77.19 104.4 74.92 99.05 73.86 99.46"/>
  <polygon class="cls-2" points="61.72 102.56 62.47 108.32 63.57 108.17 62.82 102.45 61.72 102.56"/>
  <polygon class="cls-2" points="22.8 96.65 23.67 97.37 27.36 92.86 26.49 92.18 22.8 96.65"/>
  <polygon class="cls-2" points="25.6 98.8 26.51 99.44 29.89 94.75 28.99 94.11 25.6 98.8"/>
  <polygon class="cls-2" points="17.69 91.83 18.45 92.62 22.71 88.64 21.95 87.85 17.69 91.83"/>
  <polygon class="cls-2" points="20.15 94.31 20.99 95.07 24.94 90.82 24.14 90.07 20.15 94.31"/>
  <polygon class="cls-2" points="28.56 100.76 29.5 101.37 32.55 96.41 31.6 95.84 28.56 100.76"/>
  <polygon class="cls-2" points="34.81 104.09 35.83 104.54 38.15 99.24 37.13 98.79 34.81 104.09"/>
  <polygon class="cls-2" points="31.62 102.54 32.61 103.07 35.31 97.92 34.29 97.39 31.62 102.54"/>
  <polygon class="cls-2" points="38.06 105.45 39.12 105.79 41.1 100.34 40.04 100 38.06 105.45"/>
  <polygon class="cls-2" points="41.43 106.55 42.49 106.85 44.1 101.29 43.04 100.98 41.43 106.55"/>
  <polygon class="cls-2" points="44.88 107.42 45.94 107.65 47.17 102.01 46.07 101.78 44.88 107.42"/>
  <path class="cls-2" d="M54.76,57.93c-.57-.04-1.25-.08-2.08-.15l.02-11.89c0-2.78,.2-4.55,.69-5.27,.19-.38,.68-.6,1.4-.79,.76-.19,1.63-.3,2.73-.26h.34c4.51,.09,7.39,1.71,8.63,4.87,.45,1.17,.68,2.6,.67,4.29,0,2.6-.69,4.66-2.1,6.2-.34,.37-.61,.64-.84,.83-1.06,.86-2.43,1.46-4.1,1.87-.64,.11-1.4,.22-2.31,.3-.3,.04-.76,.04-1.37,.03-.8,0-1.33,0-1.71-.04m-16.94-20.39v1.77s4.51,0,4.51,0c.68,.08,1.14,.12,1.36,.19,.68,.11,1.17,.34,1.52,.68,.11,.11,.23,.26,.3,.41,.3,.64,.45,1.32,.53,2,0,.6,.03,2.18,.07,4.74l-.04,21.67c0,4.21-.24,6.77-.7,7.64l-.19,.3,.23,.26c1.17,.94,2.38,1.7,3.63,2.23,1.17,.49,2.35,.8,3.6,.87l.02-10.69v-.6s.02-9.33,.02-9.33l2.08,.12c.3,0,.83,.04,1.52,.04l1.55-.04c.08-.04,.23-.04,.42-.04l2.42,4.52c.42,.72,1.1,2,2.12,3.84l3.78,6.89c.23,.42,.57,1.06,.98,1.89,.42,.86,.75,1.66,1.02,2.41l10.61,.02v-1.32s-3.11,0-3.11,0l-5.21-8.85c-.11-.15-.15-.3-.23-.38-.04-.04-.11-.11-.15-.26l-2.95-5.01c-.42-.75-1.32-2.37-2.68-4.86,.27-.04,.57-.15,.95-.22l1.29-.45c.19-.11,.46-.22,.8-.34,1.63-.75,3-1.65,4.02-2.74,1.75-1.84,2.62-4.02,2.63-6.54,0-3.05-1.01-5.46-3.06-7.27-.98-.83-2.04-1.43-3.22-1.93-.57-.26-1.14-.45-1.74-.6-.95-.3-1.97-.53-2.99-.68-1.36-.19-2.99-.31-4.81-.31l-20.89-.04Z"/>
  <path class="cls-1" d="M55.09,26.47c-.23,0-.3,.11-.27,.38v3.8s-.54,0-.54,0c-3.52,0-6.52,.7-9.06,2.09-.49,.26-.99,.56-1.48,.94-.99,.75-1.78,1.46-2.35,2.25-.27,.26-.46,.53-.65,.79l6.79,.02c.15-.26,.34-.53,.53-.79,.15-.23,.27-.38,.42-.49,1.56-1.77,3.61-2.59,6.11-2.58h.23s0,3.88,0,3.88h3.07s0-3.38,0-3.38c1.48,.53,2.88,1.4,4.16,2.6,.34,.3,.72,.68,1.14,1.17,1.86,.19,3.6,.65,5.11,1.29-.22-4.18-.37-6.4-.37-6.58-.95,.11-1.97,.18-2.96,.18-1.36,0-2.62-.16-3.79-.46-1.33-.3-2.43-.49-3.3-.61v-4.1c0-.26-.07-.38-.26-.38h-2.54Z"/>
  <path class="cls-1" d="M36.73,69.06c-.04,.11-.04,.23,0,.34,.56,3.76,1.39,7.56,2.37,11.33,4.43,1.63,8.79,2.46,13.07,2.47h.27c.98-.03,1.74-.07,2.27-.11v2.52c-.04,.23,.03,.38,.26,.38h2.54c.19,0,.27-.14,.27-.37v-2.9c2.85-.6,5.24-1.57,7.22-2.96,.76-.56,1.48-1.16,2.09-1.8l-4.27-8.14c.04,.49,.07,.98,.07,1.43,0,2.63-.81,4.85-2.44,6.66-.68,.79-1.48,1.43-2.39,1.91l-.27,.15c-.42,.19-.72,.34-.87,.38-.04,.04-.08,.04-.08,.04-.72,.22-1.44,.41-2.12,.52-.57,.07-1.14,.07-1.74,.11h-.53c-1.21-.08-2.39-.38-3.6-.87-1.21-.53-2.42-1.28-3.6-2.26-.08-.04-.15-.11-.27-.19-2.57-2.26-4.69-5.24-6.31-8.97-.15-.3-.38-.45-.76-.45l-.42,.04c-.53,.07-.8,.34-.76,.75"/>
  <path class="cls-2" d="M57.79,79.64l.04-19-1.55,.03c-.68,0-1.21,0-1.52-.04l-.04,19.9c.68-.11,1.4-.3,2.12-.52,.08,0,.38-.15,.95-.37"/>
</svg>