<svg id="Layer_1" data-name="Layer 1" xmlns="http://www.w3.org/2000/svg" viewBox="0 0 170.08 141.73"><defs><style>.cls-1{fill:#d2ab67;fill-rule:evenodd;}</style></defs><path class="cls-1" d="M139.36,105l-6.63,10.82h0a4.89,4.89,0,0,1-4.19,2.37H124v-.44a11.64,11.64,0,0,0,5.69-4.87h0l5.14-8.39A11.35,11.35,0,0,1,128.23,99h0A5.43,5.43,0,0,1,133,90.83H150.9A5.45,5.45,0,0,1,155.64,99h0a11.3,11.3,0,0,1-6.56,5.58l5.14,8.39h0a11.66,11.66,0,0,0,5.7,4.87v.44h-4.59a4.87,4.87,0,0,1-4.18-2.37h0L144.51,105,144,105v9.87a2.84,2.84,0,0,0,2.85,2.85v.53H137v-.53a2.85,2.85,0,0,0,2.85-2.85V105l-.5.06Zm32,11.65h0a12.12,12.12,0,0,0,5.08-5.73c10.62.38,19.69-3.56,27.89-9.94-1.61-.74-3.9-.59-6.37-.2a42.6,42.6,0,0,1-18,3.07,8.94,8.94,0,0,1-1.86,1.42q1.34-2.15,2.66-4.29c17.74-.15,30-7.39,39.2-18.46a10.87,10.87,0,0,0-7-.07c-10.38,4.13-20.62,7.33-31.21,7.8a30.23,30.23,0,0,0-3.51,7.41c0-2.29.05-5.22.05-7.51,26.11-5.71,47.14-12.41,48.43-33.5-16.05,12.7-34.43,21.8-53.09,30.16,1.38,7.09,1.6,13.39.61,18.83-.32-10.45-9-19.31-21.21-22.77v1.37c10.75,3.23,18.31,10.9,18.31,19.86,0,11.86-13.28,21.48-29.66,21.48s-29.66-9.62-29.66-21.48c0-9,7.57-16.63,18.32-19.86V82.91c-12.16,3.46-20.9,12.32-21.21,22.78-1-5.45-.77-11.74.61-18.84-18.66-8.36-37-17.46-53.1-30.16C58,77.78,79,84.48,105.12,90.19c0,2.29,0,5.22,0,7.51a30.23,30.23,0,0,0-3.51-7.41c-10.59-.47-20.82-3.67-31.2-7.8a10.9,10.9,0,0,0-7,.07C72.74,93.63,85,100.87,102.7,101l2.67,4.29a9,9,0,0,1-1.87-1.42,42.55,42.55,0,0,1-18-3.07c-2.48-.39-4.76-.54-6.37.2,8.19,6.38,17.26,10.32,27.89,9.94a12.1,12.1,0,0,0,5.07,5.73h0c5.15,8.56,16.46,14.51,29.59,14.51s24.45-6,29.6-14.52ZM144,93.84v8.09a1.58,1.58,0,0,0,.91,1.44,4.55,4.55,0,0,0,2,.47,4.39,4.39,0,0,0,4.44-4.33V96.26a4.47,4.47,0,0,0-6.22-4l-.24.11a1.59,1.59,0,0,0-.91,1.44Zm-5.31-1.55a4.47,4.47,0,0,0-6.22,4v3.25a4.39,4.39,0,0,0,4.44,4.33,4.47,4.47,0,0,0,2-.47,1.57,1.57,0,0,0,.92-1.44V93.84A1.59,1.59,0,0,0,139,92.4Z" transform="translate(-56.69 -56.69)"/><path class="cls-1" d="M58.81,190.67v-4.83a6.36,6.36,0,0,1,1.48-.13c1.53,0,2.82.63,2.82,2.44,0,1.51-1.11,2.52-2.87,2.52Zm13.3,1.78,1.12-3.69c.24-.87.46-1.91.66-2.77h0c.2.86.44,1.86.69,2.78l1.11,3.68Zm3.18-8.3H72.68l-4.3,14.07h2.18l1.22-4.13h4.3l1.26,4.13h2.24l-4.29-14.07Zm10.14,1.74a8.74,8.74,0,0,1,1.65-.14c3,0,4.79,1.76,4.79,5.18,0,3.88-1.91,5.73-5.07,5.71a11,11,0,0,1-1.37-.07V185.89Zm-2.14,12.3a23,23,0,0,0,3,.16,8.14,8.14,0,0,0,5.76-1.85,7.55,7.55,0,0,0,2-5.61v0c0-3.12-1.25-6.81-7.24-6.81a23.28,23.28,0,0,0-3.59.29v13.84Zm14.77,0h2.14V184.15H98.06v14.07ZM115,184.15h-2v5.19c0,2.24.06,4,.22,6l0,0a41.52,41.52,0,0,0-2.28-4.66l-3.68-6.51h-2.31v14.07h2V193c0-2.46,0-4.28-.15-6.07l.07,0a44.73,44.73,0,0,0,2.34,4.77l3.69,6.58H115V184.15Zm16.48,12.29H125.9v-4.67h4.92V190H125.9v-4.08h5.21v-1.78h-7.34v14.07h7.66v-1.78Zm9.31-5.43,3.86-6.86h-2.39l-1.54,3.07c-.43.85-.74,1.49-1.11,2.36h0c-.37-.79-.7-1.49-1.12-2.34l-1.56-3.09h-2.41l3.75,6.92-3.9,7.15h2.37l1.45-3c.54-1.07.9-1.83,1.25-2.67h.06c.38.84.77,1.6,1.36,2.67l1.54,3h2.41l-4-7.21Zm16.35,5.12a6.36,6.36,0,0,1-2.53.49c-2.91,0-4.71-1.92-4.71-5.38,0-3.65,2-5.49,4.74-5.49a5.83,5.83,0,0,1,2.46.51l.46-1.74a6.64,6.64,0,0,0-3-.55c-3.9,0-6.91,2.6-6.91,7.38,0,4.48,2.63,7.08,6.54,7.08a8.14,8.14,0,0,0,3.31-.59l-.37-1.71Zm14.24-12H169.2V190h-5.74v-5.81h-2.13v14.07h2.13v-6.39h5.74v6.39h2.13V184.15Zm7.4,8.3,1.12-3.69c.24-.87.46-1.91.66-2.77h0c.2.86.44,1.86.7,2.78l1.1,3.68Zm3.18-8.3H179.3L175,198.22h2.19l1.21-4.13h4.3l1.27,4.13h2.24l-4.3-14.07Zm18.08,0h-2v5.19c0,2.24.06,4,.22,6l-.05,0a41.52,41.52,0,0,0-2.28-4.66l-3.68-6.51h-2.31v14.07h2V193c0-2.46,0-4.28-.14-6.07l.07,0a46.62,46.62,0,0,0,2.33,4.77l3.7,6.58H200V184.15Zm14.8,6.5h-4.48v1.71h2.43v4a4.47,4.47,0,0,1-1.88.29c-2.75,0-4.68-1.87-4.68-5.42s2.07-5.38,5-5.38a6.64,6.64,0,0,1,2.79.53l.48-1.74a7.85,7.85,0,0,0-3.27-.59c-4.21,0-7.2,2.72-7.2,7.28,0,2.24.77,7.07,6.85,7.07a11.53,11.53,0,0,0,4-.72v-7Zm12,5.79h-5.53v-4.67h4.92V190h-4.92v-4.08h5.22v-1.78h-7.35v14.07h7.66v-1.78ZM98.05,171.52l-2.4-2.39c-.06-.06-.1-.06-.16,0l-2.19,2.22c-.08.08-.1.15,0,.21l2.38,2.3s.07,0,.08,0l2.34-2.34Zm.2-.09h0l2.28-2.29q.1-.09.18,0l2.43,2.32s0,0,0,.07l-2.35,2.34s0,.06,0,.06l-.06-.06-2.42-2.43ZM73.37,160.34c-.07-.08-.14-.08-.2,0l-2.35,2.39c-.11.09-.13.16-.06.22l2.55,2.47s.1,0,.12,0L76,162.91s0-.06,0-.08l-2.59-2.49Zm3,2a.63.63,0,0,1,0,1l-2.52,2.5a.61.61,0,0,1-1,0l-2.59-2.47a.71.71,0,0,1,.05-1.11l2.35-2.38a.69.69,0,0,1,1.09,0l2.59,2.48Zm95.79-22.28a.14.14,0,0,0-.22,0l-2.35,2.43c-.1.1-.12.16-.08.2l2.57,2.49s.09,0,.12,0l2.53-2.53s0,0,0-.08l-2.57-2.49Zm3,2a.65.65,0,0,1,0,1l-2.54,2.52a.6.6,0,0,1-1,0l-2.57-2.48a.66.66,0,0,1,0-1.09l2.35-2.39a.67.67,0,0,1,1.08,0l2.61,2.48Zm-.82,11.8a9.53,9.53,0,0,1-2.44.24c-1.58,0-2.37-.25-2.37-.76a1.29,1.29,0,0,1,.45-1,1.48,1.48,0,0,1,1.07-.41,3.81,3.81,0,0,1,3.29,1.94Zm-2.44.85a13.52,13.52,0,0,0,3.42-.48c-1.29-1.94-2.71-2.92-4.27-2.92a2.16,2.16,0,0,0-1.5.57,1.87,1.87,0,0,0-.63,1.46c0,.92,1,1.37,3,1.37Zm-58.51-7.63c-.46,0-.71-.07-.93.44a30.91,30.91,0,0,0-2.11,5.33c0,.31.14.47.32.47l1.21-.35h.31a6.19,6.19,0,0,1,1.76.63q6.84,4.31,7,6.07v.12c-.28,1.15-2.44,1.72-6.46,1.72h-1.88a10.67,10.67,0,0,1-2.57-.27c-.43-.11-.39.11-.4.34v5c0,.35-.16.53.49.53h5.27a7.76,7.76,0,0,0,3.93-1c7.13-3.72.43-17.91-5.92-19Zm108.07,12.11c0,1.49-7.06,1.68-8.18,1.68a21.25,21.25,0,0,1-3.24-.15c2.06-2.68,4.43-4,7.13-4,1.32,0,4.29.85,4.29,2.5Zm-8.18,2.28c1.57,0,8.78-.09,8.78-2.28s-3.21-3.1-4.89-3.1q-4.33,0-8.22,5a23.46,23.46,0,0,0,4.33.34Zm-76.4,9.61h8.79a2.7,2.7,0,0,1-.39-1.48c0-1.84,1.23-3.77,3.68-5.76q4-3.24,10.49-3.24H170a13.42,13.42,0,0,0,3.33-.45c1.53-.38,2.29-.75,2.29-1.13-1.78.19-3.09.28-3.92.28q-5.26,0-5.27-3.64a13.72,13.72,0,0,1,1.24-5.42,7,7,0,0,1,2.34-3.16H130.34l-1.71,20.71c-.11,1.35-.53,2-1.24,2s-1.17-.83-1.37-2.48c-.77-6.58-1.61-13.7-2.33-19.87l.53-.39h-8.94c6.24,3.09,11.39,15.89,4.37,19.55a8.33,8.33,0,0,1-4.22,1.07h-5.27c-.74,0-1.1-.15-1.1-.46v-5.53c0-.82.12-1.31.58-1.22a9.81,9.81,0,0,0,3,.41h1.88c3.7,0,5.65-.39,5.85-1.19-.07-1-2.28-2.82-6.66-5.59a5,5,0,0,0-1.52-.54H112l-1.21.34c-.58,0-.92-.34-1-1a30,30,0,0,1,2.12-5.53l.14-.28H56.69v-.6H126.1l-1.76,1.27,2.29,19.51c.14,1.3.4,1.95.76,1.95s.55-.49.63-1.46l1.76-21.27h52.33l-1.76,1.27,2.29,19.51c.14,1.3.4,1.95.76,1.95s.55-.49.63-1.46l1.76-21.27h40.07v.6H186.35l-.18,2.21-1.53,18.5c-.11,1.35-.52,2-1.24,2s-1.17-.83-1.37-2.48c-.77-6.58-1.61-13.7-2.33-19.87l.53-.39h-5.7a6.73,6.73,0,0,1,2.09,1.8c1.42,1.8,2.13,4.28,2.13,7.47q0,5.23-2.66,8.09t-8,2.94h-15.6c-2.58,0-3.87.26-3.87.77s1.22.59,3.67.6h9.1v2.33h28.7c1.4-1.16,2.1-2.2,2.1-3.11q0-1.91-5.61-6l3.26-4.82c.56-.87.95-.78,1.59,0,2,2.35,3.5,3.53,4.49,3.53h4a2.64,2.64,0,0,0,2.29-1,7.25,7.25,0,0,0,.65-1.66c.89-2.61,1.9-1.25,2.42.4.41,1.31,1,1.93,1.41,1.93,3-4.12,9.25-9.31,14.61-9.31s4.92,6,3,9.27a14.64,14.64,0,0,1-12.91,7.12q-5.56,0-7.31-1.9a3.79,3.79,0,0,1-3.5,1.9h-5.2c-.61,0-.64.14-.71,1.3a14.74,14.74,0,0,1-.34,2.32h31.51v.61H193.46a18.57,18.57,0,0,0,.62-3.35c.12-1.39,0-1.48,1.3-1.48h5.2a4,4,0,0,0,3.38-2.31q2.14,2.31,7.43,2.31a14,14,0,0,0,12.38-6.84c1.74-2.87,2.48-8.34-2.42-8.34-5.32,0-11.28,5.26-14.32,9.3-.91,0-1.62-.64-2.11-1.92-.31-.81-.83-2.88-1.39-.89a6,6,0,0,1-.79,1.91,3.15,3.15,0,0,1-2.77,1.21h-4c-1.18,0-2.82-1.24-4.94-3.73-.43-.47-.33-.49-.65,0l-2.9,4.32q5.37,3.88,5.37,6.12,0,1.68-2.51,3.72H160.81v-2.33h-8.49c-2.85,0-4.27-.41-4.27-1.21s1.48-1.38,4.47-1.38h15.6q5,0,7.53-2.73c1.66-1.79,2.49-4.36,2.49-7.69q0-4.58-2-7.1a5.06,5.06,0,0,0-4.12-2.17c-1.54,0-2.8,1.14-3.79,3.4a13,13,0,0,0-1.19,5.18q0,3,4.66,3c.8,0,2.32-.12,4.53-.37,0,1.16-.91,2-2.74,2.43a14.63,14.63,0,0,1-3.49.44H159.5q-6.28,0-10.12,3.13c-2.29,1.85-3.44,3.62-3.44,5.27a2.14,2.14,0,0,0,1.59,2.09H135.76a16.73,16.73,0,0,0,3.36-10.42,12.78,12.78,0,0,0-1.19-5.38,9.16,9.16,0,0,0-2.11-3.08,1.28,1.28,0,0,0-.59-.36c-.09,0-.2.1-.32.3L132.12,157c3.58,2.59,5.38,4.62,5.38,6.11,0,3.57-8.27,7.37-11.41,8.62H103.68a1,1,0,0,1-.13.17l-2.35,2.35a.6.6,0,0,1-1,0l-2-2-2,2a.61.61,0,0,1-.93,0L92.84,172a.84.84,0,0,1-.18-.21H85.31c-2,4.36-6.67,6.23-12.16,6.23-5.74,0-12.05-2.21-12.05-9a13.41,13.41,0,0,1,2.11-7.67c1.06-1.6,2.63-1.07,2,.85a12.43,12.43,0,0,0-.7,3.83q0,5.22,8.76,5.22c2.7,0,10.64-.64,10.64-4.33q0-1.68-5.12-7.15l2.8-4.67c.52-.81,1-.92,1.6-.14a24.53,24.53,0,0,0,2.5,2.75,5,5,0,0,0,3.24,1.3h9.86c2.37,0,3.56-.31,3.56-.87s-1.24-2-3.7-4.31l3-4.66a.61.61,0,0,1,1-.19c2.6,2.12,3.55,6.35,3.07,9.58-.58,3.68-2.74,7.22-6.87,7.22H88.75c-2.7,0-2.47-.33-2.47,1a12.31,12.31,0,0,1-.72,4.35h7.11a1.28,1.28,0,0,1,.19-.23L95,168.7a.67.67,0,0,1,1.06,0l2,2,2-2a.64.64,0,0,1,1,0l2.44,2.32a1.49,1.49,0,0,1,.12.14H126c2.82-1.23,10.85-4.82,10.85-8,0-1.26-1.86-3.25-5.58-6l3.07-4.7a1.08,1.08,0,0,1,.85-.58,1.74,1.74,0,0,1,1,.52,10.13,10.13,0,0,1,2.26,3.28,13.51,13.51,0,0,1,1.23,5.63,17.5,17.5,0,0,1-2.79,9.81Zm-38.08-6H88.75c-3.79,0-3.07-.76-3.08,1.62,0,7.61-5.61,10.58-12.52,10.58-5.38,0-11.44-2-11.44-8.36a13.05,13.05,0,0,1,2-7.35c.65-.93,1.34-.91.91.33a13.25,13.25,0,0,0-.74,4q0,5.84,9.37,5.83c3.13,0,11.25-.71,11.25-4.94q0-1.92-5-7.23l2.55-4.27c.26-.46.25-.51.58-.1a21,21,0,0,0,2.59,2.83,5.56,5.56,0,0,0,3.64,1.46h10q4-.06,4-1.47c0-.79-1.18-2.25-3.53-4.4l2.76-4.24q.06-.09.12,0c4.84,3.91,3.68,15.71-3.42,15.71ZM62.72,191.5a3.73,3.73,0,0,0,2.52-3.57,3.57,3.57,0,0,0-1.12-2.75,5.79,5.79,0,0,0-4-1.12,20.5,20.5,0,0,0-3.42.29v13.87h2.12v-5.95h1.28c1.49,0,2.17.72,2.56,2.59a19.29,19.29,0,0,0,.88,3.36h2.2a24.65,24.65,0,0,1-1-3.82c-.33-1.49-.92-2.48-2-2.86Z" transform="translate(-56.69 -56.69)"/></svg>