<svg width="25" height="25" viewBox="0 0 25 25" fill="none" xmlns="http://www.w3.org/2000/svg">
<g clip-path="url(#clip0_1_20152)">
<path d="M22.9167 10.4167C21.9108 10.4167 21.0692 11.1337 20.8754 12.0833H18.7288C18.635 10.6737 18.075 9.39292 17.1979 8.39125L18.7171 6.87208C19.055 7.09625 19.4508 7.2175 19.8658 7.2175C20.4225 7.2175 20.9454 7.00042 21.3388 6.60708C21.7321 6.21375 21.9492 5.69083 21.9492 5.13417C21.9492 4.5775 21.7321 4.05417 21.3388 3.66125C20.9458 3.26792 20.4225 3.05083 19.8658 3.05083C19.3092 3.05083 18.7858 3.26792 18.3929 3.66125C17.9996 4.05417 17.7825 4.5775 17.7825 5.13417C17.7825 5.54917 17.9037 5.945 18.1279 6.28292L16.6087 7.80208C15.6071 6.925 14.3263 6.365 12.9167 6.27125V4.12458C13.8663 3.93083 14.5833 3.08958 14.5833 2.08333C14.5833 0.934583 13.6487 0 12.5 0C11.3512 0 10.4167 0.934583 10.4167 2.08333C10.4167 3.08917 11.1337 3.93083 12.0833 4.12458V6.27125C10.6737 6.365 9.39292 6.925 8.39125 7.80208L6.87208 6.28292C7.09625 5.945 7.2175 5.54917 7.2175 5.13417C7.2175 4.5775 7.00083 4.05458 6.6075 3.66125C6.21417 3.26792 5.69083 3.05083 5.13417 3.05083C4.5775 3.05083 4.05458 3.26792 3.66125 3.66125C3.26792 4.05417 3.05083 4.5775 3.05083 5.13417C3.05083 5.69083 3.26792 6.21417 3.66125 6.60708C4.05458 7.00042 4.57792 7.2175 5.13417 7.2175C5.54917 7.2175 5.945 7.09625 6.28292 6.87208L7.80208 8.39125C6.925 9.39292 6.36458 10.6737 6.27125 12.0833H4.12458C3.93083 11.1337 3.08958 10.4167 2.08333 10.4167C0.934583 10.4167 0 11.3512 0 12.5C0 13.6487 0.934583 14.5833 2.08333 14.5833C3.08917 14.5833 3.93083 13.8663 4.12458 12.9167H6.27125C6.365 14.3263 6.925 15.6071 7.80208 16.6087L6.28292 18.1279C5.945 17.9033 5.54917 17.7825 5.13417 17.7825C4.57792 17.7825 4.05458 17.9996 3.66125 18.3929C3.2675 18.7863 3.05083 19.3092 3.05083 19.8658C3.05083 20.4225 3.26792 20.9458 3.66125 21.3388C4.05458 21.7321 4.57792 21.9492 5.13417 21.9492C5.69042 21.9492 6.21375 21.7321 6.6075 21.3388C7.00125 20.9454 7.2175 20.4225 7.2175 19.8658C7.2175 19.4508 7.09667 19.055 6.87208 18.7171L8.39125 17.1979C9.39292 18.075 10.6737 18.6354 12.0833 18.7288V20.8754C11.1337 21.0692 10.4167 21.9104 10.4167 22.9167C10.4167 24.0654 11.3512 25 12.5 25C13.6487 25 14.5833 24.0654 14.5833 22.9167C14.5833 21.9108 13.8663 21.0692 12.9167 20.8754V18.7288C14.3263 18.635 15.6071 18.075 16.6087 17.1979L18.1279 18.7171C17.9037 19.055 17.7825 19.4508 17.7825 19.8658C17.7825 20.4225 17.9996 20.9454 18.3929 21.3388C18.7863 21.7321 19.3092 21.9492 19.8658 21.9492C20.4225 21.9492 20.9458 21.7321 21.3388 21.3388C21.7321 20.9458 21.9492 20.4225 21.9492 19.8658C21.9492 19.3092 21.7321 18.7858 21.3388 18.3929C20.9458 17.9996 20.4225 17.7825 19.8658 17.7825C19.4508 17.7825 19.055 17.9037 18.7171 18.1279L17.1979 16.6087C18.075 15.6071 18.635 14.3263 18.7288 12.9167H20.8754C21.0692 13.8663 21.9104 14.5833 22.9167 14.5833C24.0654 14.5833 25 13.6487 25 12.5C25 11.3512 24.0654 10.4167 22.9167 10.4167ZM2.08333 13.75C1.39417 13.75 0.833333 13.1892 0.833333 12.5C0.833333 11.8108 1.39417 11.25 2.08333 11.25C2.7725 11.25 3.33333 11.8108 3.33333 12.5C3.33333 13.1892 2.7725 13.75 2.08333 13.75ZM18.9821 4.25042C19.2179 4.01458 19.5317 3.88417 19.8658 3.88417C20.2 3.88417 20.5138 4.01417 20.7496 4.25042C20.9854 4.48667 21.1158 4.8 21.1158 5.13417C21.1158 5.46833 20.9858 5.78208 20.7496 6.01792C20.2775 6.49 19.4542 6.49 18.9821 6.01792C18.7463 5.78208 18.6158 5.46833 18.6158 5.13417C18.6158 4.8 18.7458 4.48625 18.9821 4.25042ZM11.25 2.08333C11.25 1.39417 11.8108 0.833333 12.5 0.833333C13.1892 0.833333 13.75 1.39417 13.75 2.08333C13.75 2.7725 13.1892 3.33333 12.5 3.33333C11.8108 3.33333 11.25 2.7725 11.25 2.08333ZM4.25042 6.01792C4.01417 5.78208 3.88417 5.46833 3.88417 5.13417C3.88417 4.45292 4.45375 3.88417 5.13417 3.88417C5.81417 3.88417 6.38417 4.45458 6.38417 5.13417C6.38417 5.46833 6.25417 5.78208 6.01833 6.01792C5.54625 6.48958 4.72333 6.49042 4.25042 6.01792ZM6.01833 20.7492C5.54625 21.2208 4.72333 21.2217 4.25042 20.7492C3.76833 20.2675 3.76875 19.4629 4.25042 18.9817C4.73208 18.5004 5.53792 18.5017 6.01833 18.9817C6.25417 19.2175 6.38417 19.5312 6.38417 19.8654C6.38417 20.1996 6.25417 20.5133 6.01833 20.7492ZM13.75 22.9163C13.75 23.6054 13.1892 24.1663 12.5 24.1663C11.8108 24.1663 11.25 23.6054 11.25 22.9163C11.25 22.2271 11.8108 21.6663 12.5 21.6663C13.1892 21.6663 13.75 22.2271 13.75 22.9163ZM20.7454 18.9854C21.2288 19.4687 21.2333 20.265 20.7492 20.7492C20.2771 21.2213 19.4537 21.2213 18.9817 20.7492C18.5008 20.2683 18.5017 19.4613 18.9817 18.9817C19.2175 18.7458 19.5312 18.6154 19.8654 18.6154C20.2054 18.6154 20.5179 18.7579 20.7454 18.9854ZM12.5 17.9163C9.51333 17.9163 7.08333 15.4862 7.08333 12.4996C7.08333 9.51292 9.51333 7.08292 12.5 7.08292C15.4867 7.08292 17.9167 9.51292 17.9167 12.4996C17.9167 15.4862 15.4867 17.9163 12.5 17.9163ZM22.9167 13.7496C22.2275 13.7496 21.6667 13.1888 21.6667 12.4996C21.6667 11.8104 22.2275 11.2496 22.9167 11.2496C23.6058 11.2496 24.1667 11.8104 24.1667 12.4996C24.1667 13.1888 23.6058 13.7496 22.9167 13.7496Z" fill="white"/>
<path d="M12.5 8.75C11.1213 8.75 10 9.87125 10 11.25C10 11.4804 10.1867 11.6667 10.4167 11.6667C10.6467 11.6667 10.8333 11.4804 10.8333 11.25C10.8333 10.3308 11.5808 9.58333 12.5 9.58333C13.4192 9.58333 14.1667 10.3308 14.1667 11.25C14.1667 12.1692 13.4192 12.9167 12.5 12.9167C12.27 12.9167 12.0833 13.1029 12.0833 13.3333V14.1667C12.0833 14.3971 12.27 14.5833 12.5 14.5833C12.73 14.5833 12.9167 14.3971 12.9167 14.1667V13.7154C14.0975 13.5163 15 12.4867 15 11.25C15 9.87125 13.8788 8.75 12.5 8.75Z" fill="white"/>
<path d="M12.5002 15.413C12.2702 15.413 12.0835 15.603 12.0835 15.8334C12.0835 16.0638 12.2702 16.25 12.5002 16.25C12.7302 16.25 12.9168 16.0638 12.9168 15.8334V15.8255C12.9168 15.595 12.7302 15.413 12.5002 15.413Z" fill="white"/>
</g>
<defs>
<clipPath id="clip0_1_20152">
<rect width="25" height="25" fill="white"/>
</clipPath>
</defs>
</svg>
