<svg width="25" height="25" viewBox="0 0 25 25" fill="none" xmlns="http://www.w3.org/2000/svg">
<g clip-path="url(#clip0_1_20125)">
<path d="M12.5002 4.58337C8.13475 4.58337 4.5835 8.13462 4.5835 12.5C4.5835 16.8655 8.13475 20.4167 12.5002 20.4167C16.8656 20.4167 20.4168 16.8655 20.4168 12.5C20.4168 8.13462 16.8656 4.58337 12.5002 4.58337ZM12.5002 19.5834C8.59433 19.5834 5.41683 16.4059 5.41683 12.5C5.41683 8.59421 8.59433 5.41671 12.5002 5.41671C16.406 5.41671 19.5835 8.59421 19.5835 12.5C19.5835 16.4059 16.406 19.5834 12.5002 19.5834Z" fill="white"/>
<path d="M24.2636 10.1712L22.3344 9.06875C22.2044 8.69583 22.0519 8.32875 21.8799 7.97208L22.4644 5.82792C22.6019 5.32333 22.4574 4.78042 22.0882 4.41167L20.5878 2.91083C20.2178 2.54125 19.6753 2.39625 19.1711 2.53458L17.0269 3.11917C16.6707 2.94708 16.3032 2.795 15.9303 2.66458L14.8278 0.735417C14.5694 0.282083 14.0836 0 13.5607 0H11.4382C10.9153 0 10.4294 0.282083 10.1707 0.735833L9.06819 2.665C8.69527 2.795 8.32819 2.9475 7.97152 3.11958L5.82736 2.535C5.32444 2.39708 4.77986 2.54167 4.41111 2.91125L2.91027 4.41167C2.54069 4.78125 2.39652 5.32375 2.53402 5.82833L3.11861 7.9725C2.94652 8.32875 2.79444 8.69625 2.66402 9.06917L0.734857 10.1717C0.281107 10.4304 -0.000976562 10.9162 -0.000976562 11.4392V13.5617C-0.000976562 14.0846 0.281107 14.5704 0.734857 14.8292L2.66402 15.9317C2.79402 16.3046 2.94652 16.6717 3.11861 17.0283L2.53402 19.1725C2.39652 19.6767 2.54111 20.2196 2.91027 20.5887L4.41069 22.0896C4.78027 22.4592 5.32319 22.6042 5.82736 22.4658L7.97152 21.8812C8.32777 22.0533 8.69527 22.2054 9.06819 22.3358L10.1707 24.265C10.4294 24.7187 10.9153 25.0008 11.4382 25.0008H13.5607C14.0836 25.0008 14.5694 24.7187 14.8282 24.265L15.9307 22.3358C16.3036 22.2058 16.6707 22.0533 17.0274 21.8812L19.1715 22.4658C19.6736 22.6029 20.2186 22.4592 20.5878 22.0896L22.0886 20.5887C22.4582 20.2192 22.6024 19.6767 22.4649 19.1725L21.8803 17.0283C22.0524 16.6721 22.2044 16.3046 22.3349 15.9317L24.264 14.8292C24.7178 14.5704 24.9999 14.0846 24.9999 13.5617V11.4392C24.9999 10.9162 24.7178 10.4308 24.264 10.1717L24.2636 10.1712ZM24.1661 13.5612C24.1661 13.7854 24.0453 13.9942 23.8503 14.1054L21.784 15.2862C21.6949 15.3371 21.6274 15.4192 21.5953 15.5171C21.4503 15.9546 21.2719 16.3854 21.0644 16.7983C21.0186 16.8904 21.0078 16.9962 21.0349 17.095L21.6611 19.3912C21.7203 19.6079 21.6582 19.8408 21.4994 19.9996L19.9982 21.5004C19.8407 21.6592 19.609 21.7212 19.3903 21.6621L17.094 21.0358C16.9957 21.0096 16.8894 21.02 16.7974 21.0654C16.3844 21.2729 15.9536 21.4517 15.5161 21.5962C15.4186 21.6283 15.3361 21.6958 15.2853 21.785L14.1044 23.8512C13.9932 24.0462 13.7844 24.1671 13.5603 24.1671H11.4378C11.2136 24.1671 11.0049 24.0462 10.8936 23.8512L9.71277 21.785C9.66194 21.6958 9.57986 21.6283 9.48194 21.5962C9.04444 21.4512 8.61361 21.2729 8.20069 21.0654C8.14194 21.0362 8.07777 21.0212 8.01361 21.0212C7.97694 21.0212 7.93986 21.0262 7.90402 21.0358L5.60777 21.6621C5.39069 21.7208 5.15819 21.6592 4.99944 21.5004L3.49861 19.9996C3.33986 19.8408 3.27819 19.6079 3.33694 19.3912L3.96319 17.095C3.98986 16.9962 3.97944 16.8904 3.93361 16.7983C3.72611 16.3854 3.54736 15.9546 3.40277 15.5171C3.37069 15.4196 3.30319 15.3371 3.21402 15.2862L1.14777 14.1054C0.952773 13.9942 0.83194 13.7854 0.83194 13.5612V11.4387C0.83194 11.2146 0.952773 11.0058 1.14777 10.8946L3.21402 9.71375C3.30319 9.66292 3.37069 9.58083 3.40277 9.48292C3.54777 9.04542 3.72611 8.61458 3.93361 8.20167C3.97944 8.10958 3.99027 8.00375 3.96319 7.905L3.33694 5.60875C3.27777 5.39167 3.33986 5.15917 3.49861 5.00042L4.99986 3.49958C5.15777 3.34083 5.38902 3.27917 5.60777 3.33792L7.90402 3.96417C8.00277 3.99125 8.10861 3.98083 8.20069 3.93458C8.61361 3.72708 9.04444 3.54833 9.48194 3.40375C9.57944 3.37167 9.66194 3.30417 9.71277 3.215L10.8936 1.14875C11.0049 0.95375 11.2136 0.832917 11.4378 0.832917H13.5603C13.7844 0.832917 13.9932 0.95375 14.1044 1.14875L15.2853 3.215C15.3361 3.30417 15.4182 3.37167 15.5161 3.40375C15.9536 3.54875 16.3844 3.72708 16.7974 3.93458C16.8894 3.98042 16.9953 3.99125 17.094 3.96417L19.3903 3.33792C19.6082 3.28 19.8403 3.34125 19.9986 3.49958L21.4994 5.00083C21.6582 5.15917 21.7199 5.39167 21.6611 5.60875L21.0349 7.905C21.0082 8.00375 21.0186 8.10958 21.0644 8.20167C21.2719 8.61458 21.4507 9.04542 21.5953 9.48292C21.6274 9.58042 21.6949 9.66292 21.784 9.71375L23.8503 10.8946C24.0453 11.0058 24.1661 11.2146 24.1661 11.4387V13.5612Z" fill="white"/>
<path d="M12.5 6.25C9.05375 6.25 6.25 9.05375 6.25 12.5C6.25 15.9462 9.05375 18.75 12.5 18.75C15.9462 18.75 18.75 15.9462 18.75 12.5C18.75 9.05375 15.9462 6.25 12.5 6.25ZM12.5 17.9167C9.51333 17.9167 7.08333 15.4867 7.08333 12.5C7.08333 9.51333 9.51333 7.08333 12.5 7.08333C15.4867 7.08333 17.9167 9.51333 17.9167 12.5C17.9167 15.4867 15.4867 17.9167 12.5 17.9167Z" fill="white"/>
<path d="M12.9164 12.1412V10.0196C13.9485 10.1112 14.3906 10.5383 14.6598 10.9179C14.7931 11.1058 15.0527 11.1496 15.241 11.0171C15.4285 10.8841 15.4735 10.6241 15.3402 10.4358C14.7935 9.66414 14.0156 9.26205 12.9168 9.18289V8.74955C12.9168 8.51914 12.7306 8.33289 12.5002 8.33289C12.2698 8.33289 12.0835 8.51914 12.0835 8.74955V9.18664C10.6531 9.3133 9.58351 10.0812 9.58351 11.0412C9.58351 12.3621 10.8902 12.6733 12.0835 12.8583V14.98C11.0514 14.8883 10.6093 14.4612 10.3402 14.0816C10.2073 13.8937 9.94726 13.8496 9.75893 13.9825C9.57143 14.1154 9.52643 14.3754 9.65976 14.5637C10.2064 15.3354 10.9843 15.7375 12.0831 15.8166V16.25C12.0831 16.4804 12.2693 16.6666 12.4998 16.6666C12.7302 16.6666 12.9164 16.4804 12.9164 16.25V15.8129C14.3468 15.6862 15.4164 14.9183 15.4164 13.9583C15.4164 12.6375 14.1098 12.3262 12.9164 12.1412ZM10.4164 11.0416C10.4164 10.6071 11.0835 10.13 12.0831 10.0233V12.015C11.0356 11.8433 10.4164 11.6396 10.4164 11.0416ZM12.9164 14.9766V12.985C13.9639 13.1566 14.5831 13.36 14.5831 13.9579C14.5831 14.3925 13.916 14.87 12.9164 14.9766Z" fill="white"/>
</g>
<defs>
<clipPath id="clip0_1_20125">
<rect width="25" height="25" fill="white"/>
</clipPath>
</defs>
</svg>
