<svg width="25" height="25" viewBox="0 0 25 25" fill="none" xmlns="http://www.w3.org/2000/svg">
<g clip-path="url(#clip0_1_20133)">
<path d="M6.86067 14.4679C8.05898 15.57 8.74361 17.1218 8.74984 18.7499C8.12368 18.749 7.59393 19.2126 7.51175 19.8334C7.42956 20.4541 7.82043 21.0395 8.42525 21.2016C8.26885 21.5863 8.31445 22.0237 8.54684 22.3679C8.77924 22.7121 9.16787 22.9179 9.58317 22.9166H10.0373C10.2396 24.119 11.2806 24.9995 12.4998 24.9995C13.7191 24.9995 14.7601 24.119 14.9623 22.9166H15.4165C15.8319 22.918 16.2206 22.7123 16.4531 22.3681C16.6856 22.0239 16.7313 21.5864 16.5748 21.2016C17.1797 21.0395 17.5706 20.454 17.4883 19.8331C17.406 19.2123 16.8761 18.7488 16.2498 18.7499C16.2611 17.1157 16.9508 15.5596 18.154 14.4537C20.5481 12.2426 21.4337 8.83886 20.4207 5.74137C19.4076 2.64388 16.682 0.421145 13.444 0.0520298C11.0847 -0.215804 8.72318 0.535045 6.95179 2.11622C5.1804 3.69739 4.16725 5.95885 4.1665 8.33328C4.1688 10.6646 5.14561 12.8888 6.86067 14.4679ZM12.4998 24.1666C11.7422 24.1638 11.0818 23.6502 10.8923 22.9166H14.1073C13.9179 23.6502 13.2575 24.1638 12.4998 24.1666ZM15.4165 22.0833H9.58317C9.35305 22.0833 9.1665 21.8967 9.1665 21.6666C9.1665 21.4365 9.35305 21.2499 9.58317 21.2499H15.4165C15.6466 21.2499 15.8332 21.4365 15.8332 21.6666C15.8332 21.8967 15.6466 22.0833 15.4165 22.0833ZM16.6665 19.9999C16.6665 20.2301 16.48 20.4166 16.2498 20.4166H8.74984C8.51972 20.4166 8.33317 20.2301 8.33317 19.9999C8.33317 19.7698 8.51972 19.5833 8.74984 19.5833H16.2498C16.48 19.5833 16.6665 19.7698 16.6665 19.9999ZM7.49984 2.74536C9.59359 0.870595 12.5598 0.32372 15.1844 1.32855C17.8091 2.33339 19.6517 4.72127 19.9582 7.51495C20.2236 9.88098 19.3438 12.2316 17.5903 13.842C16.2157 15.1052 15.4282 16.8831 15.4165 18.7499H9.58317C9.5766 16.8886 8.79425 15.1143 7.42442 13.8541C5.86725 12.4219 4.98742 10.3986 5.00178 8.28304C5.01614 6.16743 5.92337 4.1563 7.49984 2.74536Z" fill="white"/>
<path d="M7.91667 9.07409V11.6666C7.91667 12.3569 8.47631 12.9166 9.16667 12.9166H15.8333C16.5237 12.9166 17.0833 12.3569 17.0833 11.6666V9.07367C17.348 8.83783 17.4996 8.50029 17.5 8.14575V6.24992C17.5 5.55956 16.9404 4.99992 16.25 4.99992H15V4.58325C15 3.8929 14.4404 3.33325 13.75 3.33325H11.25C10.5596 3.33325 10 3.8929 10 4.58325V4.99992H8.75C8.05964 4.99992 7.5 5.55956 7.5 6.24992V8.14575C7.50048 8.50039 7.65202 8.83802 7.91667 9.07409ZM15.8333 12.0833H9.16667C8.93655 12.0833 8.75 11.8967 8.75 11.6666V9.43825L11.25 10.122V10.4166C11.25 10.8768 11.6231 11.2499 12.0833 11.2499H12.9167C13.3769 11.2499 13.75 10.8768 13.75 10.4166V10.122L16.25 9.43825V11.6666C16.25 11.8967 16.0635 12.0833 15.8333 12.0833ZM12.0833 10.4166V9.58325H12.9167V10.4166H12.0833ZM10.8333 4.58325C10.8333 4.35313 11.0199 4.16659 11.25 4.16659H13.75C13.9801 4.16659 14.1667 4.35313 14.1667 4.58325V4.99992H10.8333V4.58325ZM8.33333 6.24992C8.33333 6.0198 8.51988 5.83325 8.75 5.83325H16.25C16.4801 5.83325 16.6667 6.0198 16.6667 6.24992L16.6667 8.14575C16.6674 8.33257 16.5418 8.49629 16.3612 8.54409L13.6892 9.27492C13.5631 8.9585 13.2573 8.75061 12.9167 8.74992H12.0833C11.7427 8.75061 11.4369 8.9585 11.3108 9.27492L8.63583 8.54159C8.45687 8.49356 8.33267 8.33105 8.33333 8.14575L8.33333 6.24992Z" fill="white"/>
<path d="M24.5832 7.91663H22.0832C21.8531 7.91663 21.6665 8.10317 21.6665 8.33329C21.6665 8.56341 21.8531 8.74996 22.0832 8.74996H24.5832C24.8133 8.74996 24.9998 8.56341 24.9998 8.33329C24.9998 8.10317 24.8133 7.91663 24.5832 7.91663Z" fill="white"/>
<path d="M21.3503 5.94657C21.3991 6.12857 21.564 6.25516 21.7524 6.25532C21.7893 6.25516 21.826 6.25026 21.8616 6.24074L24.2753 5.58991C24.419 5.55105 24.5311 5.43848 24.5693 5.29458C24.6076 5.15068 24.5661 4.99733 24.4606 4.89229C24.3551 4.78725 24.2015 4.74647 24.0578 4.78532L21.6441 5.43616C21.4221 5.4961 21.2906 5.72453 21.3503 5.94657Z" fill="white"/>
<path d="M20.7848 3.93248C20.858 3.93223 20.9299 3.91268 20.9932 3.87582L23.1544 2.61873C23.2866 2.54565 23.3689 2.40672 23.3695 2.25565C23.3701 2.10458 23.2888 1.96504 23.1572 1.89095C23.0255 1.81686 22.8641 1.81984 22.7352 1.89873L20.5748 3.1554C20.412 3.24988 20.3327 3.44185 20.3814 3.62371C20.4302 3.80558 20.5949 3.93215 20.7832 3.93248H20.7848Z" fill="white"/>
<path d="M24.2752 11.0767L21.8614 10.4258C21.7177 10.387 21.5642 10.4277 21.4587 10.5328C21.3531 10.6378 21.3117 10.7912 21.3499 10.9351C21.3881 11.079 21.5002 11.1916 21.6439 11.2304L24.0577 11.8812C24.0931 11.8909 24.1297 11.8958 24.1664 11.8958C24.3757 11.8961 24.5527 11.7412 24.5801 11.5338C24.6075 11.3264 24.4769 11.1308 24.2748 11.0767H24.2752Z" fill="white"/>
<path d="M22.7357 14.7678C22.8645 14.8467 23.0259 14.8497 23.1576 14.7756C23.2893 14.7015 23.3705 14.562 23.3699 14.4109C23.3693 14.2598 23.287 14.1209 23.1548 14.0478L20.9936 12.7916C20.7946 12.6758 20.5395 12.7433 20.4238 12.9422C20.308 13.1412 20.3755 13.3963 20.5744 13.512L22.7357 14.7678Z" fill="white"/>
<path d="M0.416667 8.74996H2.91667C3.14679 8.74996 3.33333 8.56341 3.33333 8.33329C3.33333 8.10317 3.14679 7.91663 2.91667 7.91663H0.416667C0.186548 7.91663 0 8.10317 0 8.33329C0 8.56341 0.186548 8.74996 0.416667 8.74996Z" fill="white"/>
<path d="M0.724589 5.59L3.13834 6.24083C3.17395 6.25036 3.21064 6.25526 3.24751 6.25542C3.45674 6.25572 3.63375 6.10081 3.66119 5.89338C3.68862 5.68595 3.55796 5.49035 3.35584 5.43625L0.942089 4.78542C0.71991 4.72536 0.491109 4.85678 0.431048 5.07896C0.370987 5.30114 0.50241 5.52994 0.724589 5.59Z" fill="white"/>
<path d="M1.84498 2.61873L4.00623 3.87498C4.20517 3.99073 4.46027 3.9233 4.57602 3.72436C4.69177 3.52542 4.62433 3.27032 4.42539 3.15457L2.26414 1.89873C2.13531 1.81984 1.97386 1.81686 1.84221 1.89095C1.71055 1.96504 1.62931 2.10458 1.62989 2.25565C1.63046 2.40672 1.71276 2.54565 1.84498 2.61873Z" fill="white"/>
<path d="M3.13826 10.4258L0.724505 11.0766C0.522306 11.1307 0.391637 11.3265 0.419184 11.534C0.44673 11.7415 0.62394 11.8963 0.833255 11.8958C0.870133 11.8958 0.90685 11.8909 0.942422 11.8812L3.35617 11.2304C3.57835 11.1703 3.70977 10.9415 3.64971 10.7193C3.58965 10.4972 3.36044 10.3657 3.13826 10.4258Z" fill="white"/>
<path d="M1.69418 14.6175C1.74979 14.713 1.8411 14.7826 1.94801 14.8108C2.05492 14.839 2.16866 14.8236 2.26418 14.7679L4.42543 13.5112C4.61482 13.3913 4.67544 13.1431 4.56262 12.9494C4.4498 12.7558 4.20397 12.686 4.00627 12.7916L1.84502 14.0479C1.64609 14.1635 1.57857 14.4185 1.69418 14.6175Z" fill="white"/>
</g>
<defs>
<clipPath id="clip0_1_20133">
<rect width="25" height="25" fill="white"/>
</clipPath>
</defs>
</svg>
