<svg width="25" height="25" viewBox="0 0 25 25" fill="none" xmlns="http://www.w3.org/2000/svg">
<g clip-path="url(#clip0_1_20159)">
<path d="M0.416667 12.3842V24.1667C0.416667 24.3877 0.504464 24.5996 0.660744 24.7559C0.817025 24.9122 1.02899 25 1.25 25H23.75C23.971 25 24.183 24.9122 24.3393 24.7559C24.4955 24.5996 24.5833 24.3877 24.5833 24.1667V12.3842C24.7096 12.3116 24.8146 12.2071 24.8877 12.0812C24.9608 11.9552 24.9996 11.8123 25 11.6667V10.4167C25 10.1956 24.9122 9.98368 24.7559 9.8274C24.5996 9.67112 24.3877 9.58332 24.1667 9.58332H17.9167V6.26374L18.5546 6.66249C18.7755 6.80023 19.0421 6.84473 19.2958 6.78622C19.5495 6.72772 19.7696 6.57099 19.9079 6.35041L20.2679 5.77499C20.4052 5.55404 20.4495 5.28769 20.3909 5.03422C20.3323 4.78075 20.1758 4.5608 19.9554 4.42249L13.1996 0.199989C12.9892 0.0702771 12.7469 0.00158691 12.4998 0.00158691C12.2526 0.00158691 12.0104 0.0702771 11.8 0.199989L5.045 4.42249C4.82446 4.56073 4.66773 4.78076 4.60915 5.03437C4.55057 5.28797 4.59493 5.55445 4.7325 5.77541L5.09208 6.35041C5.16042 6.4598 5.24964 6.55465 5.35465 6.62955C5.45966 6.70444 5.5784 6.75791 5.70408 6.78689C5.82976 6.81588 5.95992 6.81981 6.08713 6.79846C6.21433 6.77711 6.33608 6.73091 6.44542 6.66249L7.08333 6.26374V9.58332H0.833333C0.61232 9.58332 0.400358 9.67112 0.244078 9.8274C0.0877974 9.98368 0 10.1956 0 10.4167L0 11.6667C0.000439144 11.8123 0.039168 11.9552 0.112301 12.0812C0.185434 12.2071 0.2904 12.3116 0.416667 12.3842ZM1.25 12.5H7.08333V24.1667H1.25V12.5ZM14.1667 24.1667H10.8333V19.5833H14.1667V24.1667ZM17.9167 24.1667V12.5H23.75V24.1667H17.9167ZM24.1667 10.4167V11.6667H17.9167V10.4167H24.1667ZM6.00333 5.95832C5.96979 5.979 5.92945 5.98561 5.89107 5.97671C5.85268 5.96782 5.81936 5.94414 5.79833 5.91082L5.43958 5.33332C5.41865 5.29989 5.41185 5.25952 5.42068 5.22107C5.4295 5.18263 5.45324 5.14927 5.48667 5.12832L12.2417 0.907489C12.3192 0.859397 12.4086 0.833914 12.4998 0.833914C12.591 0.833914 12.6804 0.859397 12.7579 0.907489L19.5138 5.12957C19.547 5.15043 19.5707 5.18365 19.5795 5.22192C19.5883 5.2602 19.5816 5.30041 19.5608 5.33374L19.2017 5.90874C19.1807 5.94215 19.1474 5.9659 19.109 5.9748C19.0706 5.9837 19.0302 5.97703 18.9967 5.95624L12.7208 2.03416C12.6546 1.99277 12.5781 1.97082 12.5 1.97082C12.4219 1.97082 12.3454 1.99277 12.2792 2.03416L6.00333 5.95832ZM12.5 2.87874L17.0833 5.74291V24.1667H15V19.5833C15 19.3623 14.9122 19.1503 14.7559 18.9941C14.5996 18.8378 14.3877 18.75 14.1667 18.75H10.8333C10.6123 18.75 10.4004 18.8378 10.2441 18.9941C10.0878 19.1503 10 19.3623 10 19.5833V24.1667H7.91667V5.74291L12.5 2.87874ZM0.833333 10.4167H7.08333V11.6667H0.833333V10.4167Z" fill="white"/>
<path d="M5 13.75H3.33333C3.11232 13.75 2.90036 13.8378 2.74408 13.9941C2.5878 14.1504 2.5 14.3623 2.5 14.5833V16.25C2.5 16.471 2.5878 16.683 2.74408 16.8393C2.90036 16.9955 3.11232 17.0833 3.33333 17.0833H5C5.22101 17.0833 5.43298 16.9955 5.58926 16.8393C5.74554 16.683 5.83333 16.471 5.83333 16.25V14.5833C5.83333 14.3623 5.74554 14.1504 5.58926 13.9941C5.43298 13.8378 5.22101 13.75 5 13.75ZM3.33333 16.25V14.5833H5V16.25H3.33333Z" fill="white"/>
<path d="M9.58333 17.0833H11.25C11.471 17.0833 11.683 16.9955 11.8393 16.8393C11.9955 16.683 12.0833 16.471 12.0833 16.25V14.5833C12.0833 14.3623 11.9955 14.1504 11.8393 13.9941C11.683 13.8378 11.471 13.75 11.25 13.75H9.58333C9.36232 13.75 9.15036 13.8378 8.99408 13.9941C8.8378 14.1504 8.75 14.3623 8.75 14.5833V16.25C8.75 16.471 8.8378 16.683 8.99408 16.8393C9.15036 16.9955 9.36232 17.0833 9.58333 17.0833ZM9.58333 14.5833H11.25V16.25H9.58333V14.5833Z" fill="white"/>
<path d="M15.4165 13.75H13.7498C13.5288 13.75 13.3169 13.8378 13.1606 13.9941C13.0043 14.1504 12.9165 14.3623 12.9165 14.5833V16.25C12.9165 16.471 13.0043 16.683 13.1606 16.8393C13.3169 16.9955 13.5288 17.0833 13.7498 17.0833H15.4165C15.6375 17.0833 15.8495 16.9955 16.0058 16.8393C16.162 16.683 16.2498 16.471 16.2498 16.25V14.5833C16.2498 14.3623 16.162 14.1504 16.0058 13.9941C15.8495 13.8378 15.6375 13.75 15.4165 13.75ZM13.7498 16.25V14.5833H15.4165V16.25H13.7498Z" fill="white"/>
<path d="M5 18.75H3.33333C3.11232 18.75 2.90036 18.8378 2.74408 18.9941C2.5878 19.1504 2.5 19.3623 2.5 19.5833V21.25C2.5 21.471 2.5878 21.683 2.74408 21.8393C2.90036 21.9955 3.11232 22.0833 3.33333 22.0833H5C5.22101 22.0833 5.43298 21.9955 5.58926 21.8393C5.74554 21.683 5.83333 21.471 5.83333 21.25V19.5833C5.83333 19.3623 5.74554 19.1504 5.58926 18.9941C5.43298 18.8378 5.22101 18.75 5 18.75ZM3.33333 21.25V19.5833H5V21.25H3.33333Z" fill="white"/>
<path d="M21.6665 13.75H19.9998C19.7788 13.75 19.5669 13.8378 19.4106 13.9941C19.2543 14.1504 19.1665 14.3623 19.1665 14.5833V16.25C19.1665 16.471 19.2543 16.683 19.4106 16.8393C19.5669 16.9955 19.7788 17.0833 19.9998 17.0833H21.6665C21.8875 17.0833 22.0995 16.9955 22.2558 16.8393C22.412 16.683 22.4998 16.471 22.4998 16.25V14.5833C22.4998 14.3623 22.412 14.1504 22.2558 13.9941C22.0995 13.8378 21.8875 13.75 21.6665 13.75ZM21.6665 16.25H19.9998V14.5833H21.6665V16.25Z" fill="white"/>
<path d="M21.6665 18.75H19.9998C19.7788 18.75 19.5669 18.8378 19.4106 18.9941C19.2543 19.1504 19.1665 19.3623 19.1665 19.5833V21.25C19.1665 21.471 19.2543 21.683 19.4106 21.8393C19.5669 21.9955 19.7788 22.0833 19.9998 22.0833H21.6665C21.8875 22.0833 22.0995 21.9955 22.2558 21.8393C22.412 21.683 22.4998 21.471 22.4998 21.25V19.5833C22.4998 19.3623 22.412 19.1504 22.2558 18.9941C22.0995 18.8378 21.8875 18.75 21.6665 18.75ZM21.6665 21.25H19.9998V19.5833H21.6665V21.25Z" fill="white"/>
<path d="M12.5 12.5C13.2417 12.5 13.9667 12.2801 14.5834 11.868C15.2001 11.456 15.6807 10.8703 15.9645 10.1851C16.2484 9.49984 16.3226 8.74584 16.1779 8.01841C16.0333 7.29098 15.6761 6.6228 15.1516 6.09835C14.6272 5.5739 13.959 5.21675 13.2316 5.07206C12.5042 4.92736 11.7502 5.00162 11.0649 5.28545C10.3797 5.56928 9.79404 6.04993 9.38199 6.66661C8.96993 7.2833 8.75 8.00832 8.75 8.75C8.7511 9.74423 9.14654 10.6974 9.84957 11.4004C10.5526 12.1035 11.5058 12.4989 12.5 12.5ZM9.61667 9.16667H10.8437C10.8651 9.93128 11.0166 10.6867 11.2917 11.4004C10.8482 11.1975 10.4626 10.8868 10.17 10.4966C9.87745 10.1064 9.68722 9.64922 9.61667 9.16667ZM12.5 5.83333C12.7233 5.83333 13.2442 6.70833 13.3225 8.33333H11.6775C11.7558 6.70833 12.2767 5.83333 12.5 5.83333ZM13.3225 9.16667C13.2442 10.7917 12.7233 11.6667 12.5 11.6667C12.2767 11.6667 11.7558 10.7917 11.6775 9.16667H13.3225ZM13.71 11.4004C13.9845 10.6866 14.1354 9.93119 14.1562 9.16667H15.3833C15.3128 9.64922 15.1225 10.1064 14.83 10.4966C14.5374 10.8868 14.1518 11.1975 13.7083 11.4004H13.71ZM15.3833 8.33333H14.1562C14.1349 7.56872 13.9834 6.81333 13.7083 6.09958C14.1518 6.30251 14.5374 6.61322 14.83 7.0034C15.1225 7.39357 15.3128 7.85078 15.3833 8.33333ZM11.2917 6.09958C11.0166 6.81333 10.8651 7.56872 10.8437 8.33333H9.61667C9.68722 7.85078 9.87745 7.39357 10.17 7.0034C10.4626 6.61322 10.8482 6.30251 11.2917 6.09958Z" fill="white"/>
</g>
<defs>
<clipPath id="clip0_1_20159">
<rect width="25" height="25" fill="white"/>
</clipPath>
</defs>
</svg>
