<svg width="18" height="18" viewBox="0 0 18 18" fill="none" xmlns="http://www.w3.org/2000/svg">
<path d="M1.05 18H0V12.125L5 11.1L7.9 14C8.56667 13.6167 9.1875 13.2042 9.7625 12.7625C10.3375 12.3208 10.8667 11.8583 11.35 11.375C11.8667 10.875 12.35 10.3333 12.8 9.75C13.25 9.16667 13.6583 8.55 14.025 7.9L11.175 5.025L12.1 0H18V1.05C18 3.15 17.55 5.21667 16.65 7.25C15.75 9.28333 14.4667 11.1333 12.8 12.8C11.1333 14.4667 9.27917 15.75 7.2375 16.65C5.19583 17.55 3.13333 18 1.05 18ZM14.975 6C15.225 5.4 15.4333 4.77083 15.6 4.1125C15.7667 3.45417 15.8917 2.75 15.975 2H13.75L13.325 4.35L14.975 6ZM6.025 14.95L4.35 13.275L2 13.75V15.95C2.66667 15.9 3.3375 15.7917 4.0125 15.625C4.6875 15.4583 5.35833 15.2333 6.025 14.95Z" fill="white"/>
</svg>
