<svg width="46" height="46" viewBox="0 0 46 46" fill="none" xmlns="http://www.w3.org/2000/svg">
<g clip-path="url(#clip0_525_10685)">
<path d="M23.0008 32.1998C28.0818 32.1998 32.2008 28.0808 32.2008 22.9998C32.2008 17.9188 28.0818 13.7998 23.0008 13.7998C17.9198 13.7998 13.8008 17.9188 13.8008 22.9998C13.8063 28.0785 17.922 32.1943 23.0008 32.1998ZM23.0008 15.3331C27.235 15.3331 30.6674 18.7656 30.6674 22.9998C30.6674 27.234 27.235 30.6665 23.0008 30.6665C18.7666 30.6665 15.3341 27.234 15.3341 22.9998C15.3388 18.7675 18.7685 15.3378 23.0008 15.3331Z" fill="url(#paint0_linear_525_10685)"/>
<path d="M22.9984 27.5999C25.5389 27.5999 27.5984 25.5404 27.5984 22.9999C27.5984 20.4594 25.5389 18.3999 22.9984 18.3999C20.4579 18.3999 18.3984 20.4594 18.3984 22.9999C18.401 25.5394 20.459 27.5974 22.9984 27.5999ZM22.9984 19.9332C24.6921 19.9332 26.0651 21.3062 26.0651 22.9999C26.0651 24.6936 24.6921 26.0666 22.9984 26.0666C21.3048 26.0666 19.9318 24.6936 19.9318 22.9999C19.9318 21.3062 21.3048 19.9332 22.9984 19.9332Z" fill="url(#paint1_linear_525_10685)"/>
<path d="M7.15095 21.0359C6.58949 21.1783 6.18462 21.6675 6.14968 22.2457C6.13741 22.4956 6.13281 22.7471 6.13281 23.0001C6.13281 23.2531 6.13741 23.5045 6.14968 23.7537C6.1841 24.3326 6.59001 24.8223 7.15248 24.9635L9.71621 25.6044C9.83389 26.2088 9.99375 26.8041 10.1946 27.3862L8.29405 29.22C7.87503 29.6251 7.76929 30.2561 8.03338 30.7756C8.14838 30.9972 8.26951 31.2157 8.39448 31.4319C8.51945 31.6481 8.64748 31.8627 8.77781 32.0713C9.09535 32.5596 9.69424 32.7838 10.2544 32.624L12.8028 31.8934C13.2093 32.3549 13.6446 32.7903 14.1061 33.1967L13.3778 35.7428C13.2186 36.3029 13.443 36.9014 13.9313 37.2187C14.1399 37.3521 14.353 37.4801 14.5684 37.602C14.7839 37.7239 15.0054 37.8496 15.2255 37.9639C15.7453 38.2281 16.3767 38.1227 16.7826 37.704L18.6134 35.8034C19.1955 36.004 19.7908 36.1638 20.3951 36.2818L21.0353 38.8471C21.1777 39.4085 21.6669 39.8134 22.2451 39.8483C22.495 39.8606 22.7465 39.8652 22.9995 39.8652C23.2525 39.8652 23.5039 39.8606 23.7531 39.8483C24.332 39.8135 24.8217 39.4078 24.9637 38.8455L25.6038 36.2818C26.2082 36.1641 26.8036 36.0043 27.3856 35.8034L29.2194 37.704C29.6241 38.1237 30.2556 38.2295 30.775 37.9646C30.9966 37.8496 31.2151 37.7285 31.4313 37.6035C31.6475 37.4786 31.8621 37.3505 32.0707 37.2202C32.5592 36.9028 32.7835 36.3038 32.6234 35.7436L31.8928 33.1967C32.3544 32.7903 32.7897 32.3549 33.1961 31.8934L35.7422 32.6217C36.3023 32.7789 36.8996 32.5549 37.2181 32.0682C37.3515 31.8597 37.4795 31.6465 37.6014 31.4311C37.7233 31.2157 37.849 30.9941 37.9633 30.7741C38.2281 30.2543 38.1226 29.6226 37.7034 29.217L35.8028 27.3862C36.0034 26.8041 36.1633 26.2087 36.2812 25.6044L38.8442 24.9643C39.4068 24.8231 39.813 24.3335 39.8477 23.7545C39.86 23.5045 39.8646 23.2531 39.8646 23.0001C39.8646 22.7471 39.86 22.4956 39.8477 22.2464C39.8129 21.6675 39.4073 21.1778 38.8449 21.0359L36.2827 20.3934C36.1651 19.789 36.0052 19.1937 35.8043 18.6117L37.7049 16.7778C38.1239 16.3727 38.2297 15.7417 37.9656 15.2222C37.8506 15.0007 37.7294 14.7822 37.6045 14.566C37.4795 14.3498 37.3515 14.1351 37.2211 13.9266C36.9041 13.4376 36.3048 13.2132 35.7445 13.3738L33.1961 14.1067C32.7897 13.6452 32.3544 13.2099 31.8928 12.8034L32.6211 10.2573C32.7804 9.69718 32.5559 9.09868 32.0676 8.78145C31.8591 8.64805 31.6459 8.52002 31.4305 8.39812C31.2151 8.27622 30.9935 8.15049 30.7735 8.03625C30.2538 7.77094 29.6217 7.87644 29.2164 8.29615L27.3856 10.1967C26.8035 9.99613 26.2081 9.83627 25.6038 9.71832L24.9637 7.15305C24.8213 6.5916 24.3321 6.18672 23.7539 6.15179C23.2515 6.12649 22.7482 6.12649 22.2458 6.15179C21.6674 6.1864 21.1778 6.59134 21.0353 7.15305L20.3928 9.71679C19.7885 9.83446 19.1931 9.99432 18.6111 10.1952L16.7772 8.29462C16.3725 7.8749 15.741 7.76908 15.2216 8.03395C15.0001 8.14895 14.7816 8.27009 14.5654 8.39505C14.3492 8.52002 14.1345 8.64805 13.926 8.77839C13.4374 9.09577 13.2132 9.6948 13.3732 10.255L14.1061 12.8034C13.6446 13.2099 13.2093 13.6452 12.8028 14.1067L10.2567 13.3784C9.6966 13.2191 9.09811 13.4436 8.78088 13.9319C8.64748 14.1405 8.51945 14.3536 8.39755 14.569C8.27565 14.7845 8.14991 15.006 8.03568 15.2261C7.77089 15.7458 7.87633 16.3776 8.29558 16.7832L10.1961 18.614C9.99555 19.1961 9.8357 19.7914 9.71775 20.3957L7.15095 21.0359ZM11.3599 17.6081L9.47088 15.785C9.55215 15.6316 9.63673 15.4806 9.72465 15.3319C9.81256 15.1831 9.89945 15.0369 9.98531 14.8933L12.5153 15.6163C13.0112 15.756 13.5431 15.5957 13.8792 15.2054C14.2881 14.7305 14.7314 14.2865 15.2055 13.8767C15.596 13.5413 15.7563 13.0098 15.6165 12.5144L14.8927 9.98435C15.0361 9.89542 15.1833 9.80879 15.3336 9.72215C15.4838 9.63552 15.6333 9.55119 15.7844 9.46992L17.609 11.3605C17.9704 11.7301 18.5136 11.8558 19.0005 11.6825C19.5868 11.4739 20.1888 11.3121 20.8007 11.1988C21.3108 11.1075 21.7207 10.727 21.8495 10.2251L22.4866 7.67515C22.8277 7.66289 23.1766 7.66289 23.5154 7.67515L24.1525 10.2266C24.2808 10.7276 24.6894 11.1077 25.1983 11.1995C25.8112 11.3134 26.4142 11.4757 27.0015 11.6848C27.4889 11.8573 28.0321 11.7307 28.393 11.3605L30.2161 9.47145C30.3694 9.55272 30.5205 9.63731 30.6692 9.72522C30.8179 9.81313 30.9641 9.90002 31.1077 9.98589L30.3848 12.5159C30.2443 13.0118 30.4047 13.5441 30.7957 13.8798C31.27 14.2888 31.7136 14.7321 32.1228 15.2061C32.4592 15.5951 32.9898 15.7551 33.4852 15.6171L36.0152 14.8933C36.1041 15.0367 36.1907 15.1839 36.2774 15.3342C36.364 15.4844 36.4483 15.6339 36.5296 15.785L34.639 17.6096C34.2698 17.9711 34.1441 18.5142 34.317 19.0011C34.5256 19.5874 34.6874 20.1894 34.8008 20.8013C34.892 21.3113 35.2725 21.7212 35.7744 21.8501L38.3244 22.4872C38.3305 22.6581 38.3328 22.8291 38.3328 23.0016C38.3328 23.1741 38.3328 23.3443 38.3244 23.5153L35.7729 24.1531C35.272 24.2814 34.8918 24.69 34.8 25.1989C34.6861 25.8118 34.5238 26.4147 34.3147 27.0021C34.1426 27.4895 34.2691 28.0325 34.639 28.3936L36.5281 30.2167C36.4468 30.37 36.3622 30.5211 36.2743 30.6698C36.1864 30.8185 36.0995 30.9647 36.0136 31.1083L33.4836 30.3854C32.9878 30.2451 32.4556 30.4054 32.1197 30.7963C31.7108 31.2706 31.2675 31.7141 30.7934 32.1234C30.403 32.4588 30.2426 32.9904 30.3825 33.4858L31.1062 36.0158C30.9628 36.1047 30.8156 36.1913 30.6654 36.278C30.5151 36.3646 30.3656 36.4489 30.2146 36.5302L28.3899 34.6396C28.0284 34.2704 27.4854 34.1447 26.9984 34.3176C26.4121 34.5262 25.8102 34.688 25.1983 34.8014C24.6882 34.8926 24.2783 35.2731 24.1495 35.775L23.5124 38.325C23.1712 38.3372 22.8224 38.3372 22.4835 38.325L21.8495 35.7735C21.7212 35.2726 21.3126 34.8924 20.8037 34.8006C20.1908 34.6867 19.5879 34.5244 19.0005 34.3153C18.5132 34.1428 17.9699 34.2694 17.609 34.6396L15.7859 36.5287C15.6326 36.4474 15.4815 36.3628 15.3328 36.2749C15.1841 36.187 15.0379 36.1001 14.8943 36.0142L15.6172 33.4842C15.7577 32.9884 15.5973 32.456 15.2063 32.1203C14.731 31.7115 14.2864 31.2682 13.8761 30.794C13.5402 30.4044 13.0092 30.2442 12.5138 30.3831L9.98378 31.1068C9.89485 30.9634 9.80821 30.8162 9.72158 30.666C9.63495 30.5157 9.55061 30.3662 9.46935 30.2152L11.3599 28.3905C11.7292 28.029 11.8548 27.4859 11.6819 26.999C11.4733 26.4127 11.3115 25.8108 11.1982 25.1989C11.107 24.6888 10.7264 24.2789 10.2245 24.1501L7.67458 23.5122C7.66615 23.3428 7.66615 23.1726 7.66615 23.0001C7.66615 22.8276 7.66615 22.6566 7.67458 22.4856L10.226 21.8485C10.727 21.7203 11.1071 21.3117 11.1989 20.8028C11.3129 20.1899 11.4751 19.5869 11.6842 18.9996C11.8564 18.5122 11.7298 17.9692 11.3599 17.6081Z" fill="url(#paint2_linear_525_10685)"/>
<path d="M3.15434 12.9373C3.33235 13.0356 3.54215 13.0592 3.73755 13.0028C3.93295 12.9465 4.09795 12.8148 4.19624 12.6367C4.33424 12.3868 4.4771 12.1402 4.62481 11.8969C4.84414 11.5347 4.72829 11.0632 4.36606 10.8439C4.00383 10.6246 3.53237 10.7404 3.31304 11.1026C3.15511 11.3633 3.00178 11.6278 2.85304 11.8961C2.6489 12.2669 2.78376 12.7329 3.15434 12.9373Z" fill="url(#paint3_linear_525_10685)"/>
<path d="M2.58585 16.3378C2.6661 16.0894 2.7512 15.8433 2.84115 15.5995C2.97517 15.2061 2.77133 14.7776 2.38156 14.6333C1.9918 14.489 1.55807 14.6816 1.40365 15.0675C1.30629 15.3297 1.21429 15.5957 1.12765 15.8625C1.06457 16.0559 1.08091 16.2664 1.17308 16.4477C1.26524 16.629 1.42569 16.7663 1.61909 16.8293C1.69588 16.854 1.77606 16.8667 1.85675 16.8668C2.18868 16.8669 2.48296 16.6534 2.58585 16.3378Z" fill="url(#paint4_linear_525_10685)"/>
<path d="M0.341775 19.035C0.296542 19.298 0.255142 19.5625 0.218342 19.827C0.190152 20.0284 0.243139 20.2327 0.365643 20.3951C0.488146 20.5574 0.670129 20.6644 0.871542 20.6926C0.906828 20.6977 0.942446 20.7003 0.978109 20.7002C1.36027 20.7001 1.68399 20.4186 1.73711 20.0401C1.77238 19.791 1.81378 19.5433 1.85288 19.2988C1.89999 19.0288 1.79951 18.7543 1.5893 18.5785C1.37909 18.4027 1.09107 18.3525 0.83375 18.4466C0.576426 18.5408 0.388887 18.7651 0.341775 19.035Z" fill="url(#paint5_linear_525_10685)"/>
<path d="M23 9.35798e-05C17.3372 -0.0161248 11.8711 2.07628 7.66667 5.86969V3.83343C7.66667 3.41001 7.32342 3.06676 6.9 3.06676C6.47658 3.06676 6.13333 3.41001 6.13333 3.83343V6.90009C6.13384 7.29606 6.28836 7.67631 6.5642 7.96039C6.57263 7.97036 6.5757 7.98339 6.58567 7.99259C6.59563 8.00179 6.61097 8.0064 6.62247 8.01636C6.90466 8.28339 7.27817 8.43257 7.66667 8.43343H10.7333C11.1568 8.43343 11.5 8.09018 11.5 7.66676C11.5 7.24334 11.1568 6.90009 10.7333 6.90009H8.81667C12.7243 3.42895 17.7733 1.51849 23 1.53343C34.8557 1.53343 44.4667 11.1444 44.4667 23.0001C44.4667 34.8558 34.8557 44.4668 23 44.4668C11.1443 44.4668 1.53333 34.8558 1.53333 23.0001C1.53333 22.5767 1.19008 22.2334 0.766667 22.2334C0.343248 22.2334 0 22.5767 0 23.0001C0 35.7026 10.2975 46.0001 23 46.0001C35.7025 46.0001 46 35.7026 46 23.0001C46 10.2975 35.7025 9.35798e-05 23 9.35798e-05Z" fill="url(#paint6_linear_525_10685)"/>
</g>
<defs>
<linearGradient id="paint0_linear_525_10685" x1="13.8008" y1="24.627" x2="32.2008" y2="24.627" gradientUnits="userSpaceOnUse">
<stop stop-color="#A60014"/>
<stop offset="1" stop-color="#600B0E"/>
</linearGradient>
<linearGradient id="paint1_linear_525_10685" x1="18.3984" y1="23.8135" x2="27.5984" y2="23.8135" gradientUnits="userSpaceOnUse">
<stop stop-color="#A60014"/>
<stop offset="1" stop-color="#600B0E"/>
</linearGradient>
<linearGradient id="paint2_linear_525_10685" x1="6.13281" y1="25.9821" x2="39.8646" y2="25.9821" gradientUnits="userSpaceOnUse">
<stop stop-color="#A60014"/>
<stop offset="1" stop-color="#600B0E"/>
</linearGradient>
<linearGradient id="paint3_linear_525_10685" x1="2.75781" y1="12.0863" x2="4.73578" y2="12.0863" gradientUnits="userSpaceOnUse">
<stop stop-color="#A60014"/>
<stop offset="1" stop-color="#600B0E"/>
</linearGradient>
<linearGradient id="paint4_linear_525_10685" x1="1.08984" y1="15.9279" x2="2.8823" y2="15.9279" gradientUnits="userSpaceOnUse">
<stop stop-color="#A60014"/>
<stop offset="1" stop-color="#600B0E"/>
</linearGradient>
<linearGradient id="paint5_linear_525_10685" x1="0.210937" y1="19.7535" x2="1.86431" y2="19.7535" gradientUnits="userSpaceOnUse">
<stop stop-color="#A60014"/>
<stop offset="1" stop-color="#600B0E"/>
</linearGradient>
<linearGradient id="paint6_linear_525_10685" x1="0" y1="27.0681" x2="46" y2="27.0681" gradientUnits="userSpaceOnUse">
<stop stop-color="#A60014"/>
<stop offset="1" stop-color="#600B0E"/>
</linearGradient>
<clipPath id="clip0_525_10685">
<rect width="46" height="46" fill="white"/>
</clipPath>
</defs>
</svg>
