<svg width="48" height="46" viewBox="0 0 48 46" fill="none" xmlns="http://www.w3.org/2000/svg">
<path fill-rule="evenodd" clip-rule="evenodd" d="M39.5212 19.8644H36.992V20.7432H36.9896C36.9897 20.9884 36.8238 21.2152 36.5663 21.2901C36.3095 21.3648 35.7966 21.5542 35.5691 21.6815C35.3371 21.8259 35.0237 21.8005 34.8202 21.6056L34.1714 20.9839L32.3828 22.6978L33.0316 23.3195L33.0301 23.321C33.2109 23.4942 33.2611 23.7668 33.1345 23.9942C33.0092 24.2192 32.7842 24.7021 32.7175 24.9457C32.6604 25.2056 32.4198 25.4008 32.1317 25.4008H31.2147V27.8246H32.1317V27.8268C32.3876 27.8267 32.6243 27.9857 32.7023 28.2325C32.7803 28.4786 32.9781 28.9703 33.1108 29.1881C33.2615 29.4105 33.235 29.7108 33.0316 29.9058L32.3828 30.5275L34.1714 32.2416L34.8202 31.6198L34.8217 31.6213C35.0024 31.448 35.2868 31.3999 35.5241 31.5212C35.759 31.6413 36.2628 31.8569 36.517 31.9208C36.7883 31.9755 36.9919 32.2062 36.9919 32.4822V33.361H39.5211V32.4822H39.5234C39.5233 32.237 39.6893 32.0102 39.9468 31.9354C40.2036 31.8606 40.7165 31.6711 40.9439 31.5439C41.1759 31.3995 41.4893 31.4249 41.6928 31.6198L42.3415 32.2416L44.13 30.5275L43.4813 29.9058L43.4828 29.9044C43.3019 29.7311 43.2518 29.4586 43.3783 29.2312C43.5037 29.0061 43.7287 28.5233 43.7953 28.2796C43.8524 28.0197 44.0931 27.8247 44.3812 27.8247H45.2981V25.4009H44.3812V25.3986C44.1252 25.3987 43.8886 25.2397 43.8105 24.9929C43.7326 24.7468 43.5348 24.2553 43.402 24.0373C43.2514 23.8149 43.2777 23.5146 43.4813 23.3196L44.13 22.6979L42.3415 20.984L41.6928 21.6057L41.6913 21.6042C41.5105 21.7775 41.2261 21.8256 40.9888 21.7043C40.7541 21.5842 40.2501 21.3686 39.9959 21.3047C39.7247 21.25 39.5211 21.0194 39.5211 20.7432V19.8644H39.5212ZM39.9714 24.9694C40.9183 25.8769 40.9183 27.3486 39.9714 28.2561C38.4478 29.7161 35.8316 28.6771 35.8316 26.6128C35.8316 24.5484 38.4478 23.5094 39.9714 24.9694ZM38.2566 23.1412C40.2571 23.1412 41.8791 24.6957 41.8791 26.6128C41.8791 28.5298 40.2571 30.0843 38.2566 30.0843C36.256 30.0843 34.6341 28.5299 34.6341 26.6128C34.6341 24.6956 36.256 23.1412 38.2566 23.1412ZM21.9039 36.957C21.6882 37.1042 21.433 37.0941 21.2104 36.957L15.0173 33.5305C15.0061 33.5252 14.995 33.5195 14.9841 33.5134L8.74847 30.0632C8.54869 29.9702 8.41107 29.7739 8.41107 29.5468V15.6621H8.41247C8.41266 15.4647 8.51944 15.2728 8.7105 15.1668L14.9842 11.6955L14.9847 11.6965L21.2519 8.22893C21.431 8.12686 21.6608 8.11779 21.8543 8.22434L28.1304 11.6955L34.3659 15.1457C34.5657 15.2387 34.7034 15.435 34.7034 15.6622V19.9284L34.9433 20.1029L34.9445 20.1018L35.3648 20.5046L35.7946 20.3339C35.7946 19.8298 35.7191 19.344 36.1632 18.9828C36.3563 18.8176 36.6104 18.7169 36.8875 18.7169H39.6259C40.228 18.7169 40.7188 19.1893 40.7188 19.7643V20.334L41.1486 20.5047C41.5032 20.1649 41.7862 19.7957 42.3417 19.7957C42.6213 19.7957 42.9014 19.8977 43.1145 20.1019L45.0508 21.9575C45.4738 22.3629 45.4794 23.0281 45.0508 23.4387L44.6304 23.8416L44.8085 24.2535C45.3489 24.2535 45.7841 24.1858 46.1753 24.5607C46.3731 24.7503 46.4959 25.0123 46.4959 25.3009V27.9251C46.4959 28.2095 46.3719 28.4785 46.1741 28.6642L46.1754 28.6653C45.7842 29.0402 45.349 28.9726 44.8087 28.9726L44.6304 29.3844C44.9851 29.7243 45.3704 29.9955 45.3704 30.5279C45.3704 30.7916 45.2627 31.0673 45.0497 31.2673L45.0509 31.2685L43.1146 33.1242C42.6869 33.534 41.9868 33.5305 41.5703 33.1231L41.569 33.1243L41.1487 32.7214L40.7189 32.8921C40.7189 33.3958 40.7943 33.8858 40.348 34.245C40.1543 34.4092 39.901 34.5091 39.626 34.5091H36.8876C36.2853 34.5091 35.7947 34.0389 35.7947 33.4617V32.8921L35.3649 32.7214C35.0103 33.0613 34.7273 33.4306 34.1718 33.4306C33.8941 33.4306 33.6146 33.3281 33.4002 33.1232L33.399 33.1244L31.7282 31.5233L28.1304 33.5139L28.1299 33.5129L21.9041 36.9575L21.9039 36.957ZM33.5057 16.653V20.0116L31.4624 21.9572L31.4636 21.9584C31.2505 22.1585 31.1429 22.4343 31.1429 22.6979C31.1429 23.2279 31.5008 23.4751 31.8829 23.8413L31.7048 24.2532H31.1104C30.5105 24.2532 30.0174 24.7235 30.0174 25.3006V27.9248C30.0174 28.212 30.1403 28.4732 30.3381 28.6627C30.7278 29.0401 31.1659 28.9722 31.7048 28.9722L31.883 29.3841L31.4626 29.7869L31.4638 29.7881C31.2516 29.9874 31.1439 30.2619 31.1431 30.5245L27.5318 32.5227L27.5323 32.5237L22.1561 35.4982V22.9328L33.506 16.653H33.5057ZM14.1928 19.1895V23.0169L14.8657 22.81L14.866 22.811C15.0785 22.7458 15.3206 22.7982 15.4832 22.9647L16.1669 23.6654V20.2817L14.1928 19.1895ZM26.2483 11.975L14.8932 18.2576L16.8725 19.3528L28.2263 13.0707L26.2483 11.975ZM13.7009 17.5979L25.056 11.3152L21.5572 9.37938L15.5823 12.6853L15.5828 12.6863L10.2033 15.6628L13.7009 17.598V17.5979ZM17.3645 20.9443V25.1152C17.3645 25.6195 16.6967 25.9246 16.2895 25.4629L14.8718 24.0097L13.7766 24.3464C13.3889 24.4656 12.9973 24.1863 12.9971 23.8017H12.9953V18.527L9.60854 16.6531V29.2172L20.9584 35.4983V22.9329L17.3644 20.9444L17.3645 20.9443ZM29.4188 13.7304L32.911 15.6628L21.5572 21.9448L18.0648 20.0126L29.4187 13.7305L29.4188 13.7304ZM11.2505 28.0768L14.3874 29.8125C14.6728 29.9697 15.0372 29.8753 15.2013 29.6018C15.3653 29.3282 15.2669 28.979 14.9814 28.8217L11.8446 27.0861C11.5591 26.9289 11.1947 27.0233 11.0306 27.2968C10.8666 27.5704 10.965 27.9196 11.2505 28.0768ZM27.837 38.0001C27.5296 37.8862 27.3767 37.555 27.4956 37.2604C27.6143 36.9658 27.96 36.8193 28.2674 36.9332L31.7093 38.2131C32.0167 38.327 32.1696 38.6582 32.0507 38.9528L30.7151 42.2512C30.5963 42.5458 30.2507 42.6924 29.9433 42.5784C29.6359 42.4645 29.483 42.1334 29.6018 41.8388L30.4061 39.8524C22.7086 43.4887 13.436 41.9995 7.37747 36.1934C-0.453934 28.6883 -0.453933 16.5205 7.37738 9.01551C13.5122 3.1364 22.9503 1.6742 30.7231 5.50891C33.574 6.91541 36.0279 8.95837 37.8807 11.4422C38.0719 11.6997 38.0091 12.057 37.7404 12.2402C37.4717 12.4234 37.0989 12.3632 36.9077 12.1057C33.397 7.38826 27.7131 4.53437 21.5571 4.53437C11.1432 4.53437 2.70132 12.6244 2.70132 22.6045C2.70132 32.5845 11.1432 40.6746 21.5571 40.6746C24.5049 40.6746 27.3645 40.0266 29.9577 38.7888L27.8367 38.0001H27.837Z" fill="white"/>
</svg>
