<svg width="44" height="42" viewBox="0 0 44 42" fill="none" xmlns="http://www.w3.org/2000/svg">
<path fill-rule="evenodd" clip-rule="evenodd" d="M11.2099 6.63528C11.205 6.75742 11.1508 6.87302 11.0588 6.95779C10.9667 7.04256 10.8439 7.08991 10.7161 7.08991C10.5883 7.08991 10.4655 7.04256 10.3734 6.95779C10.2813 6.87302 10.2272 6.75742 10.2223 6.63528C10.2223 6.0393 9.85126 5.65739 9.37652 5.48999C8.96261 5.34905 8.51053 5.34905 8.09661 5.48999C7.62179 5.65739 7.25082 6.0393 7.25082 6.63528C7.25082 7.57913 8.04369 7.74465 8.83737 7.91033C10.0233 8.15775 11.2099 8.40551 11.2099 10.1183C11.2099 11.1766 10.5546 11.8535 9.71595 12.1493C9.55835 12.2046 9.39581 12.2462 9.23035 12.2734V12.9164C9.22548 13.0385 9.17132 13.1541 9.07925 13.2389C8.98718 13.3236 8.86436 13.371 8.73657 13.371C8.60878 13.371 8.48595 13.3236 8.39388 13.2389C8.30182 13.1541 8.24766 13.0385 8.24279 12.9164V12.2734C8.0773 12.2461 7.91473 12.2046 7.75709 12.1493C6.91849 11.8535 6.26317 11.1766 6.26317 10.1183C6.26774 9.99597 6.32176 9.88008 6.41387 9.79506C6.50599 9.71004 6.62899 9.66253 6.757 9.66253C6.885 9.66253 7.00801 9.71004 7.10012 9.79506C7.19223 9.88008 7.24626 9.99597 7.25082 10.1183C7.25082 10.7143 7.62179 11.0962 8.09661 11.2636C8.51053 11.4046 8.96261 11.4046 9.37652 11.2636C9.85126 11.0962 10.2223 10.7143 10.2223 10.1183C10.2223 9.16536 9.42513 8.9989 8.62903 8.83279C7.44542 8.5858 6.26353 8.33899 6.26353 6.63528C6.26353 5.57696 6.91885 4.90003 7.75745 4.60432C7.91508 4.54895 8.07765 4.50742 8.24315 4.48022V3.83724C8.24802 3.71509 8.30217 3.5995 8.39424 3.51473C8.48631 3.42996 8.60914 3.38261 8.73693 3.38261C8.86472 3.38261 8.98754 3.42996 9.07961 3.51473C9.17168 3.5995 9.22584 3.71509 9.23071 3.83724V4.48022C9.39618 4.50741 9.55872 4.54894 9.71631 4.60432C10.555 4.90003 11.2102 5.57696 11.2102 6.63528H11.2099ZM33.5999 10.8548V22.5477H36.9259V13.1101C36.3212 12.3401 35.543 11.7104 34.6489 11.2676C34.3124 11.1014 33.9614 10.9634 33.5999 10.8551V10.8548ZM35.1003 10.4299C34.0274 9.89851 32.8367 9.62146 31.6285 9.62212C29.6945 9.62212 27.7533 9.61172 25.8127 9.62212C25.684 9.62513 25.5615 9.67621 25.4716 9.76445C25.3817 9.85268 25.3315 9.97106 25.3317 10.0943V11.6815L20.8378 8.47039L25.3321 5.25839V6.90452C25.3321 7.088 25.6112 7.37142 25.8131 7.37718H30.7691C32.0638 7.38156 33.3245 7.77375 34.3741 8.49868C35.4238 9.2236 36.2097 10.2448 36.6214 11.4189C36.1577 11.0321 35.6472 10.7 35.1007 10.4298L35.1003 10.4299ZM37.9136 12.9558V23.02C37.9136 23.1454 37.8615 23.2656 37.7689 23.3543C37.6762 23.4429 37.5505 23.4927 37.4195 23.4927H33.1064C32.9754 23.4927 32.8497 23.4429 32.757 23.3543C32.6643 23.2656 32.6123 23.1454 32.6123 23.02V10.6372C32.2866 10.5905 31.9578 10.5671 31.6285 10.5672H26.3196V12.6242C26.3195 12.7133 26.293 12.8006 26.2432 12.876C26.1934 12.9513 26.1223 13.0117 26.0382 13.0501C25.9541 13.0885 25.8603 13.1033 25.7677 13.0929C25.6752 13.0825 25.5876 13.0472 25.5151 12.9912L19.7181 8.84851C19.656 8.80402 19.6057 8.74617 19.5714 8.67966C19.537 8.61314 19.5195 8.53981 19.5203 8.46562C19.521 8.39142 19.54 8.31844 19.5758 8.25258C19.6115 8.18671 19.6629 8.12982 19.7259 8.0865L25.531 3.93787C25.6044 3.88577 25.6915 3.85417 25.7826 3.84659C25.8736 3.83901 25.9651 3.85575 26.0468 3.89493C26.1286 3.93412 26.1973 3.99423 26.2455 4.06856C26.2936 4.1429 26.3192 4.22855 26.3195 4.316V6.43212H30.7689C32.6025 6.43287 34.3652 7.10958 35.6906 8.32154C36.934 9.45282 37.9137 11.2927 37.9137 12.9557L37.9136 12.9558ZM40.4332 28.678C39.237 27.5337 37.663 26.8216 35.9795 26.6629C34.2959 26.5042 32.6069 26.9089 31.2003 27.8078C29.7937 28.7068 28.7564 30.0444 28.2653 31.5929C27.7742 33.1414 27.8596 34.8048 28.5069 36.2998C29.1543 37.7948 30.3235 39.0289 31.8155 39.7917C33.3074 40.5545 35.0298 40.7989 36.689 40.4832C38.3482 40.1675 39.8416 39.3113 40.9148 38.0605C41.988 36.8096 42.5746 35.2415 42.5746 33.6233C42.5759 32.7047 42.3873 31.795 42.0198 30.9463C41.6523 30.0976 41.1131 29.3267 40.4332 28.678ZM35.2629 25.6849C37.1831 25.6848 39.0438 26.3216 40.5281 27.4868C42.0124 28.6519 43.0285 30.2733 43.4031 32.0746C43.7777 33.876 43.4878 35.7459 42.5827 37.3657C41.6775 38.9855 40.2132 40.255 38.4393 40.9578C36.6653 41.6607 34.6914 41.7535 32.854 41.2204C31.0165 40.6872 29.4291 39.5612 28.3624 38.0341C27.2956 36.507 26.8154 34.6733 27.0036 32.8455C27.1917 31.0176 28.0367 29.3088 29.3944 28.0101C30.1642 27.2718 31.079 26.6863 32.0861 26.2873C33.0932 25.8882 34.1728 25.6835 35.2629 25.6849ZM30.0082 35.3591C29.9419 35.3614 29.8758 35.3508 29.8138 35.3281C29.7518 35.3054 29.6953 35.271 29.6475 35.2269C29.5997 35.1828 29.5617 35.13 29.5358 35.0715C29.5098 35.0131 29.4965 34.9502 29.4965 34.8868C29.4965 34.8233 29.5098 34.7604 29.5358 34.702C29.5617 34.6436 29.5997 34.5907 29.6475 34.5466C29.6953 34.5025 29.7518 34.4681 29.8138 34.4454C29.8758 34.4227 29.9419 34.4121 30.0082 34.4144H30.7599C30.6788 33.988 30.6636 33.5526 30.715 33.122H30.0082C29.9418 33.1243 29.8757 33.1137 29.8137 33.091C29.7517 33.0683 29.6952 33.0338 29.6474 32.9898C29.5996 32.9457 29.5617 32.8928 29.5357 32.8344C29.5098 32.776 29.4964 32.7131 29.4964 32.6496C29.4964 32.5861 29.5098 32.5233 29.5357 32.4649C29.5617 32.4064 29.5996 32.3536 29.6474 32.3095C29.6952 32.2654 29.7517 32.231 29.8137 32.2083C29.8757 32.1856 29.9418 32.175 30.0082 32.1773H30.9408C31.2037 31.4591 31.6577 30.8187 32.2581 30.3194C32.8584 29.8201 33.5844 29.4791 34.3646 29.3299C35.1447 29.1807 35.952 29.2285 36.7069 29.4686C37.4618 29.7087 38.1383 30.1328 38.6697 30.6992C38.713 30.7452 38.7465 30.7989 38.7681 30.8573C38.7897 30.9157 38.799 30.9776 38.7956 31.0395C38.7922 31.1013 38.7761 31.1619 38.7482 31.2178C38.7203 31.2737 38.6812 31.3238 38.6331 31.3653C38.5849 31.4067 38.5287 31.4387 38.4677 31.4593C38.4067 31.48 38.3419 31.4889 38.2773 31.4857C38.2126 31.4824 38.1493 31.467 38.0908 31.4403C38.0324 31.4137 37.98 31.3762 37.9367 31.3302C37.5397 30.9073 37.0392 30.5852 36.48 30.3928C35.9209 30.2003 35.3206 30.1435 34.7329 30.2275C34.1452 30.3114 33.5884 30.5335 33.1125 30.8738C32.6365 31.2141 32.2563 31.662 32.0057 32.1775H32.7202C32.7865 32.1752 32.8526 32.1857 32.9146 32.2084C32.9766 32.2312 33.0332 32.2656 33.0809 32.3097C33.1287 32.3538 33.1667 32.4066 33.1926 32.465C33.2186 32.5235 33.2319 32.5863 33.2319 32.6498C33.2319 32.7133 33.2186 32.7761 33.1926 32.8346C33.1667 32.893 33.1287 32.9458 33.0809 32.9899C33.0332 33.034 32.9766 33.0684 32.9146 33.0912C32.8526 33.1139 32.7865 33.1244 32.7202 33.1222H31.711C31.6452 33.5526 31.6648 33.9911 31.7687 34.4146H32.7203C32.7866 34.4123 32.8527 34.4229 32.9147 34.4456C32.9767 34.4683 33.0332 34.5027 33.081 34.5468C33.1288 34.5909 33.1668 34.6437 33.1927 34.7022C33.2187 34.7606 33.232 34.8234 33.232 34.8869C33.232 34.9504 33.2187 35.0133 33.1927 35.0717C33.1668 35.1301 33.1288 35.183 33.081 35.2271C33.0332 35.2711 32.9767 35.3056 32.9147 35.3283C32.8527 35.351 32.7866 35.3615 32.7203 35.3593H32.1646C32.4497 35.8267 32.8464 36.2229 33.3222 36.5157C33.7979 36.8084 34.3394 36.9894 34.9023 37.0437C35.4651 37.0981 36.0335 37.0244 36.5608 36.8285C37.0882 36.6327 37.5597 36.3203 37.9368 35.9169C38.0243 35.824 38.1468 35.768 38.2774 35.7614C38.408 35.7549 38.5359 35.7982 38.6332 35.8819C38.7304 35.9656 38.7888 36.0827 38.7957 36.2077C38.8026 36.3326 38.7573 36.455 38.6698 36.548C38.1566 37.0944 37.508 37.5086 36.7837 37.7525C36.0594 37.9964 35.2826 38.0622 34.5247 37.9438C33.7669 37.8255 33.0523 37.5267 32.4467 37.0751C31.8411 36.6235 31.364 36.0334 31.0591 35.3593L30.0082 35.3591ZM13.9072 3.43136C12.711 2.28718 11.1371 1.57512 9.45362 1.4165C7.77013 1.25787 6.08123 1.66251 4.67467 2.56145C3.26812 3.46039 2.23094 4.79803 1.73986 6.34643C1.24879 7.89484 1.3342 9.55822 1.98154 11.0531C2.62889 12.5481 3.79811 13.782 5.28999 14.5448C6.78187 15.3076 8.5041 15.552 10.1632 15.2363C11.8224 14.9207 13.3158 14.0645 14.3889 12.8137C15.4621 11.5629 16.0487 9.99489 16.0487 8.3768C16.0499 7.45817 15.8614 6.54837 15.4939 5.69966C15.1264 4.85096 14.5871 4.08009 13.9072 3.43136ZM8.73693 0.438239C6.81679 0.438203 4.95604 1.075 3.47174 2.24014C1.98743 3.40527 0.971398 5.02665 0.596768 6.82801C0.222137 8.62936 0.512084 10.4992 1.41721 12.119C2.32233 13.7388 3.78662 15.0083 5.56059 15.7112C7.33455 16.4141 9.30843 16.5069 11.1459 15.9737C12.9834 15.4406 14.5707 14.3145 15.6375 12.7874C16.7043 11.2603 17.1845 9.42664 16.9963 7.59883C16.8081 5.77102 15.9632 4.06217 14.6054 2.76345C13.8356 2.02517 12.9209 1.43969 11.9138 1.04065C10.9067 0.641617 9.82703 0.43689 8.73693 0.438239ZM10.7786 31.3727V19.6795H7.45243V29.1171C8.05712 29.8871 8.83539 30.5168 9.72943 30.9596C10.066 31.1258 10.417 31.2638 10.7785 31.3721L10.7786 31.3727ZM9.27824 31.7975C10.3512 32.3289 11.5418 32.606 12.7501 32.6053H18.5531C18.6841 32.6053 18.8098 32.5555 18.9025 32.4669C18.9952 32.3783 19.0472 32.258 19.0472 32.1327V30.5454L23.5414 33.7574L19.0472 36.9694V35.3227C19.0472 35.1973 18.9952 35.0771 18.9025 34.9885C18.8098 34.8998 18.6841 34.85 18.5531 34.85H13.6099C12.3152 34.8456 11.0545 34.4535 10.0049 33.7286C8.95519 33.0037 8.16929 31.9825 7.75754 30.8084C8.22124 31.1949 8.7318 31.5267 9.27824 31.7967V31.7975ZM6.46487 29.2714C6.46487 30.9364 7.44273 32.7727 8.68787 33.9057C10.0133 35.1176 11.7761 35.7943 13.6097 35.795H18.0591V37.9112C18.0594 37.9986 18.085 38.0843 18.1332 38.1586C18.1813 38.233 18.2501 38.2931 18.3318 38.3323C18.4135 38.3714 18.505 38.3882 18.5961 38.3806C18.6872 38.373 18.7743 38.3414 18.8477 38.2893L24.6522 34.1409C24.7152 34.0975 24.7667 34.0407 24.8024 33.9748C24.8381 33.9089 24.8571 33.8359 24.8579 33.7617C24.8587 33.6875 24.8411 33.6142 24.8068 33.5476C24.7724 33.4811 24.7221 33.4233 24.66 33.3788L18.8633 29.2359C18.7908 29.1799 18.7032 29.1446 18.6106 29.1342C18.5181 29.1238 18.4243 29.1387 18.3402 29.177C18.2561 29.2154 18.185 29.2758 18.1352 29.3511C18.0854 29.4265 18.0589 29.5138 18.0588 29.6029V31.6599H12.7499C12.4206 31.66 12.0918 31.6366 11.7661 31.5899V19.2072C11.7661 19.0818 11.714 18.9616 11.6214 18.8729C11.5287 18.7843 11.403 18.7345 11.272 18.7345H6.95865C6.8276 18.7345 6.70191 18.7843 6.60924 18.8729C6.51657 18.9616 6.46451 19.0818 6.46451 19.2072L6.46487 29.2714Z" fill="#333333"/>
</svg>
