<svg width="46" height="62" viewBox="0 0 46 62" fill="none" xmlns="http://www.w3.org/2000/svg">
<path fill-rule="evenodd" clip-rule="evenodd" d="M30.05 14.2429C32.5084 11.4254 32.6374 6.81316 32.572 4.89773C26.3853 1.61015 18.9434 1.60443 12.7518 4.88379C12.6535 6.50614 12.5935 11.4107 15.1208 14.3451C19.4638 10.8235 25.6576 10.7795 30.05 14.2429ZM22.6488 9.82267C21.1259 9.82267 19.8863 8.58312 19.8863 7.06014C19.8863 5.53716 21.1259 4.29762 22.6488 4.29762C24.1718 4.29762 25.4114 5.53716 25.4114 7.06014C25.4114 8.58312 24.1718 9.82267 22.6488 9.82267ZM22.6488 5.72731C20.895 5.72731 20.895 8.39297 22.6488 8.39297C24.4031 8.39297 24.4031 5.72731 22.6488 5.72731ZM33.4795 3.7622C33.5728 3.79151 33.6582 3.84012 33.7318 3.90338C40.6294 7.79 45.2984 15.1844 45.2984 23.6496L45.2476 25.1483C44.5982 35.0417 37.5684 43.2214 28.2436 45.5993V55.066H38.3519C39.1007 55.066 39.0667 55.7909 39.0667 56.1801C39.0667 59.3894 36.4561 61.9997 33.2475 61.9997H12.0502C8.84122 61.9997 6.23132 59.3891 6.23132 56.1801C6.23132 55.7909 6.197 55.066 6.94616 55.066H17.0552V45.5993C7.67674 43.2078 0.619057 34.9474 0.0400318 24.9771L0 23.6496C0 6.39391 18.5535 -4.39885 33.4795 3.7622ZM34.0117 5.73589C33.9931 8.14171 33.5731 12.3797 31.118 15.1919C33.4159 17.4926 34.7619 20.6962 34.6114 24.1682H43.8616C44.0438 16.4568 40.0957 9.60893 34.0117 5.73589ZM43.7776 25.5979H34.4638C33.5306 31.277 28.5881 35.624 22.6488 35.624C16.7099 35.624 11.7678 31.277 10.8342 25.5979H1.51941C2.68389 38.3243 14.5403 46.6505 26.4079 44.5353C35.6959 42.8679 42.9051 35.1354 43.7772 25.5979H43.7776ZM1.43577 24.1682H10.687C10.539 20.7559 11.8375 17.6023 14.065 15.3102C11.5669 12.4454 11.2427 8.15136 11.2867 5.73517C5.2073 9.605 1.24741 16.4625 1.43577 24.1682ZM22.6488 46.2988C21.2731 46.2988 19.8402 46.1669 18.4849 45.9156V55.066H26.8132V45.9153C25.43 46.1673 24.056 46.2991 22.6488 46.2991V46.2988ZM22.6488 13.1045C16.8525 13.1045 12.1045 17.8204 12.1045 23.6492C12.1045 29.4638 16.835 34.1936 22.6488 34.1936C28.4634 34.1936 33.1932 29.4638 33.1932 23.6492C33.1932 17.835 28.4634 13.1045 22.6488 13.1045ZM22.6488 30.2859C18.9892 30.2859 16.0126 27.3082 16.0126 23.6492C16.0126 19.9896 18.9899 17.0122 22.6488 17.0122C26.3085 17.0122 29.2858 19.9899 29.2858 23.6492C29.2858 27.3082 26.3085 30.2859 22.6488 30.2859ZM22.6488 18.4419C19.7777 18.4419 17.4419 20.778 17.4419 23.6492C17.4419 26.5204 19.778 28.8562 22.6488 28.8562C25.52 28.8562 27.8558 26.5201 27.8558 23.6492C27.8558 20.7773 25.5204 18.4419 22.6488 18.4419ZM7.67281 56.4957C7.83508 58.7686 9.73692 60.5689 12.0505 60.5689H33.2479C35.5622 60.5689 37.4633 58.7689 37.6259 56.4957H7.67281Z" fill="url(#paint0_linear_1_19164)"/>
<defs>
<linearGradient id="paint0_linear_1_19164" x1="0" y1="36.8888" x2="45.2984" y2="36.8888" gradientUnits="userSpaceOnUse">
<stop stop-color="#C4161C"/>
<stop offset="1" stop-color="#600B0E"/>
</linearGradient>
</defs>
</svg>
