<svg width="61" height="61" viewBox="0 0 61 61" fill="none" xmlns="http://www.w3.org/2000/svg">
<path fill-rule="evenodd" clip-rule="evenodd" d="M58.1985 47.0669H38.2504C39.0113 49.422 41.3353 55.7187 45.0114 57.8507C45.6398 58.2153 45.3788 59.1832 44.6526 59.1832H16.3482C15.6223 59.1832 15.3614 58.2153 15.9894 57.8507C19.6655 55.7183 21.9894 49.4216 22.7507 47.0665H2.80186C1.26852 47.0665 0.020752 45.8184 0.020752 44.2854V4.59787C0.020752 3.06381 1.26852 1.81641 2.80186 1.81641H58.1985C59.7326 1.81641 60.98 3.06417 60.98 4.59787V44.2854C60.98 45.8184 59.7323 47.0665 58.1985 47.0665V47.0669ZM25.5043 12.9348H20.1719V28.3554H25.5043V12.9348ZM20.1719 11.5062H25.5043V10.5214H20.1719V11.5062ZM25.4832 9.09247C25.4893 8.8412 25.5036 8.58243 25.5036 8.33938C25.5036 6.60445 23.2608 7.01298 21.4983 7.01298C20.2452 7.01298 20.1444 8.12743 20.1569 9.09247H25.4832ZM18.7433 9.80696V8.33938C18.7433 6.81997 19.9796 5.584 21.4987 5.584H24.1768C25.6963 5.584 26.9326 6.81962 26.9326 8.33938L26.9333 9.80696V28.9516C26.959 29.0985 26.9344 29.2619 26.8368 29.4295L23.4566 35.2337C23.1814 35.7044 22.497 35.7076 22.2214 35.2337L18.8226 29.3963C18.7415 29.2422 18.7208 29.0924 18.7437 28.9563V9.80696H18.7433ZM24.9768 29.7841H20.7009L22.8387 33.4548L24.9768 29.7841ZM36.5312 33.0959H34.8495V34.1596H40.8288V7.01334H34.8495V8.07775H38.1728C39.1132 8.07775 39.1132 9.50637 38.1728 9.50637H34.8495V10.8849H36.5312C37.4716 10.8849 37.4716 12.3136 36.5312 12.3136H34.8495V13.2732H38.1728C39.1132 13.2732 39.1132 14.7019 38.1728 14.7019H34.8495V16.0801H36.5312C37.4716 16.0801 37.4716 17.5087 36.5312 17.5087H34.8495V18.4684H38.1728C39.1132 18.4684 39.1132 19.897 38.1728 19.897H34.8495V21.2756H36.5312C37.4716 21.2756 37.4716 22.7042 36.5312 22.7042H34.8495V23.6635H38.1728C39.1132 23.6635 39.1132 25.0922 38.1728 25.0922H34.8495V26.4707H36.5312C37.4716 26.4707 37.4716 27.8994 36.5312 27.8994H34.8495V28.8587H38.1728C39.1132 28.8587 39.1132 30.2877 38.1728 30.2877H34.8495V31.6663H36.5312C37.4716 31.6663 37.4716 33.0949 36.5312 33.0949V33.0959ZM41.5433 35.5886H34.1347C33.7404 35.5886 33.4202 35.2684 33.4202 34.8745V6.29957C33.4202 5.90533 33.7404 5.58508 34.1347 5.58508H41.5433C41.9376 5.58508 42.2578 5.90533 42.2578 6.29957V34.8745C42.2578 35.2684 41.9379 35.5886 41.5433 35.5886ZM36.7499 47.0669H24.2516C23.7129 48.8422 21.786 54.5592 18.4495 57.7546L42.5523 57.7542C39.2151 54.5589 37.2886 48.8422 36.7503 47.0669H36.7499ZM33.0306 43.2117H27.9705C27.0302 43.2117 27.0302 41.7831 27.9705 41.7831H33.0306C33.971 41.7831 33.971 43.2117 33.0306 43.2117ZM59.5518 39.3573H1.44937V44.2854C1.44937 45.031 2.05628 45.6379 2.80222 45.6379H58.1989C58.9448 45.6379 59.5518 45.031 59.5518 44.2854V39.3573ZM1.44937 37.9287H59.5518V4.59787C59.5518 3.85193 58.9448 3.24503 58.1989 3.24503H2.80222C2.05664 3.24503 1.44937 3.85193 1.44937 4.59787V37.9283V37.9287Z" fill="url(#paint0_linear_1_19173)"/>
<defs>
<linearGradient id="paint0_linear_1_19173" x1="0.020752" y1="35.5731" x2="60.98" y2="35.5731" gradientUnits="userSpaceOnUse">
<stop stop-color="#C4161C"/>
<stop offset="1" stop-color="#600B0E"/>
</linearGradient>
</defs>
</svg>
