<svg width="61" height="61" viewBox="0 0 61 61" fill="none" xmlns="http://www.w3.org/2000/svg">
<path fill-rule="evenodd" clip-rule="evenodd" d="M30.4974 53.5517C29.2259 53.5517 27.979 53.4465 26.7628 53.2474V56.3129C26.7578 57.8226 25.5313 59.0495 24.0212 59.0495H17.9824C17.1496 62.0339 12.7177 61.4342 12.7177 58.3343C12.7177 55.233 17.1571 54.6373 17.9842 57.6192H24.0212C24.7414 57.6192 25.3325 57.0331 25.3325 56.3129V52.9677C16.763 50.9985 10.0029 44.237 8.03332 35.6675H4.69206C3.97189 35.6675 3.3808 36.2536 3.3808 36.9787V43.0151C6.36627 43.8408 5.76123 48.2823 2.66563 48.2823C-0.436046 48.2823 -1.03178 43.84 1.95047 43.0151V36.9787C1.95047 35.469 3.17734 34.2371 4.69206 34.2371H7.75226C7.34676 31.7605 7.34712 29.2392 7.75297 26.7629H4.68705C3.17734 26.7629 1.94546 25.5361 1.94546 24.0213V17.9828C-1.03035 17.1504 -0.436046 12.7178 2.66563 12.7178C5.77339 12.7178 6.36054 17.1632 3.37579 17.9857V24.0263C3.37579 24.7465 3.96187 25.3376 4.68705 25.3376H8.03332C10.0025 16.7699 16.7605 10.0094 25.3278 8.03843V4.69216C25.3278 3.97199 24.7418 3.3809 24.0166 3.3809H17.9845C17.1581 6.35993 12.718 5.77171 12.718 2.66574C12.718 -0.440233 17.1581 -1.02846 17.9845 1.95057H24.0216C25.5313 1.95057 26.7632 3.17744 26.7632 4.69216V7.75773C29.2437 7.35187 31.7572 7.35223 34.2374 7.75844V4.69216C34.2374 3.18245 35.4643 1.95057 36.979 1.95057H43.0107C43.8346 -1.02882 48.2779 -0.44059 48.2779 2.66574C48.2779 5.77171 43.8378 6.35993 43.0114 3.3809H36.9743C36.2542 3.3809 35.6681 3.96698 35.6681 4.69216V8.03843C44.234 10.0091 50.9905 16.7674 52.9612 25.3326H56.3085C57.0287 25.3326 57.6198 24.7465 57.6198 24.0213V17.986C54.6357 17.1672 55.2208 12.7178 58.3299 12.7178C61.4288 12.7178 62.0281 17.1536 59.0501 17.9835V24.0263C59.0501 25.5361 57.8186 26.7629 56.3085 26.7629H53.2426C53.6485 29.2413 53.6485 31.7591 53.243 34.2371H56.3035C57.8132 34.2371 59.0451 35.464 59.0451 36.9787V43.0158C62.0256 43.8433 61.4348 48.2823 58.3299 48.2823C55.2236 48.2823 54.6354 43.839 57.6148 43.0151V36.9787C57.6148 36.2586 57.0287 35.6675 56.3035 35.6675H52.9633C50.9938 44.237 44.2329 50.9971 35.6631 52.9667V56.3079C35.6631 57.0281 36.2492 57.6142 36.9693 57.6142H43.0125C43.845 54.638 48.2776 55.2327 48.2776 58.3343C48.2776 61.4403 43.8374 62.0285 43.0111 59.0495H36.974C35.4643 59.0495 34.2324 57.8226 34.2324 56.3079V53.2477C33.0163 53.4469 31.769 53.5517 30.4978 53.5517H30.4974ZM2.66563 44.3539C1.02146 44.3539 1.01431 46.852 2.66563 46.852C4.3191 46.852 4.30694 44.3539 2.66563 44.3539ZM2.66563 14.1531C1.01825 14.1531 1.01825 16.6562 2.66563 16.6562C4.31517 16.6562 4.30944 14.1531 2.66563 14.1531ZM45.5953 57.0878C43.9501 57.0878 43.9594 59.5859 45.5953 59.5859C47.2291 59.5859 47.2452 57.0878 45.5953 57.0878ZM15.3995 57.0878C13.7507 57.0878 13.7543 59.5859 15.3995 59.5859C17.0494 59.5859 17.0448 57.0878 15.3995 57.0878ZM58.3292 14.1531C56.6818 14.1531 56.6818 16.6562 58.3292 16.6562C59.9709 16.6562 59.9709 14.1531 58.3292 14.1531ZM58.3292 44.3539C56.6851 44.3539 56.6779 46.852 58.3292 46.852C59.9688 46.852 59.9759 44.3539 58.3292 44.3539ZM15.3995 1.4192C13.7522 1.4192 13.7522 3.92229 15.3995 3.92229C17.0469 3.92229 17.0469 1.4192 15.3995 1.4192ZM45.5953 1.4192C43.9515 1.4192 43.9572 3.92229 45.5953 3.92229C47.2334 3.92229 47.2391 1.4192 45.5953 1.4192ZM29.7823 52.0752V31.2177H19.4291C19.6154 42.3418 24.1314 51.3679 29.7823 52.0752ZM29.7823 29.7874V8.92989C24.1267 9.63647 19.6154 18.663 19.4291 29.7874H29.7823ZM31.2126 8.92989V29.7874H41.5657C41.3794 18.663 36.8681 9.63683 31.2126 8.92989ZM31.2126 31.2177V52.0752C36.8638 51.3679 41.3794 42.3421 41.5657 31.2177H31.2126ZM52.1033 31.2177H43.0014C42.8516 40.2327 39.8786 47.9616 35.6595 51.4966C44.8723 49.2306 51.7822 41.0423 52.1033 31.2177ZM17.9985 31.2177H8.89152C9.21263 41.043 16.1233 49.2313 25.3368 51.497C21.1191 47.9619 18.1483 40.2331 17.9985 31.2177ZM8.89152 29.7874H17.9985C18.1483 20.772 21.1187 13.0428 25.3368 9.50774C16.1233 11.7734 9.21263 19.9617 8.89152 29.7874ZM43.0014 29.7874H52.1033C51.7822 19.9624 44.8723 11.7745 35.6591 9.5081C39.8783 13.0432 42.8512 20.7723 43.0014 29.7874Z" fill="url(#paint0_linear_1_19193)"/>
<defs>
<linearGradient id="paint0_linear_1_19193" x1="0" y1="35.8946" x2="60.9957" y2="35.8946" gradientUnits="userSpaceOnUse">
<stop stop-color="#C4161C"/>
<stop offset="1" stop-color="#600B0E"/>
</linearGradient>
</defs>
</svg>
