<svg width="61" height="61" viewBox="0 0 61 61" fill="none" xmlns="http://www.w3.org/2000/svg">
<path fill-rule="evenodd" clip-rule="evenodd" d="M34.3209 60.9975H10.4303C7.40224 60.9975 4.9353 58.5356 4.9353 55.5025V5.49722C4.9353 2.46949 7.39723 0.00219727 10.4303 0.00219727H34.3209C37.3489 0.00219727 39.8159 2.46413 39.8159 5.49722V24.1994L48.5524 14.8735C51.1859 12.0642 55.9307 13.8416 56.0626 17.7029C56.1433 20.0633 54.3576 21.385 52.5977 23.2726L52.5895 23.2758L39.8162 36.9137V55.5022C39.8159 58.5303 37.354 60.9972 34.3212 60.9972L34.3209 60.9975ZM32.6531 20.5029H10.465C10.0679 20.5029 9.75015 20.1852 9.75015 19.7881V13.4692C9.75015 13.0721 10.0679 12.7543 10.465 12.7543H32.6531C33.0452 12.7543 33.368 13.0721 33.368 13.4692V19.7831C33.3676 20.1798 33.0452 20.5026 32.6531 20.5026V20.5029ZM11.1795 19.0732H31.9383V14.189H11.1795V19.0732ZM27.1431 44.8006C26.6959 44.8006 26.3492 44.3834 26.4482 43.932L27.9573 36.9977C27.9948 36.8243 28.0892 36.6845 28.2132 36.5877L38.3862 25.726V5.49722C38.3862 3.25868 36.5644 1.43189 34.3209 1.43189H30.0672L28.8609 5.16482C28.4091 6.56449 27.5852 6.86258 26.9747 6.86258H17.7768C17.1663 6.86258 16.3471 6.56985 15.8907 5.16482L14.6844 1.43189H10.4303C8.19179 1.43189 6.365 3.25368 6.365 5.49722V51.6205H38.3865V38.4406L34.5532 42.5334C34.4653 42.6603 34.3344 42.7611 34.1672 42.8101L27.1434 44.8002L27.1431 44.8006ZM29.6711 37.1199L33.9288 41.1073L51.0633 22.8112L46.8039 18.8255L29.6708 37.1199H29.6711ZM29.0835 38.5328L28.096 43.0685L32.5584 41.7878L29.0835 38.5328ZM47.7825 17.7829L52.0365 21.7639C53.3397 20.3714 54.6797 19.3792 54.6279 17.7433C54.5453 15.1559 51.3542 13.9639 49.5893 15.8471L47.7828 17.7829H47.7825ZM22.3729 41.7085H10.47C9.52891 41.7085 9.52891 40.2788 10.47 40.2788L22.3729 40.2792C23.3137 40.2792 23.3144 41.7085 22.3729 41.7085ZM26.2149 34.7148H10.4696C9.52855 34.7148 9.52855 33.2851 10.4696 33.2851H26.2149C27.1581 33.2851 27.1527 34.7148 26.2149 34.7148ZM29.7987 27.7157H10.47C9.52783 27.7157 9.52748 26.286 10.47 26.286L29.7987 26.2864C30.7409 26.2864 30.7413 27.7161 29.7987 27.7161V27.7157ZM24.3187 58.4119H20.4371C17.6739 58.4119 17.6739 54.2126 20.4371 54.2126H24.3187C27.0816 54.2126 27.0816 58.4119 24.3187 58.4119ZM20.4321 55.6373C19.5478 55.6373 19.5536 56.9773 20.4321 56.9773L24.3137 56.9776C25.198 56.9776 25.1923 55.6373 24.3137 55.6373H20.4321ZM6.36464 53.051V55.5032C6.36464 57.7418 8.18642 59.5686 10.43 59.5686H34.3205C36.559 59.5686 38.3858 57.7468 38.3858 55.5032V53.051H6.36428H6.36464ZM28.5628 1.43261H16.1881C16.4572 2.26612 17.2739 5.43324 17.7764 5.43324H26.9744C27.4755 5.43324 28.2965 2.25754 28.5628 1.43261Z" fill="url(#paint0_linear_1_19154)"/>
<defs>
<linearGradient id="paint0_linear_1_19154" x1="4.9353" y1="35.894" x2="56.0652" y2="35.894" gradientUnits="userSpaceOnUse">
<stop stop-color="#C4161C"/>
<stop offset="1" stop-color="#600B0E"/>
</linearGradient>
</defs>
</svg>
