<svg width="61" height="61" viewBox="0 0 61 61" fill="none" xmlns="http://www.w3.org/2000/svg">
<g clip-path="url(#clip0_1_19183)">
<path fill-rule="evenodd" clip-rule="evenodd" d="M30.5006 48.7325C14.9044 48.7325 5.87165 29.8831 17.5894 17.6389C20.7372 14.3498 25.5832 12.2671 30.5006 12.2671C35.5231 12.2671 40.0774 14.3084 43.3782 17.6045C46.6758 20.8464 48.7335 25.5193 48.7335 30.5C48.7335 40.5575 40.5581 48.7325 30.501 48.7325H30.5006ZM7.43002 35.2848C7.22414 35.2848 7.01969 35.1958 6.87816 35.0246L4.87337 32.5938C5.94242 45.7967 17.0272 56.2123 30.5006 56.2123C31.4417 56.2123 31.441 57.6427 30.5006 57.6427C16.1758 57.6427 4.408 46.4876 3.4258 32.4076L1.26732 35.0246C0.670785 35.7481 -0.432223 34.8381 0.164317 34.1154L3.44832 30.134C3.70567 29.6808 4.44053 29.6812 4.69716 30.1347L7.98081 34.1161C8.36968 34.5875 8.01619 35.2852 7.43002 35.2852V35.2848ZM56.5289 31.0926L53.0197 26.885C52.4232 26.1616 53.5262 25.2523 54.1227 25.975L56.1282 28.4066C55.0592 15.2034 43.9744 4.78663 30.501 4.78663C29.5599 4.78663 29.5599 3.35693 30.501 3.35693C44.8251 3.35693 56.5929 14.5114 57.5761 28.5907L59.7328 25.9747C60.3297 25.2513 61.432 26.1616 60.8358 26.884L57.5054 30.9221C57.2627 31.2334 56.8348 31.306 56.5289 31.0923V31.0926ZM20.0152 21.0251L18.1309 19.1407C15.531 21.9698 13.8862 25.6898 13.7139 29.7845H16.3799C16.5479 26.424 17.8957 23.3687 20.0152 21.0251ZM19.1417 18.13L21.026 20.0143C23.3697 17.8944 26.4249 16.5466 29.7858 16.3786V13.7126C25.6908 13.8848 21.9707 15.5297 19.1417 18.13ZM16.3799 31.2141H13.7128C13.8851 35.3095 15.5296 39.0299 18.1302 41.8593L20.0156 39.9746C17.8957 37.6306 16.5482 34.5754 16.3799 31.2145V31.2141ZM21.0264 40.985L19.1417 42.8694C21.9711 45.4693 25.6911 47.1141 29.7858 47.2864V44.6204C26.4249 44.4524 23.37 43.1049 21.0264 40.985ZM31.2155 44.6204V47.2871C35.3105 47.1148 39.0309 45.4703 41.8599 42.8697L39.9748 40.9847C37.6312 43.1045 34.576 44.4517 31.2155 44.62V44.6204ZM40.9863 39.9739L42.8707 41.8582C45.4706 39.0288 47.1154 35.3088 47.2877 31.2141H44.6217C44.4537 34.575 43.1066 37.6302 40.9867 39.9739H40.9863ZM44.6213 29.7845H47.2881C47.1158 25.6895 45.4709 21.9687 42.8703 19.14L40.9856 21.0251C43.1055 23.3687 44.4526 26.424 44.621 29.7845H44.6213ZM39.9748 20.0143L41.8588 18.13C39.0294 15.5301 35.3097 13.8852 31.2155 13.7129V16.3789C34.5763 16.5469 37.6312 17.8948 39.9748 20.0146V20.0143ZM29.1045 22.5863C29.1106 22.2989 29.1281 21.9983 29.1281 21.7138C29.1281 20.7727 30.5578 20.7727 30.5578 21.7138C30.5578 21.9994 30.5753 22.3014 30.5814 22.5892C34.7572 22.7318 36.3012 28.1868 32.8074 30.4997C36.303 32.8136 34.7547 38.2718 30.5767 38.4105C30.6032 39.2394 30.5807 40.0014 29.8426 40.0014C29.1056 40.0014 29.082 39.2408 29.1084 38.4134H26.9693C26.5747 38.4134 26.2544 38.0928 26.2544 37.6985V23.3012C26.2544 22.9066 26.5747 22.5863 26.9693 22.5863H29.1042H29.1045ZM27.6845 36.9837H30.432C34.2285 36.9837 34.2293 31.2145 30.432 31.2145H27.6845V36.9837ZM27.6845 29.7852H30.432C34.2285 29.7852 34.2293 24.016 30.432 24.016H27.6845V29.7852ZM30.5006 17.7904C23.493 17.7904 17.7914 23.4917 17.7914 30.4997C17.7914 37.508 23.4926 43.2089 30.5006 43.2089C37.5086 43.2089 43.2099 37.508 43.2099 30.5C43.2099 23.4917 37.5083 17.7904 30.5006 17.7904Z" fill="url(#paint0_linear_1_19183)"/>
</g>
<defs>
<linearGradient id="paint0_linear_1_19183" x1="-0.00732422" y1="35.3006" x2="61.0074" y2="35.3006" gradientUnits="userSpaceOnUse">
<stop stop-color="#C4161C"/>
<stop offset="1" stop-color="#600B0E"/>
</linearGradient>
<clipPath id="clip0_1_19183">
<rect width="61" height="61" fill="white"/>
</clipPath>
</defs>
</svg>
