<svg width="61" height="61" viewBox="0 0 61 61" fill="none" xmlns="http://www.w3.org/2000/svg">
<path fill-rule="evenodd" clip-rule="evenodd" d="M52.5697 56.9857H8.31176C5.11389 56.9857 2.51185 54.3833 2.51185 51.1847V29.5249C1.34379 29.5249 0.00488281 29.7783 0.00488281 28.81V19.7383C0.00488281 16.7116 2.46717 14.2493 5.49455 14.2493H16.1182V10.8016C16.1182 7.05869 19.1631 4.01416 22.9061 4.01416H38.0951C41.8377 4.01416 44.8826 7.05869 44.8826 10.8016V14.2493H55.5063C58.5329 14.2493 60.9959 16.7116 60.9959 19.7383V28.81C60.9959 29.2046 60.6753 29.5249 60.2807 29.5249H58.3703V51.1847C58.3703 54.3833 55.7683 56.9857 52.5701 56.9857H52.5697ZM30.7097 42.5283C28.7421 42.5283 27.1415 40.927 27.1415 38.9601C27.1415 36.9922 28.7424 35.3913 30.7097 35.3913C32.6777 35.3913 34.2786 36.9925 34.2786 38.9601C34.2789 40.927 32.678 42.5283 30.7097 42.5283ZM30.7097 36.8206C27.8946 36.8206 27.8932 41.0986 30.7097 41.0986C33.5258 41.0986 33.5248 36.8206 30.7097 36.8206ZM32.0157 46.6498C28.345 46.6498 28.6895 47.019 28.6895 44.4641C28.5398 44.4094 28.3918 44.3479 28.2463 44.2804C26.4421 46.0854 26.9285 46.0557 24.3483 43.4748C23.6849 42.8114 24.7018 42.1101 25.3887 41.4231C25.3212 41.278 25.2604 41.1297 25.205 40.9799C22.6501 40.9803 23.0194 41.3249 23.0194 37.6541C23.0194 36.7166 24.236 36.9393 25.205 36.9393C25.2601 36.7895 25.3215 36.6415 25.3891 36.4961C23.582 34.6886 23.5991 35.1943 26.1954 32.598C26.8713 31.9221 27.5876 32.9794 28.2467 33.6388C28.3918 33.5713 28.5394 33.5105 28.6899 33.4551C28.6899 30.8995 28.345 31.2691 32.0157 31.2695C32.9532 31.2695 32.7306 32.4872 32.7306 33.4555C32.8803 33.5105 33.0283 33.572 33.1734 33.6392C34.9716 31.8413 34.4887 31.8567 37.0718 34.4448C37.747 35.1214 36.6919 35.8359 36.031 36.4968C36.0986 36.6423 36.1597 36.7902 36.2147 36.94C38.7696 36.94 38.4004 36.5954 38.4004 40.2662C38.4004 41.2037 37.183 40.981 36.2144 40.981C36.1593 41.1308 36.0982 41.2787 36.0306 41.4239C37.8414 43.2346 37.8203 42.7324 35.2247 45.3226C34.5481 45.9978 33.8332 44.942 33.1734 44.2818C33.0283 44.3494 32.8807 44.4101 32.7302 44.4655C32.7302 45.4363 32.9532 46.6505 32.0161 46.6505L32.0157 46.6498ZM30.1192 45.2197H31.3005C31.3005 42.6681 31.2955 43.7564 32.9454 42.7871C33.583 42.4125 34.078 43.1634 34.7185 43.8043L35.5549 42.9683C33.7607 41.1751 34.503 41.9804 34.9991 40.0835C35.1857 39.3698 36.0671 39.5499 36.9707 39.5503V38.369C34.4244 38.369 35.5052 38.3775 34.537 36.7227C34.1642 36.0858 34.9166 35.5886 35.5546 34.9506L34.7185 34.1146C32.9275 35.9067 33.7324 35.169 31.8341 34.6707C31.1204 34.4834 31.3005 33.6024 31.3005 32.6992H30.1192C30.1192 35.2487 30.1257 34.1632 28.4733 35.1325C27.8364 35.506 27.3378 34.7526 26.7005 34.1149L25.8652 34.9509C27.6573 36.7434 26.9171 35.9378 26.421 37.835C26.234 38.5502 25.3512 38.3697 24.4483 38.3693V39.5506C26.9971 39.5506 25.9138 39.5435 26.8813 41.1969C27.2541 41.8338 26.5028 42.3306 25.8645 42.969L26.6998 43.805C28.4915 42.0125 27.6866 42.752 29.5842 43.2485C30.299 43.4358 30.1189 44.3172 30.1185 45.2204H30.1189L30.1192 45.2197ZM17.3646 31.0243H13.1248V32.7342H17.3646V31.0243ZM13.1248 29.5949H17.3646V24.8862H13.1248V29.5949ZM47.8757 31.0243H43.6359V32.7342H47.8757V31.0243ZM43.6359 29.5949H47.8757V24.8862H43.6359V29.5949ZM48.0408 34.1639H43.4704C42.7734 34.1639 42.2055 33.5959 42.2055 32.899V29.5249H18.7936V32.899C18.7936 33.5967 18.2263 34.1639 17.5293 34.1639H12.9593C12.262 34.1639 11.6951 33.5959 11.6951 32.899V29.5249H3.94119V48.3943H56.9399V29.5249H49.3057V32.899C49.3057 33.5967 48.7381 34.1639 48.0408 34.1639ZM42.2058 28.0952V24.7208C42.2058 24.0234 42.7738 23.4566 43.4704 23.4566H48.0408C48.7378 23.4566 49.3057 24.0238 49.3057 24.7208V28.0952L59.5655 28.0956V19.7386C59.5655 17.5001 57.7445 15.679 55.5059 15.679C38.8353 15.679 22.1648 15.679 5.49419 15.679C3.25565 15.679 1.43493 17.5001 1.43493 19.7386V28.0956L11.6955 28.0952V24.7208C11.6955 24.0234 12.2627 23.4566 12.9597 23.4566H17.5297C18.227 23.4566 18.7939 24.0238 18.7939 24.7208V28.0952H42.2058ZM17.5476 14.2497H19.9377V10.802C19.9377 9.1657 21.2687 7.8343 22.9053 7.8343H38.0944C39.7307 7.8343 41.0621 9.16534 41.0621 10.802V14.2497H43.4529V10.802C43.4529 7.84788 41.0496 5.44385 38.0955 5.44385H22.9057C19.9512 5.44385 17.5476 7.84788 17.5476 10.802V14.2497ZM21.367 14.2497H39.6331V10.802C39.6331 9.96812 38.929 9.26328 38.0951 9.26328H22.9061C22.0722 9.26328 21.3674 9.9674 21.3674 10.802V14.2497H21.367ZM3.94119 49.824V51.1847C3.94119 53.5948 5.90165 55.5557 8.31176 55.5557H52.5697C54.9794 55.5557 56.9403 53.5952 56.9403 51.1847V49.824H3.94154H3.94119Z" fill="url(#paint0_linear_1_19202)"/>
<defs>
<linearGradient id="paint0_linear_1_19202" x1="0.00488281" y1="35.1845" x2="60.9959" y2="35.1845" gradientUnits="userSpaceOnUse">
<stop stop-color="#C4161C"/>
<stop offset="1" stop-color="#600B0E"/>
</linearGradient>
</defs>
</svg>
