<svg width="34" height="34" viewBox="0 0 34 34" fill="none" xmlns="http://www.w3.org/2000/svg">
<path d="M29.144 4.26656C28.6732 4.21662 28.1614 4.29016 27.6471 4.49345C27.0096 4.7442 17.0204 8.94625 7.70866 12.8662L4.63184 14.1611C3.44042 14.6442 2.83887 15.4298 2.83887 16.4881C2.83887 17.229 3.15244 18.234 4.64844 18.8261L9.84196 20.9069C10.291 22.2541 11.3341 25.3822 11.5962 26.2138C11.752 26.7068 12.1456 27.9488 13.1401 28.2392C13.3441 28.3086 13.557 28.3444 13.7738 28.3444C14.4013 28.3444 14.8532 28.0523 15.0742 27.8823L18.3752 25.0905L22.3844 28.7981C22.5389 28.9554 23.3562 29.75 24.4541 29.75C25.824 29.75 26.8632 28.6096 27.0799 27.506C27.1975 26.9011 31.0643 7.48996 31.0643 7.4928C31.4114 5.93588 30.7873 5.12823 30.3864 4.78398C30.0429 4.49002 29.6149 4.3165 29.144 4.26656ZM28.2061 7.32678C27.672 10.0043 24.7605 24.6191 24.3185 26.7257L18.4582 21.3053L14.4821 24.6726L15.5833 20.3645C15.5833 20.3645 23.1803 12.6747 23.6379 12.227C24.0062 11.8686 24.0833 11.743 24.0833 11.6183C24.0833 11.4525 23.998 11.3333 23.8011 11.3333C23.624 11.3333 23.3835 11.503 23.256 11.5823C21.6363 12.5921 14.7391 16.5215 11.3444 18.4526L6.41927 16.4853L8.8099 15.4809C14.9001 12.9168 25.7467 8.34962 28.2061 7.32678Z" fill="#FFDA8A"/>
</svg>
