<svg width="102" height="102" viewBox="0 0 102 102" fill="none" xmlns="http://www.w3.org/2000/svg">
<path fill-rule="evenodd" clip-rule="evenodd" d="M51 11.25C40.6011 11.25 31.8353 18.2258 29.1196 27.7502C29.0621 27.9519 29.0172 28.109 28.9761 28.2431L28.9746 28.248C28.8551 28.2499 28.7162 28.25 28.5403 28.25H25.5C17.6299 28.25 11.25 34.6299 11.25 42.5C11.25 50.3701 17.6299 56.75 25.5 56.75H38.1716L41.1716 53.75H25.5C19.2868 53.75 14.25 48.7132 14.25 42.5C14.25 36.2868 19.2868 31.25 25.5 31.25H28.5403L28.5963 31.25C28.9297 31.2501 29.2923 31.2502 29.6028 31.2154C29.9616 31.1752 30.4255 31.0737 30.8605 30.7455C31.3091 30.4069 31.5333 29.9667 31.6666 29.636C31.7866 29.3382 31.8903 28.9743 31.9891 28.6274L32.0046 28.5728C34.3626 20.3028 41.9764 14.25 51 14.25C60.0236 14.25 67.6373 20.3028 69.9954 28.5728L70.0109 28.6272L70.011 28.6275C70.1098 28.9744 70.2134 29.3382 70.3334 29.636C70.4667 29.9667 70.6909 30.4069 71.1395 30.7455C71.5745 31.0737 72.0384 31.1752 72.3972 31.2154C72.7077 31.2502 73.0703 31.2501 73.4037 31.25L73.4597 31.25H76.5C82.7132 31.25 87.75 36.2868 87.75 42.5C87.75 48.7132 82.7132 53.75 76.5 53.75H60.8284L63.8284 56.75H76.5C84.3701 56.75 90.75 50.3701 90.75 42.5C90.75 34.6299 84.3701 28.25 76.5 28.25H73.4597C73.2838 28.25 73.1449 28.2499 73.0254 28.248L73.0239 28.2431C72.9828 28.109 72.9379 27.9519 72.8804 27.7502C70.1647 18.2258 61.3989 11.25 51 11.25ZM58.1716 56.75L55.1716 53.75H53V56.75H58.1716ZM49 56.75V53.75H46.8284L43.8284 56.75H49ZM28.8655 28.5568L28.8672 28.5535C28.866 28.5558 28.8655 28.5569 28.8655 28.5568Z" fill="#6D6F72"/>
<path d="M51 51L50.6464 50.6464L51 50.2929L51.3536 50.6464L51 51ZM51.5 89.25C51.5 89.5261 51.2761 89.75 51 89.75C50.7239 89.75 50.5 89.5261 50.5 89.25L51.5 89.25ZM33.6464 67.6464L50.6464 50.6464L51.3536 51.3536L34.3536 68.3536L33.6464 67.6464ZM51.3536 50.6464L68.3536 67.6464L67.6464 68.3536L50.6464 51.3536L51.3536 50.6464ZM51.5 51L51.5 89.25L50.5 89.25L50.5 51L51.5 51Z" fill="#6D6F72"/>
</svg>
