<svg width="26" height="23" viewBox="0 0 26 23" fill="none" xmlns="http://www.w3.org/2000/svg">
<path d="M4.9375 3.625H1M4.9375 3.625C4.9375 5.07475 6.11275 6.25 7.5625 6.25C9.01225 6.25 10.1875 5.07475 10.1875 3.625C10.1875 2.17525 9.01225 1 7.5625 1C6.11275 1 4.9375 2.17525 4.9375 3.625ZM24.625 3.625H12.8125M4.9375 19.375H1M4.9375 19.375C4.9375 20.8247 6.11275 22 7.5625 22C9.01225 22 10.1875 20.8247 10.1875 19.375C10.1875 17.9253 9.01225 16.75 7.5625 16.75C6.11275 16.75 4.9375 17.9253 4.9375 19.375ZM24.625 19.375H12.8125M20.6875 11.5H24.625M20.6875 11.5C20.6875 12.9497 19.5122 14.125 18.0625 14.125C16.6128 14.125 15.4375 12.9497 15.4375 11.5C15.4375 10.0503 16.6128 8.875 18.0625 8.875C19.5122 8.875 20.6875 10.0503 20.6875 11.5ZM1 11.5H12.8125" stroke="#221D23" stroke-linecap="round" stroke-linejoin="round"/>
</svg>
