<svg width="55" height="55" viewBox="0 0 55 55" fill="none" xmlns="http://www.w3.org/2000/svg">
<g clip-path="url(#clip0_1_20343)">
<path d="M4.72434 22.6115L6.22034 23.2092C6.4334 23.9282 6.72193 24.6226 7.08109 25.2808L6.44492 26.7668C6.326 27.0386 6.28505 27.3382 6.32665 27.6321C6.36826 27.9259 6.49077 28.2023 6.6805 28.4305C6.91425 28.711 7.16359 28.9805 7.42575 29.2427C7.68792 29.5048 7.95742 29.7542 8.23792 29.9888C8.46658 30.178 8.74321 30.3001 9.03708 30.3415C9.33094 30.383 9.63054 30.3421 9.90259 30.2235L11.3858 29.5873C12.044 29.9465 12.7384 30.235 13.4574 30.4481L14.056 31.9468C14.1647 32.2226 14.3478 32.4629 14.5849 32.6409C14.822 32.8189 15.1037 32.9277 15.3989 32.9552C15.7656 32.9882 16.1323 33.0038 16.4989 33.0038C16.8656 33.0038 17.2323 32.9882 17.5989 32.9552C17.8942 32.9278 18.1762 32.819 18.4134 32.641C18.6506 32.463 18.8339 32.2227 18.9428 31.9468L19.5404 30.4508C20.2594 30.2378 20.9538 29.9493 21.6121 29.5901L23.0962 30.2263C23.3681 30.3452 23.6677 30.3861 23.9615 30.3445C24.2553 30.3029 24.5317 30.1804 24.7599 29.9907C25.0404 29.7569 25.3099 29.5076 25.5721 29.2454C25.8343 28.9833 26.0836 28.7138 26.3183 28.4333C26.5077 28.2049 26.6299 27.9284 26.6713 27.6346C26.7127 27.3409 26.6718 27.0413 26.5529 26.7695L25.9168 25.2854C26.2759 24.6272 26.5644 23.9327 26.7775 23.2138L28.2735 22.6161C28.5493 22.5074 28.7896 22.3243 28.9676 22.0872C29.1456 21.8501 29.2544 21.5684 29.2818 21.2732C29.3148 20.9065 29.3304 20.5398 29.3304 20.1732C29.3304 19.8065 29.3148 19.4398 29.2818 19.0732C29.2544 18.7779 29.1457 18.4959 28.9677 18.2587C28.7897 18.0215 28.5494 17.8382 28.2735 17.7293L26.7775 17.1317C26.5644 16.4127 26.2759 15.7183 25.9168 15.06L26.5529 13.5759C26.6718 13.304 26.7128 13.0044 26.6712 12.7106C26.6296 12.4168 26.5071 12.1403 26.3173 11.9122C26.0836 11.6317 25.8343 11.3622 25.5721 11.1C25.3099 10.8378 25.0404 10.5885 24.7599 10.3538C24.5316 10.1644 24.2551 10.0422 23.9613 10.0008C23.6675 9.95935 23.368 10.0003 23.0962 10.1192L21.6121 10.7553C20.9538 10.3962 20.2594 10.1077 19.5404 9.89459L18.9418 8.39584C18.8331 8.12004 18.65 7.87978 18.413 7.70178C18.1759 7.52377 17.8941 7.41499 17.5989 7.38751C16.8671 7.3207 16.1307 7.3207 15.3989 7.38751C15.1036 7.41493 14.8217 7.52368 14.5844 7.70168C14.3472 7.87968 14.164 8.11997 14.0551 8.39584L13.4574 9.89184C12.7384 10.1049 12.044 10.3934 11.3858 10.7526L9.89984 10.1118C9.62798 9.99281 9.32836 9.9518 9.03452 9.99341C8.74067 10.035 8.46421 10.1576 8.23609 10.3474C7.95559 10.5812 7.68609 10.8305 7.42392 11.0927C7.16175 11.3548 6.91242 11.6243 6.67775 11.9048C6.4892 12.1333 6.36763 12.4095 6.32653 12.7029C6.28543 12.9963 6.32641 13.2953 6.44492 13.5668L7.08109 15.0499C6.72193 15.7082 6.4334 16.4026 6.22034 17.1216L4.72159 17.7202C4.44579 17.8289 4.20553 18.012 4.02753 18.2491C3.84952 18.4861 3.74073 18.7679 3.71325 19.0631C3.68209 19.4334 3.6665 19.8001 3.6665 20.1668C3.6665 20.5334 3.68209 20.9001 3.71509 21.2668C3.74242 21.5623 3.85124 21.8445 4.02942 22.082C4.2076 22.3194 4.44816 22.5027 4.72434 22.6115ZM5.52825 19.3748L7.32492 18.657C7.45983 18.6027 7.57999 18.5173 7.67558 18.4077C7.77116 18.298 7.83947 18.1674 7.87492 18.0263C8.08896 17.1655 8.43168 16.342 8.8915 15.5834C8.96704 15.4588 9.01177 15.3179 9.02197 15.1725C9.03217 15.0271 9.00756 14.8814 8.95017 14.7474L8.18659 12.9654C8.35709 12.7665 8.53859 12.5731 8.72559 12.3861C8.91259 12.1991 9.10692 12.0194 9.30492 11.8471L11.0888 12.6107C11.2211 12.6676 11.3651 12.6926 11.5089 12.6835C11.6527 12.6744 11.7924 12.6316 11.9165 12.5584C12.674 12.1 13.4963 11.7585 14.3558 11.5455C14.4968 11.5101 14.6275 11.4417 14.7371 11.3462C14.8467 11.2506 14.9321 11.1304 14.9864 10.9955L15.7042 9.19884C16.2314 9.15942 16.7609 9.15942 17.2882 9.19884L18.0059 10.9955C18.0602 11.1304 18.1457 11.2506 18.2553 11.3462C18.3649 11.4417 18.4955 11.5101 18.6366 11.5455C19.4985 11.7578 20.3234 12.0993 21.0832 12.5584C21.2077 12.6338 21.3484 12.6785 21.4936 12.6887C21.6388 12.6989 21.7844 12.6743 21.9183 12.6171L23.7021 11.8535C23.901 12.024 24.0944 12.2055 24.2814 12.3925C24.4684 12.5795 24.6481 12.7738 24.8204 12.9718L24.0568 14.7538C23.9994 14.8864 23.9742 15.0306 23.9831 15.1748C23.992 15.319 24.0349 15.459 24.1082 15.5834C24.5665 16.3413 24.9079 17.1639 25.1211 18.0236C25.1565 18.1646 25.2249 18.2953 25.3204 18.4049C25.416 18.5145 25.5362 18.6 25.6711 18.6543L27.4678 19.372C27.487 19.6342 27.4962 19.8991 27.4962 20.164C27.4962 20.4289 27.487 20.6929 27.4678 20.956L25.6711 21.6738C25.5362 21.7281 25.416 21.8135 25.3204 21.9231C25.2249 22.0327 25.1565 22.1634 25.1211 22.3044C24.9087 23.1661 24.5672 23.9906 24.1082 24.7501C24.0328 24.8746 23.9881 25.0153 23.9779 25.1605C23.9677 25.3058 23.9923 25.4513 24.0495 25.5852L24.8131 27.369C24.6426 27.5679 24.4611 27.7613 24.2741 27.9483C24.0871 28.1353 23.8928 28.315 23.6948 28.4873L21.9128 27.7238C21.7803 27.6659 21.636 27.6404 21.4918 27.6493C21.3475 27.6582 21.2075 27.7014 21.0832 27.7751C20.3253 28.2334 19.5027 28.5749 18.643 28.788C18.502 28.8235 18.3713 28.8918 18.2617 28.9874C18.1521 29.0829 18.0666 29.2031 18.0123 29.338L17.2946 31.1347C16.7673 31.1741 16.2379 31.1741 15.7106 31.1347L14.9928 29.338C14.9385 29.2031 14.8531 29.0829 14.7435 28.9874C14.6339 28.8918 14.5032 28.8235 14.3622 28.788C13.5006 28.5754 12.6761 28.2339 11.9165 27.7751C11.7919 27.6996 11.651 27.6548 11.5056 27.6446C11.3602 27.6344 11.2145 27.659 11.0805 27.7164L9.29851 28.48C9.09959 28.3095 8.90617 28.128 8.71917 27.941C8.53217 27.754 8.3525 27.5597 8.18017 27.3617L8.94376 25.5778C9.00072 25.4455 9.02568 25.3015 9.0166 25.1577C9.00752 25.0139 8.96466 24.8742 8.8915 24.7501C8.43308 23.9926 8.09159 23.1703 7.87859 22.3108C7.84314 22.1698 7.77483 22.0391 7.67924 21.9295C7.58365 21.8199 7.4635 21.7345 7.32859 21.6802L5.53192 20.9624C5.509 20.6966 5.49984 20.4317 5.49984 20.1668C5.49984 19.9018 5.509 19.6378 5.52825 19.3748Z" fill="url(#paint0_linear_1_20343)"/>
<path d="M53.1667 20.2776V3.66667C53.1667 2.69421 52.7804 1.76158 52.0927 1.07394C51.4051 0.386308 50.4725 0 49.5 0L3.66667 0C2.69421 0 1.76158 0.386308 1.07394 1.07394C0.386308 1.76158 0 2.69421 0 3.66667L0 40.3333C0 41.3058 0.386308 42.2384 1.07394 42.9261C1.76158 43.6137 2.69421 44 3.66667 44H14.6667V46.2183L9.17492 49.357C8.89415 49.5172 8.66071 49.7487 8.49828 50.0282C8.33585 50.3076 8.2502 50.6251 8.25 50.9483V53.1667C8.25 53.6529 8.44315 54.1192 8.78697 54.463C9.13079 54.8068 9.5971 55 10.0833 55H52.4654C53.1368 55.0002 53.7807 54.734 54.256 54.2599C54.7312 53.7857 54.9988 53.1423 55 52.4709V22.6958C54.9979 22.1484 54.8179 21.6166 54.4872 21.1805C54.1566 20.7443 53.6931 20.4274 53.1667 20.2776ZM15.8263 47.6667H33V49.5H12.6179L15.8263 47.6667ZM52.4654 22C52.6506 21.9995 52.8284 22.0725 52.9599 22.2029C53.0913 22.3333 53.1657 22.5106 53.1667 22.6958V24.75H34.8333V22.6958C34.8343 22.5106 34.9087 22.3333 35.0401 22.2029C35.1716 22.0725 35.3494 21.9995 35.5346 22H52.4654ZM34.8333 26.5833H53.1667V48.5833H34.8333V26.5833ZM3.66667 1.83333H49.5C49.9862 1.83333 50.4525 2.02649 50.7964 2.3703C51.1402 2.71412 51.3333 3.18044 51.3333 3.66667V20.1667H35.5346C34.8632 20.1664 34.2193 20.4326 33.744 20.9068C33.2688 21.381 33.0012 22.0244 33 22.6958V34.8333H1.83333V3.66667C1.83333 3.18044 2.02649 2.71412 2.3703 2.3703C2.71412 2.02649 3.18044 1.83333 3.66667 1.83333ZM1.83333 40.3333V36.6667H33V42.1667H3.66667C3.18044 42.1667 2.71412 41.9735 2.3703 41.6297C2.02649 41.2859 1.83333 40.8196 1.83333 40.3333ZM33 44V45.8333H16.5V44H33ZM10.0833 51.3333H33V52.4709C33.0032 52.7069 33.0402 52.9412 33.11 53.1667H10.0833V51.3333ZM52.4654 53.1667H35.5346C35.3494 53.1672 35.1716 53.0942 35.0401 52.9638C34.9087 52.8333 34.8343 52.6561 34.8333 52.4709V50.4167H53.1667V52.4709C53.1657 52.6561 53.0913 52.8333 52.9599 52.9638C52.8284 53.0942 52.6506 53.1672 52.4654 53.1667Z" fill="url(#paint1_linear_1_20343)"/>
<path d="M51.2259 36.3678C51.1969 36.1985 51.1208 36.0407 51.0063 35.9125C50.8919 35.7843 50.7437 35.6908 50.5787 35.6427L50.0498 35.4887C49.9662 35.2496 49.8689 35.0155 49.7583 34.7875L50.0232 34.3044C50.1061 34.154 50.1451 33.9833 50.1357 33.8119C50.1263 33.6404 50.0689 33.475 49.9701 33.3346C49.5022 32.6638 48.9194 32.081 48.2486 31.6131C48.1079 31.5148 47.9427 31.4577 47.7714 31.4482C47.6 31.4386 47.4295 31.477 47.2787 31.559L46.8067 31.8184C46.6365 31.7333 46.4621 31.6568 46.2842 31.5892C46.2209 31.5654 46.1577 31.5434 46.0917 31.5232L45.9404 31.0044C45.8924 30.8394 45.7989 30.6913 45.6707 30.5768C45.5425 30.4624 45.3847 30.3863 45.2153 30.3572C44.4113 30.2143 43.5884 30.2143 42.7843 30.3572C42.615 30.3863 42.4572 30.4624 42.329 30.5768C42.2008 30.6913 42.1073 30.8394 42.0592 31.0044L41.908 31.5232C41.8429 31.5434 41.7797 31.5654 41.7182 31.5883C41.5441 31.6543 41.3708 31.7304 41.193 31.8184L40.7209 31.559C40.5702 31.477 40.3996 31.4386 40.2283 31.4482C40.057 31.4577 39.8917 31.5148 39.7511 31.6131C39.0803 32.081 38.4975 32.6638 38.0296 33.3346C37.9308 33.475 37.8734 33.6404 37.864 33.8119C37.8546 33.9833 37.8935 34.154 37.9764 34.3044L38.2413 34.7875C38.1308 35.0155 38.0335 35.2496 37.9498 35.4887L37.4209 35.6427C37.2559 35.6908 37.1078 35.7843 36.9933 35.9125C36.8789 36.0407 36.8028 36.1985 36.7737 36.3678C36.6308 37.1719 36.6308 37.9948 36.7737 38.7988C36.8028 38.9682 36.8789 39.126 36.9933 39.2542C37.1078 39.3824 37.2559 39.4759 37.4209 39.5239L37.9397 39.6752C38.0233 39.9192 38.1222 40.1577 38.2358 40.3892L37.9755 40.8622C37.8928 41.0127 37.854 41.1834 37.8635 41.3549C37.8731 41.5264 37.9306 41.6917 38.0296 41.8321C38.4982 42.5023 39.0808 43.085 39.7511 43.5536C39.8914 43.6525 40.0568 43.7101 40.2282 43.7196C40.3997 43.7292 40.5704 43.6904 40.7209 43.6077L41.1939 43.3473C41.4255 43.4609 41.664 43.5598 41.908 43.6434L42.0592 44.1622C42.1073 44.3272 42.2008 44.4754 42.329 44.5898C42.4572 44.7043 42.615 44.7803 42.7843 44.8094C43.5884 44.9524 44.4113 44.9524 45.2153 44.8094C45.3847 44.7803 45.5425 44.7043 45.6707 44.5898C45.7989 44.4754 45.8924 44.3272 45.9404 44.1622L46.0917 43.6434C46.3357 43.5598 46.5742 43.4609 46.8057 43.3473L47.2787 43.6077C47.4292 43.6904 47.5999 43.7292 47.7714 43.7196C47.9429 43.7101 48.1082 43.6525 48.2486 43.5536C48.9188 43.085 49.5015 42.5023 49.9701 41.8321C50.069 41.6917 50.1266 41.5264 50.1361 41.3549C50.1457 41.1834 50.1069 41.0127 50.0242 40.8622L49.7638 40.3892C49.8774 40.1577 49.9763 39.9192 50.0599 39.6752L50.5787 39.5239C50.7437 39.4759 50.8919 39.3824 51.0063 39.2542C51.1208 39.126 51.1969 38.9682 51.2259 38.7988C51.3689 37.9948 51.3689 37.1719 51.2259 36.3678ZM49.4842 37.9326L49.0662 38.0545C48.9128 38.0991 48.7738 38.1831 48.6628 38.2981C48.5519 38.413 48.4729 38.555 48.4337 38.7099C48.3256 39.137 48.1561 39.5461 47.9305 39.9245C47.8487 40.0616 47.8042 40.2178 47.8013 40.3774C47.7984 40.5371 47.8372 40.6947 47.914 40.8347L48.1239 41.2161C48.0469 41.3077 47.9672 41.3912 47.8865 41.4718C47.8058 41.5525 47.7206 41.6322 47.6298 41.7102L47.2485 41.5002C47.1085 41.4235 46.9508 41.3846 46.7912 41.3875C46.6315 41.3904 46.4754 41.4349 46.3382 41.5167C45.9598 41.7423 45.5507 41.9118 45.1237 42.02C44.9688 42.0592 44.8268 42.1381 44.7118 42.2491C44.5969 42.36 44.5129 42.4991 44.4682 42.6525L44.3463 43.0705C44.1138 43.087 43.8804 43.087 43.6478 43.0705L43.5259 42.6525C43.4813 42.4991 43.3973 42.36 43.2823 42.2491C43.1674 42.1381 43.0254 42.0592 42.8705 42.02C42.4434 41.9118 42.0343 41.7423 41.6559 41.5167C41.5188 41.4349 41.3626 41.3904 41.203 41.3875C41.0433 41.3846 40.8857 41.4235 40.7457 41.5002L40.3643 41.7102C40.2727 41.6322 40.1892 41.5534 40.1077 41.4718C40.0261 41.3902 39.9472 41.3059 39.8702 41.2161L40.0802 40.8347C40.1569 40.6947 40.1958 40.5371 40.1929 40.3774C40.19 40.2178 40.1455 40.0616 40.0637 39.9245C39.8381 39.5461 39.6686 39.137 39.5604 38.7099C39.5212 38.555 39.4423 38.413 39.3313 38.2981C39.2204 38.1831 39.0813 38.0991 38.9279 38.0545L38.5099 37.9326C38.5044 37.8134 38.4998 37.697 38.4998 37.5833C38.4998 37.4697 38.5044 37.3532 38.5127 37.2341L38.9398 37.1094C39.0929 37.065 39.2317 36.9814 39.3427 36.867C39.4536 36.7525 39.5327 36.6111 39.5723 36.4567C39.6804 36.0337 39.8486 35.6284 40.0719 35.2532C40.1537 35.1158 40.1982 34.9595 40.201 34.7996C40.2037 34.6398 40.1646 34.482 40.0875 34.342L39.873 33.9497C39.95 33.858 40.0288 33.7755 40.1095 33.6948C40.1902 33.6142 40.2763 33.5344 40.3662 33.4565L40.7512 33.6682C40.8912 33.745 41.0488 33.7839 41.2085 33.781C41.3681 33.7781 41.5243 33.7335 41.6614 33.6517C41.8867 33.515 42.1235 33.3981 42.3691 33.3025C42.4905 33.2596 42.6145 33.2244 42.7403 33.1971L42.8723 33.1641C43.0264 33.1242 43.1674 33.0449 43.2815 32.934C43.3956 32.8231 43.4789 32.6844 43.5232 32.5316L43.6506 32.0962C43.8831 32.0797 44.1165 32.0797 44.3491 32.0962L44.4765 32.5316C44.5208 32.6844 44.604 32.8231 44.7181 32.934C44.8323 33.0449 44.9733 33.1242 45.1273 33.1641L45.2593 33.1971C45.3861 33.2247 45.511 33.2602 45.6333 33.3034C45.8779 33.3989 46.1138 33.5155 46.3382 33.6517C46.4754 33.7335 46.6315 33.7781 46.7912 33.781C46.9508 33.7839 47.1085 33.745 47.2485 33.6682L47.6335 33.4565C47.7252 33.5335 47.8077 33.6123 47.8883 33.693C47.969 33.7737 48.0487 33.8598 48.1267 33.9497L47.9122 34.342C47.8351 34.482 47.796 34.6398 47.7987 34.7996C47.8014 34.9595 47.8459 35.1158 47.9277 35.2532C48.1511 35.6284 48.3193 36.0337 48.4273 36.4567C48.4669 36.6111 48.5461 36.7525 48.657 36.867C48.7679 36.9814 48.9068 37.065 49.0598 37.1094L49.487 37.2341C49.4952 37.3532 49.4998 37.4697 49.4998 37.5833C49.4998 37.697 49.4998 37.8134 49.487 37.9326H49.4842Z" fill="url(#paint2_linear_1_20343)"/>
<path d="M30.0879 12.9407L30.6067 13.0919C30.6903 13.3359 30.7892 13.5744 30.9028 13.806L30.6425 14.279C30.5598 14.4295 30.5209 14.6002 30.5305 14.7717C30.5401 14.9431 30.5976 15.1085 30.6966 15.2488C31.1651 15.9191 31.7478 16.5018 32.4181 16.9703C32.5587 17.0686 32.724 17.1257 32.8953 17.1353C33.0666 17.1448 33.2372 17.1064 33.3879 17.0244L33.8609 16.7641C34.0925 16.8777 34.331 16.9766 34.575 17.0602L34.7262 17.579C34.7743 17.744 34.8677 17.8922 34.996 18.0066C35.1242 18.121 35.282 18.1971 35.4513 18.2262C36.2553 18.3692 37.0783 18.3692 37.8823 18.2262C38.0517 18.1971 38.2095 18.121 38.3377 18.0066C38.4659 17.8922 38.5594 17.744 38.6074 17.579L38.7587 17.0602C39.0027 16.9766 39.2412 16.8777 39.4727 16.7641L39.9457 17.0244C40.0964 17.1064 40.267 17.1448 40.4383 17.1353C40.6097 17.1257 40.7749 17.0686 40.9156 16.9703C41.5858 16.5018 42.1685 15.9191 42.6371 15.2488C42.736 15.1085 42.7936 14.9431 42.8031 14.7717C42.8127 14.6002 42.7739 14.4295 42.6912 14.279L42.4308 13.806C42.5444 13.5744 42.6433 13.3359 42.7269 13.0919L43.2457 12.9407C43.4107 12.8926 43.5589 12.7992 43.6733 12.671C43.7878 12.5428 43.8638 12.385 43.8929 12.2156C44.0359 11.4116 44.0359 10.5886 43.8929 9.78459C43.8638 9.61522 43.7878 9.45743 43.6733 9.32922C43.5589 9.20101 43.4107 9.10755 43.2457 9.05951L42.7168 8.90551C42.6332 8.66636 42.5359 8.43222 42.4253 8.20426L42.6902 7.72117C42.7731 7.57077 42.8121 7.4001 42.8027 7.22864C42.7933 7.05717 42.7359 6.89179 42.6371 6.75134C42.1692 6.08054 41.5864 5.49774 40.9156 5.02984C40.7752 4.93088 40.6099 4.87334 40.4384 4.86378C40.2669 4.85422 40.0962 4.89302 39.9457 4.97576L39.4737 5.23517C39.3034 5.15006 39.1291 5.07358 38.9512 5.00601C38.8879 4.98217 38.8247 4.96017 38.7587 4.94001L38.6074 4.42117C38.5594 4.25618 38.4659 4.10801 38.3377 3.99358C38.2095 3.87915 38.0517 3.80307 37.8823 3.77401C37.0783 3.631 36.2553 3.631 35.4513 3.77401C35.282 3.80307 35.1242 3.87915 34.996 3.99358C34.8677 4.10801 34.7743 4.25618 34.7262 4.42117L34.575 4.94001C34.5099 4.96017 34.4467 4.98217 34.3852 5.00509C34.2111 5.07109 34.0378 5.14717 33.86 5.23517L33.3879 4.97576C33.2374 4.89302 33.0667 4.85422 32.8952 4.86378C32.7238 4.87334 32.5584 4.93088 32.4181 5.02984C31.7473 5.49774 31.1645 6.08054 30.6966 6.75134C30.5978 6.89179 30.5404 7.05717 30.531 7.22864C30.5216 7.4001 30.5605 7.57077 30.6434 7.72117L30.9083 8.20426C30.7978 8.43222 30.7005 8.66636 30.6168 8.90551L30.0879 9.05951C29.9229 9.10755 29.7747 9.20101 29.6603 9.32922C29.5459 9.45743 29.4698 9.61522 29.4407 9.78459C29.2977 10.5886 29.2977 11.4116 29.4407 12.2156C29.4698 12.385 29.5459 12.5428 29.6603 12.671C29.7747 12.7992 29.9229 12.8926 30.0879 12.9407ZM31.1797 10.649L31.6068 10.5243C31.7599 10.4799 31.8987 10.3964 32.0097 10.2819C32.1206 10.1675 32.1997 10.0261 32.2393 9.87167C32.3473 9.44862 32.5156 9.04329 32.7389 8.66809C32.8207 8.53076 32.8652 8.37441 32.8679 8.21458C32.8707 8.05474 32.8316 7.89697 32.7545 7.75692L32.5418 7.36642C32.6188 7.27476 32.6977 7.19226 32.7783 7.11159C32.859 7.03092 32.9452 6.95117 33.035 6.87326L33.42 7.08501C33.56 7.16178 33.7177 7.20064 33.8773 7.19775C34.037 7.19485 34.1931 7.1503 34.3302 7.06851C34.5555 6.93173 34.7923 6.81487 35.0379 6.71926C35.1593 6.6764 35.2833 6.64119 35.4092 6.61384L35.5412 6.58084C35.6952 6.54097 35.8362 6.46169 35.9503 6.35078C36.0645 6.23988 36.1477 6.10119 36.192 5.94834L36.3194 5.51292C36.5519 5.49642 36.7854 5.49642 37.0179 5.51292L37.1453 5.94834C37.1896 6.10119 37.2729 6.23988 37.387 6.35078C37.5011 6.46169 37.6421 6.54097 37.7962 6.58084L37.9282 6.61384C38.0549 6.64144 38.1798 6.67695 38.3022 6.72017C38.5468 6.81567 38.7826 6.93222 39.0071 7.06851C39.1442 7.1503 39.3003 7.19485 39.46 7.19775C39.6197 7.20064 39.7773 7.16178 39.9173 7.08501L40.3023 6.87326C40.394 6.95026 40.4765 7.02909 40.5572 7.10976C40.6378 7.19042 40.7176 7.27659 40.7955 7.36642L40.581 7.75876C40.5039 7.89881 40.4648 8.05658 40.4675 8.21641C40.4703 8.37625 40.5147 8.53259 40.5966 8.66992C40.8199 9.04512 40.9881 9.45046 41.0962 9.87351C41.1357 10.0279 41.2149 10.1693 41.3258 10.2837C41.4367 10.3982 41.5756 10.4818 41.7287 10.5262L42.1558 10.6508C42.1641 10.77 42.1687 10.8864 42.1687 11.0001C42.1687 11.1138 42.1641 11.2302 42.1558 11.3493L41.7378 11.4713C41.5844 11.5159 41.4454 11.5999 41.3344 11.7148C41.2235 11.8298 41.1445 11.9718 41.1053 12.1267C40.9972 12.5537 40.8277 12.9629 40.6021 13.3413C40.5203 13.4784 40.4757 13.6345 40.4728 13.7942C40.4699 13.9538 40.5088 14.1115 40.5856 14.2515L40.7955 14.6328C40.7185 14.7245 40.6387 14.8079 40.5581 14.8886C40.4774 14.9693 40.3922 15.049 40.3014 15.1269L39.9201 14.917C39.7801 14.8402 39.6224 14.8014 39.4628 14.8043C39.3031 14.8072 39.147 14.8517 39.0098 14.9335C38.6314 15.1591 38.2223 15.3286 37.7952 15.4368C37.6403 15.4759 37.4984 15.5549 37.3834 15.6658C37.2684 15.7768 37.1845 15.9159 37.1398 16.0693L37.0179 16.4873C36.7854 16.5038 36.5519 16.5038 36.3194 16.4873L36.1975 16.0693C36.1528 15.9159 36.0689 15.7768 35.9539 15.6658C35.8389 15.5549 35.697 15.4759 35.5421 15.4368C35.115 15.3286 34.7059 15.1591 34.3275 14.9335C34.1903 14.8517 34.0342 14.8072 33.8746 14.8043C33.7149 14.8014 33.5573 14.8402 33.4172 14.917L33.0359 15.1269C32.9442 15.049 32.8608 14.9702 32.7792 14.8886C32.6977 14.807 32.6188 14.7227 32.5418 14.6328L32.7517 14.2515C32.8285 14.1115 32.8674 13.9538 32.8645 13.7942C32.8616 13.6345 32.817 13.4784 32.7352 13.3413C32.5096 12.9629 32.3401 12.5537 32.232 12.1267C32.1928 11.9718 32.1139 11.8298 32.0029 11.7148C31.892 11.5999 31.7529 11.5159 31.5995 11.4713L31.1815 11.3493C31.1714 11.2302 31.1668 11.1138 31.1668 11.0001C31.1668 10.8864 31.1714 10.77 31.1797 10.6508V10.649Z" fill="url(#paint3_linear_1_20343)"/>
<path d="M44 34.8333C43.4561 34.8333 42.9244 34.9945 42.4722 35.2967C42.0199 35.5989 41.6675 36.0284 41.4593 36.5309C41.2512 37.0334 41.1967 37.5863 41.3028 38.1197C41.409 38.6532 41.6709 39.1432 42.0555 39.5278C42.4401 39.9124 42.9301 40.1743 43.4635 40.2804C43.997 40.3865 44.5499 40.3321 45.0524 40.1239C45.5549 39.9158 45.9844 39.5633 46.2865 39.1111C46.5887 38.6588 46.75 38.1272 46.75 37.5833C46.75 36.8539 46.4603 36.1544 45.9445 35.6387C45.4288 35.123 44.7293 34.8333 44 34.8333ZM44 38.4999C43.8187 38.4999 43.6415 38.4462 43.4907 38.3454C43.34 38.2447 43.2225 38.1015 43.1531 37.934C43.0837 37.7665 43.0656 37.5822 43.1009 37.4044C43.1363 37.2266 43.2236 37.0633 43.3518 36.9351C43.48 36.8069 43.6434 36.7196 43.8212 36.6842C43.999 36.6488 44.1833 36.667 44.3508 36.7364C44.5183 36.8057 44.6615 36.9232 44.7622 37.074C44.8629 37.2247 44.9167 37.402 44.9167 37.5833C44.9167 37.8264 44.8201 38.0595 44.6482 38.2314C44.4763 38.4033 44.2431 38.4999 44 38.4999Z" fill="url(#paint4_linear_1_20343)"/>
<path d="M36.6665 13.75C37.2104 13.75 37.7421 13.5887 38.1943 13.2865C38.6466 12.9844 38.999 12.5549 39.2072 12.0524C39.4153 11.5499 39.4698 10.997 39.3637 10.4635C39.2576 9.93006 38.9956 9.44005 38.611 9.05546C38.2265 8.67086 37.7364 8.40895 37.203 8.30284C36.6696 8.19673 36.1166 8.25119 35.6141 8.45933C35.1116 8.66747 34.6821 9.01995 34.38 9.47218C34.0778 9.92442 33.9165 10.4561 33.9165 11C33.9165 11.7293 34.2062 12.4288 34.722 12.9445C35.2377 13.4603 35.9372 13.75 36.6665 13.75ZM36.6665 10.0833C36.8478 10.0833 37.025 10.1371 37.1758 10.2378C37.3265 10.3385 37.444 10.4817 37.5134 10.6492C37.5828 10.8167 37.6009 11.001 37.5656 11.1788C37.5302 11.3567 37.4429 11.52 37.3147 11.6482C37.1865 11.7764 37.0232 11.8637 36.8453 11.8991C36.6675 11.9344 36.4832 11.9163 36.3157 11.8469C36.1482 11.7775 36.005 11.66 35.9043 11.5093C35.8036 11.3585 35.7498 11.1813 35.7498 11C35.7498 10.7569 35.8464 10.5237 36.0183 10.3518C36.1902 10.1799 36.4234 10.0833 36.6665 10.0833Z" fill="url(#paint5_linear_1_20343)"/>
<path d="M16.4998 27.4999C17.9502 27.4999 19.3681 27.0698 20.574 26.264C21.78 25.4582 22.7199 24.3129 23.275 22.9729C23.83 21.6329 23.9752 20.1585 23.6923 18.7359C23.4093 17.3134 22.7109 16.0067 21.6853 14.9811C20.6597 13.9556 19.353 13.2571 17.9305 12.9742C16.508 12.6912 15.0335 12.8364 13.6935 13.3915C12.3535 13.9465 11.2082 14.8864 10.4024 16.0924C9.5966 17.2984 9.1665 18.7162 9.1665 20.1666C9.16869 22.1108 9.94201 23.9748 11.3168 25.3496C12.6916 26.7244 14.5556 27.4977 16.4998 27.4999ZM16.4998 14.6666C17.5876 14.6666 18.651 14.9892 19.5555 15.5935C20.4599 16.1979 21.1649 17.0568 21.5812 18.0618C21.9975 19.0668 22.1064 20.1727 21.8942 21.2396C21.6819 22.3065 21.1581 23.2865 20.3889 24.0557C19.6197 24.8249 18.6397 25.3487 17.5728 25.5609C16.5059 25.7731 15.4001 25.6642 14.3951 25.2479C13.3901 24.8316 12.5311 24.1267 11.9268 23.2222C11.3224 22.3178 10.9998 21.2544 10.9998 20.1666C11.0013 18.7083 11.5812 17.3102 12.6124 16.2791C13.6435 15.248 15.0416 14.668 16.4998 14.6666Z" fill="url(#paint6_linear_1_20343)"/>
<path d="M24.7502 40.3333H28.4168C28.6599 40.3333 28.8931 40.2368 29.065 40.0648C29.2369 39.8929 29.3335 39.6598 29.3335 39.4167C29.3335 39.1736 29.2369 38.9404 29.065 38.7685C28.8931 38.5966 28.6599 38.5 28.4168 38.5H24.7502C24.507 38.5 24.2739 38.5966 24.102 38.7685C23.9301 38.9404 23.8335 39.1736 23.8335 39.4167C23.8335 39.6598 23.9301 39.8929 24.102 40.0648C24.2739 40.2368 24.507 40.3333 24.7502 40.3333Z" fill="url(#paint7_linear_1_20343)"/>
</g>
<defs>
<linearGradient id="paint0_linear_1_20343" x1="3.6665" y1="22.4404" x2="29.3304" y2="22.4404" gradientUnits="userSpaceOnUse">
<stop stop-color="#C4161C"/>
<stop offset="1" stop-color="#600B0E"/>
</linearGradient>
<linearGradient id="paint1_linear_1_20343" x1="0" y1="32.3639" x2="55" y2="32.3639" gradientUnits="userSpaceOnUse">
<stop stop-color="#C4161C"/>
<stop offset="1" stop-color="#600B0E"/>
</linearGradient>
<linearGradient id="paint2_linear_1_20343" x1="36.6665" y1="38.8804" x2="51.3332" y2="38.8804" gradientUnits="userSpaceOnUse">
<stop stop-color="#C4161C"/>
<stop offset="1" stop-color="#600B0E"/>
</linearGradient>
<linearGradient id="paint3_linear_1_20343" x1="29.3335" y1="12.2971" x2="44.0001" y2="12.2971" gradientUnits="userSpaceOnUse">
<stop stop-color="#C4161C"/>
<stop offset="1" stop-color="#600B0E"/>
</linearGradient>
<linearGradient id="paint4_linear_1_20343" x1="41.25" y1="38.0696" x2="46.75" y2="38.0696" gradientUnits="userSpaceOnUse">
<stop stop-color="#C4161C"/>
<stop offset="1" stop-color="#600B0E"/>
</linearGradient>
<linearGradient id="paint5_linear_1_20343" x1="33.9165" y1="11.4864" x2="39.4165" y2="11.4864" gradientUnits="userSpaceOnUse">
<stop stop-color="#C4161C"/>
<stop offset="1" stop-color="#600B0E"/>
</linearGradient>
<linearGradient id="paint6_linear_1_20343" x1="9.1665" y1="21.4636" x2="23.8332" y2="21.4636" gradientUnits="userSpaceOnUse">
<stop stop-color="#C4161C"/>
<stop offset="1" stop-color="#600B0E"/>
</linearGradient>
<linearGradient id="paint7_linear_1_20343" x1="23.8335" y1="39.5788" x2="29.3335" y2="39.5788" gradientUnits="userSpaceOnUse">
<stop stop-color="#C4161C"/>
<stop offset="1" stop-color="#600B0E"/>
</linearGradient>
<clipPath id="clip0_1_20343">
<rect width="55" height="55" fill="white"/>
</clipPath>
</defs>
</svg>
