<svg width="55" height="55" viewBox="0 0 55 55" fill="none" xmlns="http://www.w3.org/2000/svg">
<g clip-path="url(#clip0_1_20328)">
<path d="M49.5 0H5.5C2.46675 0 0 2.46675 0 5.5V42.1667C0 45.1999 2.46675 47.6667 5.5 47.6667H12.0972C12.2137 47.9609 12.3842 48.2378 12.6188 48.4724L13.8618 49.7154C14.586 50.4378 15.6842 50.6147 16.5944 50.1572L18.1683 49.3708C19.8999 50.4845 21.7947 51.2673 23.8159 51.7055L24.3742 53.3803C24.6977 54.3492 25.5998 55 26.62 55H28.3782C29.3984 55 30.3013 54.3492 30.624 53.3803L31.1822 51.7055C33.2035 51.2673 35.0983 50.4845 36.8298 49.3708L38.4028 50.1563C39.314 50.6138 40.414 50.4387 41.1372 49.7145L42.3802 48.4715C42.614 48.2368 42.7845 47.9609 42.9009 47.6667H49.4982C52.5314 47.6667 54.9982 45.1999 54.9982 42.1667V5.5C55 2.46675 52.5332 0 49.5 0ZM5.5 1.83333H49.5C51.5222 1.83333 53.1667 3.47783 53.1667 5.5V11H1.83333V5.5C1.83333 3.47783 3.47783 1.83333 5.5 1.83333ZM41.085 47.1763L39.8438 48.4174C39.6788 48.5815 39.4304 48.6218 39.2251 48.5173L37.1763 47.4934C36.8766 47.3449 36.5209 47.3697 36.2459 47.5576C34.4593 48.7887 32.4637 49.6128 30.3151 50.0097C29.9869 50.0702 29.7174 50.3039 29.612 50.6211L28.886 52.8C28.8127 53.0191 28.6082 53.1658 28.3782 53.1658H26.62C26.3899 53.1658 26.1855 53.0191 26.1122 52.8L25.3862 50.6211C25.2817 50.3039 25.0122 50.0702 24.6831 50.0097C22.5344 49.6128 20.5388 48.7887 18.7523 47.5576C18.5964 47.4513 18.4149 47.3963 18.2325 47.3963C18.0932 47.3963 17.952 47.4283 17.8228 47.4925L15.7731 48.5173C15.5687 48.6182 15.3202 48.5806 15.1562 48.4174L13.915 47.1763C13.7509 47.0122 13.7106 46.7647 13.8151 46.5575L14.839 44.5088C14.9884 44.2099 14.9637 43.8543 14.7748 43.5783C13.5437 41.7918 12.7197 39.7962 12.3227 37.6475C12.2622 37.3193 12.0285 37.0498 11.7113 36.9444L9.53242 36.2184C9.31333 36.1451 9.16667 35.9407 9.16667 35.7106V33.9524C9.16667 33.7223 9.31333 33.5179 9.53242 33.4446L11.7113 32.7177C12.0285 32.6123 12.2622 32.3437 12.3227 32.0146C12.7197 29.8668 13.5437 27.8713 14.7748 26.0847C14.9637 25.8088 14.9884 25.454 14.839 25.1543L13.8142 23.1046C13.7115 22.8983 13.7518 22.6508 13.9141 22.4877L15.1553 21.2465C15.3203 21.0824 15.5687 21.0421 15.774 21.1466L17.8228 22.1705C18.1225 22.319 18.4782 22.2943 18.7532 22.1063C20.5397 20.8752 22.5353 20.0512 24.684 19.6543C25.0122 19.5938 25.2817 19.36 25.3871 19.0428L26.1131 16.8639C26.1864 16.6448 26.3908 16.4982 26.6209 16.4982H28.3791C28.6092 16.4982 28.8136 16.6448 28.8869 16.8639L29.6129 19.0428C29.7174 19.36 29.9869 19.5938 30.316 19.6543C32.4647 20.0512 34.4602 20.8752 36.2468 22.1063C36.5218 22.2943 36.8775 22.319 37.1772 22.1705L39.2269 21.1457C39.4322 21.0448 39.6797 21.0824 39.8438 21.2456L41.085 22.4868C41.2491 22.6508 41.2894 22.8983 41.1849 23.1055L40.161 25.1543C40.0116 25.4531 40.0363 25.8088 40.2252 26.0847C41.4562 27.8713 42.2803 29.8668 42.6772 32.0146C42.7377 32.3428 42.9715 32.6113 43.2887 32.7177L45.4676 33.4446C45.6867 33.5179 45.8333 33.7223 45.8333 33.9524V35.7106C45.8333 35.9407 45.6867 36.1451 45.4676 36.2184L43.2887 36.9444C42.9715 37.0489 42.7377 37.3184 42.6772 37.6475C42.2803 39.7962 41.4562 41.7918 40.2252 43.5783C40.0363 43.8543 40.0116 44.209 40.161 44.5088L41.1858 46.5584C41.2885 46.7647 41.2482 47.0122 41.0859 47.1753L41.085 47.1763ZM49.5 45.8333H42.8633C42.8496 45.8022 42.8404 45.7692 42.8248 45.738L42.0383 44.1641C43.1521 42.4325 43.9349 40.5378 44.3731 38.5165L46.0478 37.9583C47.0168 37.6347 47.6676 36.7327 47.6676 35.7124V33.9543C47.6676 32.934 47.0168 32.0311 46.0478 31.7084L44.3731 31.1493C43.9349 29.1289 43.1521 27.2342 42.0383 25.5026L42.8239 23.9296C43.2813 23.0175 43.1044 21.9193 42.3821 21.1952L41.1391 19.9522C40.4158 19.2308 39.3186 19.0548 38.4065 19.5103L36.8326 20.2968C35.101 19.1831 33.2062 18.4002 31.185 17.9621L30.6267 16.2873C30.3032 15.3184 29.4012 14.6676 28.3809 14.6676H26.6227C25.6025 14.6676 24.6996 15.3184 24.3769 16.2873L23.8187 17.9621C21.7974 18.4002 19.9027 19.1831 18.1711 20.2968L16.5981 19.5112C15.6878 19.0548 14.5878 19.2298 13.8637 19.9531L12.6207 21.1961C11.8992 21.9193 11.7223 23.0175 12.1788 23.9287L12.9653 25.5026C11.8516 27.2342 11.0687 29.1289 10.6306 31.1493L8.95583 31.7084C7.98692 32.032 7.33608 32.934 7.33608 33.9543V35.7124C7.33608 36.7327 7.98692 37.6356 8.95583 37.9583L10.6306 38.5165C11.0687 40.5378 11.8516 42.4325 12.9653 44.1641L12.1797 45.7371C12.1642 45.7682 12.155 45.8013 12.1412 45.8324H5.50367C3.4815 45.8324 1.837 44.1879 1.837 42.1658V12.8333H53.1703V42.1667C53.1703 44.1888 51.5258 45.8333 49.5037 45.8333H49.5Z" fill="url(#paint0_linear_1_20328)"/>
<path d="M39.4165 9.16675C40.9327 9.16675 42.1665 7.93291 42.1665 6.41675C42.1665 4.90058 40.9327 3.66675 39.4165 3.66675C37.9003 3.66675 36.6665 4.90058 36.6665 6.41675C36.6665 7.93291 37.9003 9.16675 39.4165 9.16675ZM39.4165 5.50008C39.9225 5.50008 40.3332 5.91075 40.3332 6.41675C40.3332 6.92275 39.9225 7.33341 39.4165 7.33341C38.9105 7.33341 38.4998 6.92275 38.4998 6.41675C38.4998 5.91075 38.9105 5.50008 39.4165 5.50008Z" fill="url(#paint1_linear_1_20328)"/>
<path d="M46.75 9.16675C48.2662 9.16675 49.5 7.93291 49.5 6.41675C49.5 4.90058 48.2662 3.66675 46.75 3.66675C45.2338 3.66675 44 4.90058 44 6.41675C44 7.93291 45.2338 9.16675 46.75 9.16675ZM46.75 5.50008C47.256 5.50008 47.6667 5.91075 47.6667 6.41675C47.6667 6.92275 47.256 7.33341 46.75 7.33341C46.244 7.33341 45.8333 6.92275 45.8333 6.41675C45.8333 5.91075 46.244 5.50008 46.75 5.50008Z" fill="url(#paint2_linear_1_20328)"/>
<path d="M27.5 21.0833C19.9183 21.0833 13.75 27.2515 13.75 34.8333C13.75 42.415 19.9183 48.5833 27.5 48.5833C35.0818 48.5833 41.25 42.415 41.25 34.8333C41.25 27.2515 35.0818 21.0833 27.5 21.0833ZM27.5 46.7499C20.9293 46.7499 15.5833 41.4039 15.5833 34.8333C15.5833 28.2626 20.9293 22.9166 27.5 22.9166C34.0707 22.9166 39.4167 28.2626 39.4167 34.8333C39.4167 41.4039 34.0707 46.7499 27.5 46.7499Z" fill="url(#paint3_linear_1_20328)"/>
<path d="M32.5096 38.8437C31.2841 40.3727 29.4581 41.25 27.5001 41.25C24.4705 41.25 21.9295 39.1362 21.2612 36.3073L21.352 36.3981C21.5307 36.5768 21.7654 36.6667 22.0001 36.6667C22.2347 36.6667 22.4694 36.5768 22.6482 36.3981C23.0066 36.0397 23.0066 35.4603 22.6482 35.1019L20.8148 33.2686C20.4564 32.9102 19.8771 32.9102 19.5186 33.2686L17.6853 35.1019C17.3269 35.4603 17.3269 36.0397 17.6853 36.3981C18.0437 36.7565 18.6231 36.7565 18.9815 36.3981L19.3472 36.0323C19.9312 40.0134 23.3586 43.0833 27.5001 43.0833C30.0172 43.0833 32.3648 41.9558 33.9396 39.9896C34.2568 39.5945 34.1926 39.0179 33.7976 38.7017C33.4016 38.3863 32.8259 38.4487 32.5096 38.8437Z" fill="url(#paint4_linear_1_20328)"/>
<path d="M37.3149 33.2685C36.9564 32.9101 36.3771 32.9101 36.0187 33.2685L35.6529 33.6343C35.069 29.6532 31.6416 26.5833 27.5001 26.5833C24.9829 26.5833 22.6354 27.7108 21.0605 29.677C20.7434 30.0721 20.8075 30.6487 21.2026 30.9649C21.5995 31.2821 22.1752 31.2188 22.4905 30.8228C23.7161 29.2938 25.5421 28.4166 27.5001 28.4166C30.5297 28.4166 33.0707 30.5304 33.7389 33.3593L33.6482 33.2685C33.2898 32.9101 32.7104 32.9101 32.352 33.2685C31.9936 33.6269 31.9936 34.2063 32.352 34.5647L34.1854 36.398C34.3641 36.5768 34.5988 36.6666 34.8334 36.6666C35.0681 36.6666 35.3028 36.5768 35.4815 36.398L37.3149 34.5647C37.6733 34.2063 37.6733 33.6269 37.3149 33.2685Z" fill="url(#paint5_linear_1_20328)"/>
</g>
<defs>
<linearGradient id="paint0_linear_1_20328" x1="0" y1="32.3639" x2="54.9982" y2="32.3639" gradientUnits="userSpaceOnUse">
<stop stop-color="#C4161C"/>
<stop offset="1" stop-color="#600B0E"/>
</linearGradient>
<linearGradient id="paint1_linear_1_20328" x1="36.6665" y1="6.90314" x2="42.1665" y2="6.90314" gradientUnits="userSpaceOnUse">
<stop stop-color="#C4161C"/>
<stop offset="1" stop-color="#600B0E"/>
</linearGradient>
<linearGradient id="paint2_linear_1_20328" x1="44" y1="6.90314" x2="49.5" y2="6.90314" gradientUnits="userSpaceOnUse">
<stop stop-color="#C4161C"/>
<stop offset="1" stop-color="#600B0E"/>
</linearGradient>
<linearGradient id="paint3_linear_1_20328" x1="13.75" y1="37.2652" x2="41.25" y2="37.2652" gradientUnits="userSpaceOnUse">
<stop stop-color="#C4161C"/>
<stop offset="1" stop-color="#600B0E"/>
</linearGradient>
<linearGradient id="paint4_linear_1_20328" x1="17.4165" y1="38.9333" x2="34.1413" y2="38.9333" gradientUnits="userSpaceOnUse">
<stop stop-color="#C4161C"/>
<stop offset="1" stop-color="#600B0E"/>
</linearGradient>
<linearGradient id="paint5_linear_1_20328" x1="20.8589" y1="32.5166" x2="37.5837" y2="32.5166" gradientUnits="userSpaceOnUse">
<stop stop-color="#C4161C"/>
<stop offset="1" stop-color="#600B0E"/>
</linearGradient>
<clipPath id="clip0_1_20328">
<rect width="55" height="55" fill="white"/>
</clipPath>
</defs>
</svg>
