<svg width="25" height="26" viewBox="0 0 25 26" fill="none" xmlns="http://www.w3.org/2000/svg">
<g clip-path="url(#clip0_1_20411)">
<path fill-rule="evenodd" clip-rule="evenodd" d="M13.3999 14.6816H10.4661C10.3044 14.6816 10.1732 14.5503 10.1732 14.3887V13.0343C9.34275 12.7841 8.57547 12.3558 7.9324 11.7837L6.70002 12.4696C6.56203 12.5465 6.38757 12.4999 6.30612 12.3641L4.83937 9.91488C4.75441 9.77308 4.80363 9.5888 4.94821 9.50838L6.16784 8.82957C5.98063 8.01409 5.98048 7.1636 6.16784 6.34885L4.94821 5.67019C4.80363 5.58991 4.75441 5.40563 4.83937 5.26369L6.30612 2.81446C6.38757 2.67882 6.56203 2.63223 6.70002 2.70885L7.93254 3.39484C8.57561 2.82267 9.34261 2.39464 10.1732 2.14444V0.789308C10.1732 0.627588 10.3044 0.496338 10.4661 0.496338H13.3999C13.5617 0.496338 13.6929 0.627588 13.6929 0.789308V2.14415C14.5232 2.39434 15.2903 2.82237 15.9335 3.39454L17.1662 2.70855C17.3045 2.63165 17.4787 2.67823 17.5601 2.81417L19.0269 5.2634C19.112 5.40549 19.0619 5.58977 18.918 5.66975L17.6984 6.3487C17.8856 7.16419 17.8856 8.01409 17.6984 8.82957L18.918 9.50824C19.0623 9.58836 19.1118 9.77279 19.0269 9.91473L17.5601 12.364C17.479 12.4996 17.3046 12.5462 17.1662 12.4694L15.9343 11.7839C15.2912 12.3562 14.5236 12.7842 13.6929 13.0347V14.3887C13.6929 14.5504 13.5617 14.6816 13.3999 14.6816ZM19.7782 18.0451C19.6165 18.0451 19.4852 17.9137 19.4852 17.7521V14.6816H14.7699C14.3842 14.6816 14.3843 14.0957 14.7699 14.0957H19.7782C19.9399 14.0957 20.0712 14.2271 20.0712 14.3887V17.7521C20.0715 17.9138 19.9399 18.0451 19.7782 18.0451ZM5.22228 18.0451C5.06056 18.0451 4.92931 17.9137 4.92931 17.7521V14.3887C4.92931 14.227 5.06056 14.0957 5.22228 14.0957H9.09695C9.4825 14.0957 9.4825 14.6816 9.09695 14.6816H5.51525V17.7521C5.51525 17.9138 5.384 18.0451 5.22228 18.0451ZM22.9253 25.3466H16.631C16.4692 25.3466 16.338 25.2152 16.338 25.0537V23.6676C16.338 22.8924 17.0183 22.2619 17.8543 22.2619C18.3466 22.2619 18.8011 22.1704 18.8997 22.4607C19.1832 23.295 20.3726 23.2951 20.6556 22.461C20.7544 22.1704 21.2085 22.2619 21.7014 22.2619C22.5374 22.2619 23.2177 22.8927 23.2177 23.6676V25.0537C23.2182 25.2154 23.0868 25.3466 22.9251 25.3466H22.9253ZM16.9242 24.7604H22.6323V23.6673C22.6323 23.2153 22.215 22.8479 21.7021 22.8479H21.1275C20.5689 23.9478 18.9882 23.947 18.4291 22.8479H17.8546C17.3416 22.8479 16.9244 23.2154 16.9244 23.6673V24.7604H16.9242ZM19.7782 21.705C18.9438 21.705 18.2649 21.0263 18.2649 20.192C18.2649 19.3576 18.9438 18.6786 19.7782 18.6786C20.6126 18.6786 21.2912 19.3576 21.2912 20.192C21.2912 21.0263 20.6126 21.705 19.7782 21.705ZM19.7782 19.2649C18.5581 19.2649 18.5577 21.1188 19.7782 21.1188C20.9984 21.1188 20.998 19.2649 19.7782 19.2649ZM8.36951 25.4959H2.0752C1.91348 25.4959 1.78223 25.3645 1.78223 25.2029V23.8166C1.78223 23.0417 2.46236 22.4112 3.29849 22.4112C3.79097 22.4112 4.24581 22.3197 4.34454 22.61C4.62799 23.4447 5.81642 23.4442 6.10046 22.61C6.19933 22.3197 6.65358 22.4112 7.14621 22.4112C7.9822 22.4112 8.66248 23.042 8.66248 23.8166V25.2029C8.66248 25.3646 8.53152 25.4959 8.36951 25.4959ZM2.36817 24.91H8.07654V23.8166C8.07654 23.3648 7.6592 22.9973 7.14621 22.9973H6.57141C6.01271 24.097 4.43185 24.097 3.87345 22.9973H3.29864C2.78579 22.9973 2.36831 23.365 2.36831 23.8166V24.9098L2.36817 24.91ZM5.22243 21.8544C4.38805 21.8544 3.70938 21.1755 3.70938 20.3411C3.70938 19.5067 4.38805 18.8278 5.22243 18.8278C6.0568 18.8278 6.73547 19.5067 6.73547 20.3411C6.73547 21.1755 6.0568 21.8544 5.22243 21.8544ZM5.22243 19.4143C4.00221 19.4143 4.00221 21.2685 5.22243 21.2685C6.44265 21.2685 6.44265 19.4143 5.22243 19.4143ZM15.6475 22.5474H9.35315C9.19143 22.5474 9.06018 22.4161 9.06018 22.2545V20.8684C9.06018 20.0932 9.74031 19.4628 10.5764 19.4628C11.0697 19.4628 11.5235 19.3711 11.6222 19.6618C11.9054 20.4959 13.095 20.4959 13.378 19.6618C13.4767 19.3712 13.9308 19.4628 14.4237 19.4628C15.2597 19.4628 15.94 20.0935 15.94 20.8684V22.2545C15.9404 22.4162 15.8092 22.5474 15.6475 22.5474ZM9.64612 21.9612H15.3542V20.8681C15.3542 20.4161 14.9369 20.0487 14.424 20.0487H13.8494C13.291 21.1487 11.71 21.1479 11.1511 20.0487H10.5764C10.0636 20.0487 9.64612 20.4164 9.64612 20.8681V21.9612ZM12.5002 18.9058C11.6659 18.9058 10.9872 18.2272 10.9872 17.3928C10.9872 16.5584 11.666 15.8795 12.5002 15.8795C13.3345 15.8795 14.0136 16.5584 14.0136 17.3928C14.0136 18.2272 13.3346 18.9058 12.5002 18.9058ZM12.5002 16.466C11.2802 16.466 11.2799 18.3199 12.5002 18.3199C13.7206 18.3199 13.7203 16.466 12.5002 16.466ZM11.933 10.1345C10.4831 10.1345 9.3035 8.99276 9.3035 7.58914C9.3035 6.18567 10.4831 5.04382 11.933 5.04382C13.383 5.04382 14.5627 6.18552 14.5627 7.58914C14.5627 8.99247 13.383 10.1345 11.933 10.1345ZM11.933 5.62976C10.8061 5.62976 9.88943 6.50867 9.88943 7.58914C9.88943 8.66961 10.8061 9.54852 11.933 9.54852C13.06 9.54852 13.9767 8.66932 13.9767 7.58914C13.9767 6.50881 13.06 5.62976 11.933 5.62976ZM10.7593 14.0956H13.1071V12.8126C13.1071 12.2783 14.1605 12.6754 15.6886 11.2132C15.7819 11.1241 15.9218 11.1064 16.0339 11.1686L17.2031 11.8195L18.3687 9.87313C16.392 8.77303 17.2526 9.49769 17.2526 7.58914C17.2526 5.68015 16.392 6.40481 18.3687 5.30485L17.2031 3.35851L16.0332 4.00978C15.5799 4.26173 15.3703 3.18185 13.3264 2.64952C13.1975 2.61583 13.1073 2.49937 13.1073 2.36593V1.08228H10.7594V2.36607C10.7594 2.90045 9.69857 2.5067 8.17864 3.96539C8.08591 4.0546 7.94573 4.07247 7.83337 4.00993L6.66354 3.35865L5.49782 5.305C7.47492 6.40525 6.61374 5.68044 6.61374 7.58929C6.61374 9.49755 7.47478 8.77303 5.49782 9.87328L6.66354 11.8196L7.83337 11.1686C8.2863 10.9165 8.4968 11.9969 10.5404 12.5289C10.6693 12.5624 10.7596 12.6791 10.7596 12.8125L10.7597 14.0959H10.7594L10.7593 14.0956Z" fill="white" stroke="white" stroke-width="0.25"/>
</g>
<defs>
<clipPath id="clip0_1_20411">
<rect width="25" height="25" fill="white" transform="translate(0 0.496094)"/>
</clipPath>
</defs>
</svg>
