<svg width="55" height="55" viewBox="0 0 55 55" fill="none" xmlns="http://www.w3.org/2000/svg">
<g clip-path="url(#clip0_1_20376)">
<path d="M51.3333 0H3.66667C2.69421 0 1.76158 0.386308 1.07394 1.07394C0.386308 1.76158 0 2.69421 0 3.66667L0 51.3333C0 52.3058 0.386308 53.2384 1.07394 53.9261C1.76158 54.6137 2.69421 55 3.66667 55H51.3333C52.3058 55 53.2384 54.6137 53.9261 53.9261C54.6137 53.2384 55 52.3058 55 51.3333V3.66667C55 2.69421 54.6137 1.76158 53.9261 1.07394C53.2384 0.386308 52.3058 0 51.3333 0ZM3.66667 1.83333H51.3333C51.8196 1.83333 52.2859 2.02649 52.6297 2.3703C52.9735 2.71412 53.1667 3.18044 53.1667 3.66667V7.33333H1.83333V3.66667C1.83333 3.18044 2.02649 2.71412 2.3703 2.3703C2.71412 2.02649 3.18044 1.83333 3.66667 1.83333ZM27.5 34.8333C27.8626 34.8333 28.2171 34.9409 28.5185 35.1423C28.82 35.3438 29.055 35.6301 29.1938 35.9651C29.3325 36.3001 29.3688 36.6687 29.2981 37.0243C29.2274 37.38 29.0528 37.7066 28.7964 37.963C28.54 38.2194 28.2133 38.394 27.8577 38.4648C27.502 38.5355 27.1334 38.4992 26.7984 38.3604C26.4634 38.2217 26.1771 37.9867 25.9756 37.6852C25.7742 37.3837 25.6667 37.0293 25.6667 36.6667C25.6667 36.1804 25.8598 35.7141 26.2036 35.3703C26.5475 35.0265 27.0138 34.8333 27.5 34.8333ZM25.6667 17.4167V13.75H29.3333V17.4167H25.6667ZM26.5833 33.1302C25.7192 33.3533 24.9662 33.8839 24.4653 34.6225C23.9644 35.3611 23.7501 36.2571 23.8626 37.1424C23.975 38.0277 24.4065 38.8417 25.0761 39.4316C25.7458 40.0216 26.6076 40.3471 27.5 40.3471C28.3924 40.3471 29.2543 40.0216 29.9239 39.4316C30.5935 38.8417 31.025 38.0277 31.1374 37.1424C31.2499 36.2571 31.0356 35.3611 30.5347 34.6225C30.0338 33.8839 29.2808 33.3533 28.4167 33.1302V21.45L38.4175 36.9912C38.4643 37.0643 38.4923 37.1478 38.4988 37.2344C38.5054 37.3209 38.4904 37.4078 38.4551 37.4871L34.3558 46.75H20.6443L16.5449 37.4917C16.5096 37.4124 16.4946 37.3255 16.5012 37.239C16.5077 37.1524 16.5357 37.0688 16.5825 36.9958L26.5833 21.45V33.1302ZM20.1667 53.1667C19.9236 53.1667 19.6904 53.0701 19.5185 52.8982C19.3466 52.7263 19.25 52.4931 19.25 52.25V49.5C19.25 49.2569 19.3466 49.0237 19.5185 48.8518C19.6904 48.6799 19.9236 48.5833 20.1667 48.5833H34.8333C35.0765 48.5833 35.3096 48.6799 35.4815 48.8518C35.6534 49.0237 35.75 49.2569 35.75 49.5V52.25C35.75 52.4931 35.6534 52.7263 35.4815 52.8982C35.3096 53.0701 35.0765 53.1667 34.8333 53.1667H20.1667ZM51.3333 53.1667H37.4147C37.5232 52.8731 37.5803 52.563 37.5833 52.25V49.5C37.5816 49.0166 37.4522 48.5423 37.2082 48.125C36.9641 47.7078 36.6141 47.3625 36.1937 47.124L40.1353 38.2323C40.2942 37.8759 40.3618 37.4855 40.3318 37.0964C40.3019 36.7073 40.1755 36.3318 39.9639 36.0039L29.1803 19.25H29.3333C29.8196 19.25 30.2859 19.0568 30.6297 18.713C30.9735 18.3692 31.1667 17.9029 31.1667 17.4167V16.5376C38.4514 16.9043 44.3034 21.604 44.8598 27.5H44C43.5138 27.5 43.0475 27.6932 42.7036 28.037C42.3598 28.3808 42.1667 28.8471 42.1667 29.3333V33C42.1667 33.4862 42.3598 33.9525 42.7036 34.2964C43.0475 34.6402 43.5138 34.8333 44 34.8333H47.6667C48.1529 34.8333 48.6192 34.6402 48.963 34.2964C49.3068 33.9525 49.5 33.4862 49.5 33V29.3333C49.5 28.8471 49.3068 28.3808 48.963 28.037C48.6192 27.6932 48.1529 27.5 47.6667 27.5H46.6941C46.3192 22.792 43.0989 18.7312 38.4441 16.5H42.3326C42.5488 17.1116 42.9743 17.6271 43.5339 17.9553C44.0934 18.2836 44.751 18.4034 45.3903 18.2937C46.0297 18.184 46.6097 17.8518 47.0278 17.3559C47.446 16.8599 47.6753 16.232 47.6753 15.5833C47.6753 14.9346 47.446 14.3068 47.0278 13.8108C46.6097 13.3148 46.0297 12.9826 45.3903 12.8729C44.751 12.7632 44.0934 12.8831 43.5339 13.2113C42.9743 13.5396 42.5488 14.0551 42.3326 14.6667H31.1667V13.75C31.1667 13.2638 30.9735 12.7975 30.6297 12.4536C30.2859 12.1098 29.8196 11.9167 29.3333 11.9167H25.6667C25.1804 11.9167 24.7141 12.1098 24.3703 12.4536C24.0265 12.7975 23.8333 13.2638 23.8333 13.75V14.6667H12.6647C12.4484 14.0551 12.0229 13.5396 11.4634 13.2113C10.9038 12.8831 10.2463 12.7632 9.60691 12.8729C8.96754 12.9826 8.38753 13.3148 7.9694 13.8108C7.55127 14.3068 7.32194 14.9346 7.32194 15.5833C7.32194 16.232 7.55127 16.8599 7.9694 17.3559C8.38753 17.8518 8.96754 18.184 9.60691 18.2937C10.2463 18.4034 10.9038 18.2836 11.4634 17.9553C12.0229 17.6271 12.4484 17.1116 12.6647 16.5H16.5532C11.9011 18.7312 8.68083 22.792 8.30317 27.5H7.33333C6.8471 27.5 6.38079 27.6932 6.03697 28.037C5.69315 28.3808 5.5 28.8471 5.5 29.3333V33C5.5 33.4862 5.69315 33.9525 6.03697 34.2964C6.38079 34.6402 6.8471 34.8333 7.33333 34.8333H11C11.4862 34.8333 11.9525 34.6402 12.2964 34.2964C12.6402 33.9525 12.8333 33.4862 12.8333 33V29.3333C12.8333 28.8471 12.6402 28.3808 12.2964 28.037C11.9525 27.6932 11.4862 27.5 11 27.5H10.1402C10.6966 21.604 16.5486 16.9061 23.8333 16.5376V17.4167C23.8333 17.9029 24.0265 18.3692 24.3703 18.713C24.7141 19.0568 25.1804 19.25 25.6667 19.25H25.8197L15.0407 35.9993C14.8291 36.3273 14.7027 36.7027 14.6728 37.0918C14.6428 37.4809 14.7104 37.8713 14.8693 38.2277L18.8063 47.1194C18.3852 47.3583 18.0348 47.7043 17.7907 48.1224C17.5466 48.5406 17.4176 49.0159 17.4167 49.5V52.25C17.4197 52.563 17.4768 52.8731 17.5853 53.1667H3.66667C3.18044 53.1667 2.71412 52.9735 2.3703 52.6297C2.02649 52.2859 1.83333 51.8196 1.83333 51.3333V9.16667H53.1667V51.3333C53.1667 51.8196 52.9735 52.2859 52.6297 52.6297C52.2859 52.9735 51.8196 53.1667 51.3333 53.1667ZM47.6667 29.3333V33H44V29.3333H47.6667ZM44 15.5833C44 15.402 44.0538 15.2248 44.1545 15.0741C44.2552 14.9233 44.3984 14.8058 44.5659 14.7364C44.7334 14.6671 44.9177 14.6489 45.0955 14.6843C45.2733 14.7197 45.4367 14.807 45.5648 14.9352C45.693 15.0633 45.7803 15.2267 45.8157 15.4045C45.8511 15.5823 45.8329 15.7666 45.7636 15.9341C45.6942 16.1016 45.5767 16.2448 45.4259 16.3455C45.2752 16.4462 45.098 16.5 44.9167 16.5C44.6736 16.5 44.4404 16.4034 44.2685 16.2315C44.0966 16.0596 44 15.8264 44 15.5833ZM11 15.5833C11 15.7646 10.9462 15.9419 10.8455 16.0926C10.7448 16.2434 10.6016 16.3608 10.4341 16.4302C10.2666 16.4996 10.0823 16.5178 9.9045 16.4824C9.72668 16.447 9.56335 16.3597 9.43515 16.2315C9.30695 16.1033 9.21965 15.94 9.18428 15.7622C9.14891 15.5844 9.16706 15.4 9.23644 15.2325C9.30582 15.065 9.42332 14.9219 9.57406 14.8212C9.72481 14.7204 9.90203 14.6667 10.0833 14.6667C10.3264 14.6667 10.5596 14.7632 10.7315 14.9352C10.9034 15.1071 11 15.3402 11 15.5833ZM11 29.3333V33H7.33333V29.3333H11Z" fill="url(#paint0_linear_1_20376)"/>
<path d="M4.58317 5.50008H5.49984C5.74295 5.50008 5.97611 5.4035 6.14802 5.2316C6.31993 5.05969 6.4165 4.82653 6.4165 4.58341C6.4165 4.3403 6.31993 4.10714 6.14802 3.93523C5.97611 3.76333 5.74295 3.66675 5.49984 3.66675H4.58317C4.34006 3.66675 4.1069 3.76333 3.93499 3.93523C3.76308 4.10714 3.6665 4.3403 3.6665 4.58341C3.6665 4.82653 3.76308 5.05969 3.93499 5.2316C4.1069 5.4035 4.34006 5.50008 4.58317 5.50008Z" fill="url(#paint1_linear_1_20376)"/>
<path d="M9.16667 5.50008H10.0833C10.3264 5.50008 10.5596 5.4035 10.7315 5.2316C10.9034 5.05969 11 4.82653 11 4.58341C11 4.3403 10.9034 4.10714 10.7315 3.93523C10.5596 3.76333 10.3264 3.66675 10.0833 3.66675H9.16667C8.92355 3.66675 8.69039 3.76333 8.51849 3.93523C8.34658 4.10714 8.25 4.3403 8.25 4.58341C8.25 4.82653 8.34658 5.05969 8.51849 5.2316C8.69039 5.4035 8.92355 5.50008 9.16667 5.50008Z" fill="url(#paint2_linear_1_20376)"/>
<path d="M13.7502 5.50008H14.6668C14.9099 5.50008 15.1431 5.4035 15.315 5.2316C15.4869 5.05969 15.5835 4.82653 15.5835 4.58341C15.5835 4.3403 15.4869 4.10714 15.315 3.93523C15.1431 3.76333 14.9099 3.66675 14.6668 3.66675H13.7502C13.507 3.66675 13.2739 3.76333 13.102 3.93523C12.9301 4.10714 12.8335 4.3403 12.8335 4.58341C12.8335 4.82653 12.9301 5.05969 13.102 5.2316C13.2739 5.4035 13.507 5.50008 13.7502 5.50008Z" fill="url(#paint3_linear_1_20376)"/>
<path d="M44.9167 5.50008H50.4167C50.6598 5.50008 50.8929 5.4035 51.0648 5.2316C51.2368 5.05969 51.3333 4.82653 51.3333 4.58341C51.3333 4.3403 51.2368 4.10714 51.0648 3.93523C50.8929 3.76333 50.6598 3.66675 50.4167 3.66675H44.9167C44.6736 3.66675 44.4404 3.76333 44.2685 3.93523C44.0966 4.10714 44 4.3403 44 4.58341C44 4.82653 44.0966 5.05969 44.2685 5.2316C44.4404 5.4035 44.6736 5.50008 44.9167 5.50008Z" fill="url(#paint4_linear_1_20376)"/>
</g>
<defs>
<linearGradient id="paint0_linear_1_20376" x1="0" y1="32.3639" x2="55" y2="32.3639" gradientUnits="userSpaceOnUse">
<stop stop-color="#C4161C"/>
<stop offset="1" stop-color="#600B0E"/>
</linearGradient>
<linearGradient id="paint1_linear_1_20376" x1="3.6665" y1="4.74555" x2="6.4165" y2="4.74555" gradientUnits="userSpaceOnUse">
<stop stop-color="#C4161C"/>
<stop offset="1" stop-color="#600B0E"/>
</linearGradient>
<linearGradient id="paint2_linear_1_20376" x1="8.25" y1="4.74555" x2="11" y2="4.74555" gradientUnits="userSpaceOnUse">
<stop stop-color="#C4161C"/>
<stop offset="1" stop-color="#600B0E"/>
</linearGradient>
<linearGradient id="paint3_linear_1_20376" x1="12.8335" y1="4.74555" x2="15.5835" y2="4.74555" gradientUnits="userSpaceOnUse">
<stop stop-color="#C4161C"/>
<stop offset="1" stop-color="#600B0E"/>
</linearGradient>
<linearGradient id="paint4_linear_1_20376" x1="44" y1="4.74555" x2="51.3333" y2="4.74555" gradientUnits="userSpaceOnUse">
<stop stop-color="#C4161C"/>
<stop offset="1" stop-color="#600B0E"/>
</linearGradient>
<clipPath id="clip0_1_20376">
<rect width="55" height="55" fill="white"/>
</clipPath>
</defs>
</svg>
