<svg width="55" height="55" viewBox="0 0 55 55" fill="none" xmlns="http://www.w3.org/2000/svg">
<g clip-path="url(#clip0_1_20360)">
<path d="M4.58333 55H30.25C32.78 54.997 34.8303 52.9467 34.8333 50.4167V24.6318L38.3304 23.8544C38.5232 23.8042 38.7098 23.7329 38.8868 23.6418C38.908 23.6349 38.9288 23.627 38.9492 23.6179C39.2106 23.4907 39.4501 23.3227 39.6587 23.1202L52.25 10.5279L54.1942 8.58367C54.7101 8.06793 54.9999 7.36838 54.9999 6.63896C54.9999 5.90953 54.7101 5.20999 54.1942 4.69425L50.3057 0.80575C49.79 0.289924 49.0905 0.000128948 48.361 0.000128948C47.6316 0.000128948 46.9321 0.289924 46.4163 0.80575L44.4721 2.75L34.8333 12.3888V4.58333C34.8303 2.05328 32.78 0.00303061 30.25 0H4.58333C2.05328 0.00303061 0.00303061 2.05328 0 4.58333V50.4167C0.00303061 52.9467 2.05328 54.997 4.58333 55ZM30.25 53.1667H4.58333C3.06455 53.1667 1.83333 51.9355 1.83333 50.4167V47.6667H33V50.4167C33 51.9355 31.7688 53.1667 30.25 53.1667ZM32.6856 18.1876L36.8106 22.3126L31.5095 23.4841L32.6856 18.1876ZM38.6384 21.5472L33.4528 16.3616L34.5583 15.2533L34.5648 15.246L45.1202 4.69425L47.0644 6.63942L37.3413 16.3625C37.103 16.5927 37.0075 16.9335 37.0914 17.254C37.1752 17.5745 37.4255 17.8248 37.746 17.9086C38.0665 17.9925 38.4073 17.897 38.6375 17.6587L48.3606 7.93558L50.3057 9.87983L38.6384 21.5472ZM47.7134 2.10192C47.8853 1.92979 48.1187 1.83307 48.362 1.83307C48.6052 1.83307 48.8386 1.92979 49.0105 2.10192L52.899 5.99042C53.0711 6.16235 53.1678 6.39567 53.1678 6.63896C53.1678 6.88225 53.0711 7.11556 52.899 7.2875L51.6019 8.58367L49.0114 5.99317L46.4163 3.39808L47.7134 2.10192ZM31.8789 15.3422C31.6771 15.5505 31.5094 15.7894 31.3821 16.0499C31.3729 16.071 31.3656 16.0921 31.3582 16.1141C31.2665 16.2927 31.1946 16.4808 31.1437 16.6751L29.722 23.0798C29.5777 23.6947 29.7608 24.3406 30.2065 24.7882C30.6522 25.2357 31.2973 25.4216 31.9128 25.2798L33 25.0388V45.8333H1.83333V9.16667H33V14.2221L31.8789 15.3422ZM4.58333 1.83333H30.25C31.7688 1.83333 33 3.06455 33 4.58333V7.33333H1.83333V4.58333C1.83333 3.06455 3.06455 1.83333 4.58333 1.83333Z" fill="url(#paint0_linear_1_20360)"/>
<path d="M8.85061 30.7882L16.1839 34.5364C16.5596 34.7268 16.9746 34.827 17.3958 34.8288C17.4092 34.835 17.4246 34.835 17.4379 34.8288C17.8591 34.827 18.2741 34.7268 18.6498 34.5364L25.9831 30.7882C26.9187 30.3093 27.5053 29.3449 27.5002 28.2939V19.3729C27.4992 18.913 27.3852 18.4603 27.1684 18.0547V18.0428L27.1592 18.0309C26.8938 17.5369 26.4846 17.1351 25.9859 16.8786L18.6525 13.1304C17.8776 12.7371 16.9616 12.7371 16.1867 13.1304L8.85336 16.8786C8.3546 17.1351 7.94544 17.5369 7.68003 18.0309L7.67086 18.0428V18.0547C7.45208 18.4598 7.33624 18.9125 7.33353 19.3729V28.2939C7.32841 29.3449 7.91503 30.3093 8.85061 30.7882ZM9.68478 29.1556C9.36348 28.989 9.16323 28.6558 9.16686 28.2939L9.16681 19.8166L16.5002 23.4832V32.6389L9.68478 29.1556ZM25.149 29.1556L18.3335 32.6389V23.4832L25.6669 19.8166L25.6669 28.2939C25.6705 28.6558 25.4702 28.989 25.149 29.1556ZM17.0181 14.7639C17.2688 14.6368 17.565 14.6368 17.8156 14.7639L24.6686 18.2674L17.4169 21.8919L10.1651 18.2665L17.0181 14.7639Z" fill="url(#paint1_linear_1_20360)"/>
<path d="M20.1667 5.50008H21.0833C21.5896 5.50008 22 5.08968 22 4.58341C22 4.07715 21.5896 3.66675 21.0833 3.66675H20.1667C19.6604 3.66675 19.25 4.07715 19.25 4.58341C19.25 5.08968 19.6604 5.50008 20.1667 5.50008Z" fill="url(#paint2_linear_1_20360)"/>
<path d="M13.7502 5.50008H16.5002C17.0064 5.50008 17.4168 5.08968 17.4168 4.58341C17.4168 4.07715 17.0064 3.66675 16.5002 3.66675H13.7502C13.2439 3.66675 12.8335 4.07715 12.8335 4.58341C12.8335 5.08968 13.2439 5.50008 13.7502 5.50008Z" fill="url(#paint3_linear_1_20360)"/>
<path d="M19.2498 49.5H15.5832C15.0769 49.5 14.6665 49.9104 14.6665 50.4167C14.6665 50.9229 15.0769 51.3333 15.5832 51.3333H19.2498C19.7561 51.3333 20.1665 50.9229 20.1665 50.4167C20.1665 49.9104 19.7561 49.5 19.2498 49.5Z" fill="url(#paint4_linear_1_20360)"/>
<path d="M27.993 33.1036L17.818 38.4019C17.5693 38.5329 17.272 38.5329 17.0233 38.4019L6.84827 33.1026C6.39921 32.8688 5.84557 33.0432 5.61168 33.4922C5.37779 33.9413 5.55221 34.4949 6.00127 34.7288L16.1827 40.0281C16.9615 40.4332 17.8889 40.4332 18.6678 40.0281L28.8483 34.7297C29.1388 34.5784 29.3265 34.2836 29.3407 33.9564C29.3549 33.6292 29.1934 33.3193 28.9172 33.1433C28.6409 32.9674 28.2918 32.9523 28.0013 33.1036H27.993Z" fill="url(#paint5_linear_1_20360)"/>
</g>
<defs>
<linearGradient id="paint0_linear_1_20360" x1="0" y1="32.3639" x2="54.9999" y2="32.3639" gradientUnits="userSpaceOnUse">
<stop stop-color="#C4161C"/>
<stop offset="1" stop-color="#600B0E"/>
</linearGradient>
<linearGradient id="paint1_linear_1_20360" x1="7.3335" y1="25.7798" x2="27.5002" y2="25.7798" gradientUnits="userSpaceOnUse">
<stop stop-color="#C4161C"/>
<stop offset="1" stop-color="#600B0E"/>
</linearGradient>
<linearGradient id="paint2_linear_1_20360" x1="19.25" y1="4.74555" x2="22" y2="4.74555" gradientUnits="userSpaceOnUse">
<stop stop-color="#C4161C"/>
<stop offset="1" stop-color="#600B0E"/>
</linearGradient>
<linearGradient id="paint3_linear_1_20360" x1="12.8335" y1="4.74555" x2="17.4168" y2="4.74555" gradientUnits="userSpaceOnUse">
<stop stop-color="#C4161C"/>
<stop offset="1" stop-color="#600B0E"/>
</linearGradient>
<linearGradient id="paint4_linear_1_20360" x1="14.6665" y1="50.5788" x2="20.1665" y2="50.5788" gradientUnits="userSpaceOnUse">
<stop stop-color="#C4161C"/>
<stop offset="1" stop-color="#600B0E"/>
</linearGradient>
<linearGradient id="paint5_linear_1_20360" x1="5.50781" y1="37.3139" x2="29.3415" y2="37.3139" gradientUnits="userSpaceOnUse">
<stop stop-color="#C4161C"/>
<stop offset="1" stop-color="#600B0E"/>
</linearGradient>
<clipPath id="clip0_1_20360">
<rect width="55" height="55" fill="white"/>
</clipPath>
</defs>
</svg>
