<svg width="34" height="34" viewBox="0 0 34 34" fill="none" xmlns="http://www.w3.org/2000/svg">
<path d="M17.0165 2.83325C9.21635 2.83325 2.86652 9.17762 2.86369 16.9778C2.86227 19.4711 3.51533 21.9052 4.7535 24.05L2.83325 31.1666L10.2458 29.4151C12.3128 30.5428 14.6396 31.1347 17.0082 31.1361H17.0138C24.8125 31.1361 31.1596 24.7904 31.1638 16.9916C31.1667 13.2105 29.6963 9.65554 27.0245 6.98088C24.3527 4.30763 20.8019 2.83467 17.0165 2.83325ZM17.0138 5.66658C20.0398 5.668 22.8835 6.8478 25.0212 8.98413C27.159 11.1233 28.3333 13.9657 28.3305 16.9888C28.3277 23.2278 23.2528 28.3028 17.011 28.3028C15.1226 28.3014 13.252 27.8272 11.6044 26.9276L10.6498 26.4075L9.59562 26.6565L6.80656 27.315L7.48722 24.786L7.79435 23.6516L7.20776 22.6334C6.21893 20.922 5.6956 18.9654 5.69702 16.9778C5.69985 10.7416 10.7762 5.66658 17.0138 5.66658ZM12.0084 10.4478C11.7718 10.4478 11.3893 10.5364 11.0649 10.8905C10.7404 11.2433 9.82528 12.0977 9.82528 13.8373C9.82528 15.577 11.0925 17.2586 11.2696 17.4952C11.4453 17.7304 13.7157 21.4132 17.3098 22.8298C20.2961 24.0071 20.9027 23.7747 21.5515 23.7152C22.2003 23.6572 23.6447 22.8616 23.9394 22.0357C24.234 21.2098 24.2347 20.4993 24.1469 20.3534C24.0591 20.2061 23.8232 20.1182 23.469 19.9412C23.1162 19.7641 21.3779 18.9105 21.0535 18.7929C20.729 18.6753 20.4918 18.6158 20.2566 18.97C20.0214 19.3241 19.3456 20.1183 19.1388 20.3534C18.9319 20.59 18.7265 20.6218 18.3723 20.4447C18.0181 20.2662 16.8794 19.8919 15.5279 18.6877C14.4767 17.7513 13.7675 16.5959 13.5606 16.2418C13.3552 15.889 13.5413 15.6953 13.7183 15.5196C13.877 15.3609 14.0697 15.1067 14.2468 14.8998C14.4225 14.693 14.4834 14.5456 14.601 14.3105C14.7186 14.0753 14.6584 13.8678 14.5706 13.6907C14.4827 13.5136 13.7949 11.7675 13.4804 11.0676C13.2155 10.4797 12.9357 10.4661 12.6835 10.4561C12.4781 10.4476 12.2435 10.4478 12.0084 10.4478Z" fill="#FFDA8A"/>
</svg>
