<svg width="48" height="48" viewBox="0 0 48 48" fill="none" xmlns="http://www.w3.org/2000/svg">
<mask id="mask0_1025_58509" style="mask-type:alpha" maskUnits="userSpaceOnUse" x="0" y="0" width="48" height="48">
<rect width="48" height="48" fill="#D9D9D9"/>
</mask>
<g mask="url(#mask0_1025_58509)">
<path d="M2.00537 42.0039V10.0039H12.3054L16.0054 6.00391H28.0054V10.0039H17.7554L14.1054 14.0039H6.00537V38.0039H38.0054V20.0039H42.0054V42.0039H2.00537ZM38.0054 14.0039V10.0039H34.0054V6.00391H38.0054V2.00391H42.0054V6.00391H46.0054V10.0039H42.0054V14.0039H38.0054ZM22.0054 35.0039C24.5054 35.0039 26.6304 34.1289 28.3804 32.3789C30.1304 30.6289 31.0054 28.5039 31.0054 26.0039C31.0054 23.5039 30.1304 21.3789 28.3804 19.6289C26.6304 17.8789 24.5054 17.0039 22.0054 17.0039C19.5054 17.0039 17.3804 17.8789 15.6304 19.6289C13.8804 21.3789 13.0054 23.5039 13.0054 26.0039C13.0054 28.5039 13.8804 30.6289 15.6304 32.3789C17.3804 34.1289 19.5054 35.0039 22.0054 35.0039ZM22.0054 31.0039C20.6054 31.0039 19.422 30.5206 18.4554 29.5539C17.4887 28.5872 17.0054 27.4039 17.0054 26.0039C17.0054 24.6039 17.4887 23.4206 18.4554 22.4539C19.422 21.4872 20.6054 21.0039 22.0054 21.0039C23.4054 21.0039 24.5887 21.4872 25.5554 22.4539C26.522 23.4206 27.0054 24.6039 27.0054 26.0039C27.0054 27.4039 26.522 28.5872 25.5554 29.5539C24.5887 30.5206 23.4054 31.0039 22.0054 31.0039Z" fill="#919191"/>
<path d="M22.0054 26.0039H27.0054M27.0054 26.0039C27.0054 24.6039 26.522 23.4206 25.5554 22.4539C24.5887 21.4872 23.4054 21.0039 22.0054 21.0039C20.6054 21.0039 19.422 21.4872 18.4554 22.4539C17.4887 23.4206 17.0054 24.6039 17.0054 26.0039C17.0054 27.4039 17.4887 28.5872 18.4554 29.5539C19.422 30.5206 20.6054 31.0039 22.0054 31.0039C23.4054 31.0039 24.5887 30.5206 25.5554 29.5539C26.522 28.5872 27.0054 27.4039 27.0054 26.0039ZM2.00537 42.0039V10.0039H12.3054L16.0054 6.00391H28.0054V10.0039H17.7554L14.1054 14.0039H6.00537V38.0039H38.0054V20.0039H42.0054V42.0039H2.00537ZM38.0054 14.0039V10.0039H34.0054V6.00391H38.0054V2.00391H42.0054V6.00391H46.0054V10.0039H42.0054V14.0039H38.0054ZM22.0054 35.0039C24.5054 35.0039 26.6304 34.1289 28.3804 32.3789C30.1304 30.6289 31.0054 28.5039 31.0054 26.0039C31.0054 23.5039 30.1304 21.3789 28.3804 19.6289C26.6304 17.8789 24.5054 17.0039 22.0054 17.0039C19.5054 17.0039 17.3804 17.8789 15.6304 19.6289C13.8804 21.3789 13.0054 23.5039 13.0054 26.0039C13.0054 28.5039 13.8804 30.6289 15.6304 32.3789C17.3804 34.1289 19.5054 35.0039 22.0054 35.0039Z" stroke="white" stroke-width="2"/>
</g>
</svg>
