<svg width="20" height="21" viewBox="0 0 20 21" fill="none" xmlns="http://www.w3.org/2000/svg">
<path d="M13.0711 12.8493C13.3331 12.9367 13.6163 12.7951 13.7036 12.5331C13.7909 12.2711 13.6493 11.988 13.3874 11.9007L13.0711 12.8493ZM10.4167 11.4375H9.91675C9.91675 11.6527 10.0545 11.8438 10.2586 11.9118L10.4167 11.4375ZM10.9167 7.51739C10.9167 7.24125 10.6929 7.01739 10.4167 7.01739C10.1406 7.01739 9.91675 7.24125 9.91675 7.51739H10.9167ZM13.3874 11.9007L10.5749 10.9632L10.2586 11.9118L13.0711 12.8493L13.3874 11.9007ZM10.9167 11.4375V7.51739H9.91675V11.4375H10.9167ZM17.4167 10.5C17.4167 14.366 14.2827 17.5 10.4167 17.5V18.5C14.835 18.5 18.4167 14.9183 18.4167 10.5H17.4167ZM10.4167 17.5C6.55075 17.5 3.41675 14.366 3.41675 10.5H2.41675C2.41675 14.9183 5.99847 18.5 10.4167 18.5V17.5ZM3.41675 10.5C3.41675 6.63401 6.55075 3.5 10.4167 3.5V2.5C5.99847 2.5 2.41675 6.08172 2.41675 10.5H3.41675ZM10.4167 3.5C14.2827 3.5 17.4167 6.63401 17.4167 10.5H18.4167C18.4167 6.08172 14.835 2.5 10.4167 2.5V3.5Z" fill="#221D23"/>
</svg>
