<svg width="34" height="34" viewBox="0 0 34 34" fill="none" xmlns="http://www.w3.org/2000/svg">
<path d="M21.8614 12.8457C22.0566 12.6505 22.0566 12.3339 21.8614 12.1386C21.6661 11.9434 21.3495 11.9434 21.1543 12.1386L21.8614 12.8457ZM12.1386 21.1543C11.9434 21.3495 11.9434 21.6661 12.1386 21.8614C12.3339 22.0566 12.6505 22.0566 12.8457 21.8614L12.1386 21.1543ZM21.1543 21.8614C21.3495 22.0566 21.6661 22.0566 21.8614 21.8614C22.0566 21.6661 22.0566 21.3495 21.8614 21.1543L21.1543 21.8614ZM12.8457 12.1386C12.6505 11.9434 12.3339 11.9434 12.1386 12.1386C11.9434 12.3339 11.9434 12.6505 12.1386 12.8457L12.8457 12.1386ZM29.25 17C29.25 23.7655 23.7655 29.25 17 29.25V30.25C24.3178 30.25 30.25 24.3178 30.25 17H29.25ZM17 29.25C10.2345 29.25 4.75 23.7655 4.75 17H3.75C3.75 24.3178 9.68223 30.25 17 30.25V29.25ZM4.75 17C4.75 10.2345 10.2345 4.75 17 4.75V3.75C9.68223 3.75 3.75 9.68223 3.75 17H4.75ZM17 4.75C23.7655 4.75 29.25 10.2345 29.25 17H30.25C30.25 9.68223 24.3178 3.75 17 3.75V4.75ZM21.1543 12.1386L16.6464 16.6464L17.3536 17.3536L21.8614 12.8457L21.1543 12.1386ZM16.6464 16.6464L12.1386 21.1543L12.8457 21.8614L17.3536 17.3536L16.6464 16.6464ZM21.8614 21.1543L17.3536 16.6464L16.6464 17.3536L21.1543 21.8614L21.8614 21.1543ZM17.3536 16.6464L12.8457 12.1386L12.1386 12.8457L16.6464 17.3536L17.3536 16.6464Z" fill="white"/>
</svg>
