<svg width="20" height="21" viewBox="0 0 20 21" fill="none" xmlns="http://www.w3.org/2000/svg">
<path d="M7.49984 9.00358L10.0913 10.9472C10.5097 11.261 11.0994 11.1993 11.4439 10.8057L16.6665 4.83691" stroke="#333333" stroke-linecap="round"/>
<path d="M17.4998 10.6699C17.4998 12.237 17.0089 13.7647 16.0961 15.0385C15.1833 16.3123 13.8945 17.2682 12.4106 17.7719C10.9266 18.2756 9.32222 18.3019 7.82262 17.847C6.32302 17.3921 5.00358 16.4789 4.04961 15.2356C3.09563 13.9924 2.55504 12.4816 2.50377 10.9153C2.4525 9.34908 2.89311 7.80612 3.76373 6.50315C4.63435 5.20017 5.89124 4.20263 7.35788 3.65063C8.82452 3.09862 10.4272 3.01989 11.9409 3.42548" stroke="#333333" stroke-linecap="round"/>
</svg>
