<svg width="26" height="25" viewBox="0 0 26 25" fill="none" xmlns="http://www.w3.org/2000/svg">
<path d="M5.54769 15.4288C5.96313 16.9793 6.87857 18.3493 8.15202 19.3265C9.42546 20.3036 10.9858 20.8333 12.5909 20.8333C14.196 20.8333 15.7563 20.3036 17.0298 19.3265C18.3032 18.3493 19.2187 16.9793 19.6341 15.4288" stroke="url(#paint0_linear_1025_39019)"/>
<path d="M12.5909 13.5417L12.2786 13.9322L12.5909 14.1821L12.9032 13.9322L12.5909 13.5417ZM13.0909 4.16675C13.0909 3.89061 12.867 3.66675 12.5909 3.66675C12.3148 3.66675 12.0909 3.89061 12.0909 4.16675L13.0909 4.16675ZM7.07022 9.76552L12.2786 13.9322L12.9032 13.1513L7.69492 8.98465L7.07022 9.76552ZM12.9032 13.9322L18.1116 9.76552L17.4869 8.98465L12.2786 13.1513L12.9032 13.9322ZM13.0909 13.5417L13.0909 4.16675L12.0909 4.16675L12.0909 13.5417L13.0909 13.5417Z" fill="url(#paint1_linear_1025_39019)"/>
<defs>
<linearGradient id="paint0_linear_1025_39019" x1="11.3012" y1="20.8333" x2="11.3012" y2="6.24992" gradientUnits="userSpaceOnUse">
<stop stop-color="#A60014"/>
<stop offset="1" stop-color="#600B0E"/>
</linearGradient>
<linearGradient id="paint1_linear_1025_39019" x1="13.5121" y1="13.5417" x2="13.5121" y2="4.16675" gradientUnits="userSpaceOnUse">
<stop stop-color="#A60014"/>
<stop offset="1" stop-color="#600B0E"/>
</linearGradient>
</defs>
</svg>
