<svg width="20" height="20" viewBox="0 0 20 20" fill="none" xmlns="http://www.w3.org/2000/svg">
<path d="M10.0001 2.29175C4.21925 2.29175 2.29175 4.21925 2.29175 10.0001C2.29175 15.7809 4.21925 17.7084 10.0001 17.7084C15.7809 17.7084 17.7084 15.7809 17.7084 10.0001" stroke="white" stroke-linecap="round" stroke-linejoin="round"/>
<path fill-rule="evenodd" clip-rule="evenodd" d="M16.2736 3.58649V3.58649C15.4461 2.85399 14.1819 2.93065 13.4494 3.75815C13.4494 3.75815 9.80861 7.87065 8.54611 9.29815C7.28194 10.7248 8.20861 12.6957 8.20861 12.6957C8.20861 12.6957 10.2953 13.3565 11.5403 11.9498C12.7861 10.5432 16.4453 6.41065 16.4453 6.41065C17.1778 5.58315 17.1003 4.31899 16.2736 3.58649Z" stroke="white" stroke-linecap="round" stroke-linejoin="round"/>
<path d="M12.5073 4.83398L15.5032 7.48648" stroke="white" stroke-linecap="round" stroke-linejoin="round"/>
</svg>
