<svg width="60" height="61" viewBox="0 0 60 61" fill="none" xmlns="http://www.w3.org/2000/svg">
<mask id="mask0_1025_37863" style="mask-type:alpha" maskUnits="userSpaceOnUse" x="0" y="0" width="60" height="61">
<rect y="0.500977" width="60" height="60" fill="#D9D9D9"/>
</mask>
<g mask="url(#mask0_1025_37863)">
<path d="M31.2519 41.7541C30.9203 42.0857 30.5204 42.2532 30.001 42.2532C29.4815 42.2532 29.0816 42.0857 28.7501 41.7541C28.4185 41.4226 28.251 41.0227 28.251 40.5032C28.251 39.9837 28.4185 39.5839 28.7501 39.2523C29.0816 38.9207 29.4815 38.7532 30.001 38.7532C30.5204 38.7532 30.9203 38.9207 31.2519 39.2523C31.5835 39.5839 31.751 39.9837 31.751 40.5032C31.751 41.0227 31.5835 41.4226 31.2519 41.7541ZM31.751 32.2532H28.251V18.7532H31.751V32.2532ZM30.001 54.7532C26.6403 54.7532 23.4918 54.1161 20.5481 52.8458C17.5899 51.5693 15.024 49.8406 12.8438 47.6604C10.6636 45.4801 8.93487 42.9143 7.65835 39.9561C6.38812 37.0123 5.75098 33.8639 5.75098 30.5032C5.75098 27.1425 6.38812 23.9941 7.65835 21.0504C8.93487 18.0921 10.6636 15.5263 12.8438 13.346C15.024 11.1658 17.5899 9.43709 20.5481 8.16058C23.4918 6.89035 26.6403 6.2532 30.001 6.2532C33.3617 6.2532 36.5101 6.89035 39.4538 8.16058C42.4121 9.43709 44.9779 11.1658 47.1581 13.346C49.3384 15.5263 51.0671 18.0921 52.3436 21.0504C53.6138 23.9941 54.251 27.1425 54.251 30.5032C54.251 33.8639 53.6138 37.0123 52.3436 39.9561C51.0671 42.9143 49.3384 45.4801 47.1581 47.6604C44.9779 49.8406 42.4121 51.5693 39.4538 52.8458C36.5101 54.1161 33.3617 54.7532 30.001 54.7532ZM30.001 51.2532C35.779 51.2532 40.7002 49.2396 44.7188 45.221C48.7374 41.2024 50.751 36.2812 50.751 30.5032C50.751 24.7252 48.7374 19.804 44.7188 15.7854C40.7002 11.7668 35.779 9.7532 30.001 9.7532C24.2229 9.7532 19.3017 11.7668 15.2831 15.7854C11.2645 19.804 9.25098 24.7252 9.25098 30.5032C9.25098 36.2812 11.2645 41.2024 15.2831 45.221C19.3017 49.2396 24.2229 51.2532 30.001 51.2532Z" fill="url(#paint0_linear_1025_37863)" stroke="white" stroke-width="1.5"/>
</g>
<defs>
<linearGradient id="paint0_linear_1025_37863" x1="5.00098" y1="34.925" x2="55.001" y2="34.925" gradientUnits="userSpaceOnUse">
<stop stop-color="#A60014"/>
<stop offset="1" stop-color="#600B0E"/>
</linearGradient>
</defs>
</svg>
