<svg width="21" height="21" viewBox="0 0 21 21" fill="none" xmlns="http://www.w3.org/2000/svg">
<path d="M7.78255 9.0717L10.374 11.0153C10.7925 11.3291 11.3821 11.2674 11.7266 10.8738L16.9492 4.90503" stroke="#919191" stroke-linecap="round"/>
<path d="M17.7827 10.7383C17.7827 12.3054 17.2919 13.8331 16.3791 15.1069C15.4663 16.3807 14.1774 17.3365 12.6935 17.8403C11.2096 18.344 9.60518 18.3702 8.10558 17.9153C6.60598 17.4604 5.28654 16.5472 4.33256 15.304C3.37859 14.0607 2.838 12.5499 2.78673 10.9837C2.73546 9.41744 3.17607 7.87448 4.04669 6.5715C4.91731 5.26853 6.1742 4.27099 7.64084 3.71899C9.10747 3.16698 10.7102 3.08825 12.2239 3.49384" stroke="#919191" stroke-linecap="round"/>
</svg>
