<svg width="20" height="21" viewBox="0 0 20 21" fill="none" xmlns="http://www.w3.org/2000/svg">
<path d="M7.49984 9.29972L10.0913 11.2433C10.5097 11.5572 11.0994 11.4955 11.4439 11.1018L16.6665 5.13306" stroke="#333333" stroke-linecap="round"/>
<path d="M17.5 10.9664C17.5 12.5334 17.0091 14.0612 16.0964 15.335C15.1836 16.6087 13.8947 17.5646 12.4108 18.0683C10.9269 18.5721 9.32246 18.5983 7.82287 18.1434C6.32327 17.6885 5.00383 16.7753 4.04985 15.5321C3.09587 14.2888 2.55529 12.778 2.50402 11.2118C2.45274 9.64553 2.89336 8.10257 3.76398 6.79959C4.6346 5.49662 5.89149 4.49908 7.35812 3.94708C8.82476 3.39507 10.4275 3.31634 11.9411 3.72193" stroke="#333333" stroke-linecap="round"/>
</svg>
