<svg width="20" height="21" viewBox="0 0 20 21" fill="none" xmlns="http://www.w3.org/2000/svg">
<path d="M8.5 18.9664H6.5C4.84315 18.9664 3.5 17.6232 3.5 15.9664V5.96637C3.5 4.30952 4.84315 2.96637 6.5 2.96637H13.5C15.1569 2.96637 16.5 4.30952 16.5 5.96637V8.46637M13 6.96637H6.5M10 9.96637H6.5M8.5 12.9664H6.5M11.5 13.2164L12.6584 12.6372C13.5029 12.2149 14.4971 12.2149 15.3416 12.6372L16.5 13.2164C16.5 13.2164 16.5 15.0414 16.5 16.0039C16.5 16.9664 15.6103 17.6161 14 18.633C12.3897 17.6161 11.5 16.758 11.5 16.0039V13.2164Z" stroke="#333333" stroke-linecap="round" stroke-linejoin="round"/>
</svg>
