<svg width="21" height="21" viewBox="0 0 21 21" fill="none" xmlns="http://www.w3.org/2000/svg">
<path d="M4.8656 13.2898C5.19795 14.5301 5.9303 15.6262 6.94905 16.4079C7.96781 17.1896 9.21605 17.6133 10.5002 17.6133C11.7843 17.6133 13.0325 17.1896 14.0513 16.4079C15.07 15.6262 15.8024 14.5301 16.1347 13.2898" stroke="white"/>
<path d="M10.5002 11.78L10.1878 12.1704L10.5002 12.4203L10.8125 12.1704L10.5002 11.78ZM11.0002 4.28C11.0002 4.00386 10.7763 3.78 10.5002 3.78C10.224 3.78 10.0002 4.00386 10.0002 4.28L11.0002 4.28ZM6.02115 8.8371L10.1878 12.1704L10.8125 11.3896L6.64584 8.05623L6.02115 8.8371ZM10.8125 12.1704L14.9792 8.8371L14.3545 8.05623L10.1878 11.3896L10.8125 12.1704ZM11.0002 11.78L11.0002 4.28L10.0002 4.28L10.0002 11.78L11.0002 11.78Z" fill="white"/>
</svg>
