<svg width="20" height="20" viewBox="0 0 20 20" fill="none" xmlns="http://www.w3.org/2000/svg">
<path d="M6.66683 10.8333L10.0612 13.5488C10.4891 13.8911 11.1128 13.8253 11.4598 13.4012L18.3335 5" stroke="#222222" stroke-width="1.2" stroke-linecap="round"/>
<path fill-rule="evenodd" clip-rule="evenodd" d="M9.09211 10.1125L12.9641 5.37999C13.174 5.12352 13.1362 4.7455 12.8797 4.53567C12.6233 4.32583 12.2452 4.36363 12.0354 4.6201L8.17021 9.34423L9.09211 10.1125ZM6.55905 13.2084L5.63715 12.4402L5.14245 13.0448C5.00672 13.2107 4.76434 13.2401 4.59286 13.1115L2.02644 11.1867C1.76134 10.9879 1.38526 11.0416 1.18644 11.3067C0.987619 11.5718 1.04134 11.9479 1.30644 12.1467L3.87286 14.0715C4.55877 14.586 5.52827 14.4683 6.0712 13.8047L6.55905 13.2084Z" fill="#A60014"/>
</svg>
