<svg width="21" height="21" viewBox="0 0 21 21" fill="none" xmlns="http://www.w3.org/2000/svg">
<path d="M8.78271 18.7383H6.78271C5.12586 18.7383 3.78271 17.3951 3.78271 15.7383V5.73828C3.78271 4.08143 5.12586 2.73828 6.78271 2.73828H13.7827C15.4396 2.73828 16.7827 4.08143 16.7827 5.73828V8.23828M13.2827 6.73828H6.78271M10.2827 9.73828H6.78271M8.78271 12.7383H6.78271M11.7827 12.9883L12.9411 12.4091C13.7857 11.9868 14.7798 11.9868 15.6244 12.4091L16.7827 12.9883C16.7827 12.9883 16.7827 14.8133 16.7827 15.7758C16.7827 16.7383 15.893 17.388 14.2827 18.4049C12.6724 17.388 11.7827 16.5299 11.7827 15.7758V12.9883Z" stroke="#919191" stroke-linecap="round" stroke-linejoin="round"/>
</svg>
