<svg width="27" height="27" viewBox="0 0 27 27" fill="none" xmlns="http://www.w3.org/2000/svg">
<path fill-rule="evenodd" clip-rule="evenodd" d="M16.3721 4.6369C15.4971 4.22752 14.5227 4 13.4999 4C10.0429 4 7.1386 6.59943 6.75683 10.0354L6.47355 12.5849C6.44564 12.8361 6.43277 12.9514 6.41667 13.0644C6.28651 13.9777 5.989 14.8591 5.53905 15.6644C5.48338 15.764 5.42374 15.8635 5.29369 16.0803L4.6434 17.1641L4.62483 17.195C4.29326 17.7476 4.01891 18.2048 3.85477 18.5816C3.68762 18.9653 3.58078 19.3819 3.74568 19.8002C3.79698 19.9303 3.86622 20.0526 3.9514 20.1635C4.22521 20.5201 4.63744 20.6429 5.05244 20.6969C5.45998 20.75 5.99318 20.75 6.63761 20.75H6.67371H20.3262H20.3623C21.0067 20.75 21.5399 20.75 21.9474 20.6969C22.3624 20.6429 22.7747 20.5201 23.0485 20.1635C23.1337 20.0526 23.2029 19.9303 23.2542 19.8002C23.4191 19.3819 23.3123 18.9653 23.1451 18.5816C22.981 18.2048 22.7067 17.7477 22.3751 17.1951L22.3565 17.1641L21.7062 16.0803C21.5762 15.8635 21.5165 15.764 21.4608 15.6644C21.0109 14.8591 20.7134 13.9777 20.5832 13.0644C20.5671 12.9514 20.5543 12.8361 20.5263 12.5849L20.4518 11.9138C20.1382 12.0167 19.8086 12.0842 19.4676 12.1114L19.5325 12.6953L19.5335 12.705L19.5336 12.7051C19.5601 12.9443 19.5747 13.0755 19.5932 13.2055C19.7407 14.2405 20.0779 15.2394 20.5879 16.1521C20.6519 16.2668 20.7199 16.38 20.8437 16.5864L20.8487 16.5948L21.499 17.6786C21.8539 18.27 22.0934 18.6712 22.2283 18.981C22.3634 19.2909 22.3398 19.3931 22.3239 19.4334C22.3068 19.4768 22.2837 19.5175 22.2553 19.5545C22.2289 19.5889 22.1535 19.6616 21.8183 19.7053C21.4832 19.749 21.0159 19.75 20.3262 19.75H6.67371C5.98399 19.75 5.51674 19.749 5.18164 19.7053C4.84641 19.6616 4.77096 19.5889 4.74456 19.5545C4.71616 19.5175 4.69308 19.4768 4.67598 19.4334C4.66008 19.3931 4.63652 19.2909 4.77154 18.981C4.90651 18.6712 5.14604 18.27 5.50089 17.6786L6.15118 16.5948L6.15609 16.5866C6.27999 16.3801 6.34794 16.2668 6.41203 16.1521C6.92197 15.2394 7.25916 14.2405 7.40666 13.2055C7.4252 13.0754 7.43979 12.9441 7.46638 12.7048L7.46743 12.6953L7.75071 10.1458C8.07621 7.21629 10.5524 5 13.4999 5C14.2602 5 14.989 5.14743 15.6577 5.41651C15.8628 5.12785 16.103 4.8659 16.3721 4.6369ZM18.1517 5.84578C17.8425 5.99434 17.5725 6.2115 17.3614 6.47753C18.382 7.39253 19.0789 8.66867 19.2465 10.1218C19.598 10.1031 19.9282 10.0036 20.2188 9.84168C19.998 8.26449 19.2437 6.87406 18.1517 5.84578Z" fill="#333333"/>
<path d="M10.24 20.7066C10.4323 21.5438 10.856 22.2837 11.4454 22.8113C12.0349 23.339 12.757 23.625 13.5 23.625C14.243 23.625 14.9651 23.339 15.5546 22.8113C16.144 22.2837 16.5677 21.5438 16.76 20.7066" stroke="#333333" stroke-linecap="round"/>
<ellipse cx="19.125" cy="7.875" rx="2.25" ry="2.25" fill="#221D23"/>
</svg>
