<svg width="24" height="24" viewBox="0 0 24 24" fill="none" xmlns="http://www.w3.org/2000/svg">
<mask id="mask0_1025_40798" style="mask-type:alpha" maskUnits="userSpaceOnUse" x="0" y="0" width="25" height="24">
<rect x="0.000244141" width="24" height="24" fill="#D9D9D9"/>
</mask>
<g mask="url(#mask0_1025_40798)">
<path d="M11.9946 19.9985C9.76129 19.9985 7.86963 19.2235 6.31963 17.6735C4.76963 16.1235 3.99463 14.2319 3.99463 11.9985C3.99463 9.7652 4.76963 7.87353 6.31963 6.32353C7.86963 4.77353 9.76129 3.99854 11.9946 3.99854C13.1446 3.99854 14.2446 4.23604 15.2946 4.71103C16.3446 5.18603 17.2446 5.8652 17.9946 6.74853V3.99854H19.9946V10.9985H12.9946V8.99853H17.1946C16.6613 8.0652 15.9321 7.33187 15.0071 6.79853C14.0821 6.2652 13.078 5.99853 11.9946 5.99853C10.328 5.99853 8.91129 6.58187 7.74463 7.74853C6.57796 8.9152 5.99463 10.3319 5.99463 11.9985C5.99463 13.6652 6.57796 15.0819 7.74463 16.2485C8.91129 17.4152 10.328 17.9985 11.9946 17.9985C13.278 17.9985 14.4363 17.6319 15.4696 16.8985C16.503 16.1652 17.228 15.1985 17.6446 13.9985H19.7446C19.278 15.7652 18.328 17.2069 16.8946 18.3235C15.4613 19.4402 13.828 19.9985 11.9946 19.9985Z" fill="#6D6F72"/>
</g>
</svg>
