<svg width="23" height="23" viewBox="0 0 23 23" fill="none" xmlns="http://www.w3.org/2000/svg">
<path d="M14 8.00278L14 8.625L14 19.1907C14 19.2843 13.9998 19.3599 13.9987 19.4219C13.9465 19.3884 13.8835 19.3466 13.8057 19.2947L11.9854 18.0812L11.975 18.0743C11.917 18.0356 11.8513 17.9918 11.7897 17.9597C11.7163 17.9215 11.6196 17.8838 11.5 17.8838C11.3804 17.8838 11.2837 17.9215 11.2103 17.9597C11.1487 17.9918 11.083 18.0356 11.025 18.0743C11.0215 18.0766 11.0181 18.0789 11.0146 18.0812L8.69434 19.6281C8.66649 19.6466 8.64429 19.6614 8.625 19.6739C8.60571 19.6614 8.58351 19.6466 8.55566 19.6281L8.34765 19.9401L8.55566 19.6281L6.23536 18.0812C6.23194 18.0789 6.22849 18.0766 6.22501 18.0743C6.16703 18.0356 6.10133 17.9918 6.03971 17.9597C5.96626 17.9215 5.86962 17.8838 5.75 17.8838C5.63038 17.8838 5.53374 17.9215 5.46029 17.9597C5.39868 17.9918 5.33297 18.0356 5.27499 18.0743C5.27151 18.0766 5.26806 18.0789 5.26464 18.0812L3.44434 19.2947C3.3665 19.3466 3.30348 19.3884 3.25129 19.4219C3.25018 19.3599 3.25 19.2843 3.25 19.1907L3.25 6.87501C3.25 5.9216 3.2508 5.24426 3.31988 4.73043C3.38751 4.22739 3.51435 3.93756 3.72595 3.72596C3.93756 3.51435 4.22738 3.38752 4.73042 3.31989C5.24426 3.2508 5.92159 3.25001 6.875 3.25001L16.0197 3.25001C15.7421 3.44144 15.5016 3.61552 15.295 3.78294C14.9009 4.10224 14.6085 4.41381 14.3993 4.8047C14.1902 5.19558 14.0931 5.61166 14.046 6.11666C14 6.60997 14 7.21397 14 7.98418L14 8.00278ZM14.1883 19.5275C14.1883 19.5275 14.1879 19.5274 14.187 19.5271L14.1883 19.5275ZM3.06305 19.5271C3.06212 19.5274 3.06167 19.5275 3.06168 19.5275C3.06169 19.5275 3.06216 19.5273 3.06305 19.5271ZM3.26816 19.6369C3.26847 19.6378 3.2686 19.6382 3.26859 19.6382C3.26858 19.6383 3.26843 19.6378 3.26816 19.6369Z" stroke="#221D23" stroke-width="0.75"/>
<path d="M14.75 5.75C14.75 4.36929 15.8693 3.25 17.25 3.25C18.6307 3.25 19.75 4.36929 19.75 5.75V7.625C19.75 7.97018 19.4702 8.25 19.125 8.25H14.875C14.806 8.25 14.75 8.19404 14.75 8.125V5.75Z" stroke="#221D23" stroke-width="0.75"/>
<path d="M5.27075 9.10425L11.9791 9.10425" stroke="#222222" stroke-linecap="round"/>
<path d="M5.27075 11.9792L9.10409 11.9792" stroke="#222222" stroke-linecap="round"/>
<path d="M5.27075 14.8542L11.0208 14.8542" stroke="#222222" stroke-linecap="round"/>
</svg>
