<svg width="23" height="23" viewBox="0 0 23 23" fill="none" xmlns="http://www.w3.org/2000/svg">
<path d="M6.23163 6.6839C6.50229 3.97722 8.77991 1.91602 11.5001 1.91602C14.2203 1.91602 16.4979 3.97723 16.7685 6.6839L17.0432 9.43062C17.0517 9.51557 17.056 9.55804 17.0606 9.5999C17.1982 10.8441 17.626 12.0386 18.3093 13.0874C18.3323 13.1227 18.356 13.1582 18.4033 13.2292L19.2286 14.4671C19.942 15.5373 20.2988 16.0724 20.1802 16.5105C20.1405 16.6573 20.0678 16.7931 19.9677 16.9076C19.6688 17.2493 19.0258 17.2493 17.7396 17.2493H5.26059C3.97441 17.2493 3.33132 17.2493 3.03249 16.9076C2.93238 16.7931 2.8597 16.6573 2.81998 16.5105C2.70141 16.0724 3.05813 15.5373 3.77158 14.4671L4.59684 13.2292C4.64419 13.1582 4.66787 13.1227 4.69086 13.0874C5.37421 12.0386 5.80192 10.8441 5.93958 9.5999C5.94421 9.55804 5.94846 9.51557 5.95695 9.43062L6.23163 6.6839Z" fill="white"/>
<path d="M9.64872 19.7699C9.75792 19.8717 9.99855 19.9618 10.3333 20.026C10.668 20.0902 11.0782 20.125 11.5001 20.125C11.922 20.125 12.3321 20.0902 12.6669 20.026C13.0016 19.9618 13.2422 19.8717 13.3514 19.7699" stroke="white" stroke-width="0.75" stroke-linecap="round"/>
</svg>
