<svg width="23" height="23" viewBox="0 0 23 23" fill="none" xmlns="http://www.w3.org/2000/svg">
<path opacity="0.37" d="M2.875 11.75C2.875 8.92157 2.875 7.50736 3.75368 6.62868C4.63236 5.75 6.04657 5.75 8.875 5.75H14.125C16.9534 5.75 18.3676 5.75 19.2463 6.62868C20.125 7.50736 20.125 8.92157 20.125 11.75V14.125C20.125 16.9534 20.125 18.3676 19.2463 19.2463C18.3676 20.125 16.9534 20.125 14.125 20.125H8.875C6.04657 20.125 4.63236 20.125 3.75368 19.2463C2.875 18.3676 2.875 16.9534 2.875 14.125V11.75Z" fill="white"/>
<path d="M4.55208 13.4167H5.33494C5.93725 13.4167 6.23841 13.4167 6.49515 13.4863C7.06856 13.6415 7.54326 14.0437 7.79069 14.5838C7.90147 14.8256 7.95098 15.1226 8.05 15.7167L8.05 15.7168C8.07475 15.8653 8.08713 15.9395 8.11483 16C8.17668 16.135 8.29536 16.2356 8.43871 16.2744C8.5029 16.2917 8.57819 16.2917 8.72877 16.2917H14.2712C14.4218 16.2917 14.4971 16.2917 14.5613 16.2744C14.7046 16.2356 14.8233 16.135 14.8852 16C14.9129 15.9395 14.9252 15.8653 14.95 15.7167L14.95 15.7167C15.049 15.1226 15.0985 14.8256 15.2093 14.5838C15.4567 14.0437 15.9314 13.6415 16.5048 13.4863C16.7616 13.4167 17.0627 13.4167 17.6651 13.4167H18.4479C19.0809 13.4167 19.3973 13.4167 19.6321 13.5548C19.7786 13.641 19.9007 13.7632 19.9869 13.9097C20.125 14.1444 20.125 14.4609 20.125 15.0938C20.125 16.9927 20.125 17.9421 19.7107 18.6463C19.4521 19.0858 19.0858 19.4522 18.6462 19.7108C17.942 20.1251 16.9926 20.1251 15.0938 20.1251H7.90625C6.00741 20.1251 5.05799 20.1251 4.3538 19.7108C3.91425 19.4522 3.54787 19.0858 3.28928 18.6463C2.875 17.9421 2.875 16.9927 2.875 15.0938C2.875 14.4609 2.875 14.1444 3.01309 13.9097C3.09929 13.7632 3.22142 13.641 3.36793 13.5548C3.60266 13.4167 3.91914 13.4167 4.55208 13.4167Z" fill="white"/>
<path d="M9.10425 10.0624L11.5001 12.4583M11.5001 12.4583L13.8959 10.0624M11.5001 12.4583L11.5001 2.87492" stroke="white" stroke-linecap="round"/>
</svg>
