<svg width="23" height="23" viewBox="0 0 23 23" fill="none" xmlns="http://www.w3.org/2000/svg">
<path d="M18.2084 15.1667V7.66675H4.79175V15.1667C4.79175 17.0524 4.79175 17.9952 5.37753 18.581C5.96332 19.1667 6.90613 19.1667 8.79175 19.1667H14.2084C16.094 19.1667 17.0368 19.1667 17.6226 18.581C18.2084 17.9952 18.2084 17.0524 18.2084 15.1667Z" stroke="#222222" stroke-width="0.75"/>
<path d="M16.6402 3.83325H6.35985C4.96982 3.83325 4.2748 3.83325 3.77377 4.16373C3.54784 4.31276 3.35451 4.50609 3.20548 4.73203C2.875 5.23305 2.875 5.92807 2.875 7.3181C2.875 7.4571 2.875 7.52661 2.90805 7.57671C2.92295 7.5993 2.94228 7.61863 2.96488 7.63354C3.01498 7.66659 3.08448 7.66659 3.22348 7.66659H4.79167H18.2083H19.7765C19.9155 7.66659 19.985 7.66659 20.0351 7.63354C20.0577 7.61863 20.077 7.5993 20.092 7.57671C20.125 7.52661 20.125 7.4571 20.125 7.3181C20.125 5.92807 20.125 5.23305 19.7945 4.73203C19.6455 4.50609 19.4522 4.31276 19.2262 4.16373C18.7252 3.83325 18.0302 3.83325 16.6402 3.83325Z" stroke="#222222" stroke-width="0.75"/>
<path d="M9.58325 15.3333H13.4166" stroke="#221D23" stroke-width="0.75" stroke-linecap="round"/>
</svg>
