<svg width="23" height="23" viewBox="0 0 23 23" fill="none" xmlns="http://www.w3.org/2000/svg">
<path d="M1.91675 11.4999L1.52631 11.1876L1.27644 11.4999L1.52631 11.8123L1.91675 11.4999ZM10.5417 11.9999C10.8179 11.9999 11.0417 11.7761 11.0417 11.4999C11.0417 11.2238 10.8179 10.9999 10.5417 10.9999V11.9999ZM5.35965 6.3959L1.52631 11.1876L2.30718 11.8123L6.14052 7.0206L5.35965 6.3959ZM1.52631 11.8123L5.35965 16.6039L6.14052 15.9792L2.30718 11.1876L1.52631 11.8123ZM1.91675 11.9999H10.5417V10.9999H1.91675V11.9999Z" fill="#A60014"/>
<path d="M9.58325 7.79318V7.22192C9.58325 5.60358 9.58325 4.79441 10.0572 4.23492C10.5312 3.67543 11.3293 3.5424 12.9257 3.27635L14.0969 3.08115C17.34 2.54063 18.9615 2.27037 20.0224 3.16907C21.0833 4.06777 21.0833 5.71168 21.0833 8.99951V14.0007C21.0833 17.2885 21.0833 18.9324 20.0224 19.8311C18.9615 20.7298 17.34 20.4595 14.0969 19.919L12.9257 19.7238C11.3293 19.4578 10.5312 19.3247 10.0572 18.7652C9.58325 18.2058 9.58325 17.3966 9.58325 15.7782V15.3966" stroke="#A60014"/>
</svg>
