<svg width="23" height="23" viewBox="0 0 23 23" fill="none" xmlns="http://www.w3.org/2000/svg">
<path d="M3.83325 7.66658L3.39131 8.10853L2.94937 7.66658L3.39131 7.22464L3.83325 7.66658ZM8.62492 18.8333C8.27974 18.8333 7.99992 18.5534 7.99992 18.2083C7.99992 17.8631 8.27974 17.5833 8.62492 17.5833L8.62492 18.8333ZM8.18298 12.9002L3.39131 8.10853L4.27519 7.22464L9.06686 12.0163L8.18298 12.9002ZM3.39131 7.22464L8.18298 2.43297L9.06686 3.31686L4.27519 8.10853L3.39131 7.22464ZM3.83325 7.04158L13.8958 7.04158L13.8958 8.29158L3.83325 8.29158L3.83325 7.04158ZM13.8958 18.8333L8.62492 18.8333L8.62492 17.5833L13.8958 17.5833L13.8958 18.8333ZM19.7916 12.9374C19.7916 16.1936 17.1519 18.8333 13.8958 18.8333L13.8958 17.5833C16.4616 17.5833 18.5416 15.5032 18.5416 12.9374L19.7916 12.9374ZM13.8958 7.04158C17.1519 7.04158 19.7916 9.68124 19.7916 12.9374L18.5416 12.9374C18.5416 10.3716 16.4616 8.29158 13.8958 8.29158L13.8958 7.04158Z" fill="#A60014"/>
</svg>
