<svg width="23" height="23" viewBox="0 0 23 23" fill="none" xmlns="http://www.w3.org/2000/svg">
<path d="M2.875 10.5417V10.5417C2.875 11.3564 2.875 11.7638 2.99191 12.0905C3.19365 12.6543 3.6374 13.0981 4.20122 13.2998C4.52797 13.4167 4.93531 13.4167 5.75 13.4167H6.3973C6.92454 13.4167 7.18816 13.4167 7.40356 13.5276C7.49215 13.5732 7.57342 13.6318 7.64469 13.7014C7.81798 13.8707 7.90135 14.1208 8.06808 14.621L8.16915 14.9242C8.38916 15.5842 8.49916 15.9142 8.76105 16.103C9.02294 16.2917 9.3708 16.2917 10.0665 16.2917H12.9335C13.6292 16.2917 13.9771 16.2917 14.239 16.103C14.5008 15.9142 14.6108 15.5842 14.8308 14.9242L14.9319 14.621C15.0987 14.1208 15.182 13.8707 15.3553 13.7014C15.4266 13.6318 15.5079 13.5732 15.5964 13.5276C15.8118 13.4167 16.0755 13.4167 16.6027 13.4167H17.25C18.0647 13.4167 18.472 13.4167 18.7988 13.2998C19.3626 13.0981 19.8064 12.6543 20.0081 12.0905C20.125 11.7638 20.125 11.3564 20.125 10.5417V10.5417" stroke="#221D23"/>
<path d="M7.66675 8.625L11.5001 11.5M11.5001 11.5L15.3334 8.625M11.5001 11.5L11.5001 1.91667" stroke="#222222"/>
<path d="M15.3333 4.79175H16.125C18.0106 4.79175 18.9534 4.79175 19.5392 5.37753C20.125 5.96332 20.125 6.90613 20.125 8.79175V16.1251C20.125 18.0107 20.125 18.9535 19.5392 19.5393C18.9534 20.1251 18.0106 20.1251 16.125 20.1251H6.875C4.98938 20.1251 4.04657 20.1251 3.46079 19.5393C2.875 18.9535 2.875 18.0107 2.875 16.1251V8.79175C2.875 6.90613 2.875 5.96332 3.46079 5.37753C4.04657 4.79175 4.98938 4.79175 6.875 4.79175H7.66667" stroke="#222222"/>
</svg>
