<svg width="23" height="23" viewBox="0 0 23 23" fill="none" xmlns="http://www.w3.org/2000/svg">
<path d="M4.26515 13.3286L10.9281 19.5877C11.1438 19.7904 11.2517 19.8918 11.3769 19.9235C11.4576 19.944 11.5422 19.944 11.6229 19.9235C11.7481 19.8918 11.856 19.7904 12.0718 19.5877L18.7347 13.3286C20.6094 11.5676 20.837 8.66958 19.2603 6.6374L18.9639 6.25529C17.0777 3.82423 13.2916 4.23193 11.9663 7.00883C11.7791 7.40109 11.2207 7.40109 11.0335 7.00883C9.70819 4.23193 5.92215 3.82422 4.03598 6.25529L3.73952 6.6374C2.16283 8.66958 2.39048 11.5676 4.26515 13.3286Z" fill="white" stroke="white" stroke-width="2"/>
</svg>
