<svg width="26" height="27" viewBox="0 0 26 27" fill="none" xmlns="http://www.w3.org/2000/svg">
<path d="M22.75 10.3332V10.1665C22.75 9.61422 22.3023 9.1665 21.75 9.1665H4.25C3.69772 9.1665 3.25 9.61422 3.25 10.1665V10.3332C3.25 10.8855 3.69771 11.3332 4.25 11.3332H4.63589C5.09476 11.3332 5.49474 11.6455 5.60603 12.0906L7.2046 18.4849C7.42718 19.3752 8.22715 19.9998 9.14489 19.9998H16.8551C17.7728 19.9998 18.5728 19.3752 18.7954 18.4849L20.394 12.0906C20.5053 11.6455 20.9052 11.3332 21.3641 11.3332H21.75C22.3023 11.3332 22.75 10.8855 22.75 10.3332Z" fill="white"/>
<path d="M9.20841 4.2915L7.04175 7.5415M16.7917 4.2915L18.9584 7.5415" stroke="white" stroke-linecap="round"/>
<path d="M11.3751 16.2085L10.2917 12.9585M14.6251 16.2085L15.7084 12.9585" stroke="#A60014" stroke-linecap="round"/>
</svg>
