<svg width="24" height="23" viewBox="0 0 24 23" fill="none" xmlns="http://www.w3.org/2000/svg">
<path fill-rule="evenodd" clip-rule="evenodd" d="M2.41675 20.125V6.875C2.41675 4.98938 2.41675 4.04657 3.00253 3.46079C3.58832 2.875 4.53113 2.875 6.41675 2.875H15.8334C16.6394 2.875 17.2461 2.875 17.7325 2.9033C15.5847 3.14964 13.9167 4.97378 13.9167 7.1875V10.5419L13.8221 20.0934L11.0417 19.1667L8.16675 20.125L5.29175 19.1667L2.41675 20.125ZM20.5417 10.5417L15.9167 10.5417V7.1875C15.9167 5.91034 16.9521 4.875 18.2292 4.875C19.5064 4.875 20.5417 5.91034 20.5417 7.1875V10.5417ZM4.29175 6.70833C4.29175 6.15605 4.73946 5.70833 5.29175 5.70833H11.0417C11.594 5.70833 12.0417 6.15605 12.0417 6.70833C12.0417 7.26062 11.594 7.70833 11.0417 7.70833H5.29175C4.73946 7.70833 4.29175 7.26062 4.29175 6.70833ZM4.29175 10.5417C4.29175 9.98938 4.73946 9.54167 5.29175 9.54167H7.20841C7.7607 9.54167 8.20842 9.98938 8.20842 10.5417C8.20842 11.094 7.7607 11.5417 7.20841 11.5417H5.29175C4.73946 11.5417 4.29175 11.094 4.29175 10.5417ZM4.29175 14.375C4.29175 13.8227 4.73946 13.375 5.29175 13.375H9.12508C9.67737 13.375 10.1251 13.8227 10.1251 14.375C10.1251 14.9273 9.67737 15.375 9.12508 15.375H5.29175C4.73946 15.375 4.29175 14.9273 4.29175 14.375Z" fill="white"/>
</svg>
