<svg width="26" height="27" viewBox="0 0 26 27" fill="none" xmlns="http://www.w3.org/2000/svg">
<path d="M11.3751 17.2917L10.2917 13.5001" stroke="#222222" stroke-linecap="round"/>
<path d="M9.20841 7.54175L7.04175 10.7917M16.7917 7.54175L18.9584 10.7917" stroke="#221D23" stroke-linecap="round"/>
<path d="M14.625 17.2917L15.7083 13.5001" stroke="#222222" stroke-linecap="round"/>
<path d="M4.875 10.7917V10.7917C5.50798 10.7917 6.05603 11.2314 6.19334 11.8493L7.42894 17.4095C7.76263 18.9111 7.92948 19.6619 8.47789 20.1018C9.0263 20.5417 9.79543 20.5417 11.3337 20.5417H14.6663C16.2046 20.5417 16.9737 20.5417 17.5221 20.1018C18.0705 19.6619 18.2374 18.9111 18.5711 17.4095L19.8067 11.8493C19.944 11.2314 20.492 10.7917 21.125 10.7917V10.7917" stroke="#222222" stroke-linecap="round"/>
<path d="M3.79175 10.7917H22.2084" stroke="#222222" stroke-linecap="round"/>
</svg>
