<svg width="23" height="23" viewBox="0 0 23 23" fill="none" xmlns="http://www.w3.org/2000/svg">
<path d="M1.91675 6.70833C1.91675 4.98428 1.91675 4.12225 2.41307 3.55631C2.47063 3.49067 2.53242 3.42888 2.59806 3.37132C3.164 2.875 4.02603 2.875 5.75008 2.875H17.2501C18.9741 2.875 19.8362 2.875 20.4021 3.37132C20.4677 3.42888 20.5295 3.49067 20.5871 3.55631C21.0834 4.12225 21.0834 4.98428 21.0834 6.70833C21.0834 7.57036 21.0834 8.00137 20.8353 8.28435C20.8065 8.31716 20.7756 8.34806 20.7428 8.37684C20.4598 8.625 20.0288 8.625 19.1667 8.625H3.83341C2.97139 8.625 2.54037 8.625 2.2574 8.37684C2.22459 8.34806 2.19369 8.31716 2.16491 8.28435C1.91675 8.00137 1.91675 7.57036 1.91675 6.70833Z" fill="white"/>
<path fill-rule="evenodd" clip-rule="evenodd" d="M4.71193 19.2462C3.83325 18.3675 3.83325 16.9533 3.83325 14.1248V10.5415H19.1666V14.1248C19.1666 16.9533 19.1666 18.3675 18.2879 19.2462C17.4092 20.1248 15.995 20.1248 13.1666 20.1248H9.83325C7.00482 20.1248 5.59061 20.1248 4.71193 19.2462ZM9.58325 14.9582C9.37615 14.9582 9.20825 15.1261 9.20825 15.3332C9.20825 15.5403 9.37615 15.7082 9.58325 15.7082H13.4166C13.6237 15.7082 13.7916 15.5403 13.7916 15.3332C13.7916 15.1261 13.6237 14.9582 13.4166 14.9582H9.58325Z" fill="white"/>
</svg>
