<svg width="181" height="81" viewBox="0 0 181 81" fill="none" xmlns="http://www.w3.org/2000/svg">
<mask id="mask0_647_496" style="mask-type:luminance" maskUnits="userSpaceOnUse" x="-119" y="-170" width="418" height="422">
<path d="M298.291 -169.328H-118.29V251.313H298.291V-169.328Z" fill="white"/>
</mask>
<g mask="url(#mask0_647_496)">
<path d="M65.0012 41.4673C62.0619 49.6142 51.1132 47.8928 51.7745 35.8877H65.7213C65.2069 29.4324 60.798 24.4019 55.4339 24.4019C49.7317 24.4019 45.1465 30.1151 45.1465 37.149C45.1465 44.183 49.7758 49.911 55.4339 49.911C59.9309 49.911 63.7373 46.3941 65.1775 41.4673M60.313 34.2405H51.7745C51.7745 23.2444 60.313 23.2444 60.313 34.2405Z" fill="#1E1B1B"/>
<path d="M79.2132 14.1924H72.8203V49.9112H79.2132V14.1924Z" fill="#1E1B1B"/>
<path d="M129.989 14.1924H123.596V49.9112H129.989V14.1924Z" fill="#1E1B1B"/>
<path d="M152.342 24.4019H145.949V49.911H152.342V24.4019Z" fill="#1E1B1B"/>
<path d="M179.074 49.7183V50.7125C179.038 52.7349 178.322 54.6847 177.042 56.241C175.763 57.7973 173.997 58.8673 172.035 59.2749H171.755H171.27C170.991 59.2901 170.712 59.2901 170.433 59.2749H9.56728H8.72959H8.25931H7.98008C6.018 58.8673 4.25185 57.7973 2.97234 56.241C1.69284 54.6847 0.976258 52.7349 0.940561 50.7125V49.7183H0V61.8125H180.044V49.7183H179.074Z" fill="#1E1B1B"/>
<path d="M167.361 0.999956H0V13.0793H0.940561V12.0851C0.987241 9.91125 1.8201 7.82978 3.28204 6.23331C4.74398 4.63684 6.73393 3.63573 8.87655 3.41881H9.56728H19.6489V45.3702C19.6473 45.8752 19.5312 46.3731 19.3096 46.8258C19.088 47.2785 18.7667 47.674 18.3703 47.982C17.4384 48.7248 16.2802 49.1181 15.0931 49.0949H11.228V49.9408H43.6626V49.0949H39.7681C38.5814 49.1157 37.4239 48.7226 36.4909 47.982C36.0964 47.6732 35.7773 47.2773 35.5582 46.8245C35.3391 46.3717 35.2258 45.8741 35.227 45.3702V3.38912H170.433C170.727 3.38912 170.991 3.38912 171.27 3.38912H171.755H172.035C173.994 3.79614 175.759 4.86398 177.038 6.41725C178.317 7.97053 179.035 9.9169 179.074 11.9367V12.931H180.044V0.851562L167.361 0.999956Z" fill="#1E1B1B"/>
<path d="M72.7608 46.0083C72.7228 46.8166 72.3748 47.5782 71.7906 48.1321C71.2064 48.686 70.4318 48.9887 69.6305 48.9762H68.8369V49.8221H72.7608V46.0083Z" fill="#1E1B1B"/>
<path d="M93.7471 46.0083C93.7091 46.8166 93.3612 47.5782 92.777 48.1321C92.1928 48.686 91.4181 48.9887 90.6168 48.9762H89.8232V49.8221H93.7471V46.0083Z" fill="#1E1B1B"/>
<path d="M72.7608 18.0804C72.7228 17.2721 72.3748 16.5105 71.7906 15.9566C71.2064 15.4027 70.4318 15.1 69.6305 15.1125H68.8369V14.2666H72.7608V18.0804Z" fill="#1E1B1B"/>
<path d="M93.7471 18.0804C93.7091 17.2721 93.3612 16.5105 92.777 15.9566C92.1928 15.4027 91.4181 15.1 90.6168 15.1125H89.8232V14.2666H93.7471V18.0804Z" fill="#1E1B1B"/>
<path d="M145.948 28.2898C145.91 27.4842 145.564 26.7248 144.983 26.1713C144.402 25.6178 143.631 25.3133 142.833 25.3219H142.039V24.4761H145.948V28.2898Z" fill="#1E1B1B"/>
<path d="M79.1982 46.0083C79.2363 46.8166 79.5842 47.5782 80.1684 48.1321C80.7526 48.686 81.5273 48.9887 82.3285 48.9762H83.1221V49.8221H79.1982V46.0083Z" fill="#1E1B1B"/>
<path d="M95.8047 46.0083C95.8428 46.8166 96.1907 47.5782 96.7749 48.1321C97.3591 48.686 98.1337 48.9887 98.935 48.9762H99.7286V49.8221H95.8047V46.0083Z" fill="#1E1B1B"/>
<path d="M145.948 46.0083C145.91 46.814 145.564 47.5734 144.983 48.1269C144.402 48.6803 143.631 48.9848 142.833 48.9762H142.039V49.8221H145.948V46.0083Z" fill="#1E1B1B"/>
<path d="M152.342 46.0083C152.38 46.8166 152.728 47.5782 153.312 48.1321C153.896 48.686 154.671 48.9887 155.472 48.9762H156.266V49.8221H152.342V46.0083Z" fill="#1E1B1B"/>
<path d="M123.596 46.0083C123.558 46.8166 123.21 47.5782 122.626 48.1321C122.041 48.686 121.267 48.9887 120.465 48.9762H119.672V49.8221H123.596V46.0083Z" fill="#1E1B1B"/>
<path d="M129.974 46.0083C130.012 46.8166 130.36 47.5782 130.944 48.1321C131.528 48.686 132.303 48.9887 133.104 48.9762H133.898V49.8221H129.974V46.0083Z" fill="#1E1B1B"/>
<path d="M129.974 18.0804C130.012 17.2721 130.36 16.5105 130.944 15.9566C131.528 15.4027 132.303 15.1 133.104 15.1125H133.898V14.2666H129.974V18.0804Z" fill="#1E1B1B"/>
<path d="M126.271 14.1924H122.788L113.661 36.4072L102.742 14.1924H93.748V49.9112H95.9672V18.4662L111.266 48.4866L126.271 14.1924Z" fill="#1E1B1B"/>
<path d="M166.289 39.0189C165.716 38.5885 165.128 38.1879 164.613 37.8169C165.142 38.2585 165.702 38.6602 166.289 39.0189Z" fill="#1E1B1B"/>
<path d="M177.208 39.0191C176.667 38.354 176.044 37.7607 175.356 37.2532L175.018 37.0157L172.079 34.9234C171.3 34.3734 170.589 33.7307 169.962 33.0091C163.79 25.6783 176.796 22.3691 178.031 34.5821C178.056 34.6284 178.096 34.6649 178.144 34.6856C178.193 34.7064 178.246 34.7102 178.297 34.6966C178.348 34.6829 178.392 34.6526 178.424 34.6103C178.456 34.568 178.472 34.5163 178.472 34.4633V25.5596L177.987 26.6132C177.935 26.7315 177.858 26.8372 177.762 26.9231C177.666 27.0089 177.553 27.073 177.43 27.111C177.308 27.149 177.179 27.16 177.051 27.1432C176.924 27.1265 176.802 27.0823 176.693 27.0139C166.406 19.5941 157.353 29.5218 162.967 36.4518C163.356 36.9367 163.789 37.3839 164.26 37.7874C164.789 38.1584 165.362 38.5591 165.936 38.9894L168.125 40.4734C168.908 41.0189 169.619 41.6621 170.242 42.3877C176.414 49.7036 163.408 53.0276 162.188 40.7998C162.158 40.7561 162.116 40.723 162.066 40.7051C162.017 40.6873 161.963 40.6856 161.913 40.7004C161.862 40.7152 161.818 40.7457 161.785 40.7875C161.753 40.8293 161.734 40.8804 161.733 40.9334V49.8371L162.217 48.7835C162.27 48.6652 162.346 48.5595 162.442 48.4737C162.538 48.3878 162.651 48.3237 162.774 48.2857C162.896 48.2478 163.026 48.2368 163.153 48.2535C163.28 48.2703 163.402 48.3144 163.511 48.3828C173.872 55.8026 182.836 45.8601 177.193 38.9449" fill="#1E1B1B"/>
</g>
</svg>
