<svg width="20" height="21" viewBox="0 0 20 21" fill="none" xmlns="http://www.w3.org/2000/svg">
<path d="M8.49976 18.6699H6.49976C4.8429 18.6699 3.49976 17.3268 3.49976 15.6699V5.66992C3.49976 4.01307 4.8429 2.66992 6.49976 2.66992H13.4998C15.1566 2.66992 16.4998 4.01307 16.4998 5.66992V8.16992M12.9998 6.66992H6.49976M9.99976 9.66992H6.49976M8.49976 12.6699H6.49976M11.4998 12.9199L12.6581 12.3407C13.5027 11.9184 14.4968 11.9184 15.3414 12.3407L16.4998 12.9199C16.4998 12.9199 16.4998 14.7449 16.4998 15.7074C16.4998 16.6699 15.61 17.3196 13.9998 18.3366C12.3895 17.3196 11.4998 16.4616 11.4998 15.7074V12.9199Z" stroke="#333333" stroke-linecap="round" stroke-linejoin="round"/>
</svg>
